<svg height="512pt" viewBox="0 0 512 512" width="512pt" xmlns="http://www.w3.org/2000/svg"><path d="m0 256c0-141.386719 114.613281-256 256-256s256 114.613281 256 256c0 71.03125-28.929688 135.304688-75.648438 181.683594-46.273437 45.9375-109.996093.816406-180.351562.816406s-134.082031 45.117188-180.355469-.820312c-46.71875-46.378907-75.644531-110.652344-75.644531-181.679688zm0 0" fill="#004eb1"/><path d="m256 438.5c70.355469 0 134.078125 45.121094 180.351562-.816406 46.71875-46.378906 75.648438-110.652344 75.648438-181.683594 0-4.011719-.105469-7.996094-.285156-11.960938l-177.632813-177.800781c-15.097656-16.628906-38.839843-28.796875-76.003906-28.796875-127.734375 0-104.152344 121.191406-104.152344 121.191406l.003907.003907c.121093 1.300781.261718 2.757812.421874 4.332031-9.582031 3.167969-16.058593 12.699219-14.929687 23.113281l1.914063 17.652344c.527343 4.902344 2.667968 9.261719 5.824218 12.613281l32.066406 31.757813c6.449219 11.535156 13.441407 20.890625 20.632813 28.445312l-10.265625 48.449219h-43.960938c-38.648437 0-69.984374 31.332031-69.984374 69.984375v42.695313l.152343.152343c46.261719 45.679688 109.921875.667969 180.199219.667969zm0 0" fill="#002d6b"/><path d="m312.050781 276.117188h-112.101562l-11.09375 52.382812h134.289062zm0 0" fill="#ffc473"/><path d="m323.144531 328.5h-67.144531v-52.386719h56.050781zm0 0" fill="#ffaa20"/><path d="m354.832031 162.21875c-4.125-60.746094-55.929687-95.222656-98.832031-95.222656s-94.707031 34.476562-98.835938 95.222656c-11.097656 2.078125-18.976562 12.453125-17.742187 23.863281l1.914063 17.652344c1.296874 11.972656 12.152343 20.710937 24.128906 19.414063l2.0625-.226563c24.511718 63.808594 64.070312 80.238281 88.472656 83.96875 24.402344-3.730469 63.960938-20.160156 88.472656-83.96875l2.0625.226563c11.976563 1.296874 22.832032-7.441407 24.128906-19.414063l1.914063-17.652344c1.234375-11.410156-6.644531-21.785156-17.746094-23.863281zm0 0" fill="#ffdba9"/><path d="m372.574219 186.082031-1.910157 17.652344c-1.296874 11.972656-12.152343 20.707031-24.125 19.40625l-2.058593-.21875c-24.515625 63.808594-64.074219 80.238281-88.480469 83.972656v-239.894531c42.90625 0 94.707031 34.476562 98.832031 95.21875 11.105469 2.082031 18.980469 12.453125 17.742188 23.863281zm0 0" fill="#ffc473"/><path d="m316.871094 170.5h-60.871094v71.582031h21.625v-51.519531h39.246094zm0 0" fill="#ffaa20"/><path d="m187.960938 170.5h54.601562v20.0625h-54.601562zm0 0" fill="#ffc473"/><path d="m160.25 325v168.46875c29.582031 11.941406 61.894531 18.53125 95.75 18.53125s66.167969-6.589844 95.75-18.53125v-168.46875zm0 0" fill="#ff0335"/><path d="m351.75 325v168.46875c-29.578125 11.941406-61.890625 18.53125-95.75 18.53125v-187zm0 0" fill="#c2001b"/><path d="m297.851562 375.246094h-83.703124l-22.972657 39.257812 64.824219 60.496094 64.824219-60.496094zm0 0" fill="#ffec97"/><path d="m320.820312 414.5-64.820312 60.5v-99.75h41.851562zm0 0" fill="#ffd400"/><path d="m145.632812 325c-38.648437 0-69.984374 31.332031-69.984374 69.984375v42.695313c27.902343 27.695312 62.152343 48.996093 100.371093 61.558593v-174.238281zm0 0" fill="#fff"/><path d="m436.351562 394.984375c0-38.652344-31.335937-69.984375-69.984374-69.984375h-30.386719v174.238281c38.21875-12.5625 72.46875-33.863281 100.371093-61.558593zm0 0" fill="#fff5cb"/><path d="m176.019531 325-36.722656 87.117188 36.722656 87.121093zm0 0" fill="#d9d9db"/><path d="m335.980469 499.238281 36.722656-87.121093-36.722656-87.117188zm0 0" fill="#aeadb3"/><path d="m256 433.316406-20.3125 12.972656 6.0625-23.328124-18.617188-15.308594 24.058594-1.445313 8.808594-22.4375 8.808594 22.4375 24.058594 1.445313-18.617188 15.308594 6.0625 23.328124zm0 0" fill="#49bbee"/><path d="m270.25 422.960938 6.058594 23.328124-20.308594-12.980468v-49.539063l8.808594 22.441407 24.0625 1.4375zm0 0" fill="#00acea"/><path d="m258.078125 37.4375c-127.734375 0-104.152344 121.195312-104.152344 121.195312l.003907.003907c1.105468 12.027343 3.929687 37.273437 9.042968 50.027343h12.800782v-38.84375c2.949218-11.882812 7.503906-21.324218 12.703124-28.820312 16.332032 5.316406 38.820313 9.871094 67.945313 9.871094 29.171875 0 51.683594-4.570313 68.019531-9.894532 5.207032 7.5 9.773438 16.949219 12.726563 28.847657v38.84375h12.796875c5.113281-12.753907 7.9375-38.003907 9.042968-50.03125l.007813-.003907s16.328125-121.195312-100.9375-121.195312zm0 0" fill="#ffec97"/><path d="m359.015625 158.632812h-.011719c-1.101562 12.035157-3.933594 37.277344-9.046875 50.035157h-12.789062v-38.847657c-2.957031-11.898437-7.519531-21.347656-12.726563-28.847656-16.339844 5.324219-38.855468 9.894532-68.019531 9.894532h-.425781v-113.421876c.691406-.007812 1.378906-.007812 2.078125-.007812 117.273437 0 100.941406 121.195312 100.941406 121.195312zm0 0" fill="#ffe047"/></svg>