<svg height="512pt" viewBox="0 0 512 512" width="512pt" xmlns="http://www.w3.org/2000/svg"><path d="m512 256c0 141.386719-114.613281 256-256 256s-256-114.613281-256-256 114.613281-256 256-256 256 114.613281 256 256zm0 0" fill="#005ed3"/><path d="m512 256c0-11.710938-.804688-23.230469-2.324219-34.523438l-127.195312-127.195312-61.957031 27.578125-64.523438-64.925781-43.304688 74.371094-83.175781-37.023438 12.347657 84.140625-91.917969 15.394531 58.886719 58.789063-6.082032 2.128906c-8.304687 2.910156-12.675781 12-9.769531 20.300781l.414063 1.175782-43.449219 41.972656 82.121093 82.160156-2.550781 17.375 91.957031 91.957031c11.292969 1.519531 22.8125 2.324219 34.523438 2.324219 141.386719 0 256-114.613281 256-256zm0 0" fill="#00459f"/><path d="m256 86.742188 37.109375 63.738281 70.574219-31.414063-10.527344 71.71875 77.078125 12.910156-54.144531 52.304688 54.144531 52.304688-77.078125 12.910156 10.527344 71.71875-70.574219-31.414063-37.109375 63.738281-37.109375-63.738281-70.574219 31.414063 10.527344-71.71875-77.078125-12.910156 54.144531-52.304688-54.144531-52.304688 77.078125-12.910156-10.527344-71.71875 70.574219 31.414063zm0 0" fill="#ff0335"/><path d="m430.230469 308.300781-77.070313 12.910157 10.519532 71.71875-70.570313-31.410157-37.109375 63.742188v-338.523438l37.109375 63.742188 70.570313-31.410157-6.757813 46.101563-3.761719 25.617187 58.800782 9.851563 18.269531 3.058594-13.390625 12.929687-40.75 39.371094 11.378906 10.988281zm0 0" fill="#c2001b"/><path d="m256 455.066406-43.304688-74.371094-83.175781 37.023438 12.347657-84.140625-91.917969-15.394531 64.371093-62.183594-64.371093-62.183594 91.917969-15.394531-12.347657-84.140625 83.179688 37.023438 43.300781-74.371094 43.304688 74.371094 83.175781-37.023438-12.347657 84.140625 91.917969 15.394531-64.371093 62.183594 64.371093 62.183594-91.917969 15.398437 12.347657 84.136719-83.175781-37.023438zm-30.917969-112.722656 30.917969 53.101562 30.917969-53.101562 57.964843 25.800781-8.703124-59.292969 62.238281-10.425781-43.917969-42.425781 43.917969-42.425781-62.238281-10.425781 8.703124-59.292969-57.964843 25.800781-30.917969-53.101562-30.917969 53.101562-57.964843-25.800781 8.703124 59.292969-62.238281 10.425781 43.917969 42.425781-43.917969 42.425781 62.238281 10.425781-8.703124 59.292969zm0 0" fill="#ffdf47"/><path d="m403.308594 261.441406-5.628906-5.441406 25.160156-24.300781 39.210937-37.878907-55.75-9.339843-36.171875-6.058594 2.800782-19.09375 9.550781-65.046875-83.179688 37.019531-43.300781-74.371093v59.621093l30.921875 53.109375 57.957031-25.808594-3.910156 26.667969-2.546875 17.378907-2.242187 15.25 2.480468.421874 59.761719 10.007813-43.921875 42.421875 16.96875 16.390625 26.953125 26.03125-62.242187 10.429687 8.699218 59.296876-57.957031-25.808594-30.921875 53.109375v59.621093l43.300781-74.371093 83.179688 37.019531-12.351563-84.140625 91.921875-15.398437zm0 0" fill="#fec000"/><path d="m400.074219 166.699219c-2.910157-8.304688-12-12.679688-20.300781-9.769531l-15.703126 5.5c-1.695312.59375-3.21875 1.457031-4.558593 2.507812-1.703125.015625-3.429688.289062-5.125.882812l-15.703125 5.5c-1.742188.613282-3.296875 1.503907-4.660156 2.59375-.761719.144532-1.515626.34375-2.257813.601563l-17.566406 6.152344c-2.316407.8125-4.351563 2.121093-6.011719 3.78125-2.269531-.222657-4.59375.042969-6.808594.820312l-14.917968 5.226563c-2.527344.886718-4.71875 2.359375-6.449219 4.238281-2.523438-.386719-5.15625-.171875-7.683594.710937l-14.820313 5.191407c-2.234374.785156-4.230468 2.042969-5.875 3.652343-2.347656-.277343-4.777343-.03125-7.113281.789063l-17.464843 6.117187c-4.113282 1.441407-7.410157 4.488282-9.199219 8.375-.371094-.050781-.734375-.105468-1.105469-.148437-7.320312-.792969-14.78125.121094-22.179688 2.710937-7.167968 2.511719-13.449218 6.3125-18.664062 11.296876-4.386719 4.195312-7.96875 8.960937-10.671875 14.191406-.285156-.164063-.570313-.335938-.855469-.492188-4.550781-2.5-9.523437-4.09375-14.789062-4.738281-5.695313-.699219-11.449219-.046875-17.097656 1.929687l-29.734376 10.417969c-8.304687 2.90625-12.679687 11.996094-9.769531 20.300781l24.40625 69.675782c2.910157 8.304687 12 12.679687 20.300781 9.769531l16.09375-5.636719c8.304688-2.910156 12.679688-12 9.769532-20.300781l-2.609375-7.449219c5.199219-1.957031 9.738281-4.832031 13.492187-8.558594.515625-.511718 1.011719-1.035156 1.496094-1.570312 3.570312 3.441406 7.554688 6.359375 11.894531 8.707031 5.972657 3.222657 12.550781 5.242188 19.542969 6 7.316406.796875 14.78125-.117187 22.183594-2.710937 7.203125-2.523438 13.503906-6.363282 18.71875-11.414063 5.003906-4.84375 8.941406-10.414062 11.710937-16.566406 1.320313-2.9375 2.359375-5.980469 3.128907-9.105469l9.367187 10.761719c4.28125 4.917969 11.125 6.730469 17.28125 4.574219l13.542969-4.742188c4.273437-1.496094 7.613281-4.699218 9.347656-8.695312 3.855469 2.042968 8.460938 2.457031 12.734375.960937l13.445313-4.710937c6.148437-2.15625 10.363281-7.832032 10.648437-14.339844l.75-17.207031 3.328125 9.507812c2.910156 8.300781 12 12.675781 20.300781 9.769531l15.703125-5.5c1.695313-.597656 3.21875-1.457031 4.558594-2.511718 1.703125-.011719 3.429688-.289063 5.125-.882813l15.703125-5.5c8.304687-2.910156 12.675781-11.996093 9.769531-20.300781l-5.707031-16.289062c-.707031-2.015626-1.777344-3.800782-3.109375-5.304688.105469-2.003906-.171875-4.066406-.878906-6.082031zm-191.96875 103.421875c-.039063-.792969.039062-1.445313.25-2.066406.089843-.265626.238281-.597657.609375-1.027344.101562-.0625.390625-.226563.960937-.429688.753907-.261718 1.039063-.261718 1.03125-.257812.445313.058594.78125.175781 1.117188.382812.519531.316406.972656.75 1.425781 1.363282.710938.957031 1.257812 1.988281 1.664062 3.15625.40625 1.160156.632813 2.332031.691407 3.574218.042969.882813-.046875 1.65625-.273438 2.367188-.074219.230468-.199219.523437-.558593.933594-.085938.058593-.359376.21875-.917969.414062-.59375.210938-.941407.242188-1.015625.242188-.519532-.074219-.777344-.203126-.992188-.34375-.589844-.375-1.125-.894532-1.640625-1.582032-.707031-.953125-1.25-1.984375-1.660156-3.15625-.410156-1.164062-.636719-2.332031-.691406-3.570312zm0 0" fill="#57555c"/><path d="m424.71875 237.058594-1.878906-5.359375-3.828125-10.929688c-.53125-1.519531-1.273438-2.910156-2.171875-4.140625-.289063-.398437-.601563-.789062-.929688-1.160156.101563-2.007812-.179687-4.070312-.878906-6.078125l-3.070312-8.75-5.660157-16.160156-6.230469-17.78125c-2.898437-8.308594-11.992187-12.679688-20.300781-9.769531l-6.839843 2.398437-8.859376 3.101563c-1.699218.589843-3.21875 1.460937-4.558593 2.511718-.863281.007813-1.730469.078125-2.589844.230469-.851563.136719-1.691406.359375-2.53125.648437l-13.421875 4.699219-2.289062.800781c-1.738282.609376-3.289063 1.507813-4.660157 2.589844-.757812.148438-1.507812.351563-2.257812.609375l-17.5625 6.152344c-2.320313.808594-4.347657 2.117187-6.007813 3.777344-2.269531-.21875-4.601562.050781-6.8125.820312l-14.917968 5.230469c-2.53125.878906-4.722657 2.359375-6.449219 4.238281-2.523438-.386719-5.160157-.179687-7.683594.710938l-14.816406 5.191406c-.523438.179687-1.023438.390625-1.511719.621094v100.976562c1.53125-2.316406 2.851562-4.738281 3.988281-7.257812 1.320313-2.941407 2.363281-5.980469 3.132813-9.101563l9.359375 10.761719c4.28125 4.917969 11.128906 6.730469 17.28125 4.570313l13.546875-4.742188c4.269531-1.5 7.613281-4.699219 9.351562-8.699219 3.851563 2.050781 8.460938 2.460938 12.730469.96875l13.4375-4.707031c6.152344-2.160156 10.371094-7.839844 10.652344-14.339844l.75-17.210937 3.328125 9.507812c2.632812 7.511719 10.320312 11.800781 17.910156 10.402344.800781-.140625 1.601562-.351563 2.390625-.628906l13.609375-4.773438 2.101562-.726562c1.691407-.601563 3.210938-1.460938 4.550782-2.511719 1.707031-.019531 3.429687-.289062 5.128906-.890625l4.058594-1.417969 11.640625-4.082031c8.3125-2.910156 12.679687-11.988281 9.769531-20.300781zm0 0" fill="#2a2a2c"/><g fill="#fff"><path d="m128.652344 341.9375-25.132813-71.757812 30.621094-10.726563c3.4375-1.203125 6.835937-1.597656 10.195313-1.1875 3.359374.414063 6.464843 1.40625 9.324218 2.972656 2.855469 1.574219 5.382813 3.601563 7.578125 6.085938 2.191407 2.484375 3.808594 5.207031 4.847657 8.171875 1.109374 3.167968 1.613281 6.394531 1.519531 9.679687-.097657 3.289063-.742188 6.425781-1.925781 9.410157-1.183594 2.988281-2.957032 5.652343-5.3125 7.988281-2.359376 2.339843-5.257813 4.109375-8.691407 5.316406l-14.554687 5.097656 8.105468 23.144531zm3.40625-43.402344 13.542968-4.746094c1.953126-.683593 3.34375-2.113281 4.167969-4.296874.824219-2.175782.671875-4.886719-.460937-8.121094-.589844-1.679688-1.316406-3.054688-2.179688-4.113282-.863281-1.058593-1.808594-1.863281-2.832031-2.414062-1.023437-.546875-2.070313-.839844-3.144531-.882812-1.074219-.039063-2.082032.105468-3.023438.433593l-12.9375 4.53125zm0 0"/><path d="m223.261719 309.480469c-5.324219 1.863281-10.542969 2.519531-15.652344 1.964843-5.113281-.554687-9.8125-1.992187-14.105469-4.308593-4.289062-2.316407-8.0625-5.363281-11.3125-9.140625-3.253906-3.777344-5.695312-7.992188-7.320312-12.640625-1.652344-4.714844-2.355469-9.574219-2.101563-14.582031.25-5.003907 1.390625-9.734376 3.425781-14.191407 2.03125-4.453125 4.886719-8.445312 8.570313-11.964843 3.683594-3.519532 8.121094-6.191407 13.308594-8.011719 5.320312-1.863281 10.539062-2.515625 15.648437-1.960938 5.113282.554688 9.820313 2.003907 14.121094 4.355469 4.304688 2.351562 8.0625 5.421875 11.285156 9.210938 3.214844 3.792968 5.617188 7.941406 7.199219 12.457031 1.652344 4.714843 2.351563 9.578125 2.101563 14.582031-.253907 5.003906-1.378907 9.730469-3.375 14.171875-2 4.445313-4.835938 8.445313-8.507813 12-3.667969 3.554687-8.097656 6.242187-13.285156 8.058594zm-31.441407-29.835938c.964844 2.765625 2.308594 5.300781 4.027344 7.609375 1.714844 2.3125 3.71875 4.199219 6.011719 5.667969 2.289063 1.464844 4.828125 2.394531 7.609375 2.777344 2.785156.390625 5.691406.050781 8.722656-1.011719 3.167969-1.109375 5.707032-2.714844 7.617188-4.824219 1.90625-2.101562 3.277344-4.457031 4.109375-7.054687.828125-2.597656 1.175781-5.328125 1.042969-8.195313-.132813-2.863281-.671876-5.644531-1.617188-8.339843-.964844-2.761719-2.308594-5.300782-4.027344-7.609376-1.714844-2.3125-3.730468-4.175781-6.046875-5.597656-2.308593-1.421875-4.835937-2.3125-7.574219-2.679687-2.738281-.363281-5.621093-.015625-8.65625 1.046875-3.167968 1.109375-5.691406 2.695312-7.582031 4.753906-1.886719 2.0625-3.269531 4.378906-4.144531 6.957031-.875 2.574219-1.246094 5.296875-1.113281 8.160157.136719 2.867187.675781 5.644531 1.621093 8.339843zm0 0"/><path d="m262.890625 214.46875 15.261719-5.347656 15.3125 20.394531-.757813-25.492187 15.363281-5.378907-.34375 37.566407 14.035157 16.753906-.488281-59.058594 18.089843-6.335938-3.566406 81.808594-13.847656 4.851563-21.261719-24.097657-1.476562 32.0625-13.949219 4.882813-53.734375-61.734375 17.988281-6.304688 36.570313 46.421876.3125-21.78125zm0 0"/></g><path d="m338.421875 187.898438-17.152344 6.011718.492188 59.050782-14.03125-16.75.339843-37.570313-15.359374 5.390625.757812 25.488281-15.320312-20.398437-15.257813 5.347656 23.507813 29.210938-.308594 21.78125-30.089844-38.191407v26.191407l29.261719 33.617187 13.949219-4.878906 1.480468-32.070313 21.257813 24.101563 13.851562-4.851563 2.859375-65.808594.699219-16zm0 0" fill="#fff5cb"/><path d="m361.890625 228.242188-15.402344-43.964844 16.171875-5.664063 15.398438 43.964844zm9.980469 28.5-5.875-16.777344 16.167968-5.664063 5.878907 16.777344zm0 0" fill="#fff5cb"/><path d="m388.035156 219.085938-15.398437-43.964844 16.167969-5.664063 15.402343 43.964844zm9.984375 28.5-5.878906-16.777344 16.171875-5.664063 5.875 16.777344zm0 0" fill="#fff5cb"/></svg>