<svg height="512pt" viewBox="0 0 512 512" width="512pt" xmlns="http://www.w3.org/2000/svg"><path d="m512 256c0 141.386719-114.613281 256-256 256s-256-114.613281-256-256 114.613281-256 256-256 256 114.613281 256 256zm0 0" fill="#ffec97"/><path d="m512 256c0-7.167969-.308594-14.261719-.886719-21.277344l-131.15625-131.15625-80.558593-64.167968-125.101563 35.832031-35.933594 66.984375-49.351562 13.105468-16.890625 74.484376 124.285156 127.945312v74.25l16.214844 16.1875v23.339844l40.433594 40.4375c.980468.007812 1.960937.035156 2.945312.035156 141.386719 0 256-114.613281 256-256zm0 0" fill="#ffe047"/><path d="m311.59375 432h-115.1875v-99.679688c0-14.289062 11.582031-25.871093 25.871094-25.871093h63.445312c14.289063 0 25.871094 11.582031 25.871094 25.871093zm0 0" fill="#ff3c62"/><path d="m311.601562 332.320312v99.679688h-57.601562v-125.550781h31.71875c9.820312 0 18.371094 5.472656 22.761719 13.539062 1.988281 3.671875 3.121093 7.871094 3.121093 12.332031zm0 0" fill="#c2001b"/><path d="m330.789062 229.085938h-30v55.558593l-20.875 21.804688h-17.402343c14.875-3.789063 25.878906-17.273438 25.878906-33.328125 0-18.992188-15.398437-34.390625-34.390625-34.390625s-34.390625 15.398437-34.390625 34.390625c0 16.054687 11.003906 29.539062 25.878906 33.328125h-17.402343l-20.878907-21.804688v-55.554687h-30v67.601562l35.410157 36.984375v137.851563h30v-71.625h22.761718v71.625h30v-137.851563l35.410156-36.984375zm0 0" fill="#004eb1"/><path d="m330.789062 229.089844v67.601562l-22.308593 23.296875-13.101563 13.683594v137.859375h-30v-71.632812h-11.378906v-161.167969c18.988281 0 34.390625 15.398437 34.390625 34.390625 0 16.058594-11 29.539062-25.878906 33.328125h17.410156l20.867187-21.800781v-55.558594zm0 0" fill="#002d6b"/><path d="m72.121094 229.804688 16.890625-74.484376 49.351562-13.105468 35.933594-66.984375 125.101563-35.832031 80.558593 64.167968 37.148438 78.332032v47.90625zm0 0" fill="#c8c6cc"/><path d="m417.109375 181.898438v47.902343h-163.109375v-177.402343l45.398438-13 80.5625 64.160156zm0 0" fill="#aeadb3"/><path d="m174.296875 75.230469v120.902343l-35.933594-53.917968zm0 0" fill="#aeadb3"/><path d="m299.398438 39.398438 54.480468 107.140624 26.078125-42.972656zm0 0" fill="#8b8992"/><path d="m89.011719 155.320312 26.53125 74.484376h-43.421875zm0 0" fill="#aeadb3"/><path d="m417.105469 181.898438-43.335938 47.90625h43.335938zm0 0" fill="#8b8992"/></svg>