<svg height="512pt" viewBox="0 0 512 512" width="512pt" xmlns="http://www.w3.org/2000/svg"><path d="m512 256c0 141.386719-114.613281 256-256 256s-256-114.613281-256-256 114.613281-256 256-256 256 114.613281 256 256zm0 0" fill="#d9d9db"/><path d="m512 256c0-10.375-.632812-20.597656-1.832031-30.648438l-124.289063-124.289062c-37.109375-40.355469-92.371094-56.050781-129.855468-56.0625-.007813 0-.015626 0-.023438 0s-.015625 0-.019531 0c-65.597657.019531-185.664063 48.027344-167.558594 192.269531 9.476563 75.511719 48.222656 143.902344 92.59375 186.058594l88.328125 88.328125c135.183594-6.941406 242.65625-118.75 242.65625-255.65625zm0 0" fill="#c8c6cc"/><path d="m256.023438 45c-.007813 0-.015626 0-.023438 0s-.015625 0-.019531 0c-65.597657.019531-185.664063 48.027344-167.558594 192.269531 14.734375 117.378907 100.175781 217.558594 167.566406 228.730469v.003906h.011719.011719v-.003906c67.390625-11.171875 152.832031-111.351562 167.566406-228.730469 18.105469-144.242187-101.960937-192.25-167.554687-192.269531zm0 0" fill="#ff0335"/><path d="m423.578125 237.269531c-7.359375 58.691407-32.40625 113.082031-64.039063 154.191407-31.617187 41.117187-69.839843 68.960937-103.527343 74.539062h-.011719v-421h.019531c65.601563.019531 185.660157 48.03125 167.558594 192.269531zm0 0" fill="#c2001b"/><path d="m319.671875 293.746094v70.628906h-127.34375v-70.628906l-105.601563-77.675782c.230469 6.828126.777344 13.882813 1.695313 21.199219 10.277344 81.867188 54.949219 155.359375 103.90625 196.128907v-37.1875h127.34375v37.1875c48.957031-40.769532 93.628906-114.261719 103.90625-196.128907.917969-7.316406 1.460937-14.371093 1.695313-21.199219zm0 0" fill="#c0001b"/><path d="m425.269531 216.070312c-.230469 6.828126-.769531 13.878907-1.691406 21.199219-10.277344 81.871094-54.949219 155.359375-103.90625 196.128907v-37.1875h-63.671875v-31.839844h63.671875v-70.621094zm0 0" fill="#860010"/><path d="m256 157.070312c17.664062-44.519531 69.578125-69.511718 100.632812-80.859374-33.28125-22.113282-72.09375-31.203126-100.613281-31.210938-.003906 0-.011719 0-.019531 0s-.015625 0-.019531 0c-28.519531.007812-67.332031 9.09375-100.613281 31.210938 31.054687 11.347656 82.96875 36.335937 100.632812 80.859374zm0 0" fill="#c0001b"/><path d="m356.628906 76.210938c-31.050781 11.347656-82.96875 36.339843-100.628906 80.859374v-112.070312h.019531c28.519531.011719 67.332031 9.101562 100.609375 31.210938zm0 0" fill="#860010"/><path d="m235.808594 240.371094c-.054688-.210938-14.832032-32.90625-45.808594-43.980469-30.976562-11.070313-63.316406 4.988281-63.316406 4.988281l.183594.066406c.054687.210938 16.613281 33.542969 45.8125 43.980469 29.195312 10.433594 63.3125-4.988281 63.3125-4.988281zm0 0" fill="#ffdf47"/><path d="m220.085938 235.074219c-.035157-.132813-9.179688-20.363281-28.347657-27.214844-19.167969-6.847656-39.175781 3.085937-39.175781 3.085937l.113281.039063c.035157.132813 10.277344 20.757813 28.34375 27.214844 18.066407 6.457031 39.175781-3.085938 39.175781-3.085938zm0 0" fill="#fff"/><path d="m276.191406 240.371094c.054688-.210938 14.832032-32.90625 45.808594-43.980469 30.976562-11.070313 63.316406 4.988281 63.316406 4.988281l-.183594.066406c-.054687.210938-16.613281 33.542969-45.8125 43.980469-29.195312 10.433594-63.3125-4.988281-63.3125-4.988281zm0 0" fill="#fec000"/><path d="m291.914062 235.074219c.035157-.132813 9.179688-20.363281 28.347657-27.214844 19.167969-6.847656 39.175781 3.085937 39.175781 3.085937l-.113281.039063c-.035157.132813-10.277344 20.757813-28.34375 27.214844-18.066407 6.457031-39.175781-3.085938-39.175781-3.085938zm0 0" fill="#fff5cb"/><path d="m142.144531 85.96875c-13.238281 10.820312-25.113281 24.042969-34.453125 39.957031 87.375 4.214844 140.234375 44.5 140.234375 44.5-19.171875-44.796875-72.550781-71.613281-105.78125-84.457031zm0 0" fill="#c0001b"/><path d="m264.074219 170.425781s52.859375-40.285156 140.234375-44.5c-9.339844-15.914062-21.214844-29.136719-34.457032-39.957031-33.226562 12.84375-86.605468 39.660156-105.777343 84.457031zm0 0" fill="#860010"/></svg>