<svg height="512pt" viewBox="0 0 512 512.001" width="512pt" xmlns="http://www.w3.org/2000/svg"><path d="m512 256c0 141.386719-114.613281 256-256 256-141.382812 0-256-114.613281-256-256s114.617188-256 256-256c141.386719 0 256 114.613281 256 256zm0 0" fill="#ffdf47"/><path d="m512 256c0-4.835938-.148438-9.636719-.410156-14.410156l-46.589844-46.585938h-117.554688l-22.710937-23.234375h-137.46875l-14.484375 23.234375h-125.78125v121.75l194.851562 194.851563c4.6875.253906 9.402344.394531 14.148438.394531 141.386719 0 256-114.613281 256-256zm0 0" fill="#fdc000"/><path d="m47 195.003906h418v121.75h-418zm0 0" fill="#ff0335"/><path d="m256 195h209v121.75h-209zm0 0" fill="#c2001b"/><path d="m90.332031 195.003906h30v121.75h-30zm0 0" fill="#7fc8f1"/><path d="m391.667969 195.003906h30v121.75h-30zm0 0" fill="#00acea"/><path d="m324.734375 171.769531h-137.46875l-37.722656 60.511719 106.457031 107.949219 106.460938-107.949219zm0 0" fill="#7fc8f1"/><path d="m362.460938 232.28125-83.300782 84.46875-23.160156 23.480469v-168.460938h68.730469l14.480469 23.230469zm0 0" fill="#00acea"/><path d="m307.292969 190.003906h-102.585938l-28.15625 43.28125 79.449219 77.210938 79.449219-77.210938zm0 0" fill="#005ed3"/><path d="m335.449219 233.28125-79.449219 77.21875v-120.5h51.289062l3.25 5zm0 0" fill="#002d6b"/><path d="m130 255.878906c0 13.621094-11.042969 24.667969-24.667969 24.667969-13.621093 0-24.664062-11.046875-24.664062-24.667969 0-13.625 11.042969-24.667968 24.664062-24.667968 13.625 0 24.667969 11.042968 24.667969 24.667968zm0 0" fill="#ffec97"/><path d="m431.335938 255.878906c0 13.621094-11.046876 24.667969-24.667969 24.667969-13.625 0-24.667969-11.046875-24.667969-24.667969 0-13.625 11.042969-24.667968 24.667969-24.667968 13.621093 0 24.667969 11.042968 24.667969 24.667968zm0 0" fill="#ffec97"/><path d="m248.988281 203.808594h14.023438l24.542969 67.28125h-15.917969l-5.210938-15.066406h-20.941406l-5.117187 15.066406h-15.921876zm14.878907 41.503906-7.867188-23.785156-8.054688 23.785156zm0 0" fill="#fff5cb"/><path d="m263.011719 203.808594h-7.011719v17.722656l7.871094 23.777344h-7.871094v10.710937h10.421875l5.21875 15.070313h15.910156zm0 0" fill="#ffe670"/></svg>