<svg height="512pt" viewBox="0 0 512 512" width="512pt" xmlns="http://www.w3.org/2000/svg"><path d="m0 256c0-141.386719 114.613281-256 256-256 51.488281 0 99.429688 15.199219 139.574219 41.359375 21.492187 14.007813 19.332031 38.253906 35.703125 57.890625 10.78125 12.925781 41.730468 19.828125 49.824218 34.726562 19.707032 36.273438 30.898438 77.839844 30.898438 122.023438 0 141.386719-114.613281 256-256 256-51.488281 0-99.425781-15.199219-139.570312-41.355469-17.3125-11.28125-22.324219-36.628906-36.398438-51.644531-15.03125-16.035156-38.871094-21.984375-49.40625-41.476562-19.535156-36.15625-30.625-77.542969-30.625-121.523438zm0 0" fill="#ffdf47"/><path d="m481.101562 133.976562c-8.09375-14.898437-39.042968-21.800781-49.820312-34.726562-16.375-19.636719-14.210938-43.882812-35.703125-57.890625h-.003906-.003907l-56.097656 27.390625 2.25 4.613281c-10.367187 4.96875-14.890625 5.4375-37.582031-1.035156-20.308594-5.777344-41.429687 4.03125-59.609375 13.050781l-98.832031 49.011719c-14.6875 7.300781-21.339844 23.789063-14.859375 36.878906.441406.871094.921875 1.730469 1.449218 2.53125.792969 1.195313 1.679688 2.304688 2.65625 3.324219l39.917969 39.917969c-.753906.746093-1.507812 1.511719-2.261719 2.289062-.027343.027344-.054687.058594-.085937.085938-.699219.722656-1.398437 1.457031-2.097656 2.207031-.085938.09375-.175781.1875-.265625.28125-.636719.683594-2.183594 2.390625-2.320313 2.539062-.75.839844-1.5 1.691407-2.253906 2.566407l20.324219 20.367187c-.078125.894532-.144532 1.800782-.1875 2.707032 0 0-.03125 1.175781-.042969 1.691406-.007813.335937-.019531.71875-.027344 1.136718-.003906.195313-.011719.675782-.011719.726563-.101562 9.53125 1.375 35.859375 26.039063 65.484375l-27.164063 14.214844c-8.28125-2.546875-14.605468-4.496094-15.925781-4.910156-7.078125-2.167969-15.660156-5.859376-24.148437-1.648438-.597656.292969-9.472656 4.625-23.234375 11.347656l-1.90625-3.910156-88.660157 43.300781c0 .003907 0 .011719.003907.015625 10.535156 19.484375 34.367187 25.433594 49.394531 41.464844 14.074219 15.015625 19.085938 40.363281 36.398438 51.644531 40.144531 26.15625 88.082031 41.355469 139.570312 41.355469 141.386719 0 256-114.613281 256-256 0-44.183594-11.191406-85.75-30.898438-122.023438zm0 0" fill="#fdc000"/><path d="m346.425781 244.621094s-7.445312 6.730468-16.648437 12.886718c.074218-1.328124.117187-2.667968.117187-4.015624 0-8.863282-1.605469-17.351563-4.53125-25.195313l.011719.007813c-1.378906-3.277344-11.652344-46.5-76.136719-69.222657 0 0 9.359375 10.902344 15.828125 22.644531-2.402344-.242187-4.839844-.367187-7.304687-.367187-3.554688.089844-47.535157-6.128906-92.183594 45.648437 0 0 14.4375-5.050781 28.117187-6.648437-4.648437 8.972656-7.480468 19.042969-7.980468 29.726563 0 0-.03125 1.171874-.042969 1.6875-.007813.339843-.019531.71875-.027344 1.140624-.003906.195313-.011719.675782-.011719.726563-.125 11.78125 2.125 49.226563 47.664063 86.851563 0 0-3.835937-10.261719-6.15625-21.683594 9.296875 4.367187 19.671875 6.820312 30.621094 6.820312 7.960937 0 15.613281-1.3125 22.773437-3.691406l-.015625.027344c.082031-.039063.199219-.085938.335938-.136719 2.992187-1.011719 5.902343-2.203125 8.703125-3.582031 14.144531-6.84375 41.179687-25.226563 56.867187-73.625zm0 0" fill="#00acea"/><path d="m346.421875 244.621094c-15.683594 48.398437-42.722656 66.777344-56.863281 73.628906-2.808594 1.371094-5.707032 2.570312-8.707032 3.578125-.132812.050781-.25.101563-.332031.132813l.011719-.019532c-7.160156 2.378906-14.8125 3.6875-22.769531 3.6875-.589844 0-1.171875-.007812-1.761719-.027344v-144.320312c.859375.046875 1.460938.089844 1.761719.078125 2.46875 0 4.898437.128906 7.308593.371094-2.808593-5.109375-6.171874-10.058594-9.070312-14.019531v-6.089844c58.449219 23.238281 68.050781 63.527344 69.371094 66.6875 2.917968 7.839844 4.519531 16.320312 4.519531 25.179687 0 1.351563-.039063 2.691407-.109375 4.023438 9.199219-6.160157 16.640625-12.890625 16.640625-12.890625zm0 0" fill="#0082d1"/><path d="m284.832031 217.460938s-.242187 4.792968-1.269531 9.988281c-.425781-.476563-.863281-.941407-1.320312-1.398438-2.996094-2.996093-6.410157-5.324219-10.054688-6.988281h.007812c-1.574218-.644531-19.664062-11.785156-49.15625 2.339844 0 0 6.851563.519531 13.011719 2.304687-.894531.730469-1.761719 1.511719-2.597656 2.34375-1.171875 1.234375-18.148437 14.003907-15.734375 46.613281 0 0 3.171875-6.589843 7.257812-11.757812 1.460938 4.609375 3.910157 8.972656 7.355469 12.753906 0 0 .386719.40625.554688.585938.113281.117187.238281.25.378906.394531.0625.066406.222656.230469.238281.246094 3.945313 4.027343 17.367188 15.933593 45.492188 13.253906 0 0-4.769532-2.171875-9.417969-5.25 4.621094-1.667969 8.960937-4.347656 12.664063-8.050781 2.691406-2.691406 4.835937-5.722656 6.453124-8.949219l.003907.015625c.015625-.042969.039062-.097656.066406-.160156.671875-1.355469 1.25-2.742188 1.730469-4.15625 2.472656-7.097656 5.398437-22.457032-5.664063-44.128906zm0 0" fill="#a3d9f6"/><path d="m290.5 261.589844c-.480469 1.410156-1.058594 2.800781-1.730469 4.148437-.03125.070313-.050781.121094-.070312.171875v-.019531c-1.621094 3.230469-3.757813 6.257813-6.460938 8.949219-3.699219 3.699218-8.039062 6.378906-12.660156 8.050781 4.652344 3.078125 9.421875 5.25 9.421875 5.25-9.171875.871094-16.769531.199219-23-1.25v-72.421875c9.648438.832031 15.308594 4.230469 16.191406 4.589844 3.636719 1.671875 7.058594 3.992187 10.046875 6.992187.460938.460938.902344.917969 1.320313 1.398438 1.03125-5.199219 1.269531-9.988281 1.269531-9.988281 11.070313 21.667968 8.140625 37.027343 5.671875 44.128906zm0 0" fill="#7fc8f1"/><path d="m366.300781 377.609375-98.832031 49.011719c-18.167969 9.019531-39.296875 18.828125-59.597656 13.050781-25.472656-7.261719-28.042969-5.792969-41.691406.976563l-54.710938 26.671874c-21.640625-14.832031-40.898438-32.898437-57.046875-53.511718-3.59375-4.570313-7.03125-9.277344-10.300781-14.097656l103.410156-50.640626c1.769531-.871093 3.757812-1.070312 5.539062-.511718l92.007813 27.953125c1.582031.476562 3.34375.378906 4.941406-.261719.199219-.078125.402344-.160156.601563-.261719l92.1875-45.738281c13.710937-6.800781 29.5625-3.171875 36.902344 7.949219.527343.800781 1.007812 1.660156 1.449218 2.53125 6.480469 13.089843-.160156 29.578125-14.859375 36.878906zm0 0" fill="#703700"/><path d="m250.621094 374.820312c-.179688.488282-.382813.96875-.601563 1.429688-4.507812 9.480469-17.699219 14.019531-27.808593 10.890625 0 0-22.472657-6.949219-22.570313-6.980469l-46.8125-14.511718-98.40625 48.160156c-3.59375-4.570313-7.03125-9.277344-10.300781-14.097656-4.042969-5.941407-7.832032-12.0625-11.359375-18.339844 53.527343-26.210938 110.128906-53.832032 111.667969-54.589844 8.492187-4.210938 17.070312-.519531 24.148437 1.648438 4.511719 1.410156 67.460937 20.761718 67.460937 20.761718 4.972657 1.539063 9.3125 4.957032 12.132813 9.238282 3.207031 4.878906 4.476563 10.839843 2.449219 16.390624zm0 0" fill="#c06100"/><path d="m172.53125 443.25-56.101562 27.390625c-35.800782-23.332031-65.398438-55.371094-85.800782-93.121094l88.660156-43.300781zm0 0" fill="#004eb1"/><path d="m172.53125 443.25-56.101562 27.390625c-23.691407-15.441406-44.667969-34.691406-62.070313-56.890625l83.789063-40.921875zm0 0" fill="#002d6b"/><path d="m467.890625 112.289062-103.421875 50.640626c-1.769531.871093-3.757812 1.070312-5.539062.511718l-92.007813-27.953125c-1.78125-.539062-3.78125-.347656-5.53125.523438l-92.199219 45.738281c-13.710937 6.800781-29.5625 3.171875-36.902344-7.949219-.527343-.800781-1.007812-1.660156-1.449218-2.53125-6.480469-13.089843.171875-29.578125 14.859375-36.878906l98.832031-49.011719c18.179688-9.019531 39.296875-18.828125 59.609375-13.050781 25.460937 7.261719 28.039063 5.792969 41.679687-.976563l54.710938-26.671874c21.667969 14.839843 40.929688 32.929687 57.109375 53.570312 3.578125 4.558594 6.988281 9.238281 10.25 14.039062zm0 0" fill="#c06100"/><path d="m479.238281 130.628906c-53.527343 26.210938-110.128906 53.832032-111.667969 54.589844-8.492187 4.210938-17.070312.519531-24.140624-1.648438-4.519532-1.410156-67.46875-20.761718-67.46875-20.761718-4.972657-1.539063-9.3125-4.957032-12.132813-9.238282-3.207031-4.878906-4.46875-10.839843-2.4375-16.390624 3.800781-10.441407 17.789063-15.601563 28.398437-12.320313 0 0 22.472657 6.949219 22.582032 6.980469l46.800781 14.511718 98.417969-48.160156c.019531.019532.03125.039063.050781.058594 3.578125 4.558594 6.988281 9.238281 10.25 14.039062 4.039063 5.929688 7.828125 12.050782 11.347656 18.339844zm0 0" fill="#703700"/><path d="m481.378906 134.480469-88.667968 43.300781-53.242188-109.03125 56.101562-27.390625c23.699219 15.441406 44.667969 34.691406 62.070313 56.890625 8.890625 11.339844 16.839844 23.460938 23.738281 36.230469zm0 0" fill="#002d6b"/><path d="m457.640625 98.25-83.789063 40.921875-34.382812-70.421875 56.101562-27.390625c23.699219 15.441406 44.667969 34.691406 62.070313 56.890625zm0 0" fill="#004eb1"/></svg>