<svg height="512pt" viewBox="0 0 512 512" width="512pt" xmlns="http://www.w3.org/2000/svg"><path d="m512 256c0 141.386719-114.613281 256-256 256s-256-114.613281-256-256 114.613281-256 256-256 256 114.613281 256 256zm0 0" fill="#7fc8f1"/><path d="m509.675781 221.476562-127.195312-127.195312-61.957031 27.578125-64.523438-64.925781-43.304688 74.371094-83.175781-37.023438 12.347657 84.140625-91.917969 15.394531 49.992187 48.292969 3.863282 24.046875-53.855469 52.027344 82.121093 82.160156-2.550781 17.375 91.957031 91.957031c11.292969 1.519531 22.8125 2.324219 34.523438 2.324219 141.386719 0 256-114.613281 256-256 0-11.710938-.804688-23.230469-2.324219-34.523438zm0 0" fill="#00acea"/><path d="m256 86.742188 37.109375 63.738281 70.574219-31.414063-10.527344 71.71875 77.078125 12.910156-54.144531 52.304688 54.144531 52.304688-77.078125 12.910156 10.527344 71.71875-70.574219-31.414063-37.109375 63.738281-37.109375-63.738281-70.574219 31.414063 10.527344-71.71875-77.078125-12.910156 54.144531-52.304688-54.144531-52.304688 77.078125-12.910156-10.527344-71.71875 70.574219 31.414063zm0 0" fill="#005fd2"/><path d="m430.230469 308.300781-77.070313 12.910157 10.519532 71.71875-70.570313-31.410157-37.109375 63.742188v-338.523438l37.109375 63.742188 70.570313-31.410157-6.757813 46.101563-3.761719 25.617187 58.800782 9.851563 18.269531 3.058594-13.390625 12.929687-40.75 39.371094 11.378906 10.988281zm0 0" fill="#003d8d"/><path d="m256 455.066406-43.304688-74.371094-83.175781 37.023438 12.347657-84.140625-91.917969-15.394531 64.371093-62.183594-64.371093-62.183594 91.917969-15.394531-12.347657-84.140625 83.175781 37.023438 43.304688-74.371094 43.304688 74.371094 83.175781-37.023438-12.347657 84.140625 91.917969 15.394531-64.371093 62.183594 64.371093 62.183594-91.917969 15.398437 12.347657 84.136719-83.179688-37.023438zm-30.917969-112.722656 30.917969 53.101562 30.917969-53.101562 57.964843 25.800781-8.703124-59.292969 62.238281-10.425781-43.917969-42.425781 43.917969-42.425781-62.238281-10.425781 8.703124-59.292969-57.964843 25.800781-30.917969-53.101562-30.917969 53.101562-57.964843-25.800781 8.703124 59.292969-62.238281 10.425781 43.917969 42.425781-43.917969 42.425781 62.238281 10.425781-8.703124 59.292969zm0 0" fill="#ffdf47"/><path d="m403.308594 261.441406-5.628906-5.441406 25.160156-24.300781 39.210937-37.878907-55.75-9.339843-36.171875-6.058594 2.800782-19.09375 9.550781-65.046875-83.179688 37.019531-43.300781-74.371093v59.621093l30.921875 53.109375 57.957031-25.808594-3.910156 26.667969-2.546875 17.378907-2.242187 15.25 2.480468.421874 59.761719 10.007813-43.921875 42.421875 16.96875 16.390625 26.953125 26.03125-62.242187 10.429687 8.699218 59.296876-57.957031-25.808594-30.921875 53.109375v59.621093l43.300781-74.371093 83.179688 37.019531-12.351563-84.140625 91.921875-15.398437zm0 0" fill="#fec000"/><path d="m347.027344 183.582031.125.789063-23.167969 3.71875c-4.957031.796875-9.042969 4.332031-10.542969 9.125l-4.992187 15.953125-9.683594-13.570313c-2.921875-4.097656-7.914063-6.1875-12.886719-5.386718l-25.023437 4.019531c-7.027344 1.125-11.808594 7.738281-10.679688 14.761719l2.382813 14.835937-10.085938-18.070313c-2.636718-4.726562-7.949218-7.300781-13.296875-6.441406l-21.160156 3.398438c-5.34375.855468-9.585937 4.964844-10.609375 10.28125l-3.394531 17.585937c-.210938-.429687-.429688-.855469-.660157-1.277343-2.15625-3.949219-4.917968-7.421876-8.203124-10.320313-3.46875-3.054687-7.480469-5.382813-11.941407-6.914063-4.96875-1.703124-10.222656-2.125-15.625-1.257812l-44.867187 7.203125c-8.613282 1.382813-14.476563 9.488281-13.09375 18.105469l12.960937 80.707031c1.382813 8.613281 9.488281 14.476563 18.101563 13.09375l39.339844-6.316406c2.15625-.347657 4.253906-.824219 6.3125-1.378907l-.074219.378907 43.984375-7.066407c5.449218-.875 9.734375-5.121093 10.660156-10.5625l1.664062-9.808593 2.183594-.351563 4.746094 8.847656c2.597656 4.839844 7.976562 7.503907 13.398438 6.632813l50.445312-8.101563c7.226562-1.160156 12.140625-7.957031 10.980469-15.183593l12.828125-2.058594c1.160156 7.226563 7.960937 12.140625 15.183594 10.980469l59.578124-9.566406c7.222657-1.160157 12.140626-7.957032 10.980469-15.183594l-13.894531-86.53125c-1.160156-7.222656-7.957031-12.140625-15.183594-10.980469zm0 0" fill="#ff0335"/><path d="m401.921875 290.371094-59.582031 9.570312c-.710938.109375-1.417969.167969-2.109375.167969-6.390625 0-12.019531-4.640625-13.070313-11.160156l-12.832031 2.0625c1.160156 7.226562-3.757813 14.027343-10.976563 15.1875l-47.351562 7.601562v-113.742187c1.429688-.898438 3.070312-1.539063 4.851562-1.828125l25.027344-4.019531c4.972656-.800782 9.960938 1.289062 12.890625 5.390624l9.679688 13.570313 4.992187-15.960937c1.5-4.789063 5.589844-8.320313 10.546875-9.121094l23.160157-3.71875-.117188-.792969 36.789062-5.90625c7.230469-1.160156 14.019532 3.757813 15.179688 10.976563l13.898438 86.542968c1.160156 7.21875-3.757813 14.019532-10.976563 15.179688zm0 0" fill="#c2001b"/><path d="m191.355469 286.800781c.554687 3.457031.324219 6.582031-.695313 9.363281-1.015625 2.789063-2.632812 5.226563-4.839844 7.316407-2.210937 2.089843-4.898437 3.832031-8.070312 5.230469-3.171875 1.394531-6.597656 2.386718-10.277344 2.980468l-39.023437 6.265625-12.859375-80.074219 44.550781-7.15625c2.78125-.445312 5.394531-.25 7.84375.589844 2.449219.84375 4.617187 2.09375 6.503906 3.757813 1.886719 1.664062 3.457031 3.648437 4.714844 5.953125 1.257813 2.304687 2.09375 4.738281 2.5 7.292968.617187 3.832032.238281 7.597657-1.136719 11.289063-1.371094 3.691406-3.835937 6.707031-7.394531 9.054687 4.800781.617188 8.816406 2.441407 12.042969 5.46875 3.222656 3.03125 5.269531 7.253907 6.140625 12.667969zm-54.734375-36.101562 2.664062 16.582031 18.15625-2.917969c2.03125-.324219 3.726563-1.292969 5.085938-2.898437 1.363281-1.605469 1.816406-3.835938 1.355468-6.695313-.421874-2.632812-1.445312-4.550781-3.0625-5.753906-1.621093-1.207031-3.410156-1.652344-5.363281-1.339844zm35.300781 35.402343c-.398437-2.480468-1.449219-4.46875-3.15625-5.972656-1.707031-1.496094-3.648437-2.074218-5.828125-1.722656l-21.316406 3.421875 2.804687 17.480469 20.527344-3.296875c2.40625-.382813 4.273437-1.496094 5.597656-3.328125 1.324219-1.832032 1.785157-4.023438 1.371094-6.582032zm0 0" fill="#fff"/><path d="m212.808594 222.269531 16.691406-2.679687 42.066406 75.382812-18.945312 3.042969-9.085938-16.933594-24.921875 4-3.210937 18.910157-18.949219 3.042968zm25.636718 46.554688-13.90625-26.804688-5.039062 29.847657zm0 0" fill="#fff"/><g fill="#fff5cb"><path d="m255.996094 267.078125v30.40625l15.570312-2.503906zm0 0"/><path d="m342.621094 283.566406-7.699219-47.933594-11.769531 37.636719-9.925782 1.59375-22.964843-32.058593 7.699219 47.933593-18.496094 2.96875-12.859375-80.074219 20.074219-3.226562 27.46875 38.511719 14.148437-45.191407 19.960937-3.207031 12.859376 80.074219zm0 0"/><path d="m373.375 246-7.878906-49.058594 18.046875-2.898437 7.878906 49.058593zm5.105469 31.804688-3.003907-18.71875 18.042969-2.898438 3.007813 18.71875zm0 0"/></g></svg>