<svg height="512pt" viewBox="0 0 512 512" width="512pt" xmlns="http://www.w3.org/2000/svg"><path d="m512 256c0 141.386719-114.613281 256-256 256s-256-114.613281-256-256 114.613281-256 256-256 256 114.613281 256 256zm0 0" fill="#004eb1"/><path d="m512 256c0-4.550781-.121094-9.074219-.359375-13.566406l-161.363281-161.363282c-7.109375-8.027343-15.199219-14.496093-23.773438-19.53125-32.371094-19.011718-70.503906-18.542968-70.503906-18.542968s-38.132812-.46875-70.5 18.542968c-28.132812 16.519532-51.097656 48.339844-51.097656 100.683594l8.375 5.933594c-3.402344 4.597656-5.203125 10.507812-4.5625 16.730469l1.933594 18.769531c.605468 5.894531 3.28125 11.046875 7.179687 14.746094l28.777344 27.910156c7.050781 14.199219 14.835937 25.484375 22.867187 34.433594l-9.378906 44.253906h-43.960938c-38.648437 0-69.984374 31.332031-69.984374 69.984375v42.6875c46.277343 45.941406 109.996093 74.328125 180.351562 74.328125 141.386719 0 256-114.613281 256-256zm0 0" fill="#002d6b"/><path d="m312.050781 276.117188h-112.101562l-11.09375 52.382812h134.289062zm0 0" fill="#ffc473"/><path d="m323.148438 328.5h-67.148438v-52.378906h56.050781zm0 0" fill="#ffaa20"/><path d="m355.855469 159.511719c-4.167969-64.597657-56.507813-101.257813-99.855469-101.257813s-95.6875 36.660156-99.855469 101.257813c-11.214843 2.210937-19.175781 13.246093-17.929687 25.375l1.933594 18.769531c1.308593 12.734375 12.28125 22.027344 24.378906 20.648438l2.082031-.238282c24.769531 67.851563 64.734375 85.324219 89.390625 89.289063 24.65625-3.96875 64.625-21.4375 89.390625-89.289063l2.082031.238282c12.101563 1.378906 23.070313-7.914063 24.382813-20.648438l1.929687-18.769531c1.246094-12.128907-6.710937-23.164063-17.929687-25.375zm0 0" fill="#ffdba9"/><path d="m193.304688 178.335938h48.027343v19.503906h-48.027343zm0 0" fill="#ffc473"/><path d="m373.78125 184.886719-1.929688 18.777343c-1.3125 12.730469-12.277343 22.015626-24.375 20.636719l-2.082031-.234375c-24.769531 67.855469-64.738281 85.328125-89.394531 89.296875v-255.105469c43.351562 0 95.6875 36.660157 99.851562 101.253907 11.222657 2.214843 19.179688 13.246093 17.929688 25.375zm0 0" fill="#ffc473"/><path d="m312.21875 178.335938h-56.21875v69.582031h19.972656v-50.078125h36.246094zm0 0" fill="#ffaa20"/><path d="m175.25 158.453125h161.5v48.585937h-161.5zm0 0" fill="#ffa7b8"/><path d="m256 158.449219h80.75v48.589843h-80.75zm0 0" fill="#ff738e"/><path d="m243.457031 189.425781c-.03125-.082031-7.066406-11.992187-19.402343-14.9375-12.335938-2.945312-24.054688 4.566407-24.054688 4.566407l.070312.015624c.03125.078126 7.773438 12.160157 19.402344 14.9375 11.625 2.773438 24.054688-4.566406 24.054688-4.566406zm0 0" fill="#fff"/><path d="m268.542969 189.425781c.03125-.082031 7.066406-11.992187 19.402343-14.9375 12.335938-2.945312 24.054688 4.5625 24.054688 4.5625l-.070312.019531c-.03125.078126-7.773438 12.160157-19.402344 14.933594-11.625 2.777344-24.054688-4.5625-24.054688-4.5625zm0 0" fill="#fff5cb"/><path d="m377.597656 162.222656c0-52.34375-22.964844-84.164062-51.09375-100.683594-32.371094-19.011718-70.503906-18.542968-70.503906-18.542968s-38.132812-.46875-70.5 18.542968c-28.132812 16.519532-51.097656 48.339844-51.097656 100.683594l21.695312-14.875s-7.222656 42.328125 27.300782 68.6875c0 0 5.980468-56.519531 25.816406-76.1875 0 0 26.734375 25.523438 46.785156 29.835938 20.050781-4.3125 46.785156-29.835938 46.785156-29.835938 19.835938 19.667969 25.816406 76.191406 25.816406 76.191406 34.519532-26.355468 27.300782-68.691406 27.300782-68.691406zm0 0" fill="#fff"/><path d="m355.902344 147.351562s7.226562 42.324219-27.300782 68.6875c0 0-5.984374-56.519531-25.820312-76.191406 0 0-26.730469 25.523438-46.78125 29.835938v-126.683594s38.128906-.476562 70.503906 18.535156c28.128906 16.527344 51.09375 48.347656 51.09375 100.691406zm0 0" fill="#fff5cb"/><path d="m366.367188 325h-220.734376c-38.648437 0-69.984374 31.332031-69.984374 69.984375v42.6875c46.277343 45.941406 109.996093 74.328125 180.351562 74.328125s134.074219-28.386719 180.351562-74.328125v-42.6875c0-38.652344-31.335937-69.984375-69.984374-69.984375zm0 0" fill="#ffa7b8"/><path d="m436.351562 394.980469v42.691406c-46.273437 45.9375-109.992187 74.328125-180.351562 74.328125v-187h110.371094c21.457031 0 40.660156 9.648438 53.480468 24.859375 10.296876 12.179687 16.5 27.929687 16.5 45.121094zm0 0" fill="#ff738e"/><path d="m123.800781 424.136719v51.125c9.601563 5.800781 19.625 10.976562 30 15.5v-66.625zm0 0" fill="#ff738e"/><path d="m358.199219 424.136719v66.625c10.375-4.523438 20.398437-9.699219 30-15.5v-51.125zm0 0" fill="#ff3d62"/><path d="m385.039062 327.519531-129.039062 158.761719-129.039062-158.761719c5.9375-1.640625 12.199218-2.519531 18.667968-2.519531h17.941406l92.429688 113.710938 92.429688-113.710938h17.941406c6.46875 0 12.730468.878906 18.667968 2.519531zm0 0" fill="#ff738e"/><path d="m385.039062 327.519531-129.039062 158.761719v-47.570312l92.429688-113.710938h17.941406c6.46875 0 12.730468.878906 18.667968 2.519531zm0 0" fill="#ff3d62"/></svg>