<svg height="512pt" viewBox="0 0 512 512" width="512pt" xmlns="http://www.w3.org/2000/svg"><path d="m512 256c0 83.179688-39.671875 157.089844-101.128906 203.851562-43 32.71875-96.671875-16.523437-154.871094-16.523437s-111.871094 49.242187-154.871094 16.523437c-61.457031-46.761718-101.128906-120.671874-101.128906-203.851562 0-141.378906 114.621094-256 256-256s256 114.621094 256 256zm0 0" fill="#ff0335"/><path d="m256 443.328125c58.199219 0 111.871094 49.242187 154.871094 16.523437 61.457031-46.761718 101.128906-120.671874 101.128906-203.851562 0-3.515625-.089844-7.007812-.230469-10.484375l-147.945312-148.085937c-25.890625-26.972657-62.3125-43.765626-102.652344-43.765626h-10.34375c-78.574219 0-142.269531 63.695313-142.269531 142.269532v91.949218c0 21.691407 9.90625 41.054688 25.429687 53.855469.183594.226563.367188.453125.558594.675781-19.757813 9.769532-33.417969 30.140626-33.417969 53.554688v63.878906c43 32.722656 96.671875-16.519531 154.871094-16.519531zm0 0" fill="#c2001b"/><path d="m170.984375 100.214844h170.03125v257.472656h-170.03125zm0 0" fill="#ffdb2d"/><path d="m256 100.210938h85.019531v257.480468h-85.019531zm0 0" fill="#fec000"/><path d="m217 283.351562h78.003906v59.648438h-78.003906zm0 0" fill="#c06200"/><path d="m256 283.351562h39.003906v59.648438h-39.003906zm0 0" fill="#9a4c00"/><path d="m355.808594 160.09375c-4.167969-61.34375-56.484375-96.160156-99.808594-96.160156s-95.640625 34.816406-99.808594 96.160156c-11.210937 2.101562-19.167968 12.578125-17.917968 24.097656l1.929687 17.828125c1.308594 12.089844 12.273437 20.914063 24.367187 19.601563l2.082032-.222656c24.757812 64.4375 64.703125 81.027343 89.347656 84.792968 24.644531-3.765625 64.59375-20.355468 89.347656-84.792968l2.082032.222656c12.09375 1.3125 23.058593-7.511719 24.367187-19.601563l1.929687-17.828125c1.25-11.519531-6.707031-21.996094-17.917968-24.097656zm0 0" fill="#e67500"/><path d="m373.726562 184.191406-1.929687 17.832032c-1.3125 12.089843-12.273437 20.90625-24.363281 19.597656l-2.082032-.222656c-24.757812 64.4375-64.707031 81.03125-89.351562 84.796874v-242.257812c43.328125 0 95.640625 34.816406 99.804688 96.15625 11.214843 2.105469 19.171874 12.578125 17.921874 24.097656zm0 0" fill="#c06200"/><path d="m310.5625 182.734375h-54.5625v64.160156h19.382812v-46.175781h35.179688zm0 0" fill="#9a4c00"/><path d="m174.304688 166.203125h163.390624v54.296875h-163.390624zm0 0" fill="#aeadb3"/><path d="m256 166.199219h81.699219v54.300781h-81.699219zm0 0" fill="#78777f"/><path d="m410.871094 395.96875v63.882812c-43 32.71875-96.671875 52.148438-154.871094 52.148438s-111.871094-19.429688-154.871094-52.148438v-63.882812c0-32.828125 26.851563-59.699219 59.710938-59.699219h190.582031c32.726563.140625 59.449219 26.960938 59.449219 59.699219zm0 0" fill="#d9d9db"/><path d="m410.871094 395.96875v63.882812c-43 32.71875-96.671875 52.148438-154.871094 52.148438v-175.730469h95.421875c32.726563.140625 59.449219 26.960938 59.449219 59.699219zm0 0" fill="#c8c6cc"/><path d="m168.601562 413.328125v83.363281c-10.332031-3.75-20.339843-8.152344-30-13.140625v-70.222656zm0 0" fill="#c8c6cc"/><path d="m373.398438 413.328125v70.222656c-9.660157 4.988281-19.667969 9.390625-30 13.140625v-83.363281zm0 0" fill="#aeadb3"/><path d="m261.171875 53.664062h-10.34375c-78.574219 0-142.269531 63.695313-142.269531 142.269532v91.949218c0 38.550782 31.253906 69.804688 69.804687 69.804688h8.355469v-185.613281c46.511719.851562 45.488281-40.890625 45.488281-40.890625 12.402344-2.136719 19.648438-10.714844 23.792969-18.730469 4.144531 8.015625 11.390625 16.59375 23.792969 18.730469 0 0-1.023438 41.742187 45.488281 40.890625v185.613281h8.355469c38.550781 0 69.804687-31.253906 69.804687-69.804688v-91.949218c0-78.574219-63.695312-142.269532-142.269531-142.269532zm0 0" fill="#ffec97"/><path d="m403.441406 195.941406v91.9375c0 38.5625-31.25 69.8125-69.800781 69.8125h-8.359375v-185.621094c-11.472656.210938-20.042969-2.171874-26.460938-5.871093-19.609374-11.320313-19.03125-35.019531-19.03125-35.019531-12.398437-2.128907-19.648437-10.710938-23.789062-18.71875v-58.800782h5.171875c78.578125 0 142.269531 63.699219 142.269531 142.28125zm0 0" fill="#ffdf47"/><path d="m199.257812 186.183594c0 11.925781 9.667969 21.59375 21.59375 21.59375 8.988282 0 16.691407-5.492188 19.941407-13.304688l-40.890625-13.546875c-.421875 1.683594-.644532 3.441407-.644532 5.257813zm0 0" fill="#fff"/><path d="m312.742188 186.183594c0 11.925781-9.667969 21.59375-21.59375 21.59375-8.988282 0-16.691407-5.492188-19.941407-13.304688l40.890625-13.546875c.421875 1.683594.644532 3.441407.644532 5.257813zm0 0" fill="#fff6c7"/><path d="m244.523438 441.332031c0-19.3125 16.136718-34.972656 36.046874-34.972656 6.167969 0 11.976563 1.507813 17.050782 4.160156-8.679688-10.109375-21.542969-16.519531-35.910156-16.519531-26.140626 0-47.332032 21.191406-47.332032 47.332031s21.191406 47.332031 47.332032 47.332031c14.367187 0 27.230468-6.410156 35.910156-16.515624-5.074219 2.648437-10.882813 4.15625-17.050782 4.15625-19.910156 0-36.046874-15.65625-36.046874-34.972657zm0 0" fill="#fff"/><g fill="#fff6c7"><path d="m280.570312 476.308594c6.167969 0 11.980469-1.507813 17.050782-4.160156-8.679688 10.113281-21.542969 16.523437-35.910156 16.523437-1.929688 0-3.839844-.121094-5.710938-.34375v-21.40625c6.429688 5.828125 15.078125 9.386719 24.570312 9.386719zm0 0"/><path d="m280.570312 406.359375c-9.492187 0-18.140624 3.570313-24.570312 9.378906v-21.398437c1.871094-.21875 3.78125-.339844 5.710938-.339844 14.367187 0 27.230468 6.410156 35.910156 16.519531-5.070313-2.648437-10.882813-4.160156-17.050782-4.160156zm0 0"/></g></svg>