<svg id="Capa_1" enable-background="new 0 0 512 512" height="512" viewBox="0 0 512 512" width="512" xmlns="http://www.w3.org/2000/svg"><g><g><g><g><g><g><g><g><g><path d="m256 0c-141.385 0-256 114.615-256 256 0 68.059 26.567 129.908 69.886 175.762h372.227c43.32-45.854 69.887-107.703 69.887-175.762 0-141.385-114.615-256-256-256z" fill="#fe6a16"/></g></g></g></g></g></g></g></g><path d="m302.443 72.577-89.375 91.079 54.101 54.101-51.997 214.006h226.938c37.966-40.187 63.067-92.655 68.69-150.828z" fill="#e53f05"/><g><path d="m285.321 226.548v-53.412c20.514-10.623 34.534-32.044 34.534-56.74 0-35.266-28.589-63.855-63.855-63.855s-63.855 28.589-63.855 63.855c0 24.696 14.019 46.117 34.534 56.74v53.412c-64.737 20.286-121.077 105.23-157.46 204.52 46.706 49.812 113.109 80.932 186.781 80.932s140.075-31.12 186.782-80.932c-36.384-99.29-92.724-184.234-157.461-204.52z" fill="#a3d4ff"/></g><g><path d="m442.782 431.068c-36.384-99.29-92.724-184.234-157.46-204.52v-53.412c20.514-10.623 34.534-32.044 34.534-56.74 0-35.226-28.524-63.787-63.734-63.852v459.454c73.622-.034 139.979-31.145 186.66-80.93z" fill="#65b1fc"/></g><g><g><circle cx="256" cy="112.487" fill="#fff" r="37.14"/></g><g><path d="m293.14 112.487c0-20.471-16.563-37.072-37.02-37.137v74.274c20.457-.066 37.02-16.666 37.02-37.137z" fill="#e9edf5"/></g><g><circle cx="256" cy="112.487" fill="#555a66" r="16.841"/></g><g><path d="m272.841 112.487c0-9.26-7.475-16.769-16.72-16.834v33.669c9.244-.066 16.72-7.575 16.72-16.835z" fill="#333940"/></g></g><g><path d="m162.695 341.338c0-45.436 41.774-82.269 93.305-82.269s93.305 36.833 93.305 82.269z" fill="#fff"/></g><g><path d="m256.121 259.07v82.268h93.185c-.001-45.4-41.71-82.21-93.185-82.268z" fill="#e9edf5"/></g></g></svg>