<svg height="512pt" viewBox="0 0 512 512" width="512pt" xmlns="http://www.w3.org/2000/svg"><path d="m512 256c0 141.386719-114.613281 256-256 256s-256-114.613281-256-256 114.613281-256 256-256 256 114.613281 256 256zm0 0" fill="#5a54e0"/><path d="m509.113281 294.535156-74.113281-74.109375-11.371094 20.386719-40.015625-40.015625-19.472656 19.507813-80.964844-80.964844-194.488281 143.390625 57.164062 57.167969-61.21875 51.839843 113.75 113.75c18.519532 4.257813 37.804688 6.511719 57.617188 6.511719 128.285156 0 234.527344-94.363281 253.113281-217.464844zm0 0" fill="#3838ba"/><path d="m253.738281 358.667969h-93.40625c-8.28125 0-15-6.71875-15-15 0-8.285157 6.71875-15 15-15h73.265625l20.1875-49.347657c3.136719-7.667968 11.894532-11.339843 19.5625-8.203124 7.667969 3.136718 11.339844 11.894531 8.203125 19.5625zm0 0" fill="#fff"/><path d="m273.347656 271.117188c-6.335937-2.589844-13.402344-.527344-17.441406 4.589843v77.660157l25.644531-62.6875c3.136719-7.667969-.535156-16.425782-8.203125-19.5625zm0 0" fill="#e9edf5"/><path d="m84.632812 391.738281h81.726563l41.964844-161.238281h-81.722657zm0 0" fill="#fff"/><path d="m375.9375 220.425781h59.0625v42.8125h-59.0625zm0 0" fill="#e9edf5"/><path d="m339.160156 302.332031h-205.898437c-33.414063 0-60.5-27.089843-60.5-60.5 0-33.414062 27.085937-60.5 60.5-60.5h205.898437c33.414063 0 60.5 27.085938 60.5 60.5 0 33.410157-27.085937 60.5-60.5 60.5zm0 0" fill="#40deed"/><path d="m339.160156 181.332031h-83.253906v121h83.253906c33.414063 0 60.5-27.085937 60.5-60.5 0-33.414062-27.085937-60.5-60.5-60.5zm0 0" fill="#00c7d1"/><path d="m129.121094 139.339844h154.054687v58.464844h-154.054687zm0 0" fill="#ffda00"/><path d="m255.90625 139.339844h27.269531v58.464844h-27.269531zm0 0" fill="#ffb000"/></svg>