<svg id="Capa_1" enable-background="new 0 0 512 512" height="512" viewBox="0 0 512 512" width="512" xmlns="http://www.w3.org/2000/svg"><g><g><g><g><g><g><g><g><g><circle cx="256" cy="256" fill="#a3d4ff" r="256"/></g></g></g></g></g></g></g></g><g><path d="m510.156 286.885-192.953-192.953-75.578 215.346-137.934 26.708 24.805 24.805c-4.521 17.079-12.837 47.712-14.253 47.479l100.407 100.408c13.46 2.186 27.272 3.322 41.35 3.322 130.932 0 238.905-98.293 254.156-225.115z" fill="#65b1fc"/><path d="m114.243 408.271-.112-.112c.031.068.068.105.112.112z" fill="#06bf51"/></g><g><path d="m114.131 408.159v-70.098h63.913z" fill="#636978"/></g><g><path d="m397.869 408.159v-70.098h-63.913z" fill="#414952"/></g><g><path d="m324.036 299.92h-136.072l-18.7-130.902c-7.541-52.783 33.417-100.008 86.736-100.008 53.319 0 94.277 47.224 86.736 100.008z" fill="#fff"/></g><g><path d="m256.12 69.012v230.908h67.915l18.7-130.902c7.536-52.744-33.355-99.935-86.615-100.006z" fill="#e9edf5"/></g><g><path d="m179.717 242.193 8.247 57.727h136.072l8.247-57.727z" fill="#dce1eb"/></g><g><path d="m332.283 242.193h-76.163v57.727h67.916z" fill="#bec3d2"/></g><g><path d="m451.861 289.612s-52.185 92.776-195.861 92.776c-144.961 0-195.861-92.776-195.861-92.776s87.69-8.247 195.861-8.247 195.861 8.247 195.861 8.247z" fill="#414952"/></g><g><path d="m451.861 289.612s-87.625-8.24-195.74-8.247v101.022c143.583-.053 195.74-92.775 195.74-92.775z" fill="#23272b"/></g><g><g><circle cx="128.433" cy="313.836" fill="#636978" r="13.916"/></g><g><circle cx="192.216" cy="313.836" fill="#636978" r="13.916"/></g><g><circle cx="256" cy="313.836" fill="#636978" r="13.916"/></g><g><path d="m269.917 313.836c0-7.645-6.166-13.845-13.796-13.91v27.821c7.629-.066 13.796-6.265 13.796-13.911z" fill="#414952"/></g><g><circle cx="319.784" cy="313.836" fill="#414952" r="13.916"/></g><g><circle cx="383.567" cy="313.836" fill="#414952" r="13.916"/></g></g></g></svg>