<svg id="Capa_1" enable-background="new 0 0 512 512" height="512" viewBox="0 0 512 512" width="512" xmlns="http://www.w3.org/2000/svg"><g><g><g><g><g><g><g><g><g><circle cx="256" cy="256" fill="#994aff" r="256"/></g></g></g></g></g></g></g></g><path d="m512 256c0-27.938-4.476-54.83-12.748-80l-108.446-108.446-4.34 34.651-51.686-51.686-16.632 131.397-115.492-115.491-30.972 45.764-26.553-26.553-18.529 8.569-13.005 284.995-18.373 7.888 121.993 121.993c12.647 1.922 25.599 2.919 38.783 2.919 141.385 0 256-114.615 256-256z" fill="#5e00d8"/><g><path d="m134.103 282.997-27.584-11.796c15.227-35.606 11.974-56.679-1.208-107.823-14.209-55.135 14.648-94.188 15.884-95.824l23.938 18.082.058-.077c-.875 1.191-21.315 29.638-10.828 70.332 13.366 51.866 19.424 81.076-.26 127.106z" fill="#fe8205"/></g><g><path d="m377.897 282.997c-19.685-46.031-13.626-75.24-.259-127.106 10.487-40.694-9.953-69.141-10.828-70.332l12.026-8.964 11.969-9.041c1.235 1.635 30.093 40.689 15.884 95.824-13.182 51.144-16.435 72.217-1.208 107.823z" fill="#fa5d0f"/></g><g><path d="m197.166 193.725-28.279-10.013c7.92-22.37 6.297-34.979-.785-68.168-7.933-37.183 8.419-63.906 9.119-65.025l25.436 15.906c-.436.727-10.525 17.97-5.215 42.859 7.114 33.341 10.608 53.701-.276 84.441z" fill="#fe8205"/></g><g><path d="m314.834 193.725c-10.884-30.74-7.39-51.101-.275-84.441 5.342-25.038-5.108-42.688-5.215-42.859l25.436-15.906c.7 1.119 17.052 27.842 9.119 65.025-7.082 33.189-8.705 45.799-.785 68.168z" fill="#fa5d0f"/></g><g><path d="m449.27 312.051c0 74.656-86.51 135.177-193.25 135.177s-193.29-60.521-193.29-135.177 193.29-214.045 193.29-214.045 193.25 139.388 193.25 214.045z" fill="#ffce00"/></g><g><path d="m449.27 312.051c0-74.034-190.081-211.754-193.25-214.045v349.222c106.721-.016 193.25-60.531 193.25-135.177z" fill="#fdba12"/></g><g><path d="m378.603 306.797s-54.871 63.638-122.583 63.638-122.623-63.638-122.623-63.638 54.911-63.638 122.623-63.638 122.583 63.638 122.583 63.638z" fill="#fff"/></g><g><path d="m378.603 306.797s-54.891-63.611-122.583-63.637v127.275c67.692-.027 122.583-63.638 122.583-63.638z" fill="#e9edf5"/></g><g><path d="m304.829 306.797c0 26.968-21.841 48.829-48.809 48.829s-48.849-21.862-48.849-48.829 21.882-48.829 48.849-48.829 48.809 21.861 48.809 48.829z" fill="#fe6a16"/></g><g><path d="m304.829 306.797c0-26.953-21.861-48.805-48.809-48.828v97.656c26.948-.023 48.809-21.875 48.809-48.828z" fill="#f24500"/></g><g><path d="m278.713 306.797c0 12.544-10.149 22.713-22.693 22.713s-22.733-10.169-22.733-22.713 10.189-22.713 22.733-22.713 22.693 10.169 22.693 22.713z" fill="#414952"/></g><g><path d="m278.713 306.797c0-12.53-10.168-22.689-22.693-22.712v45.423c12.524-.023 22.693-10.182 22.693-22.711z" fill="#23272b"/></g><g><path d="m256.02 243.158c-46.784 0-87.462 30.377-108.129 49.155h216.218c-20.667-18.778-61.305-49.155-108.089-49.155z" fill="#ff9500"/></g><g><path d="m256.02 243.159v49.155h108.089c-20.661-18.773-61.323-49.136-108.089-49.155z" fill="#fe6a16"/></g></g></svg>