<svg id="Capa_1" enable-background="new 0 0 512 512" height="512" viewBox="0 0 512 512" width="512" xmlns="http://www.w3.org/2000/svg"><g><g><g><g><g><g><g><g><g><circle cx="256" cy="256" fill="#fe6a16" r="256"/></g></g></g></g></g></g></g></g><path d="m512 256c0-12.648-.917-25.081-2.689-37.238l-122.712-122.712-13.013 29.657-52.126-52.127-24.323 52.329-57.875-57.875-23.621 81.618-50.572-50.572-43.367 39.46 34.864 34.864-74.727 36.372 52.723 52.723-25.498 9.262 67.258 67.258-37.528 89.171 81.312 81.312c11.728 1.647 23.712 2.498 35.894 2.498 141.385 0 256-114.615 256-256z" fill="#e53f05"/><g><circle cx="412.371" cy="186.475" fill="#23272b" r="29.321"/></g><g><circle cx="295.281" cy="86.783" fill="#23272b" r="29.321"/></g><g><circle cx="368.407" cy="119.036" fill="#23272b" r="29.321"/></g><g><circle cx="99.629" cy="186.475" fill="#414952" r="29.321"/></g><g><circle cx="216.719" cy="86.783" fill="#414952" r="29.321"/></g><g><circle cx="143.593" cy="119.036" fill="#414952" r="29.321"/></g><g><path d="m419.221 233.063c0-62.076-73.077-147.583-163.221-147.583s-163.221 85.507-163.221 147.583c0 27.474 14.315 42.307 38.089 50.307v122.695c0 19.245 15.602 34.847 34.847 34.847 19.245 0 34.847-15.602 34.847-34.847v-113.713c6.673.172 13.547.26 20.591.304v139.443c0 19.245 15.602 34.847 34.847 34.847 19.245 0 34.847-15.602 34.847-34.847v-139.443c7.044-.044 13.919-.132 20.591-.304v113.714c0 19.245 15.602 34.847 34.847 34.847 19.245 0 34.847-15.602 34.847-34.847v-122.696c23.774-8 38.089-22.833 38.089-50.307z" fill="#555a66"/></g><g><path d="m256 85.479c-.052 0-.104.002-.156.002v381.46c.052 0 .103.004.156.004 19.245 0 34.847-15.602 34.847-34.847v-139.442c7.044-.044 13.919-.132 20.591-.304v113.714c0 19.245 15.602 34.847 34.847 34.847 19.245 0 34.847-15.602 34.847-34.847v-122.696c23.774-8 38.089-22.833 38.089-50.307 0-62.076-73.076-147.584-163.221-147.584z" fill="#333940"/></g><g><circle cx="256" cy="189.879" fill="#fff" r="52.778"/></g><g><path d="m256 137.101c-.052 0-.104.004-.156.004v105.549c.052 0 .103.004.156.004 29.149 0 52.778-23.63 52.778-52.778 0-29.15-23.629-52.779-52.778-52.779z" fill="#e9edf5"/></g><g><circle cx="256" cy="189.879" fill="#333940" r="27.782"/></g><g><path d="m256 162.097c-.052 0-.104.004-.156.004v55.556c.052 0 .103.004.156.004 15.343 0 27.782-12.438 27.782-27.782s-12.439-27.782-27.782-27.782z" fill="#0c0e0f"/></g><g><path d="m329.303 247.724h-146.606c-16.194 0-29.321-13.128-29.321-29.321 0-16.194 13.128-29.321 29.321-29.321h146.606c16.194 0 29.321 13.128 29.321 29.321 0 16.193-13.127 29.321-29.321 29.321z" fill="#9196aa"/></g><g><path d="m329.303 189.081h-73.459v58.643h73.459c16.194 0 29.321-13.127 29.321-29.321 0-16.194-13.127-29.322-29.321-29.322z" fill="#707789"/></g></g></svg>