<svg id="Capa_1" enable-background="new 0 0 512 512" height="512" viewBox="0 0 512 512" width="512" xmlns="http://www.w3.org/2000/svg"><g><g><g><g><g><g><g><g><g><g><circle cx="256" cy="256" fill="#ffce00" r="256"/></g></g></g></g></g></g></g></g></g><path d="m512 256c0-10.975-.691-21.788-2.031-32.398l-74.267-74.267-11.285 12.372-55.457-55.457-215.953 63.81 113.933 113.933-8.579 14.946-139.83-139.831-29.637 32.254 81.239 81.239-20.824 10.705 71.659 71.659-67.96 63.349 93.513 93.513c3.145.115 6.305.173 9.479.173 141.385 0 256-114.615 256-256z" fill="#ffa300"/><g><path d="m358.993 162.172s-119.055 89.918 0 187.656h-205.985c119.055-97.737 0-187.656 0-187.656z" fill="#555a66"/></g><g><path d="m358.993 162.172h-102.873v187.656h102.872c-119.054-97.737.001-187.656.001-187.656z" fill="#333940"/></g><g><ellipse cx="256" cy="132.719" fill="#636978" rx="122.172" ry="69.394"/></g><g><path d="m378.172 132.719c0-38.302-54.633-69.355-122.051-69.393v138.785c67.418-.036 122.051-31.09 122.051-69.392z" fill="#414952"/></g><g><ellipse cx="256" cy="132.719" fill="#7e8596" rx="90.019" ry="42.869"/></g><g><path d="m346.019 132.719c0-23.656-40.238-42.837-89.899-42.868v85.736c49.661-.031 89.899-19.211 89.899-42.868z" fill="#636978"/></g><g><ellipse cx="256" cy="132.719" fill="#555a66" rx="41.576" ry="19.799"/></g><g><path d="m297.576 132.719c0-10.916-18.55-19.767-41.455-19.798v39.595c22.905-.03 41.455-8.881 41.455-19.797z" fill="#333940"/></g><g><ellipse cx="256" cy="380.972" fill="#636978" rx="122.172" ry="69.394"/></g><g><path d="m378.172 380.972c0-38.302-54.633-69.355-122.051-69.393v138.785c67.418-.036 122.051-31.09 122.051-69.392z" fill="#414952"/></g><g><ellipse cx="256" cy="380.972" fill="#7e8596" rx="90.019" ry="42.869"/></g><g><path d="m346.019 380.972c0-23.656-40.238-42.837-89.899-42.868v85.736c49.661-.031 89.899-19.211 89.899-42.868z" fill="#636978"/></g><g><ellipse cx="256" cy="380.972" fill="#555a66" rx="41.576" ry="19.799"/></g><g><path d="m297.576 380.972c0-10.916-18.55-19.767-41.455-19.798v39.596c22.905-.031 41.455-8.882 41.455-19.798z" fill="#333940"/></g><g><circle cx="99.988" cy="171.814" fill="#555a66" r="22.48"/></g><g><circle cx="158.631" cy="269.552" fill="#555a66" r="16.615"/></g><g><circle cx="388.314" cy="241.208" fill="#333940" r="23.457"/></g><g><circle cx="415.68" cy="315.488" fill="#333940" r="13.683"/></g><g><circle cx="423.499" cy="159.108" fill="#333940" r="15.638"/></g></g></svg>