<svg height="512pt" viewBox="0 0 512 512" width="512pt" xmlns="http://www.w3.org/2000/svg"><path d="m512 256c0 141.386719-114.613281 256-256 256s-256-114.613281-256-256 114.613281-256 256-256 256 114.613281 256 256zm0 0" fill="#2864f0"/><path d="m508.453125 298.597656-230.058594-230.058594-160.550781 342.003907 98.378906 98.375c12.960938 2.023437 26.246094 3.082031 39.777344 3.082031 126.871094 0 232.164062-92.296875 252.453125-213.402344zm0 0" fill="#27488f"/><path d="m183.714844 218.863281c0-39.925781 32.363281-72.289062 72.285156-72.289062s72.285156 32.367187 72.285156 72.289062zm0 0" fill="#dce1eb"/><path d="m256 146.574219c-.140625 0-.28125.011719-.425781.011719v72.277343h72.710937c0-39.925781-32.363281-72.289062-72.285156-72.289062zm0 0" fill="#bec3d2"/><path d="m146.851562 381.957031c-39.921874 0-72.285156-32.363281-72.285156-72.285156 0-39.925781 32.363282-72.289063 72.285156-72.289063zm0 0" fill="#dce1eb"/><path d="m365.148438 237.382812c39.921874 0 72.285156 32.363282 72.285156 72.285157s-32.363282 72.285156-72.285156 72.285156zm0 0" fill="#bec3d2"/><path d="m365.265625 421.335938h-218.53125c-24.363281 0-44.113281-19.75-44.113281-44.113282v-135.105468c0-24.363282 19.75-44.113282 44.113281-44.113282h218.53125c24.363281 0 44.113281 19.75 44.113281 44.113282v135.105468c0 24.363282-19.75 44.113282-44.113281 44.113282zm0 0" fill="#fff"/><path d="m365.265625 198.003906h-109.691406v223.332032h109.691406c24.363281 0 44.113281-19.75 44.113281-44.113282v-135.105468c0-24.363282-19.75-44.113282-44.113281-44.113282zm0 0" fill="#e9edf5"/><path d="m207.089844 271.90625c0 20.855469-16.90625 37.765625-37.761719 37.765625s-37.761719-16.910156-37.761719-37.765625 16.90625-37.761719 37.761719-37.761719 37.761719 16.90625 37.761719 37.761719zm0 0" fill="#7e8596"/><path d="m187.128906 271.90625c0 9.832031-7.96875 17.804688-17.800781 17.804688s-17.800781-7.972657-17.800781-17.804688c0-9.828125 7.96875-17.800781 17.800781-17.800781s17.800781 7.972656 17.800781 17.800781zm0 0" fill="#414952"/><path d="m380.433594 271.90625c0 20.855469-16.90625 37.765625-37.761719 37.765625s-37.761719-16.910156-37.761719-37.765625 16.90625-37.761719 37.761719-37.761719 37.761719 16.90625 37.761719 37.761719zm0 0" fill="#636978"/><path d="m360.472656 271.90625c0 9.832031-7.96875 17.804688-17.800781 17.804688s-17.800781-7.972657-17.800781-17.804688c0-9.828125 7.96875-17.800781 17.800781-17.800781s17.800781 7.972656 17.800781 17.800781zm0 0" fill="#23272b"/><path d="m131.566406 341.484375h248.867188v30.761719h-248.867188zm0 0" fill="#dce1eb"/><path d="m255.574219 341.484375h124.859375v30.761719h-124.859375zm0 0" fill="#bec3d2"/><path d="m240.5 85.257812h31v105.730469h-31zm0 0" fill="#dce1eb"/><path d="m255.574219 85.257812h15.925781v105.730469h-15.925781zm0 0" fill="#bec3d2"/><path d="m283.945312 85.257812c0 15.433594-12.511718 27.945313-27.945312 27.945313s-27.945312-12.511719-27.945312-27.945313c0-15.433593 12.511718-27.945312 27.945312-27.945312s27.945312 12.511719 27.945312 27.945312zm0 0" fill="#bec3d2"/><path d="m256 57.3125c-.140625 0-.28125.007812-.425781.011719v55.867187c.144531.003906.285156.011719.425781.011719 15.433594 0 27.945312-12.511719 27.945312-27.945313 0-15.433593-12.511718-27.945312-27.945312-27.945312zm0 0" fill="#9196aa"/></svg>