<svg id="Capa_1" enable-background="new 0 0 512 512" height="512" viewBox="0 0 512 512" width="512" xmlns="http://www.w3.org/2000/svg"><g><g><g><g><g><g><g><g><g><path d="m512 256c0-141.385-114.615-256-256-256s-256 114.615-256 256c0 79.865 36.578 151.181 93.889 198.129h324.222c57.311-46.948 93.889-118.264 93.889-198.129z" fill="#fe6a16"/></g></g></g></g></g></g></g></g><path d="m512 256c0-4.995-.143-9.956-.425-14.88l-168.351-168.35 13.378 381.36h61.508c57.311-46.949 93.89-118.265 93.89-198.13z" fill="#e53f05"/><g><path d="m382.191 338.794h-252.382v-174.835c0-69.693 56.497-126.191 126.191-126.191 69.693 0 126.191 56.497 126.191 126.191z" fill="#fff"/></g><g><path d="m382.191 163.958c0-69.653-56.433-126.124-126.07-126.189v301.025h126.07z" fill="#e9edf5"/></g><g><path d="m223.19 280.116h65.619v51.738h-65.619z" fill="#06bf51"/></g><g><path d="m256.121 280.116h32.689v51.738h-32.689z" fill="#0d9b50"/></g><g><g><path d="m350.357 164.513c0 47.315-55.939 143.792-94.357 143.792-40.475 0-94.357-96.477-94.357-143.792s42.245-85.671 94.357-85.671 94.357 38.356 94.357 85.671z" fill="#00d65b"/></g><g><path d="m350.357 164.513c0-47.278-42.18-85.611-94.237-85.67v229.457c38.416-.2 94.237-96.521 94.237-143.787z" fill="#06bf51"/></g><g><ellipse cx="208.473" cy="202.089" fill="#414952" rx="23.701" ry="37.883" transform="matrix(.436 -.9 .9 .436 -64.309 301.543)"/></g><g><ellipse cx="303.527" cy="202.089" fill="#23272b" rx="37.883" ry="23.701" transform="matrix(.9 -.436 .436 .9 -57.751 152.623)"/></g></g><g><path d="m122.869 314.187h266.262v49.214h-266.262z" fill="#555a66"/></g><g><path d="m256.121 314.187h133.01v49.214h-133.01z" fill="#333940"/></g><g><path d="m367.27 354.568h-222.54c-29.062 0-52.621 23.559-52.621 52.62v45.481c44.404 37.043 101.545 59.331 163.891 59.331s119.487-22.288 163.89-59.33v-45.481c0-29.062-23.559-52.621-52.62-52.621z" fill="#e9edf5"/></g><g><path d="m419.89 407.189c0-29.062-23.559-52.62-52.621-52.62h-111.148v157.43c62.299-.029 119.396-22.31 163.77-59.328v-45.482z" fill="#cdd2e1"/></g><g><circle cx="256" cy="435.233" fill="#ffce00" r="49.52"/></g><g><path d="m305.52 435.233c0-27.309-22.106-49.452-49.4-49.517v99.034c27.294-.065 49.4-22.208 49.4-49.517z" fill="#fdba12"/></g><g><circle cx="172.999" cy="397.441" fill="#fa0" r="19.547"/></g><g><circle cx="172.999" cy="450.871" fill="#fa0" r="19.547"/></g></g></svg>