<svg id="Capa_1" enable-background="new 0 0 512 512" height="512" viewBox="0 0 512 512" width="512" xmlns="http://www.w3.org/2000/svg"><g><g><g><g><g><g><g><g><g><g><circle cx="256" cy="256" fill="#fe6a16" r="256"/></g></g></g></g></g></g></g></g></g><path d="m512 256c0-22.663-2.945-44.639-8.473-65.565l-86.956-86.956-345.011 287.121 110.586 110.586c23.385 7.034 48.178 10.814 73.854 10.814 141.385 0 256-114.615 256-256z" fill="#e53f05"/><g><path d="m142.025 56.883h227.95v321.142h-227.95z" fill="#fff" transform="matrix(0 -1 1 0 38.546 473.454)"/></g><g><path d="m256.12 103.479h160.45v227.95h-160.45z" fill="#e9edf5"/></g><g><path d="m129.455 128.621-12.859 24.906h-45.036v237.073h368.88v-237.073h-168.594l-12.859-24.906z" fill="#ffce00"/></g><g><path d="m440.44 153.527h-168.595l-12.858-24.906h-2.867v261.979h184.32z" fill="#fdba12"/></g><g><path d="m197.337 249.873v-39.767h-14.384v-11.538h41.921v11.538h-14.307v39.767z" fill="#fe6a16"/><path d="m226.876 224.258c0-15.615 11.769-26.537 27.46-26.537 15.692 0 27.383 10.922 27.383 26.537s-11.691 26.537-27.383 26.537c-15.691.001-27.46-10.922-27.46-26.537zm41.383 0c0-8.384-5.461-14.845-13.922-14.845-8.538 0-13.999 6.461-13.999 14.845 0 8.307 5.461 14.845 13.999 14.845 8.461.001 13.922-6.537 13.922-14.845z" fill="#fe6a16"/><path d="m281.72 224.258c0-15.016-10.815-25.688-25.599-26.484v11.748c7.434.845 12.138 6.959 12.138 14.736 0 7.706-4.704 13.88-12.138 14.735v11.749c14.784-.796 25.599-11.467 25.599-26.484z" fill="#f24500"/><path d="m288.415 249.873v-51.305h25.691c11.538 0 17.845 7.769 17.845 17.076 0 9.23-6.307 16.999-17.845 16.999h-12.461v17.23zm30.075-34.23c0-3.538-2.615-5.538-6.153-5.538h-10.691v11h10.691c3.538 0 6.153-2 6.153-5.462z" fill="#f24500"/><g fill="#fe6a16"><path d="m114.877 334.951 7-9.923c3.692 3.692 9.384 6.769 16.384 6.769 4.538 0 7.307-1.769 7.307-4.231 0-7-29.075-1.385-29.075-21.153 0-8.615 7.307-16.307 20.46-16.307 8.23 0 15.384 2.461 20.845 7.154l-7.23 9.461c-4.308-3.538-9.923-5.307-15-5.307-3.846 0-5.538 1.538-5.538 3.692 0 6.538 28.999 1.769 28.999 20.845 0 10.307-7.615 17.153-21.383 17.153-10.385 0-17.615-3.23-22.769-8.153z"/><path d="m165.184 342.181v-51.305h37.614v11.538h-24.384v8h23.845v11.538h-23.845v8.692h24.384v11.538h-37.614z"/><path d="m207.876 316.567c0-15.845 12-26.537 27.768-26.537 12.384 0 18.999 7 22.384 13.769l-11.384 5.384c-1.692-4.077-6.077-7.461-11-7.461-8.384 0-14.307 6.461-14.307 14.845s5.923 14.845 14.307 14.845c4.923 0 9.307-3.385 11-7.461l11.384 5.385c-3.308 6.615-10 13.769-22.384 13.769-15.768-.001-27.768-10.77-27.768-26.538z"/></g><path d="m292.336 342.181-8.615-17.23h-6.769v17.23h-13.23v-51.305h25.691c11.384 0 17.845 7.538 17.845 17.076 0 8.923-5.461 13.692-10.23 15.384l10.462 18.845zm1.461-34.306c0-3.461-2.923-5.461-6.384-5.461h-10.461v11h10.461c3.461-.001 6.384-1.924 6.384-5.539z" fill="#f24500"/><path d="m314.568 342.181v-51.305h37.613v11.538h-24.383v8h23.845v11.538h-23.845v8.692h24.383v11.538h-37.613z" fill="#f24500"/><path d="m371.336 342.181v-39.767h-14.384v-11.538h41.921v11.538h-14.307v39.767z" fill="#f24500"/></g></g></svg>