<svg id="Capa_1" enable-background="new 0 0 512 512" height="512" viewBox="0 0 512 512" width="512" xmlns="http://www.w3.org/2000/svg"><g><g><g><g><g><g><g><g><g><circle cx="256" cy="256" fill="#a3d4ff" r="256"/></g></g></g></g></g></g></g></g><path d="m512 256c0-14.496-1.205-28.71-3.52-42.549l-125.073-125.073-15.129 39.604-51.333-51.332-30 39.095 113.551 113.551-5.929.144-53.221-53.509-23.155 29.023-118.53-118.531-29.1 47.136-21.724-21.724-30 74.28 48.837 48.837-106.816 2.595 125.267 125.266-95.682 32.065 111.376 111.375c17.464 3.765 35.591 5.747 54.181 5.747 141.385 0 256-114.615 256-256z" fill="#65b1fc"/><g><path d="m149.792 225.31c0-45.812 47.551-82.951 106.208-82.951s106.208 37.138 106.208 82.951z" fill="#fe6a16"/></g><g><path d="m256.12 142.361v82.949h106.087c.001-45.781-47.485-82.898-106.087-82.949z" fill="#f24500"/></g><g><ellipse cx="256" cy="232.052" fill="#555a66" rx="198.407" ry="30.299"/></g><g><path d="m454.407 232.052c0-16.727-88.765-30.288-198.286-30.298v60.597c109.521-.011 198.286-13.572 198.286-30.299z" fill="#333940"/></g><g><path d="m416.624 302.749c-1.327 0-2.644.045-3.948.133-8.827-20.76-29.409-35.318-53.391-35.318-23.937 0-44.487 14.503-53.341 35.202-.463-.011-.926-.017-1.391-.017-11.607 0-22.416 3.41-31.482 9.283-20.591 13.339-10.724 45.45 13.811 45.45h147.415c24.534 0 34.402-32.11 13.811-45.45-9.068-5.873-19.877-9.283-31.484-9.283z" fill="#e9edf5"/></g><g><path d="m208.527 356.977c-1.062 0-2.116.036-3.161.106-7.066-16.618-23.541-28.271-42.738-28.271-19.161 0-35.611 11.61-42.699 28.178-.37-.009-.742-.013-1.114-.013-9.291 0-17.944 2.73-25.201 7.431-16.483 10.678-8.584 36.382 11.055 36.382h118.002c19.639 0 27.538-25.704 11.055-36.382-7.255-4.701-15.908-7.431-25.199-7.431z" fill="#fff"/></g><g><path d="m118.837 111.835h30v74.28h-30z" fill="#fff"/></g><g><path d="m169.661 86.423h30v48.869h-30z" fill="#fff"/></g><g><path d="m353.407 88.378h30v62.552h-30z" fill="#e9edf5"/></g><g><path d="m286.945 76.65h30v39.095h-30z" fill="#e9edf5"/></g><g><path d="m400.321 156.794h30v41.05h-30z" fill="#e9edf5"/></g></g></svg>