<svg id="Capa_1" enable-background="new 0 0 512 512" height="512" viewBox="0 0 512 512" width="512" xmlns="http://www.w3.org/2000/svg"><g><g><g><g><g><g><g><g><g><path d="m394.555 471.301c-39.937 25.754-87.501 40.699-138.555 40.699-51.089 0-98.682-14.965-138.635-40.751l-29.808-22.467c-53.662-46.927-87.557-115.896-87.557-192.782 0-141.385 114.615-256 256-256s256 114.615 256 256c0 76.914-33.919 145.905-87.615 192.832z" fill="#994aff"/></g></g></g></g></g></g></g></g><path d="m424.389 448.829c49.622-43.369 82.354-105.582 87.032-175.476l-175.285-175.286-230.163 189.97 11.588 183.337c39.913 25.709 87.434 40.626 138.439 40.626 51.038 0 98.587-14.936 138.516-40.674z" fill="#5e00d8"/><g><path d="m87.561 298.854v149.931c9.417 8.234 19.442 15.79 30 22.59v-172.521c0-13.913 11.319-25.233 25.233-25.233h33.07v-30h-33.07c-30.456 0-55.233 24.777-55.233 55.233z" fill="#dce1eb"/></g><g><path d="m369.206 243.621h-33.07v30h33.07c13.914 0 25.233 11.319 25.233 25.233v172.521c10.558-6.8 20.583-14.356 30-22.59v-149.931c0-30.456-24.777-55.233-55.233-55.233z" fill="#bec3d2"/></g><g><path d="m366.117 326.823-135.846.735-84.389-.734v-153.235c0-60.816 49.301-110.117 110.117-110.117 60.816 0 110.117 49.301 110.117 110.117v153.234z" fill="#00d65b"/></g><g><path d="m366.117 173.589c0-60.776-49.236-110.051-109.997-110.116v264.541h106.45l3.548-1.191v-153.234z" fill="#06bf51"/></g><g><path d="m319.529 357.335c17.77 0 32.175-14.405 32.175-32.175 0-16.394-12.261-29.924-28.114-31.921-4.329-12.656-16.327-21.756-30.45-21.756-4.474 0-8.734.914-12.605 2.563-5.902-6.95-14.703-11.36-24.535-11.36s-18.633 4.41-24.535 11.36c-3.871-1.65-8.131-2.563-12.605-2.563-14.123 0-26.121 9.1-30.45 21.756-15.853 1.997-28.114 15.527-28.114 31.921 0 17.77 14.405 32.175 32.175 32.175z" fill="#09af4c"/></g><g><path d="m323.59 293.24c-4.329-12.656-16.327-21.756-30.45-21.756-4.474 0-8.734.914-12.605 2.563-5.878-6.921-14.632-11.32-24.415-11.356v94.645h63.409c17.77 0 32.175-14.405 32.175-32.175 0-16.395-12.261-29.925-28.114-31.921z" fill="#0a9154"/></g><g><path d="m145.883 326.823c0 36.587 20.245 68.445 50.143 84.985 4.083 27.433 27.736 48.478 56.305 48.478h7.337c28.569 0 52.223-21.045 56.305-48.478 29.899-16.539 50.143-48.398 50.143-84.985z" fill="#fff"/></g><g><path d="m256.12 326.823v133.462h3.548c28.569 0 52.223-21.045 56.305-48.478 29.899-16.539 50.143-48.398 50.143-84.985h-109.996z" fill="#e9edf5"/></g><g><g><ellipse cx="205.526" cy="370.282" fill="#414952" rx="25.17" ry="40.232" transform="matrix(.436 -.9 .9 .436 -217.322 393.725)"/></g><g><ellipse cx="306.474" cy="370.282" fill="#23272b" rx="40.232" ry="25.17" transform="matrix(.9 -.436 .436 .9 -130.816 170.75)"/></g></g><g><circle cx="190.525" cy="226.368" fill="#2af27a" r="16.615"/></g><g><circle cx="302.923" cy="109.083" fill="#02cc4a" r="12.706"/></g><g><circle cx="326.38" cy="237.119" fill="#02cc4a" r="13.683"/></g><g><circle cx="218.38" cy="135.96" fill="#2af27a" r="9.285"/></g><g><circle cx="254.054" cy="193.137" fill="#2af27a" r="15.638"/></g><g><path d="m269.692 193.137c0-7.934-5.914-14.472-13.571-15.486v30.972c7.657-1.014 13.571-7.552 13.571-15.486z" fill="#02cc4a"/></g></g></svg>