<svg id="Capa_1" enable-background="new 0 0 512 512" height="512" viewBox="0 0 512 512" width="512" xmlns="http://www.w3.org/2000/svg"><g><g><g><g><g><g><g><g><g><circle cx="256" cy="256" fill="#a3d4ff" r="256"/></g></g></g></g></g></g></g></g><path d="m512 256c0-5.275-.16-10.513-.474-15.709l-118.204-118.204-8.941 118.446-169.894-169.894-89.692 129.013 43.015 221.538-17.044 37.792 46.17 46.17c18.961 4.478 38.736 6.848 59.064 6.848 141.385 0 256-114.615 256-256z" fill="#65b1fc"/><g><g><path d="m150.766 391.218h43.004v67.765h-43.004z" fill="#fe6a16"/></g><g><path d="m318.229 391.218h43.004v67.765h-43.004z" fill="#f24500"/></g></g><g><g><path d="m183.211 380.793-95.749-36.489v-148.191c0-40.006 23.081-76.42 59.261-93.494l67.765-31.979-54.733 87.312v157.683z" fill="#414952"/></g><g><path d="m328.789 380.793 95.749-36.489v-148.191c0-40.006-23.081-76.42-59.261-93.494l-67.765-31.979 54.733 87.312v157.683z" fill="#23272b"/></g></g><g><path d="m299.946 315.301v-71.702c0-24.271-19.675-43.946-43.946-43.946-24.271 0-43.946 19.675-43.946 43.946v71.702c0 25.501-22.771 44.978-47.964 41.025l-76.628-12.022 66.428 76.887h209.526l61.122-76.887-76.628 12.022c-25.193 3.953-47.964-15.524-47.964-41.025z" fill="#994aff"/></g><g><path d="m424.538 344.304-76.628 12.022c-25.193 3.953-47.964-15.524-47.964-41.025v-71.702c0-24.23-19.611-43.878-43.826-43.943v221.535h107.296z" fill="#812af2"/></g><g><path d="m280.109 277.5h-48.217v-29.321c0-13.315 10.794-24.109 24.109-24.109 13.315 0 24.109 10.794 24.109 24.109v29.321z" fill="#fff"/></g><g><path d="m280.109 248.179c0-13.274-10.729-24.04-23.988-24.105v53.426h23.988z" fill="#e9edf5"/></g></g></svg>