<svg id="Capa_1" enable-background="new 0 0 512 512" height="512" viewBox="0 0 512 512" width="512" xmlns="http://www.w3.org/2000/svg"><g><g><g><g><g><g><g><g><g><circle cx="256" cy="256" fill="#ffce00" r="256"/></g></g></g></g></g></g></g></g><path d="m511.751 267.397-105.965-105.965-3.899 5.431-58.385-58.385-220.513 48.981-33.412 98.541-43.504 41.716 88.674 88.674-54.019 6.763 110.611 110.611c20.654 5.375 42.324 8.236 64.661 8.236 137.566 0 249.788-108.507 255.751-244.603z" fill="#ffa300"/><path d="m428.787 247.053v-32.044c0-40.811-33.202-74.013-74.013-74.013h-17.223v30h17.223c24.269 0 44.013 19.744 44.013 44.013v31.467c-22.507 6.166-39.096 26.802-39.096 51.239h30c0-12.747 10.371-23.118 23.118-23.118s23.117 10.371 23.117 23.118h30c.001-23.723-15.633-43.864-37.139-50.662z" fill="#d13400"/><path d="m157.226 140.997c-40.811 0-74.013 33.202-74.013 74.013v32.044c-21.506 6.797-37.14 26.938-37.14 50.663h30c0-12.747 10.37-23.118 23.117-23.118s23.118 10.371 23.118 23.118h30c0-24.438-16.588-45.073-39.096-51.239v-31.467c0-24.269 19.744-44.013 44.013-44.013h17.223v-30h-17.222z" fill="#f24500"/><g><path d="m421.984 355.584c-8.353 7.425-19.139 11.526-30.314 11.526-23.442 0-43.07-17.763-45.403-41.089l-4.957-49.567c14.518-38.185 23.178-78.541 23.178-103.841 0-59.917-48.572-108.488-108.489-108.488s-108.489 48.572-108.489 108.488c0 25.3 8.66 65.656 23.178 103.841l-4.957 49.567c-2.333 23.326-21.961 41.089-45.403 41.089-11.175 0-21.962-4.101-30.314-11.526l-39.812-35.388 15.328 45.983c10.761 32.284 40.475 54.462 74.486 55.595 29.206.974 56.111-13.724 71.312-37.551 16.057 45.969 44.672 102.126 44.672 102.126s28.615-56.157 44.67-102.126c15.201 23.826 42.106 38.524 71.312 37.551 34.011-1.134 63.725-23.312 74.486-55.595l15.328-45.983z" fill="#fe6a16"/></g><g><path d="m421.984 355.584c-8.353 7.425-19.139 11.526-30.314 11.526-23.442 0-43.07-17.763-45.403-41.089l-4.957-49.567c14.518-38.185 23.178-78.541 23.178-103.841 0-59.907-48.557-108.473-108.46-108.488l-.028 422.224c.971-1.91 28.896-56.961 44.67-102.126 15.201 23.826 42.106 38.524 71.312 37.551 34.011-1.134 63.725-23.312 74.486-55.595l15.328-45.983z" fill="#f24500"/></g><g><circle cx="256" cy="152.087" fill="#fff" r="52.778"/></g><g><path d="m308.778 152.087c0-29.139-23.615-52.762-52.75-52.778v105.555c29.136-.015 52.75-23.638 52.75-52.777z" fill="#e9edf5"/></g><g><circle cx="256" cy="152.087" fill="#707789" r="27.782"/></g><g><path d="m283.782 152.087c0-15.334-12.423-27.766-27.753-27.781v55.562c15.33-.015 27.753-12.447 27.753-27.781z" fill="#555a66"/></g><g><path d="m211.041 221.141h89.918v30h-89.918z" fill="#414952"/></g><g><path d="m256.028 221.141h44.931v30h-44.931z" fill="#23272b"/></g></g></svg>