<svg id="Capa_1" enable-background="new 0 0 512 512" height="512" viewBox="0 0 512 512" width="512" xmlns="http://www.w3.org/2000/svg"><g><g><g><g><g><g><g><g><path d="m512 256c0-141.385-114.615-256-256-256s-256 114.615-256 256c0 94.928 51.67 177.787 128.418 221.991h255.163c76.749-44.204 128.419-127.063 128.419-221.991z" fill="#994aff"/></g></g></g></g></g></g></g><path d="m511.139 277.139-65.076-65.076-14.057 5.097-106.652-106.652-252.907 177.838 189.645 189.645h121.474c71-40.888 120.544-114.849 127.573-200.852z" fill="#5e00d8"/><g><path d="m128.854 478.243c37.46 21.478 80.869 33.757 127.146 33.757s89.686-12.279 127.146-33.757l-38.698-255.998h-176.896z" fill="#ffce00"/></g><g><path d="m344.448 222.245h-88.328v289.754c46.232-.021 89.598-12.297 127.026-33.756z" fill="#fdba12"/></g><g><path d="m450.172 270.072c0 30.88-86.934 55.914-194.172 55.914s-194.172-25.034-194.172-55.914v-46.524h388.343v46.524z" fill="#dce1eb"/></g><g><path d="m256.12 223.548v102.438c107.182-.019 194.051-25.045 194.051-55.914v-46.524z" fill="#bec3d2"/></g><g><ellipse cx="256" cy="223.548" fill="#f2f6fc" rx="194.172" ry="55.914"/></g><g><path d="m450.172 223.548c0-30.869-86.869-55.895-194.051-55.914v111.827c107.182-.018 194.051-25.044 194.051-55.913z" fill="#dce1eb"/></g><g><path d="m158.543 207.292v-28.324c0-53.824 43.633-97.457 97.457-97.457 53.824 0 97.457 43.633 97.457 97.457v28.324s-90.509 33.261-194.914 0z" fill="#a3d4ff"/></g><g><path d="m353.457 178.969c0-53.784-43.568-97.39-97.337-97.456v140.555c57.404-.11 97.337-14.776 97.337-14.776z" fill="#65b1fc"/></g><g><ellipse cx="256" cy="245.702" fill="#bec3d2" rx="29.973" ry="14.335"/></g><g><path d="m285.973 245.702c0-7.898-13.354-14.302-29.852-14.333v28.667c16.497-.032 29.852-6.437 29.852-14.334z" fill="#9196aa"/></g><g><g><ellipse cx="394.135" cy="223.548" fill="#9196aa" rx="29.973" ry="14.335"/></g><g><ellipse cx="117.865" cy="223.548" fill="#bec3d2" rx="29.973" ry="14.335"/></g></g></g></svg>