<svg id="Capa_1" enable-background="new 0 0 512 512" height="512" viewBox="0 0 512 512" width="512" xmlns="http://www.w3.org/2000/svg"><g><g><g><g><g><g><g><g><g><ellipse cx="256" cy="256" fill="#994aff" rx="256" ry="256" transform="matrix(.707 -.707 .707 .707 -106.039 256)"/></g></g></g></g></g></g></g></g><path d="m512 256c0-24.088-3.327-47.399-9.547-69.499l-60.099-60.1-105.556 31.861 79.32 79.32-8.126 34.436-82.08-82.329-32.017 38.396-118.692-118.691-66.371 23.325-39.186 252.879 116.856 116.856c22.099 6.219 45.41 9.546 69.498 9.546 141.385 0 256-114.615 256-256z" fill="#5e00d8"/><g><path d="m104.507 225.702h302.986v60.597h-302.986z" fill="#e9edf5"/></g><g><path d="m256.121 225.702h151.372v60.597h-151.372z" fill="#cdd2e1"/></g><g><circle cx="256" cy="256" fill="#fff" r="96.357"/></g><g><path d="m352.357 256c0-53.176-43.076-96.29-96.237-96.355v192.711c53.162-.066 96.237-43.18 96.237-96.356z" fill="#e9edf5"/></g><g><circle cx="256" cy="256" fill="#a3d4ff" r="44.825"/></g><g><path d="m300.825 256c0-24.716-20.004-44.757-44.705-44.822v89.645c24.701-.066 44.705-20.107 44.705-44.823z" fill="#65b1fc"/></g><g><g><path d="m175.203 158.263v-48.869l-105.557 17.008v259.196l105.557 17.008v-48.869h-48.869v-195.474z" fill="#cdd2e1"/></g><g><path d="m336.798 353.738v48.868l105.556-17.008v-259.196l-105.556-17.008v48.869h48.868v195.475z" fill="#afb4c8"/></g></g></g></svg>