<svg id="Capa_1" enable-background="new 0 0 512 512" height="512" viewBox="0 0 512 512" width="512" xmlns="http://www.w3.org/2000/svg"><g><g><g><g><g><g><g><g><g><circle cx="256" cy="256" fill="#00d65b" r="256"/></g></g></g></g></g></g></g></g><path d="m512 256c0-6.198-.221-12.344-.654-18.431l-80.815-80.815-376.317 91.635 51.763 51.763-9.758 11.069 24.013 24.013-21.381 54.825 119.139 119.138c12.402 1.846 25.094 2.803 38.01 2.803 141.385 0 256-114.615 256-256z" fill="#09b750"/><g><path d="m235.475 223.615h41.05v68.416h-41.05z" fill="#ffce00"/></g><g><path d="m256.121 223.615h20.404v68.416h-20.404z" fill="#fdba12"/></g><g><path d="m100.598 223.615h41.05v68.416h-41.05z" fill="#ffce00"/></g><g><path d="m370.353 223.615h41.05v68.416h-41.05z" fill="#fdba12"/></g><g><path d="m447.565 237.298h-383.13v-31.074c0-44.374 35.973-80.347 80.347-80.347h222.436c44.374 0 80.347 35.973 80.347 80.347z" fill="#555a66"/></g><g><path d="m447.565 206.225c0-44.374-35.972-80.347-80.347-80.347h-111.097v111.421h191.445v-31.074z" fill="#333940"/></g><g><g><circle cx="146.534" cy="182.565" fill="#ffce00" r="23.457"/></g><g><circle cx="365.466" cy="182.565" fill="#fdba12" r="23.457"/></g></g><g><circle cx="256" cy="182.565" fill="#ffce00" r="23.457"/></g><g><path d="m279.457 182.565c0-12.915-10.438-23.389-23.336-23.454v46.908c12.899-.065 23.336-10.539 23.336-23.454z" fill="#fdba12"/></g><g><g><path d="m163.15 277.371c0 23.211-18.816 42.027-42.027 42.027s-42.027-18.816-42.027-42.027z" fill="#636978"/></g><g><path d="m432.905 277.371c0 23.211-18.816 42.027-42.027 42.027s-42.027-18.816-42.027-42.027z" fill="#414952"/></g></g><g><path d="m298.027 277.371c0 23.211-18.816 42.027-42.027 42.027s-42.027-18.816-42.027-42.027z" fill="#636978"/></g><g><path d="m298.027 277.371h-41.906v42.024c23.155-.066 41.906-18.854 41.906-42.024z" fill="#414952"/></g><g><path d="m54.214 218.389h403.571v30h-403.571z" fill="#fff"/></g><g><path d="m256.121 218.389h201.665v30h-201.665z" fill="#e9edf5"/></g><g><path d="m241 344.81h30v58.642h-30z" fill="#fff"/></g><g><path d="m256.121 344.81h14.879v58.642h-14.879z" fill="#e9edf5"/></g><g><path d="m167.268 317.443h30v68.416h-30z" fill="#fff"/></g><g><path d="m98.852 331.416h30v58.643h-30z" fill="#fff"/></g><g><path d="m167.268 422.022h30v22.479h-30z" fill="#fff"/></g><g><path d="m314.732 317.443h30v68.416h-30z" fill="#e9edf5"/></g><g><path d="m383.148 331.416h30v58.643h-30z" fill="#e9edf5"/></g><g><path d="m314.732 422.022h30v22.479h-30z" fill="#e9edf5"/></g><g><path d="m241 425.932h30v37.14h-30z" fill="#fff"/></g><g><path d="m256.121 425.932h14.879v37.14h-14.879z" fill="#e9edf5"/></g></g></svg>