<svg id="Capa_1" enable-background="new 0 0 512 512" height="512" viewBox="0 0 512 512" width="512" xmlns="http://www.w3.org/2000/svg"><g><g><g><g><g><g><g><g><g><circle cx="256" cy="256" fill="#994aff" r="256"/></g></g></g></g></g></g></g></g><g fill="#5e00d8"><path d="m510.589 283.035-215.238-215.239-50.504 78.664-75.172-75.172-42.469 22.519-25.961 45.911 89.455 89.455-31.455 104.717 61.838 61.838-13.315 53.078-76.523-76.523-30 68.43 48.064 48.064c32.477 14.909 68.613 23.223 106.691 23.223 132.254 0 241.084-100.289 254.589-228.965z"/><path d="m342.326 101.288 169.267 169.267c.27-4.817.407-9.67.407-14.555 0-38.078-8.313-74.214-23.224-106.692l-78.02-78.02z"/></g><g><g><path d="m310.416 101.901c0 27.287-32.26 82.925-54.416 82.925-23.342 0-54.416-55.638-54.416-82.925s24.363-49.407 54.416-49.407 54.416 22.12 54.416 49.407z" fill="#00d65b"/></g><g><path d="m310.416 101.901c0-27.25-24.298-49.344-54.295-49.404v132.324c22.152-.2 54.295-55.683 54.295-82.92z" fill="#06bf51"/></g><g><ellipse cx="228.591" cy="123.571" fill="#414952" rx="13.668" ry="21.847" transform="matrix(.436 -.9 .9 .436 17.69 275.375)"/></g><g><ellipse cx="283.409" cy="123.571" fill="#23272b" rx="21.847" ry="13.668" transform="matrix(.9 -.436 .436 .9 -25.519 135.986)"/></g></g><g><path d="m131.244 139.718h-30v-68.43h68.43v30h-38.43z" fill="#fff"/></g><g><path d="m410.756 139.718h-30v-38.43h-38.43v-30h68.43z" fill="#e9edf5"/></g><g><path d="m410.756 440.712h-68.43v-30h38.43v-38.43h30z" fill="#e9edf5"/></g><g><path d="m169.674 440.712h-68.43v-68.43h30v38.43h38.43z" fill="#fff"/></g><path d="m286.064 186.576c-8.4-6.232-18.801-9.919-30.064-9.919-11.389 0-21.897 3.77-30.346 10.13-37.979 8.647-66.409 42.691-66.409 83.25v63.853h30v-63.853c0-15.272 6.215-29.121 16.249-39.148v222.892h30.817v-110.196c0-10.874 8.815-19.689 19.689-19.689s19.689 8.815 19.689 19.689v110.196h30.817v-223.549c10.426 10.075 16.917 24.197 16.917 39.806v63.853h30v-63.853c.001-40.898-28.905-75.171-67.359-83.462z" fill="#02cc4a"/><path d="m286.059 186.575c-8.369-6.208-18.724-9.889-29.939-9.916v147.242c10.818.066 19.568 8.849 19.568 19.683v110.196h30.817v-223.548c10.426 10.075 16.917 24.197 16.917 39.806v63.853h30v-63.853c.002-40.9-28.906-75.173-67.363-83.463z" fill="#0d9b50"/></g></svg>