<svg id="Capa_1" enable-background="new 0 0 512 512" height="512" viewBox="0 0 512 512" width="512" xmlns="http://www.w3.org/2000/svg"><g><g><g><g><g><g><g><g><g><circle cx="256" cy="256" fill="#00d65b" r="256"/></g></g></g></g></g></g></g></g><path d="m512 256c0-8.191-.385-16.291-1.137-24.285l-83.868-83.868-13.733 19.009-106.856-106.856-91.267 100.704 56.041 56.041-16.015 71.262-140.16-140.16-8.282 137.055 83.826 84.658-50.074 46.604 33.509 33.509-25.391 6.912 48.638 48.638c18.871 4.432 38.546 6.777 58.769 6.777 141.385 0 256-114.615 256-256z" fill="#09b750"/><g><path d="m363.407 456.584h-214.814l29.181-63.352h156.452z" fill="#fff"/></g><g><path d="m334.226 393.232h-78.105v63.352h107.286z" fill="#e9edf5"/></g><g><path d="m152.91 361.711-33.354-32.373c-21.957-21.311-34.551-51.084-34.551-81.684v-99.807h30v99.807c0 22.536 9.274 44.462 25.445 60.157l33.354 32.373z" fill="#fa0"/></g><g><path d="m359.09 361.711-20.895-21.527 33.354-32.373c16.171-15.695 25.445-37.621 25.445-60.157v-99.807h30v99.807c0 30.6-12.594 60.373-34.551 81.684z" fill="#ff9500"/></g><g><path d="m371.525 416.163h-231.05v-128.568c0-63.803 51.722-115.525 115.525-115.525 63.803 0 115.525 51.722 115.525 115.525z" fill="#ffce00"/></g><g><path d="m371.525 287.595c0-63.762-51.657-115.458-115.404-115.523v244.091h115.404z" fill="#fdba12"/></g><g><path d="m324.262 106.03c0-37.7-30.562-68.262-68.262-68.262s-68.262 30.562-68.262 68.262c0 28.223 17.127 52.445 41.555 62.84v49.783h53.415v-49.783c24.427-10.395 41.554-34.617 41.554-62.84z" fill="#fa0"/></g><g><path d="m256.121 37.771v180.882h26.587v-49.783c24.427-10.395 41.555-34.617 41.555-62.84-.001-37.66-30.498-68.194-68.142-68.259z" fill="#ff9500"/></g><g><g><circle cx="256" cy="106.03" fill="#fff" r="43.999"/></g><g><path d="m299.999 106.03c0-24.26-19.635-43.931-43.879-43.996v87.992c24.245-.065 43.879-19.736 43.879-43.996z" fill="#e9edf5"/></g><g><circle cx="256" cy="106.03" fill="#555a66" r="19.951"/></g><g><path d="m275.951 106.03c0-10.978-8.868-19.879-19.83-19.945v39.889c10.962-.065 19.83-8.966 19.83-19.944z" fill="#333940"/></g></g><g><path d="m313.042 301.88h-113.04c-14.064 0-25.465-11.401-25.465-25.465 0-14.064 11.401-25.465 25.465-25.465h113.04c14.064 0 25.465 11.401 25.465 25.465.001 14.064-11.401 25.465-25.465 25.465z" fill="#fa0"/></g><g><path d="m313.042 250.95h-56.922v50.93h56.922c14.064 0 25.465-11.401 25.465-25.465.001-14.064-11.401-25.465-25.465-25.465z" fill="#ff9500"/></g></g></svg>