<svg id="Capa_1" enable-background="new 0 0 512 512" height="512" viewBox="0 0 512 512" width="512" xmlns="http://www.w3.org/2000/svg"><g><g><g><g><g><g><g><g><g><circle cx="256" cy="256" fill="#994aff" r="256"/></g></g></g></g></g></g></g></g><path d="m212.049 432.09 77.705 77.704c125.431-16.521 222.246-123.851 222.246-253.794 0-5.27-.159-10.504-.473-15.695l-142.705-142.705z" fill="#5e00d8"/><g><path d="m418.094 203.264c0 81.281-96.096 247.016-162.094 247.016-69.531 0-162.094-165.735-162.094-247.016s72.572-147.173 162.094-147.173 162.094 65.892 162.094 147.173z" fill="#00d65b"/></g><g><path d="m418.094 203.264c0-81.245-72.507-147.112-161.973-147.171v394.185c65.994-.202 161.973-165.783 161.973-247.014z" fill="#09b750"/></g><g><ellipse cx="174.354" cy="267.815" fill="#414952" rx="40.714" ry="65.078" transform="matrix(.436 -.9 .9 .436 -142.691 307.899)"/></g><g><ellipse cx="337.646" cy="267.815" fill="#23272b" rx="65.078" ry="40.714" transform="matrix(.9 -.436 .436 .9 -83.002 174.086)"/></g></g></svg>