<svg id="Capa_1" enable-background="new 0 0 512 512" height="512" viewBox="0 0 512 512" width="512" xmlns="http://www.w3.org/2000/svg"><g><g><g><g><g><g><g><g><g><circle cx="256" cy="256" fill="#00d65b" r="256"/></g></g></g></g></g></g></g></g><path d="m511.654 269.414-140.112-140.112-11.541 12.769-104.001-104.001-33.606 71.788-42.902 7.239-31.216 51.535 31.744 31.744-86.953 185.742 122.745 122.745c13.093 2.065 26.515 3.137 40.188 3.137 136.885 0 248.677-107.436 255.654-242.586z" fill="#09b750"/><g><path d="m114.503 395.022-21.436-8.904 117.56-251.125.456-16.822 14.147-14.372 30.77-65.729 30.621 65.411 15.792 15.559-1.025 15.986 117.545 251.093-21.436 8.904c-90.58 37.623-192.414 37.623-282.994-.001z" fill="#ffce00"/></g><g><path d="m418.933 386.119-117.645-251.307.474-15.012-15.038-16.099-30.724-65.631.014 385.17c48.099-.002 96.197-9.407 141.483-28.217z" fill="#fdba12"/></g><g><path d="m307.671 256.662h-91.637v63.098 31.269 46.997h40.23v-46.997h55.848v44.084h40.23v-44.084-34.181-15.514c.001-24.672-19.999-44.672-44.671-44.672z" fill="#fff"/></g><g><path d="m281.643 351.029h30.47v44.084h40.23v-44.084-34.181-15.514c0-24.671-20-44.672-44.672-44.672h-26.028z" fill="#e9edf5"/></g><g><path d="m286.698 103.646 14.793 31.6c20.483 2.688 34.842 6.863 42.292 10.426-12.115 5.794-42.499 13.209-87.783 13.209-45.285 0-75.668-7.415-87.783-13.209 7.45-3.563 21.809-7.739 42.292-10.426l14.793-31.6c-37.211 2.787-91.435 12.003-91.435 42.026 0 41.126 101.739 43.209 122.134 43.209s122.134-2.083 122.134-43.209c-.001-30.023-54.225-39.238-91.437-42.026z" fill="#e9edf5"/></g><g><path d="m378.134 145.673c0-30.024-54.224-39.239-91.435-42.026l14.793 31.6c20.483 2.688 34.842 6.863 42.292 10.426-12.114 5.794-42.493 13.207-87.769 13.209v30c20.424-.001 122.119-2.093 122.119-43.209z" fill="#cdd2e1"/></g><g><path d="m256.933 222.082c-8.943 0-16.193 7.25-16.193 16.193v.626h-34.035v-.626c0-8.943-7.25-16.193-16.193-16.193h-11.021v11.021c0 6.574 3.918 12.234 9.546 14.77v46.611c0 9.114 7.389 16.503 16.503 16.503h36.365c9.114 0 16.503-7.389 16.503-16.503v-46.611c5.628-2.537 9.546-8.196 9.546-14.77v-11.021z" fill="#e9edf5"/></g><g><path d="m256.933 222.082c-8.943 0-16.193 7.25-16.193 16.193v.626h-18.355v72.086h19.52c9.114 0 16.503-7.389 16.503-16.503v-46.611c5.628-2.537 9.546-8.196 9.546-14.77v-11.021z" fill="#cdd2e1"/></g><g><path d="m243.27 322.877h-39.095c-12.115 0-21.937-9.821-21.937-21.937 0-12.115 9.821-21.937 21.937-21.937h39.095c12.115 0 21.937 9.821 21.937 21.937 0 12.115-9.821 21.937-21.937 21.937z" fill="#dce1eb"/></g><g><path d="m243.27 279.003h-20.885v43.873h20.885c12.115 0 21.937-9.821 21.937-21.937 0-12.114-9.822-21.936-21.937-21.936z" fill="#bec3d2"/></g><g><g><circle cx="207.258" cy="265.704" fill="#707789" r="8.424"/></g><g><circle cx="240.188" cy="265.704" fill="#555a66" r="8.424"/></g></g><g><g><circle cx="203.879" cy="300.94" fill="#bec3d2" r="10.153"/></g><g><circle cx="243.567" cy="300.94" fill="#9196aa" r="10.153"/></g></g></g></svg>