<svg id="Capa_1" enable-background="new 0 0 512 512" height="512" viewBox="0 0 512 512" width="512" xmlns="http://www.w3.org/2000/svg"><g><g><g><g><g><g><g><g><circle cx="256" cy="256" fill="#994aff" r="256"/></g></g></g></g></g></g></g><path d="m512 256c0-5.51-.174-10.979-.517-16.402l-146.578-146.578-12.844 62.657-72.363-72.363-16.984 80.511-70.805-70.805-51.382 231.99-59.527 21.547 165.262 165.261c3.231.121 6.477.182 9.738.182 141.385 0 256-114.615 256-256z" fill="#5e00d8"/><g><path d="m420.927 222.769c-6.815 0-15.848 3.923-24.51 10.651-8.81-9.561-19.936-18.144-32.884-25.433l-4.664-77.333c6.675-4.99 10.995-12.956 10.995-21.932 0-15.114-12.252-27.366-27.366-27.366s-27.366 12.252-27.366 27.366c0 8.975 4.321 16.941 10.995 21.932l-3.646 60.44c-14.429-4.133-29.969-6.963-46.255-8.253l-3.855-63.915c6.675-4.99 10.995-12.956 10.995-21.932 0-15.114-12.252-27.366-27.366-27.366s-27.366 12.252-27.366 27.366c0 8.975 4.321 16.941 10.995 21.932l-3.855 63.915c-16.286 1.291-31.826 4.12-46.255 8.253l-3.646-60.44c6.675-4.99 10.995-12.956 10.995-21.932 0-15.114-12.252-27.366-27.366-27.366s-27.366 12.252-27.366 27.366c0 8.975 4.321 16.941 10.995 21.932l-4.664 77.333c-12.851 7.234-23.907 15.742-32.685 25.217-8.577-6.597-17.489-10.436-24.231-10.436-18.353 0-33.23 28.443-33.23 63.529s14.878 63.529 33.23 63.529c6.742 0 15.654-3.839 24.231-10.436 28.374 30.627 80.549 51.16 140.218 51.16 59.808 0 112.088-20.629 140.417-51.375 8.663 6.729 17.694 10.651 24.51 10.651 18.353 0 33.231-28.443 33.231-63.529s-14.878-63.528-33.231-63.528z" fill="#ffce00"/></g><g><path d="m420.927 222.769c-6.815 0-15.848 3.923-24.51 10.651-8.81-9.561-19.936-18.144-32.884-25.433l-4.664-77.333c6.675-4.99 10.995-12.956 10.995-21.932 0-15.114-12.252-27.366-27.366-27.366s-27.366 12.252-27.366 27.366c0 8.975 4.321 16.941 10.995 21.932l-3.646 60.44c-14.429-4.133-29.969-6.963-46.255-8.253l-3.855-63.915c6.675-4.99 10.995-12.956 10.995-21.932 0-15.074-12.188-27.298-27.246-27.363v320.919c59.757-.028 111.986-20.648 140.296-51.374 8.663 6.729 17.694 10.651 24.51 10.651 18.353 0 33.231-28.443 33.231-63.529s-14.877-63.529-33.23-63.529z" fill="#fdba12"/></g><g><g><g><circle cx="170.968" cy="268.035" fill="#fff" r="37.14"/></g><g><circle cx="170.968" cy="268.035" fill="#555a66" r="16.841"/></g></g><g><g><circle cx="341.031" cy="268.035" fill="#e9edf5" r="37.14"/></g><g><circle cx="341.031" cy="268.035" fill="#333940" r="16.841"/></g></g></g><g><g><circle cx="256" cy="268.035" fill="#fff" r="37.14"/></g><g><path d="m293.14 268.035c0-20.472-16.563-37.072-37.02-37.137v74.274c20.457-.065 37.02-16.665 37.02-37.137z" fill="#e9edf5"/></g><g><circle cx="256" cy="268.035" fill="#555a66" r="16.841"/></g><g><path d="m272.841 268.035c0-9.26-7.475-16.769-16.72-16.835v33.669c9.244-.065 16.72-7.574 16.72-16.834z" fill="#333940"/></g></g><g><path d="m212.995 325.361h86.01v30h-86.01z" fill="#555a66"/></g><g><path d="m256.121 325.361h42.884v30h-42.884z" fill="#333940"/></g></g></svg>