<svg height="512pt" viewBox="0 0 512 512" width="512pt" xmlns="http://www.w3.org/2000/svg"><path d="m512 256c0 141.386719-114.613281 256-256 256s-256-114.613281-256-256 114.613281-256 256-256 256 114.613281 256 256zm0 0" fill="#87c7ff"/><path d="m512 256c0-27.464844-4.34375-53.910156-12.347656-78.710938l-84.398438-84.394531-231.316406 160.839844-62.039062-62.039063-20.550782 119.464844 93.058594 93.058594-25.816406 34.300781 73.070312 73.074219c4.75.261719 9.527344.40625 14.339844.40625 141.386719 0 256-114.613281 256-256zm0 0" fill="#4a98f7"/><path d="m306.035156 445.375-37.144531-202.46875h-25.78125l-37.144531 202.46875-37.375-6.855469 42.855468-233.613281h89.109376l42.855468 233.613281zm0 0" fill="#fff"/><path d="m300.554688 204.90625h-44.980469v38h13.316406l37.144531 202.46875 37.375-6.855469zm0 0" fill="#e9edf5"/><path d="m74.253906 214.019531 169.070313-47.148437 24.746093 88.738281-169.070312 47.148437zm0 0" fill="#555a66"/><path d="m202.777344 165.300781 181.894531-50.722656 31.410156 112.636719-181.894531 50.722656zm0 0" fill="#414952"/><path d="m384.691406 114.578125-129.117187 36.003906v121.40625l160.53125-44.769531zm0 0" fill="#23272b"/><path d="m363.128906 107.425781 52.101563-14.53125 38.222656 137.0625-52.105469 14.527344zm0 0" fill="#333940"/><path d="m71.914062 205.625 49.976563-13.9375 29.425781 105.523438-49.976562 13.9375zm0 0" fill="#7e8596"/></svg>