<svg height="512pt" viewBox="0 0 512 512.00015" width="512pt" xmlns="http://www.w3.org/2000/svg"><path d="m512 256.269531c0 .320313 0 .640625-.011719.960938 0 1.308593-.019531 2.621093-.046875 3.917969-.070312 3.480468-.203125 6.953124-.410156 10.402343-.589844 9.878907-1.742188 19.597657-3.421875 29.140625-2.238281 12.71875-5.429687 25.128906-9.480469 37.128906-.140625.410157-.269531.808594-.410156 1.210938-.238281.699219-.480469 1.390625-.730469 2.078125-24.558593 69.730469-78.46875 125.621094-146.878906 152.839844-3.121094 1.25-6.277344 2.429687-9.460937 3.53125-.417969.160156-.839844.308593-1.257813.449219-.789063.269531-1.582031.539062-2.378906.808593-7.371094 2.480469-14.882813 4.632813-22.542969 6.433594-4.839844 1.136719-9.738281 2.148437-14.679688 3.007813-10.148437 1.769531-20.507812 2.949218-31.039062 3.46875-.621094.042968-1.238281.070312-1.859375.101562-.332031.011719-.671875.03125-1 .039062-3.53125.152344-7.089844.210938-10.660156.210938-12.550781-.011719-24.898438-.929688-36.960938-2.699219-4.308593-.621093-8.578125-1.351562-12.808593-2.191406-.230469-.050781-.472657-.089844-.699219-.140625-12.929688-2.597656-25.492188-6.167969-37.621094-10.628906-3.519531-1.300782-7-2.667969-10.449219-4.121094-92.421875-38.6875-157.300781-130.039062-157.191406-236.488281.148438-141.378907 114.890625-255.878907 256.269531-255.730469 119.0625.128906 219.0625 81.511719 247.5625 191.640625.339844 1.328125.679688 2.660156 1 4 .699219 2.890625 1.347657 5.789063 1.949219 8.71875.390625 1.929687.769531 3.871094 1.109375 5.820313.121094.582031.21875 1.160156.320313 1.742187 1.140624 6.519531 2.019531 13.117187 2.648437 19.796875.421875 4.429688.722656 8.890625.910156 13.382812.160157 3.699219.230469 7.429688.230469 11.167969zm0 0" fill="#3a3aeb"/><path d="m498.628906 337.820312c-.140625.410157-.269531.808594-.410156 1.210938-.238281.699219-.480469 1.390625-.730469 2.078125-24.558593 69.730469-78.46875 125.621094-146.878906 152.839844-3.121094 1.25-6.277344 2.429687-9.460937 3.53125l-167.558594-167.558594 158.570312-158.570313zm0 0" fill="#3233c4"/><path d="m366.699219 333.683594c-.746094-1.472656-1.394531-2.996094-1.960938-4.546875-1.535156-4.195313-4.035156-8.199219-7.480469-11.648438-11.523437-11.519531-29.25-12.46875-39.597656-2.117187-10.351562 10.347656-9.398437 28.074218 2.121094 39.597656 3.46875 3.46875 7.503906 5.976562 11.726562 7.507812 1.554688.566407 3.082032 1.207032 4.558594 1.953126l55.027344 24.230468zm0 0" fill="#ffbf00"/><path d="m357.257812 317.488281c3.449219 3.449219 5.953126 7.453125 7.488282 11.644531.5625 1.558594 1.207031 3.078126 1.957031 4.546876l24.386719 54.980468-.253906-.113281-73.175782-73.179687c6.558594-6.5625 16.09375-8.582032 25.128906-6.234376 5.21875 1.339844 10.253907 4.140626 14.46875 8.355469zm0 0" fill="#ebb200"/><path d="m271.800781 323.917969 52.324219-52.328125 28.097656 28.101562-52.324218 52.324219zm0 0" fill="#ff475a"/><path d="m299 296.714844 25.125-25.125 28.097656 28.101562-25.121094 25.121094zm0 0" fill="#f03049"/><path d="m352.382812 191.554688-33.632812 9.632812-15.507812 12.710938-73.226563-47.902344c26.734375-26.730469 70.074219-26.730469 96.808594 0zm0 0" fill="#f03049"/><path d="m193.847656 350.089844 9.628906-33.632813 12.710938-15.503906-47.902344-73.226563c-26.730468 26.730469-26.730468 70.074219 0 96.804688zm0 0" fill="#ff475a"/><path d="m120.515625 118.890625c-2.15625 2.15625-4.679687 15.882813-4.523437 35.023437.441406 53.234376 24.195312 101.984376 64.425781 134.082032 2.832031 2.261718 5.835937 4.3125 8.945312 6.195312l85.933594 52.027344 72.546875-72.550781-52.253906-86.242188c-1.894532-3.128906-3.960938-6.144531-6.234375-8.996093-33.347657-41.765626-84.582031-65.710938-139.980469-64.347657-15.707031.382813-26.710938 2.660157-28.859375 4.808594zm0 0" fill="#ffbf00"/><path d="m289.351562 178.4375c2.277344 2.839844 4.34375 5.867188 6.238282 8.992188l52.253906 86.242187-35.941406 35.941406-191.019532-191.019531c2.824219-2.058594 13.519532-4.144531 28.492188-4.519531 1.460938-.035157 2.917969-.050781 4.375-.050781.480469 0 .960938 0 1.449219.007812 1.089843 0 2.1875.023438 3.28125.042969 1.324219.035156 2.644531.085937 3.960937.15625.722656.027343 1.441406.070312 2.164063.113281.714843.046875 1.4375.089844 2.148437.140625.722656.058594 1.429688.113281 2.148438.167969 1.910156.160156 3.8125.363281 5.707031.582031.335937.039063.667969.082031 1.003906.121094 1.832031.226562 3.660157.472656 5.476563.753906.019531 0 .042968.003906.0625.007813 42.886718 6.605468 81.347656 28.679687 108.199218 62.320312zm0 0" fill="#ebb200"/><path d="m247.796875 178.039062c-18.816406-18.816406-49.320313-18.816406-68.132813 0-18.816406 18.816407-18.816406 49.320313 0 68.132813 18.8125 18.816406 49.316407 18.816406 68.132813 0 18.816406-18.8125 18.816406-49.316406 0-68.132813zm0 0" fill="#fff"/><path d="m247.804688 178.039062c18.703124 18.703126 18.808593 48.960938.324218 67.796876l-68.125-68.121094c18.839844-18.484375 49.097656-18.378906 67.800782.324218zm0 0" fill="#ebf6fc"/><path d="m232.34375 191.957031c-10.703125-10.703125-28.058594-10.703125-38.761719 0-10.707031 10.703125-10.707031 28.058594 0 38.765625 10.703125 10.703125 28.058594 10.703125 38.761719 0 10.707031-10.707031 10.707031-28.0625 0-38.765625zm0 0" fill="#3a3aeb"/><path d="m232.34375 191.957031c10.59375 10.589844 10.699219 27.695313.328125 38.421875l-38.75-38.746094c10.726563-10.375 27.832031-10.269531 38.421875.324219zm0 0" fill="#3233c4"/><path d="m216.261719 125.347656c-20.871094-7.882812-43.5-11.839844-66.886719-11.265625-15.707031.382813-26.710938 2.660157-28.859375 4.808594-2.15625 2.15625-4.679687 15.882813-4.523437 35.023437.175781 21.148438 4.050781 41.574219 11.160156 60.542969zm0 0" fill="#ff475a"/><path d="m216.257812 125.351562-44.304687 44.308594-51.066406-51.066406c2.820312-2.058594 13.519531-4.144531 28.488281-4.519531 1.464844-.035157 2.917969-.050781 4.375-.050781.480469 0 .964844 0 1.453125.007812 1.085937 0 2.183594.023438 3.277344.042969 1.316406.042969 2.640625.09375 3.960937.15625.722656.027343 1.441406.070312 2.164063.113281.714843.046875 1.4375.089844 2.152343.140625.71875.058594 1.425782.113281 2.148438.167969 16.445312 1.390625 32.355469 5.035156 47.351562 10.699218zm0 0" fill="#f03049"/></svg>