<?xml version="1.0" encoding="iso-8859-1"?>
<!-- Generator: Adobe Illustrator 19.0.0, SVG Export Plug-In . SVG Version: 6.00 Build 0)  -->
<svg version="1.1" id="Layer_1" xmlns="http://www.w3.org/2000/svg" xmlns:xlink="http://www.w3.org/1999/xlink" x="0px" y="0px"
	 viewBox="0 0 512 512" style="enable-background:new 0 0 512 512;" xml:space="preserve">
<g>
	<g>
		<circle style="fill:#71E2F0;" cx="256" cy="256" r="256"/>
	</g>
	<path style="fill:#38C6D9;" d="M455.687,231.048c-5.077,2.274-10.152,3.81-15.229,2.541
		c-77.576-29.306-156.875-15.515-234.451,3.448c-22.411,6.896-39.65,25.859-62.061,39.65
		c-18.963,10.343-37.926,17.239-58.613,10.343c-11.907-5.21-23.174-11.704-34.628-17.818l-3.039,2.65l238.375,238.375
		C403.544,496.5,496.724,403.203,510.283,285.644L455.687,231.048z"/>
	<g>
		<circle style="fill:#273B7A;" cx="256" cy="256" r="156.444"/>
	</g>
	<g>
		<path style="fill:#121149;" d="M412.444,256c0-86.209-69.732-156.126-155.869-156.438v312.875
			C342.712,412.126,412.444,342.209,412.444,256z"/>
	</g>
	<g>
		<circle style="fill:#366695;" cx="341.333" cy="199.111" r="28.444"/>
	</g>
	<g>
		<circle style="fill:#366695;" cx="170.667" cy="256" r="28.444"/>
	</g>
	<g>
		<circle style="fill:#366695;" cx="270.222" cy="384" r="14.222"/>
	</g>
	<g>
		<circle style="fill:#366695;" cx="213.333" cy="156.444" r="14.222"/>
	</g>
	<g>
		<path style="fill:#FFC91B;" d="M413.482,208.92l-9.271-3.136c2.613,7.718,4.632,15.708,6.02,23.912
			c27.31,9.776,37.123,20.121,37.123,26.176c0,7.999-15.948,20.625-51.574,30.803c-37.197,10.628-86.838,16.482-139.779,16.482
			s-102.583-5.854-139.779-16.482c-35.626-10.178-51.574-22.806-51.574-30.803c0-6.106,9.847-16.424,37.124-26.184
			c1.384-8.176,3.394-16.139,5.994-23.831l-7.501,2.474c-37.362,12.321-56.304,28.315-56.304,47.542
			c0,44.623,106.67,67.972,212.04,67.972s212.04-23.349,212.04-67.972C468.04,236.968,449.684,221.17,413.482,208.92z"/>
	</g>
	<g>
		<path style="fill:#E2A50C;" d="M468.04,255.872c0-18.904-18.356-34.702-54.558-46.951l-9.271-3.136
			c2.613,7.718,4.632,15.708,6.02,23.912c27.31,9.776,37.123,20.121,37.123,26.176c0,7.999-15.948,20.625-51.574,30.803
			c-37.062,10.59-86.48,16.436-139.204,16.477v20.689C361.758,323.756,468.04,300.413,468.04,255.872z"/>
	</g>
</g>
<g>
</g>
<g>
</g>
<g>
</g>
<g>
</g>
<g>
</g>
<g>
</g>
<g>
</g>
<g>
</g>
<g>
</g>
<g>
</g>
<g>
</g>
<g>
</g>
<g>
</g>
<g>
</g>
<g>
</g>
</svg>
