<svg id="Capa_1" enable-background="new 0 0 512 512" height="512" viewBox="0 0 512 512" width="512" xmlns="http://www.w3.org/2000/svg"><g><g><g><g><g><g><g><g><g><path d="m132.786 480.452c-79.15-43.542-132.786-127.733-132.786-224.452 0-141.385 114.615-256 256-256s256 114.615 256 256c0 96.707-53.623 180.889-132.757 224.436l-40.184 17.789c-19.997 6.855-41.111 11.304-62.997 13.001l-40.241-.009c-21.934-1.71-43.092-6.185-63.126-13.076z" fill="#ffce00"/></g></g></g></g></g></g></g></g><path d="m379.243 480.436c73.168-40.264 124.526-115.267 131.854-202.788l-117.419-117.419-14.771 5.287-67.261-67.261-188.434 84.528 30.498 30.498-69.916 221.952 40.079 40.079c2.867 1.731 5.851 3.453 8.79 5.074l40.105 17.779c20.012 6.877 41.146 11.343 63.053 13.051l40.252.008c21.885-1.697 42.999-6.147 62.995-13.003z" fill="#ffa300"/><g><path d="m338.939 498.266c14.058-4.811 27.564-10.812 40.398-17.882v-64.698h-40.398z" fill="#414952"/></g><g><path d="m359.138 197.65 69.068 237.583h-138.135z" fill="#02cc4a"/></g><g><path d="m173.061 498.266c-14.058-4.811-27.564-10.812-40.398-17.882v-64.698h40.398z" fill="#636978"/></g><g><path d="m152.862 197.65-69.068 237.583h138.135z" fill="#00d65b"/></g><g><ellipse cx="256" cy="169.43" fill="#636978" rx="141.933" ry="37.749"/></g><g><path d="m397.933 169.43c0-20.844-63.523-37.743-141.891-37.749v75.499c78.369-.007 141.891-16.905 141.891-37.75z" fill="#414952"/></g><g><path d="m184.762 158.455v-19.122c0-36.338 31.894-65.797 71.238-65.797 39.344 0 71.238 29.458 71.238 65.797v19.122s-66.159 22.456-142.476 0z" fill="#fff"/></g><g><path d="m327.238 139.333c0-36.325-31.872-65.774-71.196-65.796v94.894c41.985-.067 71.196-9.976 71.196-9.976z" fill="#e9edf5"/></g><g><path d="m235.801 511.215c6.665.52 13.401.785 20.199.785s13.534-.265 20.199-.785v-92.923h-40.398z" fill="#636978"/></g><g><path d="m276.199 418.292h-20.157v93.708c6.784-.001 13.506-.266 20.157-.785z" fill="#414952"/></g><g><path d="m256 227.623 69.068 237.583h-138.136z" fill="#02cc4a"/></g><g><path d="m256.042 227.768v237.438h69.026z" fill="#0d9b50"/></g></g></svg>