<svg id="Capa_1" enable-background="new 0 0 512 512" height="512" viewBox="0 0 512 512" width="512" xmlns="http://www.w3.org/2000/svg"><g><g><g><g><g><g><g><g><g><circle cx="256" cy="256" fill="#a3d4ff" r="256"/></g></g></g></g></g></g></g></g><path d="m512 256c0-8.75-.439-17.398-1.297-25.922l-141.328-141.328-320.578 193.313 58.635 58.635-5.918 7.365 58.691 58.691-17.581 16.495 87.453 87.453c8.525.859 17.173 1.298 25.923 1.298 141.385 0 256-114.615 256-256z" fill="#65b1fc"/><g><g><g><g><g><g><g><g><ellipse cx="256" cy="256" fill="#707789" rx="201.208" ry="143.697"/></g></g></g></g></g></g></g></g><g><g><g><g><g><g><g><g><path d="m256 112.303c-.052 0-.104.001-.156.001v287.39c.052 0 .104.001.156.001 111.124 0 201.208-64.335 201.208-143.697s-90.084-143.695-201.208-143.695z" fill="#555a66"/></g></g></g></g></g></g></g></g><g><g><path d="m142.625 88.749h226.751v49.108h-226.751z" fill="#555a66"/></g><g><path d="m255.844 88.75h113.531v49.108h-113.531z" fill="#333940"/></g><g><path d="m142.625 374.143h226.751v49.108h-226.751z" fill="#555a66"/></g><g><path d="m255.844 374.143h113.531v49.108h-113.531z" fill="#333940"/></g></g><g><path d="m48.797 229.937h414.406v52.127h-414.406z" fill="#555a66"/></g><g><path d="m255.844 229.937h207.359v52.126h-207.359z" fill="#333940"/></g><g><g><circle cx="160.869" cy="188.935" fill="#ffce00" r="31.276"/></g><g><circle cx="351.131" cy="188.935" fill="#fdba12" r="31.276"/></g></g><g><circle cx="256" cy="188.935" fill="#ffce00" r="31.276"/></g><g><path d="m256 157.659c-.052 0-.104.004-.156.004v62.544c.052 0 .104.004.156.004 17.273 0 31.276-14.002 31.276-31.276 0-17.273-14.003-31.276-31.276-31.276z" fill="#fdba12"/></g><g><g><circle cx="256" cy="256" fill="#9196aa" r="15"/></g><g><path d="m256 241c-.052 0-.103.007-.156.008v29.984c.052 0 .103.008.156.008 8.284 0 15-6.716 15-15s-6.716-15-15-15z" fill="#707789"/></g><g><circle cx="313.788" cy="256" fill="#707789" r="15"/></g><g><circle cx="371.576" cy="256" fill="#707789" r="15"/></g><g><circle cx="429.363" cy="256" fill="#707789" r="15"/></g><g><circle cx="82.637" cy="256" fill="#9196aa" r="15"/></g><g><circle cx="140.425" cy="256" fill="#9196aa" r="15"/></g><g><circle cx="198.212" cy="256" fill="#9196aa" r="15"/></g></g></g></svg>