<svg id="Capa_1" enable-background="new 0 0 512 512" height="512" viewBox="0 0 512 512" width="512" xmlns="http://www.w3.org/2000/svg"><g><g><g><g><g><g><g><g><g><g><circle cx="256" cy="256" fill="#00d65b" r="256"/></g></g></g></g></g></g></g></g></g><path d="m511.262 275.58-225.322-225.323-255.241 272.331 110.317 110.317-1.662 3.059 72.19 72.19c14.438 2.528 29.293 3.846 44.456 3.846 134.797 0 245.261-104.183 255.262-236.42z" fill="#09b750"/><g><path d="m217.019 59.901-186.32 262.687 131.032-23.457 94.269 54.733 94.269-54.733 131.032 23.457-186.32-262.687c-19.048-26.857-58.913-26.857-77.962 0z" fill="#555a66"/></g><g><path d="m481.301 322.588-186.32-262.687c-9.515-13.415-24.225-20.128-38.939-20.141l-.042 314.104 94.269-54.733z" fill="#333940"/></g><g><path d="m306.823 180.869c0 29.688-22.754 38.118-50.823 38.118s-50.823-8.429-50.823-38.118 22.754-110.443 50.823-110.443 50.823 80.755 50.823 110.443z" fill="#a3d4ff"/></g><g><path d="m306.823 180.869c0-29.673-22.732-110.36-50.781-110.441v148.558c28.05-.008 50.781-8.443 50.781-38.117z" fill="#65b1fc"/></g><g><g><path d="m342.646 328.453h30v64.172h-30z" fill="#e9edf5"/></g><g><path d="m342.646 411.2h30v24.764h-30z" fill="#e9edf5"/></g><g><path d="m139.354 328.453h30v64.172h-30z" fill="#fff"/></g><g><path d="m139.354 411.2h30v24.764h-30z" fill="#fff"/></g></g><g><path d="m241 379.276h30v35.185h-30z" fill="#fff"/></g><g><path d="m256.042 379.276h14.958v35.185h-14.958z" fill="#e9edf5"/></g><g><path d="m241 435.964h30v28.665h-30z" fill="#fff"/></g><g><path d="m256.042 435.964h14.958v28.665h-14.958z" fill="#e9edf5"/></g></g></svg>