<svg id="Capa_1" enable-background="new 0 0 512 512" height="512" viewBox="0 0 512 512" width="512" xmlns="http://www.w3.org/2000/svg"><g><g><g><g><g><g><g><g><g><circle cx="256" cy="256" fill="#a3d4ff" r="256"/></g></g></g></g></g></g></g></g><path d="m510.869 280.216-236.789-236.789-52.899 134.513-137.961 181.643 151.549 151.55c7.001.574 14.082.867 21.231.867 133.218 0 242.669-101.756 254.869-231.784z" fill="#65b1fc"/><g><path d="m241 70.931h30v95.131h-30z" fill="#fff"/></g><g><path d="m256.121 70.931h14.879v95.131h-14.879z" fill="#e9edf5"/></g><g><path d="m197.358 364.144h117.285v65.158h-117.285z" fill="#ffce00"/></g><g><path d="m256.121 364.144h58.522v65.158h-58.522z" fill="#fdba12"/></g><g><circle cx="256" cy="207.112" fill="#994aff" r="91.873"/></g><g><path d="m347.873 207.112c0-50.7-41.068-91.806-91.752-91.872v183.743c50.684-.064 91.752-41.171 91.752-91.871z" fill="#812af2"/></g><g><path d="m379.004 190.95c16.712 63.682 33.318 121.287 49.776 168.632-112.854 32.787-232.707 32.787-345.561 0 16.457-47.345 33.064-104.95 49.776-168.632z" fill="#555a66"/></g><g><path d="m379.004 190.95h-122.883v193.221c58.136-.011 116.272-8.207 172.66-24.589-16.458-47.345-33.065-104.95-49.777-168.632z" fill="#333940"/></g><g><circle cx="256" cy="282.696" fill="#fff" r="63.203"/></g><g><path d="m319.204 282.696c0-34.866-28.232-63.135-63.083-63.2v126.401c34.85-.066 63.083-28.335 63.083-63.201z" fill="#e9edf5"/></g><g><circle cx="256" cy="282.696" fill="#7e8596" r="41.168"/></g><g><path d="m297.168 282.696c0-22.696-18.367-41.1-41.048-41.165v82.331c22.681-.066 41.048-18.47 41.048-41.166z" fill="#636978"/></g><g><circle cx="256" cy="61.809" fill="#7e8596" r="25.786"/></g><g><path d="m281.786 61.809c0-14.201-11.48-25.718-25.666-25.783v51.567c14.186-.066 25.666-11.583 25.666-25.784z" fill="#636978"/></g></g></svg>