<?xml version="1.0" encoding="iso-8859-1"?>
<!-- Generator: Adobe Illustrator 19.0.0, SVG Export Plug-In . SVG Version: 6.00 Build 0)  -->
<svg version="1.1" id="Capa_1" xmlns="http://www.w3.org/2000/svg" xmlns:xlink="http://www.w3.org/1999/xlink" x="0px" y="0px"
	 viewBox="0 0 512 512" style="enable-background:new 0 0 512 512;" xml:space="preserve">
<circle style="fill:#00EED0;" cx="256" cy="256" r="256"/>
<path style="fill:#00AB94;" d="M329.25,91.672L140.843,211.411l21.339,21.344L251,320.365L256,451l55.047,55.047
	c109.311-23.956,192.462-117.746,200.327-232.251L329.25,91.672z"/>
<polygon style="fill:#FED2A4;" points="369.8,186.455 335.523,266.207 292.562,307.797 256,322.422 225.607,334.533 
	200.013,320.365 139.229,179.6 256,183.028 "/>
<polygon style="fill:#F6A96C;" points="369.8,186.455 335.523,266.207 292.562,307.797 256,322.422 256,183.028 "/>
<path style="fill:#FFD400;" d="M256,297.971l-55.987,22.394L256,451l79.523-184.793L256,297.971z"/>
<path style="fill:#FF3980;" d="M358.375,154.235C353.577,101.904,309.473,61,256,61s-97.577,40.904-102.375,93.235
	c-13.483,4.571-23.309,17.367-23.309,32.449c0,18.967,15.31,34.277,34.277,34.277h45.703c6.399,0,11.426,5.027,11.426,11.426
	c0,18.967,15.31,34.277,34.277,34.277s34.277-15.31,34.277-34.277c0-6.399,5.027-11.426,11.426-11.426h45.703
	c18.967,0,34.277-15.31,34.277-34.277C381.684,171.602,371.858,158.805,358.375,154.235z"/>
<polygon style="fill:#FF9F00;" points="256,297.971 335.523,266.207 256,451 "/>
<path style="fill:#F30051;" d="M381.684,186.684c0,18.967-15.31,34.277-34.277,34.277h-45.703c-6.399,0-11.426,5.027-11.426,11.426
	c0,18.967-15.31,34.277-34.277,34.277V61c53.473,0,97.577,40.904,102.375,93.235C371.858,158.805,381.684,171.602,381.684,186.684z"
	/>
<g>
</g>
<g>
</g>
<g>
</g>
<g>
</g>
<g>
</g>
<g>
</g>
<g>
</g>
<g>
</g>
<g>
</g>
<g>
</g>
<g>
</g>
<g>
</g>
<g>
</g>
<g>
</g>
<g>
</g>
</svg>
