<?xml version="1.0" encoding="iso-8859-1"?>
<!-- Generator: Adobe Illustrator 19.0.0, SVG Export Plug-In . SVG Version: 6.00 Build 0)  -->
<svg version="1.1" id="Capa_1" xmlns="http://www.w3.org/2000/svg" xmlns:xlink="http://www.w3.org/1999/xlink" x="0px" y="0px"
	 viewBox="0 0 512 512" style="enable-background:new 0 0 512 512;" xml:space="preserve">
<circle style="fill:#B34F03;" cx="256" cy="256" r="256"/>
<path style="fill:#6F2E01;" d="M507.965,301.507l-181.269-181.27l-34.842-22.371l-19.69-19.687l-56.141,15.714L190.799,68
	l-85.715,22.031l50.451,50l39.769,237.194l14.434,14.434L182.193,444l67.926,67.926C252.075,511.97,254.034,512,256,512
	C381.854,512,486.494,421.182,507.965,301.507z"/>
<polygon style="fill:#913F02;" points="180.892,119.216 173.587,90.031 105.084,90.031 105.084,68 190.799,68 202.256,113.881 "/>
<path style="fill:#FF9F00;" d="M346.326,157.667l-18.727,9.473H191.667l-41.419-10.355c2.423-13.88,9.253-27.098,20.489-37.893
	c19.167-18.507,46.706-28.861,77.55-28.861h3.965C301.382,91.574,340.378,120.655,346.326,157.667z"/>
<path style="fill:#F77E00;" d="M346.326,157.667l-18.727,9.473h-79.312V90.031h3.965
	C301.382,91.574,340.378,120.655,346.326,157.667z"/>
<path style="fill:#CCF5FF;" d="M349.191,156.125l-26.658,179.187c-3.745,24.454-18.726,44.283-39.215,55.078l-33.047,31.505
	l-1.983-1.762l-35.03-29.743c-20.489-10.795-35.47-30.624-39.215-55.078l-26.658-179.187L349.191,156.125L349.191,156.125z"/>
<g>
	<path style="fill:#AFD5E0;" d="M314.381,432.984V444H182.193v-11.016c0-19.608,13.218-37.086,31.063-42.594h70.061
		C301.163,395.898,314.381,413.376,314.381,432.984z"/>
	<path style="fill:#AFD5E0;" d="M349.191,156.125l-26.658,179.187c-3.745,24.454-18.726,44.283-39.215,55.078l-33.047,31.505
		l-1.983-1.762V156.125H349.191z"/>
</g>
<path style="fill:#86B5BF;" d="M314.381,432.984V444h-66.094v-53.61h35.03C301.163,395.898,314.381,413.376,314.381,432.984z"/>
<path style="fill:#FF3980;" d="M248.287,68c-18.286,0-33.047,14.761-33.047,33.047c0,18.285,14.761,33.047,33.047,33.047
	s33.047-14.762,33.047-33.047C281.334,82.761,266.573,68,248.287,68z"/>
<path style="fill:#F30051;" d="M248.287,134.094V68c18.286,0,33.047,14.761,33.047,33.047
	C281.334,119.332,266.573,134.094,248.287,134.094z"/>
<g>
</g>
<g>
</g>
<g>
</g>
<g>
</g>
<g>
</g>
<g>
</g>
<g>
</g>
<g>
</g>
<g>
</g>
<g>
</g>
<g>
</g>
<g>
</g>
<g>
</g>
<g>
</g>
<g>
</g>
</svg>
