<?xml version="1.0" encoding="iso-8859-1"?>
<!-- Generator: Adobe Illustrator 19.0.0, SVG Export Plug-In . SVG Version: 6.00 Build 0)  -->
<svg version="1.1" id="Capa_1" xmlns="http://www.w3.org/2000/svg" xmlns:xlink="http://www.w3.org/1999/xlink" x="0px" y="0px"
	 viewBox="0 0 512 512" style="enable-background:new 0 0 512 512;" xml:space="preserve">
<circle style="fill:#77DD00;" cx="256" cy="256" r="256"/>
<path style="fill:#66BB00;" d="M292.336,509.421C416.509,491.774,512,385.047,512,256c0-14.3-1.192-28.319-3.446-41.981
	L383.767,89.232l-88.566,14.393l-75.53-1.196l-12.748-12.732l-78.67,77.916l27.999,27.999l27.107,155.992l64.018,64.02
	l-13.508,35.329L292.336,509.421z"/>
<rect x="233.87" y="346.07" style="fill:#FED2A4;" width="44.28" height="104.88"/>
<rect x="256.01" y="346.07" style="fill:#F6A96C;" width="22.14" height="104.88"/>
<path style="fill:#913F02;" d="M399.93,128.423c0-14.171-5.314-28.342-16.163-39.191c-20.15-20.148-52.255-21.698-74.175-3.764
	c-5.977,5.092-10.849,11.071-14.391,18.156c-12.621-5.535-25.907-8.414-39.191-8.414s-26.57,2.879-39.191,8.414
	c-3.542-7.085-8.414-13.064-14.391-18.156c-22.142-17.935-54.026-16.385-74.175,3.764c-21.477,21.698-21.477,56.682,0,78.381
	c8.414,8.194,18.378,13.286,29.449,15.278c-1.328,7.972-2.214,18.156-1.107,25.463h-0.222c0,0.222,0,0.222,0,0.222
	c0,43.397,5.979,86.573,17.935,128.199c4.207,14.171,17.271,24.135,31.884,24.135h99.637c14.613,0,27.899-9.964,31.884-24.135
	c11.956-41.626,17.935-84.803,17.935-128.421v-5.314c0-7.529,0-13.286-0.885-20.37c10.849-1.772,20.813-6.864,29.005-15.057
	C394.617,156.764,399.93,142.594,399.93,128.423z"/>
<path style="fill:#6F2E01;" d="M383.767,167.613c-8.192,8.194-18.156,13.286-29.005,15.057c0.885,7.084,0.885,12.841,0.885,20.37
	v5.314c0,43.618-5.979,86.795-17.935,128.421c-3.985,14.171-17.271,24.135-31.884,24.135H256.01V95.211
	c13.284,0,26.57,2.879,39.191,8.414c3.542-7.085,8.414-13.064,14.391-18.156c21.92-17.935,54.026-16.385,74.175,3.764
	c10.849,10.849,16.163,25.02,16.163,39.191S394.617,156.764,383.767,167.613z"/>
<rect x="289.22" y="161.64" style="fill:#F6A96C;" width="22.14" height="22.14"/>
<g>
	<rect x="222.8" y="161.64" style="fill:#FED2A4;" width="22.14" height="22.14"/>
	<rect x="156.37" y="117.35" style="fill:#FED2A4;" width="22.14" height="22.14"/>
</g>
<g>
	<rect x="333.5" y="117.35" style="fill:#F6A96C;" width="22.14" height="22.14"/>
	<rect x="289.22" y="250.2" style="fill:#F6A96C;" width="22.14" height="22.14"/>
</g>
<g>
	<rect x="200.66" y="228.06" style="fill:#FED2A4;" width="22.14" height="22.14"/>
	<rect x="244.94" y="205.92" style="fill:#FED2A4;" width="22.14" height="22.14"/>
	<rect x="222.8" y="272.34" style="fill:#FED2A4;" width="22.14" height="22.14"/>
</g>
<rect x="256.01" y="205.92" style="fill:#F6A96C;" width="11.07" height="22.14"/>
<g>
</g>
<g>
</g>
<g>
</g>
<g>
</g>
<g>
</g>
<g>
</g>
<g>
</g>
<g>
</g>
<g>
</g>
<g>
</g>
<g>
</g>
<g>
</g>
<g>
</g>
<g>
</g>
<g>
</g>
</svg>
