<?xml version="1.0" encoding="iso-8859-1"?>
<!-- Generator: Adobe Illustrator 19.0.0, SVG Export Plug-In . SVG Version: 6.00 Build 0)  -->
<svg version="1.1" id="Capa_1" xmlns="http://www.w3.org/2000/svg" xmlns:xlink="http://www.w3.org/1999/xlink" x="0px" y="0px"
	 viewBox="0 0 512 512" style="enable-background:new 0 0 512 512;" xml:space="preserve">
<circle style="fill:#FF5E95;" cx="256" cy="256" r="256"/>
<path style="fill:#BC0048;" d="M511.383,273.651L328.668,90.935L163.706,348.532c0,0,69.292,69.313,69.443,69.464V451l58.515,58.515
	C410.449,492.956,503.124,394.901,511.383,273.651z"/>
<rect x="233.15" y="342.76" style="fill:#FED2A4;" width="45.703" height="108.24"/>
<path style="fill:#FFD400;" d="M358.832,163.832v159.961c0,18.967-15.31,34.277-34.277,34.277h-137.11
	c-18.967,0-34.277-15.31-34.277-34.277V163.832c0-22.623,7.77-44.79,21.481-62.842l23.08-5.255l11.197,19.881
	c4.799,8.455,14.168,13.939,24.223,13.939c8.912,0,16.91,3.428,22.852,8.912c7.084,6.169,11.426,15.31,11.426,25.365v91.406
	c0,6.399,5.027,11.426,11.426,11.426s11.426-5.027,11.426-11.426v-91.406c0-18.967,15.768-34.277,34.277-34.277h5.713l27.878,22.852
	C358.603,156.062,358.832,159.948,358.832,163.832z"/>
<rect x="256" y="342.76" style="fill:#F6A96C;" width="22.852" height="108.24"/>
<path style="fill:#FF9F00;" d="M358.832,163.832v159.961c0,18.967-15.31,34.277-34.277,34.277H256V138.467
	c7.084,6.169,11.426,15.31,11.426,25.365v91.406c0,6.399,5.027,11.426,11.426,11.426s11.426-5.027,11.426-11.426v-91.406
	c0-18.967,15.768-34.277,34.277-34.277h5.713l27.878,22.852C358.603,156.062,358.832,159.948,358.832,163.832z"/>
<path style="fill:#913F02;" d="M355.632,139.381c0-5.713-9.369-30.393-26.965-48.445C309.016,71.74,283.193,61,256,61
	c-23.765,0-46.617,8.226-64.67,23.08c-8.911,6.855-10.511,10.055-16.681,16.91l14.397,25.822
	c8.912,15.768,25.822,25.594,44.103,25.594c6.399,0,11.426,5.027,11.426,11.426v91.406c0,10.055,4.342,19.196,11.426,25.365
	c5.942,5.484,13.939,8.912,22.852,8.912c18.967,0,34.277-15.31,34.277-34.277v-91.406c0-6.855,5.255-11.426,11.426-11.426h33.591
	C357.69,147.836,357.004,143.494,355.632,139.381z"/>
<path style="fill:#6F2E01;" d="M358.146,152.406h-33.591c-6.17,0-11.426,4.571-11.426,11.426v91.406
	c0,18.967-15.31,34.277-34.277,34.277c-8.912,0-16.91-3.428-22.852-8.912V61c27.193,0,53.016,10.74,72.668,29.935
	c17.596,18.052,26.965,42.732,26.965,48.445C357.004,143.494,357.69,147.836,358.146,152.406z"/>
<g>
</g>
<g>
</g>
<g>
</g>
<g>
</g>
<g>
</g>
<g>
</g>
<g>
</g>
<g>
</g>
<g>
</g>
<g>
</g>
<g>
</g>
<g>
</g>
<g>
</g>
<g>
</g>
<g>
</g>
</svg>
