<?xml version="1.0" encoding="iso-8859-1"?>
<!-- Generator: Adobe Illustrator 19.0.0, SVG Export Plug-In . SVG Version: 6.00 Build 0)  -->
<svg version="1.1" id="Capa_1" xmlns="http://www.w3.org/2000/svg" xmlns:xlink="http://www.w3.org/1999/xlink" x="0px" y="0px"
	 viewBox="0 0 512 512" style="enable-background:new 0 0 512 512;" xml:space="preserve">
<circle style="fill:#77DD00;" cx="256" cy="256" r="256"/>
<path style="fill:#66BB00;" d="M500.703,331.412L287.765,118.474L256,116l-26,13l-18.238,47.371L234,247.152h-75.324L116,273l19,110
	l-26.818,8.307L227.26,510.385C236.696,511.439,246.282,512,256,512C371.136,512,468.513,435.988,500.703,331.412z"/>
<g>
	<path style="fill:#FED2A4;" d="M300.238,149.238v27.133l-6.193,8.848h-11.502v-35.98c0-14.687-11.856-26.543-26.543-26.543
		s-26.543,11.856-26.543,26.543v35.98h-9.379l-8.316-8.848v-27.133C211.762,124.819,231.58,105,256,105
		S300.238,124.819,300.238,149.238z"/>
	<path style="fill:#FED2A4;" d="M158.676,247.152h-8.364c-24.659,0-45.312,20.063-45.312,44.722
		c0,13.021,4.409,25.627,11.623,36.436c12.641,18.965,10.118,44.437-5.996,60.551l-2.445,2.445l12.511,12.511l2.445-2.445
		c22.059-22.059,25.515-56.914,8.208-82.886c-5.279-7.897-8.061-17.099-8.061-26.612c0-14.905,12.122-27.027,27.027-27.027h17.211
		v-5.253L158.676,247.152z"/>
</g>
<g>
	<path style="fill:#FFBD86;" d="M395.376,328.319C402.591,317.502,407,304.895,407,291.874c0-24.659-20.653-44.722-45.312-44.722
		h-8.364l-8.848,9.699v7.997h17.211c14.905,0,27.027,12.122,27.027,27.027c0,9.513-2.782,18.715-8.061,26.621
		c-17.306,25.964-13.85,60.819,8.208,82.878l2.445,2.445l12.511-12.511l-2.445-2.445
		C385.259,372.748,382.736,347.276,395.376,328.319z"/>
	<path style="fill:#FFBD86;" d="M256,122.695V105c24.42,0,44.238,19.819,44.238,44.238v27.133l-6.193,8.848h-11.502v-35.98
		C282.543,134.551,270.687,122.695,256,122.695z"/>
</g>
<path style="fill:#FF3980;" d="M344.477,247.152c-22.296,0-44.238-35.391-44.238-61.934v-8.848h-88.477v8.848
	c0,26.543-21.942,61.934-44.238,61.934h-8.848V407h194.648V247.152H344.477z"/>
<path style="fill:#F30051;" d="M353.324,247.152V407H256V176.371h44.238v8.848c0,26.543,21.942,61.934,44.238,61.934
	L353.324,247.152L353.324,247.152z"/>
<path style="fill:#FED2A4;" d="M194.066,300.238v53.086h123.867v-53.086H194.066z"/>
<rect x="256" y="300.24" style="fill:#FFBD86;" width="61.934" height="53.09"/>
<g>
</g>
<g>
</g>
<g>
</g>
<g>
</g>
<g>
</g>
<g>
</g>
<g>
</g>
<g>
</g>
<g>
</g>
<g>
</g>
<g>
</g>
<g>
</g>
<g>
</g>
<g>
</g>
<g>
</g>
</svg>
