<?xml version="1.0" encoding="iso-8859-1"?>
<!-- Generator: Adobe Illustrator 19.0.0, SVG Export Plug-In . SVG Version: 6.00 Build 0)  -->
<svg version="1.1" id="Capa_1" xmlns="http://www.w3.org/2000/svg" xmlns:xlink="http://www.w3.org/1999/xlink" x="0px" y="0px"
	 viewBox="0 0 512 512" style="enable-background:new 0 0 512 512;" xml:space="preserve">
<circle style="fill:#B34F03;" cx="256" cy="256" r="256"/>
<path style="fill:#6F2E01;" d="M505,315.637L286.93,97.567L204,173l-84.633,220.766l117.525,117.525
	C243.201,511.756,249.572,512,256,512C376.849,512,478.125,428.256,505,315.637z"/>
<path style="fill:#FF3980;" d="M171.531,415.133c-41.096,0-74.531-33.435-74.531-74.531s33.435-74.531,74.531-74.531
	s74.531,33.435,74.531,74.531S212.627,415.133,171.531,415.133z"/>
<path style="fill:#F30051;" d="M340.469,415.133c-41.096,0-74.531-33.435-74.531-74.531s33.435-74.531,74.531-74.531
	S415,299.505,415,340.601S381.565,415.133,340.469,415.133z"/>
<path style="fill:#77DD00;" d="M354.94,304.764l-11.552,14.534c-55.34-44.346-85.339-113.288-80.494-183.347
	c-2.422,1.863-4.658,3.727-6.894,5.59c-47.142,40.061-74.531,98.568-74.531,161.546v8.945h-18.633v-8.945
	c0-73.785,34.47-141.795,93.164-185.024c4.472-3.354,8.943-6.521,13.602-9.503l17.328-10.993l-3.54,23.478
	C272.583,190.358,300.16,260.791,354.94,304.764z"/>
<rect x="144.2" y="302.71" style="fill:#913F02;" width="55.898" height="18.633"/>
<path style="fill:#66BB00;" d="M354.94,304.764l-11.552,14.534c-55.34-44.346-85.339-113.288-80.494-183.347
	c-2.422,1.863-4.658,3.727-6.894,5.59v-23.478c4.472-3.354,8.943-6.521,13.602-9.503l17.328-10.993l-3.54,23.478
	C272.583,190.358,300.16,260.791,354.94,304.764z"/>
<rect x="311.9" y="302.71" style="fill:#6F2E01;" width="55.898" height="18.633"/>
<g>
</g>
<g>
</g>
<g>
</g>
<g>
</g>
<g>
</g>
<g>
</g>
<g>
</g>
<g>
</g>
<g>
</g>
<g>
</g>
<g>
</g>
<g>
</g>
<g>
</g>
<g>
</g>
<g>
</g>
</svg>
