<?xml version="1.0" encoding="iso-8859-1"?>
<!-- Generator: Adobe Illustrator 19.0.0, SVG Export Plug-In . SVG Version: 6.00 Build 0)  -->
<svg version="1.1" id="Capa_1" xmlns="http://www.w3.org/2000/svg" xmlns:xlink="http://www.w3.org/1999/xlink" x="0px" y="0px"
	 viewBox="0 0 512 512" style="enable-background:new 0 0 512 512;" xml:space="preserve">
<circle style="fill:#00EED0;" cx="256" cy="256" r="256"/>
<path style="fill:#00AB94;" d="M511.369,273.881l-182.06-182.06l-165.59,256.698c0,0,69.283,69.303,69.429,69.45V451l58.515,58.515
	C410.374,492.966,503.008,395.025,511.369,273.881z"/>
<rect x="233.15" y="319.91" style="fill:#FED2A4;" width="45.703" height="131.09"/>
<rect x="256" y="319.91" style="fill:#F6A96C;" width="22.852" height="131.09"/>
<path style="fill:#77DD00;" d="M256.693,61.002c-0.408-0.003-0.816-0.003-1.224-0.001c-56.757,0.29-102.3,47.126-102.3,103.883
	v158.908c0,18.931,15.346,34.277,34.277,34.277H256c12.621,0,22.852-10.231,22.852-22.852V83.295
	C278.852,71.035,268.952,61.084,256.693,61.002z"/>
<path style="fill:#FF3980;" d="M358.832,163.832v159.961c0,18.966-15.31,34.277-34.277,34.277H256V61
	C312.671,61,358.832,107.159,358.832,163.832z"/>
<g>
</g>
<g>
</g>
<g>
</g>
<g>
</g>
<g>
</g>
<g>
</g>
<g>
</g>
<g>
</g>
<g>
</g>
<g>
</g>
<g>
</g>
<g>
</g>
<g>
</g>
<g>
</g>
<g>
</g>
</svg>
