<?xml version="1.0" encoding="iso-8859-1"?>
<!-- Generator: Adobe Illustrator 19.0.0, SVG Export Plug-In . SVG Version: 6.00 Build 0)  -->
<svg version="1.1" id="Capa_1" xmlns="http://www.w3.org/2000/svg" xmlns:xlink="http://www.w3.org/1999/xlink" x="0px" y="0px"
	 viewBox="0 0 512 512" style="enable-background:new 0 0 512 512;" xml:space="preserve">
<circle style="fill:#B34F03;" cx="256" cy="256" r="256"/>
<path style="fill:#6F2E01;" d="M129.651,349.132l160.583,160.583c111.035-14.841,199.536-100.847,218.14-210.647L280.706,71.401
	L129.651,349.132z"/>
<rect x="233.15" y="343.52" style="fill:#FED2A4;" width="45.703" height="107.48"/>
<rect x="256" y="343.52" style="fill:#F6A96C;" width="22.852" height="107.48"/>
<path style="fill:#FF3980;" d="M380.541,290.277l-28.108,22.852H145.855l-14.397-22.852l93.235-209.092
	C230.406,68.617,242.29,61,256,61c13.71,0,25.594,7.617,31.307,20.185L380.541,290.277z"/>
<path style="fill:#F30051;" d="M380.541,290.277l-28.108,22.852H256V61c13.71,0,25.594,7.617,31.307,20.185L380.541,290.277z"/>
<path style="fill:#77DD00;" d="M389.91,311.072l-9.14-20.794H131.23l-9.14,20.794c-9.826,22.623,6.855,47.76,31.535,47.76h204.749
	C383.055,358.832,399.736,333.694,389.91,311.072z"/>
<path style="fill:#66BB00;" d="M358.375,358.832H256v-68.555h124.77l9.14,20.794C399.736,333.694,383.055,358.832,358.375,358.832z"
	/>
<rect x="267.43" y="221.72" style="fill:#6F2E01;" width="22.852" height="22.852"/>
<g>
	<rect x="244.57" y="176.02" style="fill:#913F02;" width="22.852" height="22.852"/>
	<rect x="221.72" y="221.72" style="fill:#913F02;" width="22.852" height="22.852"/>
</g>
<rect x="256" y="176.02" style="fill:#6F2E01;" width="11.426" height="22.852"/>
<g>
</g>
<g>
</g>
<g>
</g>
<g>
</g>
<g>
</g>
<g>
</g>
<g>
</g>
<g>
</g>
<g>
</g>
<g>
</g>
<g>
</g>
<g>
</g>
<g>
</g>
<g>
</g>
<g>
</g>
</svg>
