<?xml version="1.0" encoding="iso-8859-1"?>
<!-- Generator: Adobe Illustrator 19.0.0, SVG Export Plug-In . SVG Version: 6.00 Build 0)  -->
<svg version="1.1" id="Capa_1" xmlns="http://www.w3.org/2000/svg" xmlns:xlink="http://www.w3.org/1999/xlink" x="0px" y="0px"
	 viewBox="0 0 512 512" style="enable-background:new 0 0 512 512;" xml:space="preserve">
<circle style="fill:#77DD00;" cx="256" cy="256" r="256"/>
<path style="fill:#66BB00;" d="M291.664,509.515c123.589-17.229,218.911-122.68,220.3-250.685L325.557,72.423L187.354,124.87
	l12.777,12.789l-12.777,61.478l12.777,12.789l-12.777,61.478l12.777,12.789l-12.777,61.478c0,0,45.525,45.542,45.795,45.806V451
	L291.664,509.515z"/>
<rect x="233.15" y="319.91" style="fill:#FED2A4;" width="45.703" height="131.09"/>
<rect x="256" y="319.91" style="fill:#F6A96C;" width="22.852" height="131.09"/>
<g>
	<path style="fill:#FFD400;" d="M298.732,135.268l1.142,12.112h-76.781l-9.826-12.112c-20.567,0-37.248-16.452-37.248-37.019
		S192.701,61,213.268,61h85.465c20.567,0,37.248,16.681,37.248,37.248S319.299,135.268,298.732,135.268z"/>
	<path style="fill:#FFD400;" d="M335.98,246.783c0,20.567-16.681,37.019-37.248,37.019l-15.31,11.426L256,296.6l-35.42,1.6
		l-7.313-14.397c-20.567,0-37.248-16.452-37.248-37.019s16.681-37.248,37.248-37.248l15.31-9.597h59.186l10.968,9.597
		C319.299,209.535,335.98,226.216,335.98,246.783z"/>
</g>
<g>
	<path style="fill:#FF9F00;" d="M335.98,246.783c0,20.567-16.681,37.019-37.248,37.019l-15.31,11.426L256,296.6v-96.662h31.764
		l10.968,9.597C319.299,209.535,335.98,226.216,335.98,246.783z"/>
	<path style="fill:#FF9F00;" d="M299.875,147.38H256V61h42.732c20.567,0,37.248,16.681,37.248,37.248s-16.681,37.019-37.248,37.019
		L299.875,147.38z"/>
</g>
<g>
	<path style="fill:#FF3980;" d="M298.732,135.268h-85.465c-20.567,0-37.248,16.681-37.248,37.248s16.681,37.019,37.248,37.019
		h85.465c20.567,0,37.248-16.452,37.248-37.019S319.299,135.268,298.732,135.268z"/>
	<path style="fill:#FF3980;" d="M298.732,283.803h-85.465c-20.567,0-37.248,16.681-37.248,37.248
		c0,20.567,16.681,37.019,37.248,37.019h85.465c20.567,0,37.248-16.452,37.248-37.019
		C335.98,300.484,319.299,283.803,298.732,283.803z"/>
</g>
<g>
	<path style="fill:#F30051;" d="M335.98,321.051c0,20.567-16.681,37.019-37.248,37.019H256v-74.268h42.732
		C319.299,283.803,335.98,300.484,335.98,321.051z"/>
	<path style="fill:#F30051;" d="M298.732,209.535H256v-74.268h42.732c20.567,0,37.248,16.681,37.248,37.248
		S319.299,209.535,298.732,209.535z"/>
</g>
<g>
</g>
<g>
</g>
<g>
</g>
<g>
</g>
<g>
</g>
<g>
</g>
<g>
</g>
<g>
</g>
<g>
</g>
<g>
</g>
<g>
</g>
<g>
</g>
<g>
</g>
<g>
</g>
<g>
</g>
</svg>
