<?xml version="1.0" encoding="iso-8859-1"?>
<!-- Generator: Adobe Illustrator 19.0.0, SVG Export Plug-In . SVG Version: 6.00 Build 0)  -->
<svg version="1.1" id="Capa_1" xmlns="http://www.w3.org/2000/svg" xmlns:xlink="http://www.w3.org/1999/xlink" x="0px" y="0px"
	 viewBox="0 0 512 512" style="enable-background:new 0 0 512 512;" xml:space="preserve">
<circle style="fill:#FF5E95;" cx="256" cy="256" r="256"/>
<path style="fill:#BC0048;" d="M510.612,282.755C446.604,218.745,312.68,84.817,312.423,84.567
	c-3.805-3.84-12.548-10.312-12.548-10.312l-99.297,261.25c0,0,48.268,48.27,48.459,48.459L233.148,451l58.515,58.515
	C407.462,493.372,498.458,399.784,510.612,282.755z"/>
<rect x="233.15" y="342.76" style="fill:#FED2A4;" width="45.703" height="108.24"/>
<rect x="256" y="342.76" style="fill:#F6A96C;" width="22.852" height="108.24"/>
<g>
	<path style="fill:#913F02;" d="M334.838,130.697l-8.912,38.848L256,237.186l-53.473,51.643l-25.365-0.456
		c-0.456-3.428-1.142-6.628-1.142-10.283v-79.98l20.794-45.017l49.818-64.899L256,85.68l43.875-11.426
		C318.842,86.822,331.867,107.161,334.838,130.697z"/>
	<path style="fill:#913F02;" d="M335.98,220.961v57.129c0,44.103-35.877,79.98-79.98,79.98c-16.225,0-31.307-5.027-43.875-13.254
		l8.226-42.504L256,267.35l47.76-47.076L335.98,220.961z"/>
</g>
<g>
	<path style="fill:#6F2E01;" d="M325.926,169.545L256,237.186V85.68l43.875-11.426c18.967,12.568,31.993,32.906,34.964,56.443
		L325.926,169.545z"/>
	<path style="fill:#6F2E01;" d="M335.98,220.961v57.129c0,44.103-35.877,79.98-79.98,79.98v-90.72l47.76-47.076L335.98,220.961z"/>
</g>
<g>
	<path style="fill:#FFD400;" d="M299.875,74.254L176.02,198.109V140.98C176.02,96.877,211.897,61,256,61
		C272.225,61,287.307,66.027,299.875,74.254z"/>
	<path style="fill:#FFD400;" d="M335.98,140.98v79.98L212.125,344.816c-18.967-12.568-31.993-32.906-34.964-56.443l157.676-157.676
		C335.294,134.125,335.98,137.325,335.98,140.98z"/>
</g>
<g>
	<path style="fill:#FF9F00;" d="M299.875,74.254L256,118.129V61C272.225,61,287.307,66.027,299.875,74.254z"/>
	<path style="fill:#FF9F00;" d="M335.98,140.98v79.98L256,300.941v-91.406l78.838-78.838
		C335.294,134.125,335.98,137.325,335.98,140.98z"/>
</g>
<g>
</g>
<g>
</g>
<g>
</g>
<g>
</g>
<g>
</g>
<g>
</g>
<g>
</g>
<g>
</g>
<g>
</g>
<g>
</g>
<g>
</g>
<g>
</g>
<g>
</g>
<g>
</g>
<g>
</g>
</svg>
