<?xml version="1.0" encoding="iso-8859-1"?>
<!-- Generator: Adobe Illustrator 19.0.0, SVG Export Plug-In . SVG Version: 6.00 Build 0)  -->
<svg version="1.1" id="Capa_1" xmlns="http://www.w3.org/2000/svg" xmlns:xlink="http://www.w3.org/1999/xlink" x="0px" y="0px"
	 viewBox="0 0 512 512" style="enable-background:new 0 0 512 512;" xml:space="preserve">
<circle style="fill:#00EED0;" cx="256" cy="256" r="256"/>
<path style="fill:#00AB94;" d="M512,256c0-4.696-0.135-9.36-0.385-13.995L426,156.391L86,216.156l19.922,19L125,275.922l-39,59.766
	l176.234,176.233C400.738,508.611,512,395.301,512,256z"/>
<polygon style="fill:#913F02;" points="426,275.922 426,335.688 86,335.688 86,275.922 105.922,275.922 136.868,261.378 
	383.766,261.378 406.078,275.922 "/>
<polygon style="fill:#6F2E01;" points="406.078,275.922 426,275.922 426,335.688 256,335.688 256,261.378 383.766,261.378 "/>
<path style="fill:#FFD400;" d="M105.922,196.234v79.688h30.547c5.579,0,9.961,4.382,9.961,9.961v39.844
	c0,16.534,13.347,29.883,29.883,29.883s29.883-13.349,29.883-29.883v-39.844c0-5.579,4.382-9.961,9.961-9.961h189.922v-79.688
	H105.922z"/>
<rect x="256" y="196.23" style="fill:#FF9F00;" width="150.08" height="79.69"/>
<path style="fill:#913F02;" d="M86,156.391v59.766h340v-59.766L86,156.391L86,156.391z"/>
<rect x="256" y="156.39" style="fill:#6F2E01;" width="170" height="59.766"/>
<g>
</g>
<g>
</g>
<g>
</g>
<g>
</g>
<g>
</g>
<g>
</g>
<g>
</g>
<g>
</g>
<g>
</g>
<g>
</g>
<g>
</g>
<g>
</g>
<g>
</g>
<g>
</g>
<g>
</g>
</svg>
