<?xml version="1.0" encoding="iso-8859-1"?>
<!-- Generator: Adobe Illustrator 19.0.0, SVG Export Plug-In . SVG Version: 6.00 Build 0)  -->
<svg version="1.1" id="Capa_1" xmlns="http://www.w3.org/2000/svg" xmlns:xlink="http://www.w3.org/1999/xlink" x="0px" y="0px"
	 viewBox="0 0 512 512" style="enable-background:new 0 0 512 512;" xml:space="preserve">
<circle style="fill:#B34F03;" cx="256" cy="256" r="256"/>
<path style="fill:#6F2E01;" d="M505.572,313.228L297.344,105L123.222,407l103.301,103.301C236.197,511.41,246.029,512,256,512
	C377.711,512,479.577,427.061,505.572,313.228z"/>
<polygon style="fill:#913F02;" points="350.606,329.966 161.268,329.966 176.839,252.815 335.035,252.815 "/>
<polygon style="fill:#6F2E01;" points="350.606,329.966 255.937,329.966 255.937,252.815 335.035,252.815 "/>
<path style="fill:#00EED0;" d="M231.872,407h-108.65v-24.065c0-26.367,16.811-50.491,41.761-59.162l1.946-0.53l25.128-2.478
	l21.942,14.156l11.325,45.89l4.954,20.173L231.872,407z"/>
<path style="fill:#00CCB2;" d="M388.652,382.758V407h-108.65l1.593-6.017l4.954-20.173l10.264-41.642l22.827-18.227h0.177
	l27.074,2.831C371.841,332.444,388.652,356.392,388.652,382.758z"/>
<path style="fill:#FFBD86;" d="M290.62,286.082l-10.618,6.9c-7.077,4.778-15.572,7.256-24.065,7.256
	c-8.493,0-16.988-2.478-24.065-7.256l-10.618-6.9l-10.44,43.53l45.123,45.713l45.123-45.713L290.62,286.082z"/>
<path style="fill:#F6A96C;" d="M290.62,286.082l10.44,43.53l-45.123,45.713v-75.086c8.493,0,16.988-2.478,24.065-7.256
	L290.62,286.082z"/>
<path style="fill:#FFBD86;" d="M353.261,238.305c0,14.686-11.856,26.543-26.543,26.543H185.156
	c-14.687,0-26.543-11.857-26.543-26.543c0-14.687,11.856-26.543,26.543-26.543h141.562
	C341.406,211.762,353.261,223.617,353.261,238.305z"/>
<path style="fill:#F6A96C;" d="M353.261,238.305c0,14.686-11.856,26.543-26.543,26.543h-70.781v-53.086h70.781
	C341.406,211.762,353.261,223.617,353.261,238.305z"/>
<path style="fill:#FED2A4;" d="M194.003,193.477V256c0,21.057,10.441,40.522,27.959,51.847
	c10.086,6.547,21.942,10.086,33.975,10.086c12.033,0,23.888-3.539,33.798-10.086c17.695-11.325,28.136-30.79,28.136-51.847v-62.523
	L194.003,193.477L194.003,193.477z"/>
<path style="fill:#FFBD86;" d="M317.871,193.477V256c0,21.057-10.441,40.522-28.136,51.847
	c-9.909,6.547-21.765,10.086-33.798,10.086V193.477H317.871z"/>
<polygon style="fill:#00EED0;" points="339.813,211.762 172.061,211.762 200.373,140.568 212.76,135.259 207.275,123.05 
	214.529,105 297.345,105 304.422,122.872 298.052,133.666 311.501,140.568 "/>
<polygon style="fill:#00CCB2;" points="339.813,211.762 255.937,211.762 255.937,105 297.345,105 304.422,122.872 298.052,133.666 
	311.501,140.568 "/>
<path style="fill:#FF3980;" d="M311.501,140.568c-7.786-0.531-15.218,1.062-22.296,4.601c-15.041,7.432-24.42,22.649-24.42,39.46
	v27.133H247.09v-27.133c0-15.926-8.493-30.613-22.296-38.399c-7.609-4.424-15.925-6.194-24.42-5.663l6.901-17.518
	c9.025,0.353,17.872,3.008,26.189,7.786c9.379,5.308,16.988,12.917,22.473,21.942c5.84-9.909,14.51-18.05,25.304-23.535
	c7.432-3.716,15.218-5.84,23.181-6.37L311.501,140.568z"/>
<path style="fill:#F30051;" d="M264.785,211.762h-8.848v-58.984c5.84-9.909,14.51-18.05,25.304-23.535
	c7.432-3.716,15.218-5.84,23.181-6.37l7.079,17.695c-7.786-0.531-15.218,1.062-22.296,4.601c-15.041,7.432-24.42,22.649-24.42,39.46
	L264.785,211.762L264.785,211.762z"/>
<polygon style="fill:#00EED0;" points="255.937,349.608 217.009,389.125 213.645,407 298.229,407 292.228,386.489 "/>
<g>
	<polygon style="fill:#00CCB2;" points="255.937,349.608 255.937,407 298.229,407 292.228,386.489 	"/>
	<polygon style="fill:#00CCB2;" points="319.817,320.764 319.817,320.941 301.237,395.498 298.229,407 287.611,407 281.595,400.983 
		255.937,375.325 230.279,400.983 224.263,407 213.645,407 210.637,395.498 192.057,320.764 213.468,318.641 255.937,349.608 
		298.406,318.641 	"/>
</g>
<polygon style="fill:#00AB94;" points="319.817,320.764 319.817,320.941 301.237,395.498 298.229,407 287.611,407 281.595,400.983 
	255.937,375.325 255.937,349.608 298.406,318.641 "/>
<g>
</g>
<g>
</g>
<g>
</g>
<g>
</g>
<g>
</g>
<g>
</g>
<g>
</g>
<g>
</g>
<g>
</g>
<g>
</g>
<g>
</g>
<g>
</g>
<g>
</g>
<g>
</g>
<g>
</g>
</svg>
