<?xml version="1.0" encoding="iso-8859-1"?>
<!-- Generator: Adobe Illustrator 19.0.0, SVG Export Plug-In . SVG Version: 6.00 Build 0)  -->
<svg version="1.1" id="Capa_1" xmlns="http://www.w3.org/2000/svg" xmlns:xlink="http://www.w3.org/1999/xlink" x="0px" y="0px"
	 viewBox="0 0 512 512" style="enable-background:new 0 0 512 512;" xml:space="preserve">
<circle style="fill:#77DD00;" cx="256" cy="256" r="256"/>
<path style="fill:#66BB00;" d="M511.996,256.347l-103.21-103.121L233,182l-97.378,130.267c0,0,82.451,82.458,82.552,82.559
	L169.492,431l80.929,80.929c1.855,0.04,3.713,0.071,5.578,0.071C397.269,512,511.808,397.572,511.996,256.347z"/>
<path style="fill:#FDBF00;" d="M324.053,187.123l-42.848-9.182L323.753,81l85.155,72.177L324.053,187.123z"/>
<path style="fill:#FF3980;" d="M235.323,98.773c-39.58,0-71.777,32.197-71.777,71.777s32.197,71.777,71.777,71.777
	S307.1,210.13,307.1,170.55S274.903,98.773,235.323,98.773z"/>
<path style="fill:#913F02;" d="M173.8,160.297c-36.094,0-66.035,26.865-70.957,61.523l25.077,23.161h89.59l27.248-23.161
	C239.834,187.162,209.894,160.297,173.8,160.297z"/>
<path style="fill:#F30051;" d="M307.1,170.551c0,39.58-32.197,71.777-71.777,71.777V98.773
	C274.903,98.773,307.1,130.971,307.1,170.551z"/>
<path style="fill:#00EED0;" d="M367.599,221.82l-14.15,19.892H246.193l-10.87-10.663l-9.229-9.229
	c1.436-9.229,4.512-18.047,9.229-25.84c12.304-21.328,35.069-35.683,61.523-35.683C332.94,160.297,362.472,187.162,367.599,221.82z"
	/>
<path style="fill:#00CCB2;" d="M367.599,221.82l-14.15,19.892H246.193l-10.87-10.663V195.98
	c12.304-21.328,35.069-35.683,61.523-35.683C332.94,160.297,362.472,187.162,367.599,221.82z"/>
<polygon style="fill:#AFD5E0;" points="245.577,334.613 245.577,375.423 236.143,387.318 235.323,386.498 225.069,375.423 
	225.069,334.613 "/>
<polygon style="fill:#86B5BF;" points="235.323,334.613 245.577,334.613 245.577,375.423 236.143,387.318 235.323,386.498 "/>
<g>
	<polygon style="fill:#CCF5FF;" points="301.154,431 169.492,431 225.069,375.423 245.577,375.423 	"/>
	<path style="fill:#CCF5FF;" d="M102.022,221.82v10.254c0,62.139,50.654,112.793,112.793,112.793h41.016
		c62.139,0,112.793-50.654,112.793-112.793V221.82H102.022z"/>
</g>
<g>
	<polygon style="fill:#AFD5E0;" points="245.577,375.423 301.154,431 235.323,431 235.323,375.423 	"/>
	<path style="fill:#AFD5E0;" d="M368.624,221.82v10.254c0,62.139-50.654,112.793-112.793,112.793h-20.508V221.82H368.624z"/>
</g>
<g>
</g>
<g>
</g>
<g>
</g>
<g>
</g>
<g>
</g>
<g>
</g>
<g>
</g>
<g>
</g>
<g>
</g>
<g>
</g>
<g>
</g>
<g>
</g>
<g>
</g>
<g>
</g>
<g>
</g>
</svg>
