<?xml version="1.0" encoding="UTF-8" standalone="no"?>
<svg viewBox="0 0 100 100">
  <circle cx="49.806801" cy="19.556801" r="7.5" />
  <path d="m 46.056801,88.556801 v -18 h -3 v -12.0015 c 0,-3.726 3.0225,-6.7485 6.75,-6.7485 3.7275,0 6.75,3.0225 6.75,6.7485 v 12.0015 h -3 v 18 h 4.5 v -30.0375 c 3.789,-0.3765 6.75,-3.5745 6.75,-7.464 v -15 c 0,-4.1415 -3.357,-7.4985 -7.5,-7.4985 h -15 c -4.143,0 -7.5,3.357 -7.5,7.4985 v 15 c 0,3.8895 2.961,7.0875 6.75,7.464 v 30.0375 z m 3.75,-38.2515 c -3.7275,0 -6.75,-3.021 -6.75,-6.75 0,-3.726 3.0225,-6.7485 6.75,-6.7485 3.7275,0 6.75,3.0225 6.75,6.7485 0,3.729 -3.0225,6.75 -6.75,6.75 z" />
</svg>
