<svg height="512pt" viewBox="0 0 512 512" width="512pt" xmlns="http://www.w3.org/2000/svg"><path d="m512 256c0 141.386719-114.613281 256-256 256s-256-114.613281-256-256 114.613281-256 256-256 256 114.613281 256 256zm0 0" fill="#ffe000"/><path d="m512 256c0-9.457031-.527344-18.792969-1.527344-27.984375l-146.988281-146.988281-90.867187 216.574218-191.59375 65.878907 146.992187 146.992187c9.191406 1 18.527344 1.527344 27.984375 1.527344 141.386719 0 256-114.613281 256-256zm0 0" fill="#fdba12"/><path d="m165.351562 436.636719c-5.625-5.625-11.210937-.039063-16.835937-5.664063s-.039063-11.210937-5.664063-16.835937-11.210937-.039063-16.835937-5.664063-.035156-11.210937-5.660156-16.835937c-5.625-5.621094-11.210938-.035157-16.835938-5.660157s-.039062-11.210937-5.664062-16.835937c-5.621094-5.625-11.207031-.039063-16.832031-5.660156-5.621094-5.625-.035157-11.210938-5.660157-16.835938l.113281-.113281c38.28125-26.460938 100.898438-10.910156 100.898438-10.910156s15.554688 62.621094-10.90625 100.902344zm0 0" fill="#b180ff"/><path d="m175.140625 335.335938-55.585937 55.585937c.265624.214844.535156.449219.800781.714844 5.625 5.625.039062 11.210937 5.660156 16.835937 5.625 5.625 11.210937.039063 16.835937 5.664063s.039063 11.210937 5.664063 16.835937 11.210937.039063 16.835937 5.664063l.117188-.113281c26.460938-38.28125 10.90625-100.898438 10.90625-100.898438s-.433594-.109375-1.234375-.289062zm0 0" fill="#9a4dff"/><path d="m346.648438 75.363281c5.625 5.625 11.210937.039063 16.835937 5.664063s.039063 11.210937 5.664063 16.835937 11.210937.039063 16.835937 5.664063.035156 11.210937 5.660156 16.835937c5.625 5.621094 11.210938.035157 16.835938 5.660157s.039062 11.210937 5.664062 16.835937c5.621094 5.625 11.207031.039063 16.832031 5.660156 5.621094 5.625.035157 11.210938 5.660157 16.835938l-.113281.113281c-38.28125 26.460938-100.898438 10.910156-100.898438 10.910156s-15.554688-62.621094 10.90625-100.902344zm0 0" fill="#b180ff"/><path d="m430.976562 148.519531c-5.625-5.625-11.210937-.035156-16.832031-5.660156-5.625-5.625-.039062-11.210937-5.664062-16.835937s-11.210938-.039063-16.835938-5.664063c-.265625-.265625-.503906-.535156-.722656-.804687l-55.585937 55.585937c.179687.800781.289062 1.234375.289062 1.234375s62.617188 15.554688 100.898438-10.90625l.113281-.117188c-5.621094-5.621093-.035157-11.207031-5.660157-16.832031zm0 0" fill="#9a4dff"/><path d="m108.042969 306.378906 198.332031-198.332031 97.574219 97.574219-198.332031 198.332031zm0 0" fill="#a700ff"/><path d="m156.070312 354.402344 198.328126-198.332032 49.550781 49.550782-198.332031 198.332031zm0 0" fill="#8f03ea"/><path d="m187.585938 324.410156 136.824218-136.820312 33.230469 33.230468-136.824219 136.824219zm0 0" fill="#bc99ff"/><path d="m151.875 288.703125 136.824219-136.824219 18.03125 18.03125-136.824219 136.824219zm0 0" fill="#fff"/></svg>