<svg height="512pt" viewBox="0 0 512 512" width="512pt" xmlns="http://www.w3.org/2000/svg"><path d="m512 256c0 141.386719-114.613281 256-256 256s-256-114.613281-256-256 114.613281-256 256-256 256 114.613281 256 256zm0 0" fill="#00edff"/><path d="m512 256c0-8.847656-.449219-17.589844-1.324219-26.207031l-111.402343-111.398438-283.113282 277.707031 114.664063 114.667969c8.285156.804688 16.679687 1.230469 25.175781 1.230469 141.386719 0 256-114.613281 256-256zm0 0" fill="#07bee8"/><path d="m103.355469 383.296875 145.070312-145.070313 26.160157 26.164063-145.066407 145.070313zm0 0" fill="#fff"/><path d="m115.859375 395.800781 145.070313-145.070312 13.65625 13.660156-145.066407 145.066406zm0 0" fill="#e9edf5"/><path d="m396.890625 115.925781c-40.21875-40.21875-105.429687-40.21875-145.648437 0-40.21875 40.222657-40.21875 105.429688 0 145.648438s105.429687 40.21875 145.648437 0 40.21875-105.425781 0-145.648438zm0 0" fill="#ff0062"/><path d="m396.894531 115.925781c-.195312-.195312-.390625-.378906-.585937-.570312l-145.632813 145.632812c.191407.195313.375.394531.570313.585938 40.21875 40.21875 105.429687 40.21875 145.648437 0s40.21875-105.429688 0-145.648438zm0 0" fill="#ea0361"/><path d="m253.777344 84.117188 172.027344 172.03125-39.753907 39.753906-172.03125-172.03125zm0 0" fill="#ed074f"/><path d="m300.902344 210.761719 39.753906-39.753907 85.144531 85.144532-39.753906 39.757812zm0 0" fill="#d10d54"/></svg>