<svg height="512pt" viewBox="0 0 512 512" width="512pt" xmlns="http://www.w3.org/2000/svg"><path d="m512 256c0 141.386719-114.613281 256-256 256s-256-114.613281-256-256 114.613281-256 256-256 256 114.613281 256 256zm0 0" fill="#ffe000"/><path d="m512 256c0-8.90625-.457031-17.707031-1.34375-26.382812l-123.484375-123.484376-64.1875 185.769532-93.585937-93.585938-94.726563 205.46875 107.859375 107.863282c4.460938.230468 8.953125.351562 13.46875.351562 141.386719 0 256-114.613281 256-256zm0 0" fill="#fdba12"/><path d="m306.476562 323.761719c-.597656-.414063-1.195312-.828125-1.792968-1.242188-20.003906-13.804687-27.855469-36.984375-19.5625-57.992187 13.070312-33.117188 13.070312-70.625-.003906-103.742188-8.292969-21.011718-.4375-44.1875 19.5625-57.996094.597656-.410156 1.195312-.824218 1.792968-1.238281 32.464844-22.578125 80.886719-10.316406 94.082032 23.976563 10.703124 27.820312 16.371093 57.472656 16.265624 87.128906.105469 29.652344-5.5625 59.308594-16.265624 87.128906-13.191407 34.289063-61.613282 46.554688-94.078126 23.976563zm0 0" fill="#ff0062"/><path d="m400.558594 125.527344c-8.410156-21.855469-31.136719-34.746094-54.917969-35.386719v245.027344c23.78125-.640625 46.507813-13.527344 54.917969-35.382813 10.703125-27.820312 16.367187-57.472656 16.261718-87.128906.109376-29.65625-5.558593-59.308594-16.261718-87.128906zm0 0" fill="#ef0665"/><path d="m217.523438 188.238281c.597656.414063 1.195312.828125 1.792968 1.242188 20.003906 13.808593 27.855469 36.984375 19.5625 57.992187-13.070312 33.117188-13.070312 70.625.003906 103.742188 8.292969 21.011718.4375 44.1875-19.5625 57.996094-.597656.410156-1.195312.824218-1.792968 1.238281-32.464844 22.578125-80.886719 10.316406-94.082032-23.976563-10.703124-27.820312-16.371093-57.472656-16.265624-87.128906-.105469-29.65625 5.5625-59.308594 16.265624-87.128906 13.191407-34.289063 61.613282-46.554688 94.078126-23.976563zm0 0" fill="#a700ff"/><path d="m238.878906 351.214844c-13.070312-33.117188-13.070312-70.625 0-103.742188 8.292969-21.007812.4375-44.1875-19.5625-57.992187-.597656-.414063-1.195312-.828125-1.792968-1.242188-12.457032-8.664062-27.261719-12.179687-41.523438-11.308593v244.828124c14.261719.875 29.066406-2.644531 41.523438-11.308593.597656-.414063 1.195312-.828125 1.792968-1.238281 20.003906-13.808594 27.855469-36.984376 19.5625-57.996094zm0 0" fill="#9006ea"/></svg>