<svg height="512pt" viewBox="0 0 512 512" width="512pt" xmlns="http://www.w3.org/2000/svg"><path d="m512 256c0 141.386719-114.613281 256-256 256s-256-114.613281-256-256 114.613281-256 256-256 256 114.613281 256 256zm0 0" fill="#ffe000"/><path d="m295.46875 508.96875c119.503906-18.492188 211.679688-119.636719 216.328125-243.179688l-174.652344-174.652343-166.050781 176.816406 94 94-27.59375 89.046875zm0 0" fill="#fdba12"/><path d="m237.5 226h37v225h-37zm0 0" fill="#fff"/><path d="m255.761719 226h18.738281v225h-18.738281zm0 0" fill="#e9edf5"/><path d="m377.320312 181.320312c0 67.003907-54.316406 121.320313-121.320312 121.320313s-121.320312-54.316406-121.320312-121.320313c0-67.003906 54.316406-121.320312 121.320312-121.320312s121.320312 54.316406 121.320312 121.320312zm0 0" fill="#ff0062"/><path d="m256 60c-.078125 0-.15625.003906-.238281.003906v242.632813c.082031 0 .160156.003906.238281.003906 67.003906 0 121.320312-54.320313 121.320312-121.320313 0-67.003906-54.316406-121.320312-121.320312-121.320312zm0 0" fill="#ef0665"/><path d="m245.097656 80.40625c-42.160156 0-79.367187 21.605469-101.140625 54.324219-5.972656 14.34375-9.277343 30.082031-9.277343 46.589843 0 39.15625 18.554687 73.972657 47.347656 96.15625-17.285156-20.441406-27.726563-46.847656-27.726563-75.652343 0-50.0625 40.730469-90.792969 90.796875-90.792969 38.363282 0 69.574219 31.210938 69.574219 69.574219 0 29.003906-23.59375 52.597656-52.597656 52.597656-21.515625 0-39.015625-17.503906-39.015625-39.015625 0-15.523438 12.628906-28.152344 28.152344-28.152344 10.726562 0 19.457031 8.730469 19.457031 19.457032 0 8.457031 6.855469 15.3125 15.308593 15.3125 8.457032 0 15.308594-6.855469 15.308594-15.3125 0-27.609376-22.464844-50.078126-50.078125-50.078126-32.40625 0-58.769531 26.367188-58.769531 58.773438 0 38.398438 31.238281 69.636719 69.636719 69.636719 45.886719 0 83.21875-37.332031 83.21875-83.21875 0-55.25-44.949219-100.199219-100.195313-100.199219zm0 0" fill="#ffd7dc"/><g fill="#ffcdd2"><path d="m255.761719 80.976562v30.871094c33.320312 5.148438 58.910156 34.019532 58.910156 68.757813 0 29-23.59375 52.59375-52.597656 52.59375-2.148438 0-4.253907-.179688-6.3125-.515625v30.839844c2.082031.1875 4.183593.296874 6.3125.296874 45.886719.003907 83.21875-37.332031 83.21875-83.21875 0-51.644531-39.277344-94.285156-89.53125-99.625zm0 0"/><path d="m270.667969 185.492188c0 8.457031 6.855469 15.308593 15.308593 15.308593 8.457032 0 15.308594-6.851562 15.308594-15.308593 0-26.078126-20.039062-47.554688-45.523437-49.863282v30.964844c8.535156 2.058594 14.90625 9.738281 14.90625 18.898438zm0 0"/></g></svg>