<svg height="512pt" viewBox="0 0 512 512" width="512pt" xmlns="http://www.w3.org/2000/svg"><path d="m512 256c0 141.386719-114.613281 256-256 256s-256-114.613281-256-256 114.613281-256 256-256 256 114.613281 256 256zm0 0" fill="#ffe000"/><path d="m512 256c0-19.3125-2.152344-38.121094-6.207031-56.210938l-152.125-152.128906-224.667969 367.671875 94.636719 94.640625c10.601562 1.335938 21.402343 2.027344 32.363281 2.027344 141.386719 0 256-114.613281 256-256zm0 0" fill="#fdba12"/><path d="m158.332031 47.660156 24.421875 17.328125 24.417969-17.328125 24.417969 17.328125 24.417968-17.328125 24.417969 17.328125 24.414063-17.328125 24.414062 17.328125 24.414063-17.328125-18.476563 100.695313c-7.011718 38.222656-40.328125 65.984375-79.191406 65.984375s-72.179688-27.761719-79.191406-65.984375zm0 0" fill="#7d0cc6"/><path d="m329.253906 64.988281-24.414062-17.328125-24.414063 17.328125-24.417969-17.328125-.246093.175782v166.5c.082031 0 .160156.003906.238281.003906 38.863281 0 72.179688-27.761719 79.191406-65.984375l18.472656-100.695313zm0 0" fill="#690db2"/><path d="m176.808594 148.355469-5.855469-31.898438 156.382813 54.703125c-5.773438 11.03125-13.996094 20.472656-23.886719 27.691406l-125.101563-43.757812c-.601562-2.210938-1.121094-4.453125-1.539062-6.738281zm0 0" fill="#ce0d5b"/><path d="m255.761719 146.121094v36.050781l47.683593 16.679687c9.894532-7.21875 18.113282-16.660156 23.886719-27.691406zm0 0" fill="#bf0d5e"/><path d="m336.128906 143.246094-171.25-59.90625-6.546875-35.679688 24.421875 17.328125 10.800782-7.664062 148.789062 52.046875zm0 0" fill="#ce0d5b"/><path d="m342.34375 109.371094-86.582031-30.289063v36.050781l80.367187 28.113282zm0 0" fill="#bf0d5e"/><path d="m383 415.332031h-254l13.5625-147.816406c3.644531-39.757813 36.992188-70.183594 76.914062-70.183594h73.046876c39.921874 0 73.265624 30.425781 76.914062 70.183594zm0 0" fill="#a700ff"/><path d="m369.4375 267.515625c-3.644531-39.757813-36.992188-70.183594-76.914062-70.183594h-36.761719v218h127.238281zm0 0" fill="#9206ed"/><path d="m135.171875 348.085938 234.113281-81.898438c-1.28125-11.757812-5.15625-22.675781-11.035156-32.1875l-219.664062 76.839844zm0 0" fill="#ff0062"/><path d="m358.25 234-102.488281 35.851562v36.046876l113.523437-39.710938c-1.28125-11.757812-5.15625-22.675781-11.035156-32.1875zm0 0" fill="#e80562"/><path d="m142.5625 267.515625-.84375 9.171875 192.285156-67.261719c-12.023437-7.667969-26.269531-12.09375-41.480468-12.09375h-27l-113.566407 39.726563c-5.085937 9.136718-8.386719 19.4375-9.394531 30.457031zm0 0" fill="#ff0062"/><path d="m292.523438 197.332031h-27.003907l-9.757812 3.414063v36.050781l78.242187-27.371094c-12.023437-7.664062-26.269531-12.09375-41.480468-12.09375zm0 0" fill="#e80562"/><path d="m372.253906 298.203125-240.21875 84.03125-3.035156 33.097656h11.472656l234.984375-82.199219zm0 0" fill="#ff0062"/><path d="m372.253906 298.203125-116.492187 40.75v36.050781l119.695312-41.871094zm0 0" fill="#e80562"/><path d="m338.019531 415.332031 43.582031-15.242187-3.203124-34.929688-143.429688 50.171875zm0 0" fill="#ff0062"/><path d="m381.601562 400.089844-3.203124-34.929688-122.636719 42.898438v7.273437h82.257812zm0 0" fill="#e80562"/></svg>