<svg height="512pt" viewBox="0 0 512 512" width="512pt" xmlns="http://www.w3.org/2000/svg"><path d="m512 256c0 141.386719-114.613281 256-256 256s-256-114.613281-256-256 114.613281-256 256-256 256 114.613281 256 256zm0 0" fill="#ffe000"/><path d="m299.757812 508.257812c120.539063-20.761718 212.242188-125.792968 212.242188-252.257812 0-7.265625-.320312-14.453125-.910156-21.5625l-151.472656-151.472656-66.761719 50.664062-49.355469-49.355468-66.464844 137.246093 80.636719 80.636719-14.171875 149.84375zm0 0" fill="#fdba12"/><path d="m243.5 155h25v297h-25zm0 0" fill="#fff"/><path d="m255.761719 155h12.738281v297h-12.738281zm0 0" fill="#e9edf5"/><path d="m381.667969 132.605469c0-36.953125-29.957031-66.910157-66.910157-66.910157-25.351562 0-47.40625 14.097657-58.757812 34.878907-11.351562-20.78125-33.40625-34.878907-58.757812-34.878907-36.953126 0-66.910157 29.957032-66.910157 66.910157 0 77.011719 125.667969 150.863281 125.667969 150.863281s125.667969-73.011719 125.667969-150.863281zm0 0" fill="#ff0062"/><path d="m314.757812 65.695312c-25.351562 0-47.40625 14.097657-58.757812 34.878907-.078125-.140625-.160156-.277344-.238281-.417969v183.171875c.144531.085937.238281.140625.238281.140625s125.667969-73.011719 125.667969-150.863281c0-36.953125-29.957031-66.910157-66.910157-66.910157zm0 0" fill="#ea0663"/></svg>