<svg height="512pt" viewBox="0 0 512 512" width="512pt" xmlns="http://www.w3.org/2000/svg"><path d="m512 256c0 141.386719-114.613281 256-256 256s-256-114.613281-256-256 114.613281-256 256-256 256 114.613281 256 256zm0 0" fill="#994c0f"/><path d="m509.695312 290.382812-206.714843-206.714843-181.941407 309.742187 118.019532 118.019532c5.601562.363281 11.246094.570312 16.941406.570312 129.722656 0 236.894531-96.492188 253.695312-221.617188zm0 0" fill="#912c12"/><path d="m105.625 319.203125 88.1875-212.835937c22.953125-55.398438 101.421875-55.398438 124.375 0l88.1875 212.835937c18.363281 44.324219-14.214844 93.082031-62.191406 93.082031h-176.367188c-47.980468 0-80.554687-48.757812-62.191406-93.082031zm0 0" fill="#ffe000"/><path d="m318.1875 106.367188c-22.953125-55.398438-101.421875-55.398438-124.375 0l-17.804688 42.964843h159.984376zm0 0" fill="#fff"/><path d="m318.1875 106.367188c-11.421875-27.570313-36.59375-41.414063-61.832031-41.542969v84.507812h79.636719zm0 0" fill="#e9edf5"/><path d="m176.007812 149.332031-54.96875 132.667969h269.921876l-54.96875-132.667969zm0 0" fill="#ff0062"/><path d="m335.992188 149.332031h-79.636719v132.667969h134.605469zm0 0" fill="#dd0e4e"/><path d="m390.960938 282h-269.921876l-15.414062 37.203125c-18.363281 44.324219 14.210938 93.082031 62.191406 93.082031h176.367188c47.980468 0 80.554687-48.757812 62.191406-93.082031zm0 0" fill="#ffe000"/><path d="m406.375 319.203125-15.414062-37.203125h-134.605469v130.285156h87.828125c47.980468 0 80.554687-48.757812 62.191406-93.082031zm0 0" fill="#ffc200"/></svg>