<svg height="512pt" viewBox="0 0 512 512" width="512pt" xmlns="http://www.w3.org/2000/svg"><path d="m512 256c0 141.386719-114.613281 256-256 256s-256-114.613281-256-256 114.613281-256 256-256 256 114.613281 256 256zm0 0" fill="#ffe000"/><path d="m510.027344 287.867188-181.785156-181.785157-172.773438 311.585938 94.25 94.253906c2.089844.046875 4.179688.078125 6.28125.078125 130.59375 0 238.339844-97.789062 254.027344-224.132812zm0 0" fill="#fdba12"/><path d="m402.820312 303.648438c0 82.820312-67.136718 149.957031-149.957031 149.957031-82.820312 0-149.960937-67.136719-149.960937-149.957031 0-82.820313 67.140625-241.382813 149.960937-241.382813 82.820313 0 149.957031 158.5625 149.957031 241.382813zm0 0" fill="#994c0f"/><path d="m252.863281 62.265625c-.027343 0-.050781.003906-.078125.003906v391.335938h.078125c82.820313 0 149.957031-67.140625 149.957031-149.960938 0-82.816406-67.136718-241.378906-149.957031-241.378906zm0 0" fill="#912c12"/></svg>