<svg height="512pt" viewBox="0 0 512 512" width="512pt" xmlns="http://www.w3.org/2000/svg"><path d="m512 256c0 141.386719-114.613281 256-256 256s-256-114.613281-256-256 114.613281-256 256-256 256 114.613281 256 256zm0 0" fill="#a700ff"/><path d="m512 256c0-5.230469-.175781-10.417969-.484375-15.566406l-161.765625-161.765625-20.234375 95.097656-95.101563-95.097656-72.164062 354.664062 78.183594 78.183594c5.148437.308594 10.335937.484375 15.566406.484375 141.386719 0 256-114.613281 256-256zm0 0" fill="#9506f2"/><path d="m277.582031 78.667969h72.167969v354.667969h-72.167969zm0 0" fill="#ffff91"/><path d="m314.09375 78.667969h35.65625v354.667969h-35.65625zm0 0" fill="#fff573"/><path d="m277.582031 165.582031 72.167969-35.332031v-49.902344l-72.167969 35.332032zm0 0" fill="#994c0f"/><path d="m349.75 80.347656-35.65625 17.457032v49.902343l35.65625-17.457031zm0 0" fill="#912914"/><path d="m277.582031 254.273438 72.167969-35.332032v-49.902344l-72.167969 35.332032zm0 0" fill="#994c0f"/><path d="m349.75 169.039062-35.65625 17.453126v49.902343l35.65625-17.453125zm0 0" fill="#912914"/><path d="m277.582031 342.960938 72.167969-35.332032v-49.902344l-72.167969 35.332032zm0 0" fill="#994c0f"/><path d="m349.75 257.726562-35.65625 17.457032v49.902344l35.65625-17.457032zm0 0" fill="#912914"/><path d="m277.582031 431.652344 72.167969-35.332032v-49.902343l-72.167969 35.332031zm0 0" fill="#994c0f"/><path d="m349.75 346.417969-35.65625 17.457031v49.898438l35.65625-17.453126zm0 0" fill="#912914"/><path d="m162.25 78.667969h72.167969v354.667969h-72.167969zm0 0" fill="#ffff91"/><path d="m198.023438 78.667969h36.394531v354.667969h-36.394531zm0 0" fill="#fff573"/><path d="m162.25 165.582031 72.167969-35.332031v-49.902344l-72.167969 35.332032zm0 0" fill="#994c0f"/><path d="m234.417969 80.347656-36.394531 17.816406v49.902344l36.394531-17.816406zm0 0" fill="#912914"/><path d="m162.25 254.273438 72.167969-35.332032v-49.902344l-72.167969 35.332032zm0 0" fill="#994c0f"/><path d="m234.417969 169.039062-36.394531 17.816407v49.902343l36.394531-17.816406zm0 0" fill="#912914"/><path d="m162.25 342.960938 72.167969-35.332032v-49.902344l-72.167969 35.332032zm0 0" fill="#994c0f"/><path d="m234.417969 257.726562-36.394531 17.820313v49.898437l36.394531-17.816406zm0 0" fill="#912914"/><path d="m162.25 431.652344 72.167969-35.332032v-49.902343l-72.167969 35.332031zm0 0" fill="#994c0f"/><path d="m234.417969 346.417969-36.394531 17.816406v49.902344l36.394531-17.816407zm0 0" fill="#912914"/></svg>