<svg height="512pt" viewBox="0 0 512 512" width="512pt" xmlns="http://www.w3.org/2000/svg"><path d="m512 256c0 141.386719-114.613281 256-256 256s-256-114.613281-256-256 114.613281-256 256-256 256 114.613281 256 256zm0 0" fill="#00edff"/><path d="m510.300781 285.300781-111.800781-111.800781-16.898438 32.5-97.902343-97.898438-184.5 285 115.601562 115.597657c13.398438 2.199219 27.097657 3.300781 41.097657 3.300781 131.601562 0 239.902343-99.101562 254.402343-226.699219zm0 0" fill="#07bee8"/><path d="m289.5 127c0 18.5-15 33.5-33.5 33.5s-33.5-15-33.5-33.5 15-33.5 33.5-33.5 33.5 15 33.5 33.5zm0 0" fill="#ff0062"/><path d="m256 93.5c-.101562 0-.300781 0-.398438 0v67h.398438c18.5 0 33.5-15 33.5-33.5s-15-33.5-33.5-33.5zm0 0" fill="#ed0664"/><path d="m311.101562 377h-110.300781c-66.601562 0-120.5-54-120.5-120.5s54-120.5 120.5-120.5h110.300781c66.597657 0 120.5 54 120.5 120.5s-53.902343 120.5-120.5 120.5zm0 0" fill="#994c0f"/><path d="m311.101562 136h-55.601562v241h55.601562c66.5 0 120.5-54 120.5-120.5s-53.902343-120.5-120.5-120.5zm0 0" fill="#8e2b11"/><path d="m311.699219 343.300781h-111.398438c-47.902343 0-86.800781-38.902343-86.800781-86.800781s38.898438-86.800781 86.800781-86.800781h111.398438c47.902343 0 86.800781 38.902343 86.800781 86.800781s-38.898438 86.800781-86.800781 86.800781zm0 0" fill="#ffe000"/><path d="m311.699219 169.699219h-56.097657v173.601562h56.097657c47.902343 0 86.800781-38.902343 86.800781-86.800781s-38.898438-86.800781-86.800781-86.800781zm0 0" fill="#ffc200"/><path d="m308.398438 309.800781h-104.796876c-29 0-52.402343-23.5-52.402343-52.402343v-1.796876c0-29 23.5-52.402343 52.402343-52.402343h104.796876c29 0 52.402343 23.5 52.402343 52.402343v1.796876c0 28.902343-23.402343 52.402343-52.402343 52.402343zm0 0" fill="#994c0f"/><path d="m308.398438 203.199219h-52.796876v106.699219h52.796876c29 0 52.402343-23.5 52.402343-52.398438v-1.800781c0-29-23.402343-52.5-52.402343-52.5zm0 0" fill="#8e2b11"/><path d="m299.101562 279.699219h-86.203124c-12.796876 0-23.199219-10.398438-23.199219-23.199219s10.402343-23.199219 23.199219-23.199219h86.203124c12.796876 0 23.199219 10.398438 23.199219 23.199219s-10.402343 23.199219-23.199219 23.199219zm0 0" fill="#ffe000"/><path d="m299.101562 233.300781h-43.5v46.398438h43.5c12.796876 0 23.199219-10.398438 23.199219-23.199219s-10.402343-23.199219-23.199219-23.199219zm0 0" fill="#ffc200"/><path d="m99.199219 343.300781h313.5v49.800781h-313.5zm0 0" fill="#fff"/><path d="m255.601562 343.300781h157.097657v49.800781h-157.097657zm0 0" fill="#e9edf5"/></svg>