<svg height="512pt" viewBox="0 0 512 512" width="512pt" xmlns="http://www.w3.org/2000/svg"><path d="m512 256c0 141.386719-114.613281 256-256 256s-256-114.613281-256-256 114.613281-256 256-256 256 114.613281 256 256zm0 0" fill="#00edff"/><path d="m512 256c0-12.121094-.863281-24.039062-2.492188-35.714844l-117.144531-117.140625-15.726562 178.59375-126.636719-126.636719-118.644531 28.511719-30.355469 218.949219 104.433594 104.433594c16.347656 3.273437 33.253906 5.003906 50.566406 5.003906 141.386719 0 256-114.613281 256-256zm0 0" fill="#07bee8"/><path d="m339.839844 246.042969v49.90625c0 19.183593-15.605469 34.785156-34.785156 34.785156-17.640626 0-32.246094-13.203125-34.476563-30.246094h-58.265625c2.375 49.105469 43.0625 88.324219 92.746094 88.324219 51.203125 0 92.859375-41.65625 92.859375-92.863281v-49.90625zm0 0" fill="#a700ff"/><path d="m339.839844 246.042969v49.90625c0 19.183593-15.601563 34.785156-34.785156 34.785156-17.640626 0-32.246094-13.203125-34.476563-30.246094h-14.972656v74.023438c14.328125 9.050781 31.285156 14.296875 49.453125 14.296875 51.203125 0 92.859375-41.65625 92.859375-92.859375v-49.90625zm0 0" fill="#9306ef"/><path d="m121.453125 410.992188c16.039063 0 29.039063-13 29.039063-29.039063v-152.851563h-58.074219v152.851563c0 16.039063 13 29.039063 29.035156 29.039063zm0 0" fill="#a700ff"/><path d="m270.273438 295.949219v-84.390625c0-49.035156-39.894532-88.925782-88.929688-88.925782s-88.929688 39.890626-88.929688 88.925782v17.546875h58.078126v-17.546875c0-17.011719 13.839843-30.851563 30.851562-30.851563s30.851562 13.84375 30.851562 30.851563v84.390625c0 1.523437.042969 3.035156.113282 4.539062h58.265625c-.191407-1.488281-.300781-3-.300781-4.539062zm0 0" fill="#ff0062"/><path d="m270.273438 295.949219v-84.390625c0-18.035156-5.402344-34.828125-14.667969-48.859375v137.789062h14.972656c-.195313-1.488281-.304687-3-.304687-4.539062zm0 0" fill="#e80763"/><path d="m368.878906 91.175781c-16.035156 0-29.039062 13-29.039062 29.039063v125.828125h58.074218v-125.828125c.003907-16.039063-13-29.039063-29.035156-29.039063zm0 0" fill="#e80763"/><g fill="#c61465"><path d="m348.332031 211.558594h40v15.441406h-40zm0 0"/><path d="m348.332031 175.894531h40v15.4375h-40zm0 0"/><path d="m348.332031 140.226562h40v15.441407h-40zm0 0"/></g><path d="m222 271.558594h40v15.441406h-40zm0 0" fill="#dd1265"/><path d="m255.605469 271.558594h6.394531v15.441406h-6.394531zm0 0" fill="#c61465"/><path d="m222 235.894531h40v15.4375h-40zm0 0" fill="#dd1265"/><path d="m255.605469 235.894531h6.394531v15.4375h-6.394531zm0 0" fill="#c61465"/><path d="m222 200.226562h40v15.441407h-40zm0 0" fill="#dd1265"/><path d="m255.605469 200.226562h6.394531v15.441407h-6.394531zm0 0" fill="#c61465"/><path d="m101 200.226562h40v15.441407h-40zm0 0" fill="#dd1265"/><path d="m101 246.042969h40v15.4375h-40zm0 0" fill="#882bbf"/><path d="m101 309.375h40v15.441406h-40zm0 0" fill="#882bbf"/><path d="m348.878906 263.839844h40v15.441406h-40zm0 0" fill="#7427aa"/><path d="m101 277.710938h40v15.4375h-40zm0 0" fill="#882bbf"/></svg>