<svg height="512pt" viewBox="0 0 512 512" width="512pt" xmlns="http://www.w3.org/2000/svg"><path d="m512 256c0 141.386719-114.613281 256-256 256s-256-114.613281-256-256 114.613281-256 256-256 256 114.613281 256 256zm0 0" fill="#00edff"/><path d="m509.980469 288.296875-103.175781-103.175781-1.753907 1.632812-100.148437-100.152344-85.15625 149.472657-112.082032-5.289063 113.554688 113.554688-33.527344 101.042968 66.59375 66.59375c.574219.003907 1.144532.023438 1.714844.023438 130.445312 0 238.101562-97.566406 253.980469-223.703125zm0 0" fill="#07bee8"/><path d="m382.359375 174.085938h-89.542969c15.171875-11.265626 25.003906-29.316407 25.003906-49.660157 0-34.144531-27.679687-61.824219-61.820312-61.824219-34.144531 0-61.824219 27.679688-61.824219 61.824219 0 20.34375 9.835938 38.394531 25.003907 49.660157h-89.542969c-18.007813 0-32.609375 14.597656-32.609375 32.609374 0 18.007813 14.601562 32.609376 32.609375 32.609376h47.757812v182.496093c0 17.773438 14.410157 32.179688 32.183594 32.179688 15.96875 0 29.523437-11.710938 31.839844-27.507813l14.582031-99.394531 14.578125 99.394531c2.320313 15.796875 15.871094 27.507813 31.84375 27.507813 17.773437 0 32.179687-14.40625 32.179687-32.179688v-182.496093h47.757813c18.011719 0 32.609375-14.601563 32.609375-32.609376.003906-18.011718-14.597656-32.609374-32.609375-32.609374zm0 0" fill="#994c0f"/><path d="m382.359375 174.085938h-89.542969c15.171875-11.265626 25.003906-29.316407 25.003906-49.660157 0-34.074219-27.5625-61.703125-61.609374-61.820312v265.917969l14.367187 97.949218c2.316406 15.796875 15.871094 27.507813 31.839844 27.507813 17.773437 0 32.183593-14.40625 32.183593-32.179688v-182.496093h47.757813c18.011719 0 32.609375-14.601563 32.609375-32.609376.003906-18.011718-14.597656-32.609374-32.609375-32.609374zm0 0" fill="#8e2b10"/><path d="m239.316406 116.167969c0 5.402343-4.382812 9.78125-9.785156 9.78125s-9.785156-4.378907-9.785156-9.78125c0-5.40625 4.382812-9.785157 9.785156-9.785157s9.785156 4.378907 9.785156 9.785157zm0 0" fill="#bf6015"/><path d="m292.253906 116.167969c0 5.402343-4.382812 9.78125-9.785156 9.78125s-9.785156-4.378907-9.785156-9.78125c0-5.40625 4.382812-9.785157 9.785156-9.785157s9.785156 4.378907 9.785156 9.785157zm0 0" fill="#994c0f"/><path d="m275.601562 133.136719c-4 6.644531-11.28125 11.089843-19.601562 11.089843s-15.601562-4.445312-19.601562-11.089843h-10.519532c4.710938 12.035156 16.417969 20.5625 30.121094 20.5625s25.40625-8.527344 30.117188-20.5625zm0 0" fill="#bf6015"/><path d="m286.117188 133.136719h-10.515626c-3.964843 6.585937-11.160156 11.003906-19.390624 11.082031v9.472656c13.613281-.089844 25.222656-8.585937 29.90625-20.554687zm0 0" fill="#994c0f"/><path d="m134 174.085938h21.332031v65.21875h-21.332031zm0 0" fill="#bf6015"/><path d="m356.667969 174.085938h21.332031v65.21875h-21.332031zm0 0" fill="#994c0f"/><path d="m177.398438 272h157.203124v15h-157.203124zm0 0" fill="#bf6015"/><path d="m256.210938 272h78.390624v15h-78.390624zm0 0" fill="#994c0f"/><path d="m177.398438 296.5h157.203124v15h-157.203124zm0 0" fill="#bf6015"/><path d="m256.210938 296.5h78.390624v15h-78.390624zm0 0" fill="#994c0f"/></svg>