<svg height="512pt" viewBox="0 0 512 512" width="512pt" xmlns="http://www.w3.org/2000/svg"><path d="m512 256c0 141.386719-114.613281 256-256 256s-256-114.613281-256-256 114.613281-256 256-256 256 114.613281 256 256zm0 0" fill="#ff0062"/><path d="m512 256c0-.855469-.023438-1.707031-.03125-2.5625l-155.742188-155.738281-225.726562 337.300781 71.210938 71.210938c17.5 3.78125 35.660156 5.789062 54.289062 5.789062 141.386719 0 256-114.613281 256-256zm0 0" fill="#dd0e4e"/><path d="m381.5 435h-251l40-165h171zm0 0" fill="#00edff"/><path d="m341.5 270h-85.894531v165h125.894531zm0 0" fill="#07bee8"/><path d="m395 194c0 76.769531-62.230469 139-139 139s-139-62.230469-139-139 62.230469-139 139-139 139 62.230469 139 139zm0 0" fill="#fff"/><path d="m256 55c-.132812 0-.261719.003906-.394531.003906v277.992188c.132812 0 .261719.003906.394531.003906 76.769531 0 139-62.230469 139-139s-62.230469-139-139-139zm0 0" fill="#e9edf5"/><path d="m216.75 348h78.5v87h-78.5zm0 0" fill="#4bb9e1"/><path d="m255.605469 348h39.644531v87h-39.644531zm0 0" fill="#46a5cd"/><path d="m210 275.75c0 13.117188-10.632812 23.75-23.75 23.75s-23.75-10.632812-23.75-23.75 10.632812-23.75 23.75-23.75 23.75 10.632812 23.75 23.75zm0 0" fill="#ffe000"/><path d="m186.25 252c-.316406 0-.632812.011719-.945312.023438v47.453124c.3125.011719.628906.023438.945312.023438 13.117188 0 23.75-10.632812 23.75-23.75s-10.632812-23.75-23.75-23.75zm0 0" fill="#ffc200"/><path d="m186.25 228.25c0 13.117188-10.632812 23.75-23.75 23.75s-23.75-10.632812-23.75-23.75 10.632812-23.75 23.75-23.75 23.75 10.632812 23.75 23.75zm0 0" fill="#994c0f"/><path d="m162.5 204.5c-.074219 0-.152344.003906-.226562.007812v47.484376c.074218.003906.152343.007812.226562.007812 13.117188 0 23.75-10.632812 23.75-23.75s-10.632812-23.75-23.75-23.75zm0 0" fill="#8e2b10"/><path d="m366.25 248c0 13.117188-10.632812 23.75-23.75 23.75s-23.75-10.632812-23.75-23.75 10.632812-23.75 23.75-23.75 23.75 10.632812 23.75 23.75zm0 0" fill="#00edff"/><path d="m342.5 224.25c-.074219 0-.152344.003906-.226562.007812v47.484376c.074218.003906.152343.007812.226562.007812 13.117188 0 23.75-10.632812 23.75-23.75s-10.632812-23.75-23.75-23.75zm0 0" fill="#07bee8"/><path d="m319 279.5c0 13.117188-10.632812 23.75-23.75 23.75s-23.75-10.632812-23.75-23.75 10.632812-23.75 23.75-23.75 23.75 10.632812 23.75 23.75zm0 0" fill="#ffe000"/><path d="m295.25 255.75c-.285156 0-.570312.011719-.855469.019531v47.457031c.285157.011719.570313.023438.855469.023438 13.117188 0 23.75-10.632812 23.75-23.75s-10.632812-23.75-23.75-23.75zm0 0" fill="#ffc200"/><path d="m309.5 226.25c0 13.117188-10.632812 23.75-23.75 23.75s-23.75-10.632812-23.75-23.75 10.632812-23.75 23.75-23.75 23.75 10.632812 23.75 23.75zm0 0" fill="#ff0062"/><path d="m285.75 202.5c-.351562 0-.703125.011719-1.054688.027344v47.445312c.351563.015625.703126.027344 1.054688.027344 13.117188 0 23.75-10.632812 23.75-23.75s-10.632812-23.75-23.75-23.75zm0 0" fill="#ea0764"/><path d="m257.5 296.5c0 13.117188-10.632812 23.75-23.75 23.75s-23.75-10.632812-23.75-23.75 10.632812-23.75 23.75-23.75 23.75 10.632812 23.75 23.75zm0 0" fill="#a700ff"/><path d="m233.75 272.75c-.191406 0-.378906.011719-.566406.015625v47.46875c.1875.003906.375.015625.566406.015625 13.117188 0 23.75-10.632812 23.75-23.75s-10.632812-23.75-23.75-23.75zm0 0" fill="#8e07e5"/><path d="m250 239.304688c0 13.117187-10.632812 23.75-23.75 23.75s-23.75-10.632813-23.75-23.75c0-13.117188 10.632812-23.75 23.75-23.75s23.75 10.632812 23.75 23.75zm0 0" fill="#be234b"/><path d="m250 239.304688c0-13.027344-10.492188-23.601563-23.484375-23.746094v47.488281c12.992187-.144531 23.484375-10.714844 23.484375-23.742187zm0 0" fill="#9b143c"/></svg>