<svg height="512pt" viewBox="0 0 512 512" width="512pt" xmlns="http://www.w3.org/2000/svg"><path d="m512 256c0 141.386719-114.613281 256-256 256s-256-114.613281-256-256 114.613281-256 256-256 256 114.613281 256 256zm0 0" fill="#ff0062"/><path d="m295.980469 508.886719c116.507812-18.273438 206.9375-115.125 215.363281-234.621094l-188.886719-188.882813-133.410156 276.851563 61.933594 61.933594-11.980469 27.738281zm0 0" fill="#dd0e4e"/><path d="m239 265.234375h34v186.671875h-34zm0 0" fill="#fff"/><path d="m255.761719 265.234375h17.238281v186.671875h-17.238281zm0 0" fill="#e9edf5"/><path d="m390.1875 225.601562c0-30.355468-13.566406-57.535156-34.957031-75.824218-4.992188-50.40625-47.511719-89.777344-99.230469-89.777344s-94.238281 39.371094-99.230469 89.777344c-21.390625 18.289062-34.957031 45.46875-34.957031 75.824218 0 30.542969 13.738281 57.875 35.367188 76.167969 6.5625 48.722657 48.300781 86.292969 98.820312 86.292969 50.523438 0 92.261719-37.570312 98.820312-86.292969 21.628907-18.292969 35.367188-45.625 35.367188-76.167969zm0 0" fill="#ffd7cd"/><path d="m355.230469 149.777344c-4.992188-50.40625-47.511719-89.777344-99.230469-89.777344-.078125 0-.160156.003906-.238281.003906v328.054688c.082031 0 .160156.003906.238281.003906 50.519531 0 92.261719-37.570312 98.820312-86.292969 21.628907-18.292969 35.367188-45.625 35.367188-76.167969 0-30.355468-13.566406-57.535156-34.957031-75.824218zm0 0" fill="#fab9af"/></svg>