<svg id="Capa_1" enable-background="new 0 0 512 512" height="512" viewBox="0 0 512 512" width="512" xmlns="http://www.w3.org/2000/svg"><g><g><g><g><g><g><g><g><g><g><circle cx="256" cy="256" fill="#00d65b" r="256"/></g></g></g></g></g></g></g></g></g><path d="m512 256c0-1.636-.015-3.269-.046-4.899l-123.031-123.031-161.16-40.854-110.841 69.461-28.144 74.85 39.286 157.396 123.031 123.031c1.631.031 3.266.046 4.905.046 141.385 0 256-114.615 256-256z" fill="#09b750"/><g><g><g><g><g><g><g><g><g><path d="m256 440.577c-101.776 0-184.577-82.801-184.577-184.577s82.801-184.577 184.577-184.577 184.577 82.801 184.577 184.577-82.801 184.577-184.577 184.577zm0-339.154c-85.234 0-154.577 69.343-154.577 154.577s69.343 154.577 154.577 154.577 154.577-69.343 154.577-154.577-69.343-154.577-154.577-154.577z" fill="#555a66"/></g></g></g></g></g></g></g></g></g><g><g><g><g><g><g><g><g><g><path d="m440.577 256c0-101.736-82.736-184.51-184.456-184.575v30c85.178.065 154.456 69.381 154.456 154.575s-69.278 154.51-154.457 154.575v30c101.721-.065 184.457-82.839 184.457-184.575z" fill="#333940"/></g></g></g></g></g></g></g></g></g><g><path d="m256 139.948c-64.094 0-116.052 51.958-116.052 116.052s51.958 116.052 116.052 116.052 116.052-51.958 116.052-116.052-51.958-116.052-116.052-116.052zm0 167.379c-28.347 0-51.327-22.98-51.327-51.328 0-28.347 22.98-51.327 51.328-51.327 28.347 0 51.327 22.98 51.327 51.328-.001 28.348-22.981 51.327-51.328 51.327z" fill="#2af27a"/></g><g><path d="m372.052 256c0-64.053-51.893-115.985-115.931-116.05v64.726c28.292.065 51.207 23.018 51.207 51.324 0 28.307-22.916 51.259-51.207 51.324v64.726c64.037-.065 115.931-51.997 115.931-116.05z" fill="#00d65b"/></g><g><g><path d="m241 123.077h30v99.041h-30z" fill="#555a66"/></g><g><path d="m256.12 123.077h14.88v99.041h-14.88z" fill="#333940"/></g><g><path d="m241 289.882h30v99.041h-30z" fill="#555a66"/></g><g><path d="m256.12 289.882h14.88v99.041h-14.88z" fill="#333940"/></g></g><g><g><path d="m289.882 241h99.041v30h-99.041z" fill="#333940"/></g><g><path d="m123.078 241h99.041v30h-99.041z" fill="#555a66"/></g></g><g><circle cx="178.151" cy="186.268" fill="#fff" r="20.352"/></g><g><circle cx="303.754" cy="336.631" fill="#e9edf5" r="20.352"/></g><g><circle cx="356.993" cy="297.345" fill="#e9edf5" r="13.645"/></g></g></svg>