<svg id="Capa_1" enable-background="new 0 0 512 512" height="512" viewBox="0 0 512 512" width="512" xmlns="http://www.w3.org/2000/svg"><g><g><g><g><g><g><g><g><g><circle cx="256" cy="256" fill="#fe6a16" r="256"/></g></g></g></g></g></g></g></g><path d="m512 256c0-34.271-6.734-66.969-18.952-96.843l-60.898-60.898-352.3 267.189 144.63 144.63c10.329 1.269 20.848 1.922 31.52 1.922 141.385 0 256-114.615 256-256z" fill="#e53f05"/><g><path d="m323.439 424.595h-134.878l21.502-93.828h91.874z" fill="#e9edf5"/></g><g><path d="m301.937 330.767h-45.816v93.828h67.318z" fill="#cdd2e1"/></g><g><path d="m79.85 98.259h352.301v267.19h-352.301z" fill="#fff"/></g><g><path d="m256.121 98.259h176.03v267.189h-176.03z" fill="#e9edf5"/></g><g><path d="m106.613 124.113h298.774v189.198h-298.774z" fill="#994aff"/></g><g><path d="m256.121 124.113h149.266v189.198h-149.266z" fill="#812af2"/></g><g><path d="m193.058 184.51v-27.884h12.291v27.462c0 5.549 3.301 9.552 9.903 9.552 6.462 0 9.833-4.003 9.833-9.552v-27.462h12.221v27.814c0 11.659-7.094 19.877-22.054 19.877-15.1 0-22.194-8.288-22.194-19.807z" fill="#fff"/><path d="m245.731 203.474v-46.848h34.346v10.536h-22.266v7.304h21.773v10.535h-21.773v18.472h-12.08z" fill="#fff"/><path d="m284.217 180.086c0-14.258 10.746-24.231 25.074-24.231s25.004 9.974 25.004 24.231c0 14.258-10.676 24.231-25.004 24.231s-25.074-9.973-25.074-24.231zm37.787 0c0-7.656-4.987-13.556-12.713-13.556-7.796 0-12.783 5.9-12.783 13.556 0 7.585 4.987 13.556 12.783 13.556 7.726-.001 12.713-5.971 12.713-13.556z" fill="#e9edf5"/></g><g><path d="m190.753 269.338c0-29.649 29.212-53.684 65.247-53.684s65.247 24.035 65.247 53.684z" fill="#00d65b"/></g><g><path d="m256.121 215.657v53.681h65.127c-.001-29.616-29.148-53.627-65.127-53.681z" fill="#06bf51"/></g><g><ellipse cx="256" cy="273.701" fill="#f2f6fc" rx="121.888" ry="19.608"/></g><g><path d="m377.888 273.701c0-10.823-54.506-19.598-121.768-19.608v39.217c67.262-.011 121.768-8.786 121.768-19.609z" fill="#dce1eb"/></g></g></svg>