<svg id="Capa_1" enable-background="new 0 0 512 512" height="512" viewBox="0 0 512 512" width="512" xmlns="http://www.w3.org/2000/svg"><g><g><g><g><g><g><g><g><path d="m512 256c0-141.385-114.615-256-256-256s-256 114.615-256 256c0 85.718 42.136 161.586 106.817 208.049h298.366c64.681-46.463 106.817-122.331 106.817-208.049z" fill="#ffce00"/></g></g></g></g></g></g></g><path d="m510.533 283.563-115.571-115.571-4.258 5.114-107.826-107.825-147.865 245.791 152.977 152.977h117.196c57.653-41.415 97.394-106.193 105.347-180.486z" fill="#ffa300"/><g><path d="m296.398 283.561h-80.796v126.407l-97.076 35.826c-7.445 2.748-12.39 9.843-12.39 17.779 42.128 30.468 93.899 48.427 149.864 48.427s107.736-17.959 149.864-48.428c0-7.936-4.945-15.031-12.39-17.779l-97.076-35.826z" fill="#5e00d8"/></g><g><path d="m393.474 445.793-97.076-35.826v-126.406h-40.278v228.438c55.919-.026 107.646-17.98 149.743-48.427.001-7.936-4.944-15.031-12.389-17.779z" fill="#5600c6"/></g><g><path d="m327.226 138.938h-44.348v-73.657h-53.827v73.657h-43.474c-51.632 0-93.488 41.856-93.488 93.488 0 51.632 41.856 93.488 93.488 93.488h141.648c51.632 0 93.488-41.856 93.488-93.488.001-51.632-41.855-93.488-93.487-93.488z" fill="#994aff"/></g><g><path d="m327.226 138.938h-44.348v-73.657h-26.758v260.633h71.105c51.632 0 93.488-41.856 93.488-93.488.001-51.632-41.855-93.488-93.487-93.488z" fill="#812af2"/></g><g><g><path d="m392.695 252.936s-25.047 29.039-55.945 29.039-55.945-29.039-55.945-29.039 25.047-29.039 55.945-29.039 55.945 29.039 55.945 29.039z" fill="#e9edf5"/></g><g><path d="m231.194 252.936s-25.047 29.039-55.945 29.039-55.945-29.039-55.945-29.039 25.047-29.039 55.945-29.039 55.945 29.039 55.945 29.039z" fill="#fff"/></g></g><g><g><path d="m220.614 275.09h70.772v29.986h-70.772z" fill="#5e00d8"/></g></g><g><g><path d="m256.121 275.09h35.266v29.986h-35.266z" fill="#5600c6"/></g></g></g></svg>