<svg id="Capa_1" enable-background="new 0 0 512 512" height="512" viewBox="0 0 512 512" width="512" xmlns="http://www.w3.org/2000/svg"><g><g><g><g><g><g><g><g><g><circle cx="256" cy="256" fill="#ffce00" r="256"/></g></g></g></g></g></g></g></g><path d="m509.763 289.992-49.479-49.479-4.44 3.208-67.739-67.739-61.503 54.969-257.17 58.958 102.364 102.364-63.809 33.917 75.351 75.351c23.035 6.806 47.422 10.459 72.662 10.459 129.861 0 237.137-96.692 253.763-222.008z" fill="#ffa300"/><g><path d="m278.05 209.213-160.289-76.235v68.416z" fill="#707789"/></g><g><path d="m199.86 426.19h-91.873l-27.366-132.923h91.873z" fill="#707789"/></g><g><path d="m452.023 266.1-84.706 12.38v-44.96l84.706 12.38z" fill="#e9edf5"/></g><g><path d="m367.317 256.127v22.353l84.705-12.381v-9.972z" fill="#dce1eb"/></g><g><ellipse cx="195.851" cy="256" fill="#555a66" rx="142.73" ry="73"/></g><g><path d="m53.124 256.127c.134 40.258 63.982 72.873 142.727 72.873s142.592-32.615 142.727-72.874h-285.454z" fill="#414952"/></g><g><ellipse cx="173.578" cy="256" fill="#e9edf5" rx="73.995" ry="29.254"/></g><g><path d="m99.591 256.127c.174 16.098 33.228 29.127 73.987 29.127s73.813-13.029 73.987-29.127z" fill="#dce1eb"/></g><g><circle cx="201.111" cy="256" fill="#fe6a16" r="15.487"/></g><g><circle cx="160.961" cy="256" fill="#fe6a16" r="15.487"/></g><g><path d="m185.63 256.127c.069 8.494 6.97 15.36 15.481 15.36s15.412-6.866 15.481-15.36z" fill="#fa5d0f"/></g><g><path d="m145.48 256.127c.069 8.494 6.97 15.36 15.481 15.36s15.412-6.866 15.481-15.36z" fill="#fa5d0f"/></g><g><path d="m388.105 336.018c-55.6 0-87.188-35.825-87.188-80.018s31.588-80.018 87.188-80.018z" fill="#fe6a16"/></g><g><path d="m300.92 256.127c.061 44.134 31.638 79.891 87.185 79.891v-79.891z" fill="#f24500"/></g><g><circle cx="444.15" cy="256" fill="#fe6a16" r="22.371"/></g><g><path d="m421.782 256.127c.069 12.296 10.055 22.244 22.367 22.244s22.299-9.947 22.367-22.244z" fill="#f24500"/></g></g></svg>