<?xml version="1.0" encoding="iso-8859-1"?>
<!-- Generator: Adobe Illustrator 19.0.0, SVG Export Plug-In . SVG Version: 6.00 Build 0)  -->
<svg version="1.1" id="Capa_1" xmlns="http://www.w3.org/2000/svg" xmlns:xlink="http://www.w3.org/1999/xlink" x="0px" y="0px"
	 viewBox="0 0 512 512" style="enable-background:new 0 0 512 512;" xml:space="preserve">
<circle style="fill:#00EED0;" cx="256" cy="256" r="256"/>
<path style="fill:#00AB94;" d="M509.916,288.802L388.371,167.257l-104.704-40.852l-19-19.405l-17.133,24.402l-133.855,86.559
	l92.909,92.923l-11.765,6.229l22.229,21.768l-4.768,3.691l-88.057-88.286l8.709,89.018L124.398,405l105.703,105.703
	C238.618,511.559,247.257,512,256,512C386.271,512,493.813,414.695,509.916,288.802z"/>
<rect x="212.28" y="308.38" style="fill:#913F02;" width="17.461" height="96.62"/>
<rect x="282.13" y="308.38" style="fill:#6F2E01;" width="17.461" height="96.62"/>
<rect x="247.21" y="107" style="fill:#913F02;" width="17.461" height="201.38"/>
<rect x="255.94" y="107" style="fill:#6F2E01;" width="8.73" height="201.38"/>
<path style="fill:#FF3980;" d="M404.937,203.617c0,14.841-18.683,26.191-43.652,26.191c-14.668,0-27.646-4.017-35.504-10.302
	l-67.224-47.145l-2.62,1.747l-69.844,45.398c-7.858,6.286-20.836,10.302-35.504,10.302c-24.969,0-43.652-11.35-43.652-26.191
	c0-30.557,32.012-56.573,79.156-69.495c20.779-5.761,44.525-9.079,69.844-9.079s49.065,3.318,69.844,9.079
	C372.925,147.044,404.937,173.061,404.937,203.617z"/>
<path style="fill:#F30051;" d="M404.937,203.617c0,14.841-18.683,26.191-43.652,26.191c-14.668,0-27.646-4.017-35.504-10.302
	l-67.224-47.145l-2.62,1.747v-49.065c25.319,0,49.065,3.318,69.844,9.079C372.925,147.044,404.937,173.061,404.937,203.617z"/>
<path style="fill:#FFD400;" d="M325.781,194.887v24.619c-7.858,6.286-20.254,10.302-34.922,10.302s-27.064-3.842-34.922-10.128
	c-7.858,6.286-20.254,10.128-34.922,10.128s-27.064-4.017-34.922-10.302v-24.619c0-38.589,31.255-69.844,69.844-69.844
	c19.207,0,36.668,7.858,49.415,20.429C317.923,158.218,325.781,175.679,325.781,194.887z"/>
<path style="fill:#FF9F00;" d="M325.781,194.887v24.619c-7.858,6.286-20.254,10.302-34.922,10.302s-27.064-3.842-34.922-10.128
	v-94.638c19.207,0,36.668,7.858,49.415,20.429C317.923,158.218,325.781,175.679,325.781,194.887z"/>
<polygon style="fill:#6F2E01;" points="404.766,257.714 387.647,254.286 371.745,334.574 317.05,334.574 317.05,405 334.511,405 
	334.511,352.035 370.015,352.035 370.015,405 387.476,405 387.306,345.018 "/>
<polygon style="fill:#913F02;" points="140.285,334.574 124.227,254.286 107.108,257.714 124.398,343.305 124.398,405 141.859,405 
	141.717,352.035 177.363,352.035 177.363,405 194.824,405 194.824,334.574 "/>
<rect x="194.82" y="299.65" style="fill:#FFD400;" width="122.23" height="17.461"/>
<rect x="255.94" y="299.65" style="fill:#FF9F00;" width="61.11" height="17.461"/>
<g>
</g>
<g>
</g>
<g>
</g>
<g>
</g>
<g>
</g>
<g>
</g>
<g>
</g>
<g>
</g>
<g>
</g>
<g>
</g>
<g>
</g>
<g>
</g>
<g>
</g>
<g>
</g>
<g>
</g>
</svg>
