<?xml version="1.0" encoding="iso-8859-1"?>
<!-- Generator: Adobe Illustrator 19.0.0, SVG Export Plug-In . SVG Version: 6.00 Build 0)  -->
<svg version="1.1" id="Capa_1" xmlns="http://www.w3.org/2000/svg" xmlns:xlink="http://www.w3.org/1999/xlink" x="0px" y="0px"
	 viewBox="0 0 512 512" style="enable-background:new 0 0 512 512;" xml:space="preserve">
<circle style="fill:#B34F03;" cx="256" cy="256" r="256"/>
<path style="fill:#6F2E01;" d="M291.664,509.515c113.07-15.763,202.481-105.368,217.947-218.532L296.878,78.251l-87.469,271.043
	l45.143,45.155L233.148,451L291.664,509.515z"/>
<rect x="233.15" y="343.52" style="fill:#FED2A4;" width="45.703" height="107.48"/>
<rect x="256" y="343.52" style="fill:#F6A96C;" width="22.852" height="107.48"/>
<polygon style="fill:#FFD400;" points="313.129,163.832 313.129,256 260.799,294.162 256,291.191 198.871,256 198.871,163.832 
	235.891,136.181 256,143.494 "/>
<polygon style="fill:#FF9F00;" points="313.129,163.832 313.129,256 260.799,294.162 256,291.191 256,143.494 "/>
<path style="fill:#FF3980;" d="M313.129,118.129v45.703H198.871v-45.703C198.871,86.594,224.465,61,256,61
	S313.129,86.594,313.129,118.129z"/>
<path style="fill:#F30051;" d="M313.129,118.129v45.703H256V61C287.535,61,313.129,86.594,313.129,118.129z"/>
<path style="fill:#77DD00;" d="M313.129,256v68.555c0,18.966-15.31,34.277-34.277,34.277h-45.703
	c-18.967,0-34.277-15.312-34.277-34.277V256H313.129z"/>
<path style="fill:#66BB00;" d="M256,256h57.129v68.555c0,18.966-15.31,34.277-34.277,34.277H256V256z"/>
<g>
</g>
<g>
</g>
<g>
</g>
<g>
</g>
<g>
</g>
<g>
</g>
<g>
</g>
<g>
</g>
<g>
</g>
<g>
</g>
<g>
</g>
<g>
</g>
<g>
</g>
<g>
</g>
<g>
</g>
</svg>
