<?xml version="1.0" encoding="iso-8859-1"?>
<!-- Generator: Adobe Illustrator 19.0.0, SVG Export Plug-In . SVG Version: 6.00 Build 0)  -->
<svg version="1.1" id="Capa_1" xmlns="http://www.w3.org/2000/svg" xmlns:xlink="http://www.w3.org/1999/xlink" x="0px" y="0px"
	 viewBox="0 0 512 512" style="enable-background:new 0 0 512 512;" xml:space="preserve">
<circle style="fill:#77DD00;" cx="256" cy="256" r="256"/>
<path style="fill:#66BB00;" d="M512,256c0-13.702-1.089-27.149-3.162-40.269L378.106,85L147.972,205.466l38.859,38.865L245,294.592
	L256,451l55.047,55.047C425.972,480.861,512,378.485,512,256z"/>
<polygon style="fill:#913F02;" points="343.712,135.253 293.1,171.496 218.9,171.496 177.511,129.248 190.377,85 321.623,85 "/>
<polygon style="fill:#6F2E01;" points="293.1,171.496 256,171.496 256,85 321.623,85 343.712,135.253 "/>
<polygon style="fill:#FF3980;" points="133.894,85 162.491,171.496 219.005,171.496 190.411,85 "/>
<polygon style="fill:#F30051;" points="378.106,85 321.589,85 292.995,171.496 349.509,171.496 "/>
<polygon style="fill:#FFD400;" points="336.42,210.74 256,451 203.459,294.592 203.673,294.592 224.047,256.419 256,236.26 
	308.756,202.805 "/>
<polygon style="fill:#FF9F00;" points="336.42,210.74 256,451 256,236.26 308.756,202.805 "/>
<path style="fill:#FED2A4;" d="M169.789,192.941l27.451,82.779h0.215l6.219,18.872L256,261.567l80.42-50.827l6.005-17.799H169.789z"
	/>
<path style="fill:#FFD400;" d="M341.781,150.051H170.219c-17.8,0-32.168,14.368-32.168,32.168c0,17.799,14.368,32.168,32.168,32.168
	h171.563c17.8,0,32.168-14.369,32.168-32.168C373.949,164.419,359.581,150.051,341.781,150.051z"/>
<polygon style="fill:#FFBD86;" points="256,192.941 342.425,192.941 336.42,210.74 256,261.567 "/>
<path style="fill:#FF9F00;" d="M373.949,182.219c0,17.799-14.368,32.168-32.168,32.168H256v-64.336h85.781
	C359.581,150.051,373.949,164.419,373.949,182.219z"/>
<g>
</g>
<g>
</g>
<g>
</g>
<g>
</g>
<g>
</g>
<g>
</g>
<g>
</g>
<g>
</g>
<g>
</g>
<g>
</g>
<g>
</g>
<g>
</g>
<g>
</g>
<g>
</g>
<g>
</g>
</svg>
