<?xml version="1.0" encoding="iso-8859-1"?>
<!-- Generator: Adobe Illustrator 19.0.0, SVG Export Plug-In . SVG Version: 6.00 Build 0)  -->
<svg version="1.1" id="Capa_1" xmlns="http://www.w3.org/2000/svg" xmlns:xlink="http://www.w3.org/1999/xlink" x="0px" y="0px"
	 viewBox="0 0 512 512" style="enable-background:new 0 0 512 512;" xml:space="preserve">
<circle style="fill:#00EED0;" cx="256" cy="256" r="256"/>
<path style="fill:#00AB94;" d="M211.439,451l60.492,60.492c128.042-7.864,230.621-109.833,239.438-237.616L329.162,91.67
	L211.439,451z"/>
<polygon style="fill:#FED2A4;" points="354.033,234.443 315.871,306.426 289.364,336.132 238.861,336.132 196.129,306.426 
	157.052,233.072 256,233.758 "/>
<polygon style="fill:#FFBD86;" points="354.033,234.443 315.871,306.426 289.364,336.132 256,336.132 256,233.758 "/>
<path style="fill:#FF3980;" d="M352.662,198.794c4.113-11.197,6.17-22.852,6.17-34.962C358.832,107.159,312.671,61,256,61
	s-102.832,46.159-102.832,102.832c0,11.882,2.057,23.308,5.942,34.277c2.056,5.713,1.6,12.111-1.6,17.367
	c-2.742,5.027-4.342,10.968-4.342,16.91c0,18.966,15.31,34.277,34.277,34.277c8.684,0,16.452-3.2,22.623-8.455
	c12.568,10.968,33.135,10.968,45.932,0.229c12.797,10.74,33.364,10.74,45.932-0.229c6.17,5.255,13.939,8.455,22.623,8.455
	c18.967,0,34.277-15.312,34.277-34.277c0-6.17-1.6-12.112-4.571-17.139C351.291,210.22,350.835,204.051,352.662,198.794z"/>
<g>
	<path style="fill:#F30051;" d="M354.261,215.248c2.971,5.027,4.571,10.968,4.571,17.139c0,18.966-15.31,34.277-34.277,34.277
		c-8.684,0-16.452-3.2-22.623-8.455c-12.568,10.968-33.135,10.968-45.932,0.229V61c56.671,0,102.832,46.159,102.832,102.832
		c0,12.111-2.057,23.765-6.17,34.962C350.835,204.051,351.291,210.22,354.261,215.248z"/>
	<rect x="244.57" y="106.7" style="fill:#F30051;" width="22.852" height="22.852"/>
</g>
<rect x="290.28" y="129.56" style="fill:#BC0048;" width="22.852" height="22.852"/>
<g>
	<rect x="198.87" y="129.56" style="fill:#F30051;" width="22.852" height="22.852"/>
	<rect x="244.57" y="152.41" style="fill:#F30051;" width="22.852" height="22.852"/>
</g>
<g>
	<rect x="256" y="106.7" style="fill:#BC0048;" width="11.426" height="22.852"/>
	<rect x="256" y="152.41" style="fill:#BC0048;" width="11.426" height="22.852"/>
</g>
<polygon style="fill:#FFBD86;" points="315.871,306.426 300.561,451 211.439,451 196.129,306.426 "/>
<polygon style="fill:#F6A96C;" points="256,306.426 315.871,306.426 300.561,451 256,451 "/>
<g>
</g>
<g>
</g>
<g>
</g>
<g>
</g>
<g>
</g>
<g>
</g>
<g>
</g>
<g>
</g>
<g>
</g>
<g>
</g>
<g>
</g>
<g>
</g>
<g>
</g>
<g>
</g>
<g>
</g>
</svg>
