<?xml version="1.0" encoding="iso-8859-1"?>
<!-- Generator: Adobe Illustrator 19.0.0, SVG Export Plug-In . SVG Version: 6.00 Build 0)  -->
<svg version="1.1" id="Capa_1" xmlns="http://www.w3.org/2000/svg" xmlns:xlink="http://www.w3.org/1999/xlink" x="0px" y="0px"
	 viewBox="0 0 512 512" style="enable-background:new 0 0 512 512;" xml:space="preserve">
<circle style="fill:#00EED0;" cx="256" cy="256" r="256"/>
<path style="fill:#00AB94;" d="M291.664,509.515C416.164,492.159,512,385.28,512,256c0-7.678-0.358-15.272-1.02-22.779
	C453.427,175.665,349.54,71.774,349.294,71.538c-6.233-6.495-185.588,276.994-185.588,276.994l82.37,82.392L233.148,451
	L291.664,509.515z"/>
<rect x="233.15" y="342.76" style="fill:#FED2A4;" width="45.703" height="108.24"/>
<rect x="256" y="342.76" style="fill:#FF9F00;" width="22.852" height="108.24"/>
<path style="fill:#913F02;" d="M324.555,61h-137.11c-18.967,0-34.277,15.31-34.277,34.277v228.516
	c0,18.966,15.31,34.277,34.277,34.277h137.109c18.967,0,34.277-15.312,34.277-34.277V95.277C358.832,76.31,343.522,61,324.555,61z"
	/>
<path style="fill:#6F2E01;" d="M358.832,95.277v228.516c0,18.966-15.31,34.277-34.277,34.277H256V61h68.555
	C343.522,61,358.832,76.31,358.832,95.277z"/>
<g>
	<polygon style="fill:#FDBF00;" points="263.997,292.943 256,300.941 248.003,308.939 202.299,263.236 218.294,247.239 	"/>
	<polygon style="fill:#FDBF00;" points="263.997,155.833 256,163.832 248.003,171.83 202.299,126.126 218.294,110.131 256,147.836 	
		"/>
	<polygon style="fill:#FDBF00;" points="309.701,194.681 263.997,240.384 256,232.387 248.003,224.388 293.706,178.685 	"/>
</g>
<g>
	<polygon style="fill:#FF9F00;" points="256,284.945 263.997,292.943 256,300.941 	"/>
	<polygon style="fill:#FF9F00;" points="263.997,155.833 256,163.832 256,147.836 	"/>
	<polygon style="fill:#FF9F00;" points="309.701,194.681 263.997,240.384 256,232.387 256,216.39 293.706,178.685 	"/>
</g>
<g>
</g>
<g>
</g>
<g>
</g>
<g>
</g>
<g>
</g>
<g>
</g>
<g>
</g>
<g>
</g>
<g>
</g>
<g>
</g>
<g>
</g>
<g>
</g>
<g>
</g>
<g>
</g>
<g>
</g>
</svg>
