<?xml version="1.0" encoding="iso-8859-1"?>
<!-- Generator: Adobe Illustrator 19.0.0, SVG Export Plug-In . SVG Version: 6.00 Build 0)  -->
<svg version="1.1" id="Capa_1" xmlns="http://www.w3.org/2000/svg" xmlns:xlink="http://www.w3.org/1999/xlink" x="0px" y="0px"
	 viewBox="0 0 512 512" style="enable-background:new 0 0 512 512;" xml:space="preserve">
<circle style="fill:#00EED0;" cx="256" cy="256" r="256"/>
<path style="fill:#00AB94;" d="M512,256c0-8.661-0.436-17.22-1.276-25.66L362.034,81.65l-105.265,8.855l-9.109-9.106
	L130.316,358.832l69.49,69.361L187.445,451l60.876,60.876C250.873,511.951,253.43,512,256,512C397.385,512,512,397.385,512,256z"/>
<rect x="187.44" y="343.52" style="fill:#FED2A4;" width="45.703" height="107.48"/>
<rect x="278.85" y="343.52" style="fill:#F6A96C;" width="45.703" height="107.48"/>
<path style="fill:#FF3980;" d="M313.129,61c-23.765,0-44.79,12.112-57.129,30.622C243.661,73.112,222.636,61,198.871,61
	c-37.706,0-68.555,30.849-68.555,68.555v229.277h251.367V129.555C381.684,91.849,350.835,61,313.129,61z"/>
<g>
	<path style="fill:#F30051;" d="M381.684,129.555v229.277H256V91.622C268.339,73.112,289.364,61,313.129,61
		C350.835,61,381.684,91.849,381.684,129.555z"/>
	<rect x="176.02" y="175.26" style="fill:#F30051;" width="22.852" height="115.02"/>
	<rect x="244.57" y="175.26" style="fill:#F30051;" width="22.852" height="115.02"/>
</g>
<g>
	<rect x="313.13" y="175.26" style="fill:#BC0048;" width="22.852" height="115.02"/>
	<rect x="256" y="175.26" style="fill:#BC0048;" width="11.426" height="115.02"/>
</g>
<g>
</g>
<g>
</g>
<g>
</g>
<g>
</g>
<g>
</g>
<g>
</g>
<g>
</g>
<g>
</g>
<g>
</g>
<g>
</g>
<g>
</g>
<g>
</g>
<g>
</g>
<g>
</g>
<g>
</g>
</svg>
