<?xml version="1.0" encoding="iso-8859-1"?>
<!-- Generator: Adobe Illustrator 19.0.0, SVG Export Plug-In . SVG Version: 6.00 Build 0)  -->
<svg version="1.1" id="Capa_1" xmlns="http://www.w3.org/2000/svg" xmlns:xlink="http://www.w3.org/1999/xlink" x="0px" y="0px"
	 viewBox="0 0 512 512" style="enable-background:new 0 0 512 512;" xml:space="preserve">
<circle style="fill:#FF5E95;" cx="256" cy="256" r="256"/>
<path style="fill:#BC0048;" d="M323.167,77.305L140.854,236.559l86.287,86.299l29.141,127.491l55.319,55.577
	C423.13,481.224,507.293,383.79,511.79,265.928L323.167,77.305z"/>
<polygon style="fill:#FED2A4;" points="348.092,239.242 256,450.999 163.908,239.242 "/>
<polygon style="fill:#F6A96C;" points="348.092,239.242 256,450.999 256,239.242 "/>
<path style="fill:#77DD00;" d="M356.318,178.685c1.6-3.884,2.513-8.226,2.513-12.568c0-17.139-12.797-31.535-29.251-33.821
	c4.115-6.855,6.399-14.853,6.399-23.308c0-19.425-12.339-36.791-30.849-43.19l-13.94-4.799l-1.142,14.854
	c-0.457,5.713-5.255,10.283-11.197,10.283h-68.555c-18.967,0-34.277,15.31-34.277,34.277c0,4.342,0.914,8.684,2.513,12.568
	c-14.625,4.113-25.365,17.367-25.365,33.135c0,4.342,0.914,8.684,2.513,12.568c-14.625,4.113-25.365,17.367-25.365,33.135
	c0,18.966,15.31,34.277,34.277,34.277h182.812c18.967,0,34.277-15.312,34.277-34.277
	C381.683,196.053,370.944,182.798,356.318,178.685z"/>
<path style="fill:#66BB00;" d="M381.683,211.82c0,18.966-15.31,34.277-34.277,34.277H256V86.137h22.852
	c5.942,0,10.74-4.571,11.197-10.283L291.191,61l13.94,4.799c18.51,6.399,30.849,23.765,30.849,43.19
	c0,8.455-2.285,16.452-6.399,23.308c16.454,2.286,29.251,16.683,29.251,33.821c0,4.342-0.914,8.684-2.513,12.568
	C370.944,182.798,381.683,196.053,381.683,211.82z"/>
<g>
</g>
<g>
</g>
<g>
</g>
<g>
</g>
<g>
</g>
<g>
</g>
<g>
</g>
<g>
</g>
<g>
</g>
<g>
</g>
<g>
</g>
<g>
</g>
<g>
</g>
<g>
</g>
<g>
</g>
</svg>
