<?xml version="1.0" encoding="iso-8859-1"?>
<!-- Generator: Adobe Illustrator 19.0.0, SVG Export Plug-In . SVG Version: 6.00 Build 0)  -->
<svg version="1.1" id="Capa_1" xmlns="http://www.w3.org/2000/svg" xmlns:xlink="http://www.w3.org/1999/xlink" x="0px" y="0px"
	 viewBox="0 0 512 512" style="enable-background:new 0 0 512 512;" xml:space="preserve">
<circle style="fill:#FF5E95;" cx="256" cy="256" r="256"/>
<path style="fill:#BC0048;" d="M272.792,511.438c127.63-8.267,229.762-110.046,238.575-237.526L328.559,91.104L163.223,312.367
	l54.851,54.56L212.354,451L272.792,511.438z"/>
<polygon style="fill:#FFBD86;" points="327.526,302.997 299.646,451 212.354,451 184.475,302.997 "/>
<polygon style="fill:#F6A96C;" points="256,302.997 327.526,302.997 299.646,451 256,451 "/>
<path style="fill:#913F02;" d="M352.89,129.555l-28.793,74.952H177.848l-22.167-17.823c-1.6-7.313-2.513-15.083-2.513-22.852
	C153.168,107.159,199.329,61,256,61C300.561,61,338.723,89.564,352.89,129.555z"/>
<path style="fill:#6F2E01;" d="M324.097,204.507H256V61c44.561,0,82.723,28.564,96.89,68.555L324.097,204.507z"/>
<path style="fill:#FFD400;" d="M358.832,163.832c0,29.478-12.797,57.585-34.735,77.238l-3.427,2.742H191.33l-3.427-2.742
	c-16.225-14.397-27.422-33.593-32.221-54.387h14.625c15.768,0,28.564-12.797,28.564-28.564s12.797-28.564,28.564-28.564
	S256,142.352,256,158.119s12.797,28.564,28.564,28.564s28.564-12.797,28.564-28.564s12.797-28.564,28.564-28.564h11.197
	C356.775,140.294,358.832,151.72,358.832,163.832z"/>
<path style="fill:#FF9F00;" d="M320.67,243.813H256V158.12c0,15.768,12.797,28.564,28.564,28.564s28.564-12.797,28.564-28.564
	s12.797-28.564,28.564-28.564h11.197c3.884,10.74,5.942,22.165,5.942,34.277c0,29.478-12.797,57.585-34.735,77.238L320.67,243.813z"
	/>
<path style="fill:#FED2A4;" d="M137.172,220.961l26.051,91.406h185.555l26.051-91.406H137.172z"/>
<polygon style="fill:#FFBD86;" points="374.828,220.961 348.777,312.367 256,312.367 256,220.961 "/>
<g>
</g>
<g>
</g>
<g>
</g>
<g>
</g>
<g>
</g>
<g>
</g>
<g>
</g>
<g>
</g>
<g>
</g>
<g>
</g>
<g>
</g>
<g>
</g>
<g>
</g>
<g>
</g>
<g>
</g>
</svg>
