<?xml version="1.0" encoding="iso-8859-1"?>
<!-- Generator: Adobe Illustrator 19.0.0, SVG Export Plug-In . SVG Version: 6.00 Build 0)  -->
<svg version="1.1" id="Capa_1" xmlns="http://www.w3.org/2000/svg" xmlns:xlink="http://www.w3.org/1999/xlink" x="0px" y="0px"
	 viewBox="0 0 512 512" style="enable-background:new 0 0 512 512;" xml:space="preserve">
<circle style="fill:#FF5E95;" cx="256" cy="256" r="256"/>
<path style="fill:#BC0048;" d="M291.664,509.515c124.105-17.301,219.714-123.559,220.321-252.286
	C458.683,203.924,338.085,83.32,337.82,83.065c-4.317-4.507-162.72,95.873-162.72,95.873l12.665,12.679l-12.643,57.259l12.625,12.64
	l-12.564,57.193l74.054,74.056L233.148,451L291.664,509.515z"/>
<g>
	<path style="fill:#FFD400;" d="M346.34,115.036c-4.799,18.51-22.928,30.164-41.438,25.366l3.2,6.626L256,144.058l-38.39-2.057
		l10.283-16.91c-13.254-7.313-20.186-22.623-16.53-37.933c4.799-18.51,22.928-29.707,41.438-25.138l3.2,0.457l65.355,10.968
		C339.865,78.246,350.91,96.755,346.34,115.036z"/>
	<path style="fill:#FFD400;" d="M346.34,255.345c-4.799,18.281-22.928,29.478-41.438,24.909l-14.625,17.139L256,291.451
		l-46.617-7.999l-10.741-23.765l0.229-0.686l-8.226-1.598c-18.51-4.571-29.554-23.08-24.985-41.59
		c3.886-15.312,17.444-26.051,33.211-26.051c2.742,0,5.484,0.457,8.226,1.142l26.051-10.74L256,185.877l43.419,10.968l5.484,13.483
		l16.452,3.427C339.865,218.326,350.91,236.836,346.34,255.345z"/>
</g>
<g>
	<path style="fill:#FF9F00;" d="M346.34,255.345c-4.799,18.281-22.928,29.478-41.438,24.909l-14.625,17.139L256,291.451V185.877
		l43.419,10.968l5.484,13.483l16.452,3.427C339.865,218.326,350.91,236.836,346.34,255.345z"/>
	<path style="fill:#FF9F00;" d="M308.102,147.029L256,144.058v-81.58l65.355,10.968c18.51,4.799,29.554,23.309,24.985,41.59
		c-4.799,18.51-22.928,30.164-41.438,25.366L308.102,147.029z"/>
</g>
<rect x="233.15" y="318.64" style="fill:#FED2A4;" width="45.703" height="132.36"/>
<g>
	<path style="fill:#00EED0;" d="M346.34,325.042c-4.799,18.738-23.385,29.707-41.438,25.138L256,340.354l-65.355-13.026
		c-18.51-4.799-29.554-23.309-24.985-41.59c3.886-15.312,17.444-26.051,32.983-26.051c2.971,0,5.713,0.229,8.455,0.914L256,270.427
		l65.355,13.026C339.865,288.252,350.91,306.761,346.34,325.042z"/>
	<path style="fill:#00EED0;" d="M346.34,185.419c-3.886,15.31-17.444,26.051-33.211,26.051c-2.742,0-5.484-0.229-8.226-1.142
		L256,200.501l-65.355-13.024c-18.51-4.571-29.554-23.08-24.985-41.361c4.571-18.282,22.928-29.708,41.438-25.138L256,130.804
		l65.355,13.026C339.865,148.629,350.91,167.139,346.34,185.419z"/>
</g>
<rect x="256" y="318.64" style="fill:#F6A96C;" width="22.852" height="132.36"/>
<g>
	<path style="fill:#00CCB2;" d="M346.34,325.042c-4.799,18.738-23.385,29.707-41.438,25.138L256,340.354v-69.927l65.355,13.026
		C339.865,288.252,350.91,306.761,346.34,325.042z"/>
	<path style="fill:#00CCB2;" d="M304.903,210.328L256,200.501v-69.697l65.355,13.026c18.51,4.799,29.554,23.309,24.985,41.59
		c-3.886,15.31-17.444,26.051-33.211,26.051C310.387,211.471,307.645,211.242,304.903,210.328z"/>
</g>
<g>
</g>
<g>
</g>
<g>
</g>
<g>
</g>
<g>
</g>
<g>
</g>
<g>
</g>
<g>
</g>
<g>
</g>
<g>
</g>
<g>
</g>
<g>
</g>
<g>
</g>
<g>
</g>
<g>
</g>
</svg>
