<?xml version="1.0" encoding="iso-8859-1"?>
<!-- Generator: Adobe Illustrator 19.0.0, SVG Export Plug-In . SVG Version: 6.00 Build 0)  -->
<svg version="1.1" id="Capa_1" xmlns="http://www.w3.org/2000/svg" xmlns:xlink="http://www.w3.org/1999/xlink" x="0px" y="0px"
	 viewBox="0 0 512 512" style="enable-background:new 0 0 512 512;" xml:space="preserve">
<circle style="fill:#B34F03;" cx="256" cy="256" r="256"/>
<path style="fill:#6F2E01;" d="M313.017,84.963l-135.855,69.27l-13.465,57.176l11.866,11.871l-11.819,56.736
	c0,0,65.78,65.795,66.12,66.121L256,451l55.047,55.047c106.504-23.341,188.186-112.972,199.585-223.469L313.017,84.963z"/>
<path style="fill:#FED2A4;" d="M175.333,266.664L256,451l80.667-184.336H175.333z"/>
<path style="fill:#00EED0;" d="M334.838,222.788c0.685-4.34,1.142-8.682,1.142-13.253v-11.426H176.02v11.426
	c0,4.571,0.457,8.912,1.142,13.253c-15.31,4.115-23.994,15.768-23.994,32.45c0,18.966,15.31,34.277,34.277,34.277h137.109
	c18.967,0,34.277-15.312,34.277-34.277C358.832,238.556,350.148,226.903,334.838,222.788z"/>
<polygon style="fill:#F6A96C;" points="256,266.664 336.667,266.664 256,451 "/>
<path style="fill:#00CCB2;" d="M358.832,255.238c0,18.966-15.31,34.277-34.277,34.277H256v-91.406h79.98v11.426
	c0,4.571-0.457,8.912-1.142,13.253C350.148,226.903,358.832,238.556,358.832,255.238z"/>
<path style="fill:#FF3980;" d="M358.832,186.684c0,18.966-15.31,34.277-34.277,34.277h-137.11
	c-18.967,0-34.277-15.312-34.277-34.277c0-16.683,8.684-28.336,23.994-32.45c-0.685-4.34-1.142-8.682-1.142-13.253
	C176.02,96.877,211.897,61,256,61s79.98,35.877,79.98,79.98c0,4.571-0.457,8.912-1.142,13.253
	C350.148,158.348,358.832,170.001,358.832,186.684z"/>
<path style="fill:#F30051;" d="M358.832,186.684c0,18.966-15.31,34.277-34.277,34.277H256V61c44.103,0,79.98,35.877,79.98,79.98
	c0,4.571-0.457,8.912-1.142,13.253C350.148,158.348,358.832,170.001,358.832,186.684z"/>
<g>
</g>
<g>
</g>
<g>
</g>
<g>
</g>
<g>
</g>
<g>
</g>
<g>
</g>
<g>
</g>
<g>
</g>
<g>
</g>
<g>
</g>
<g>
</g>
<g>
</g>
<g>
</g>
<g>
</g>
</svg>
