<?xml version="1.0" encoding="iso-8859-1"?>
<!-- Generator: Adobe Illustrator 19.0.0, SVG Export Plug-In . SVG Version: 6.00 Build 0)  -->
<svg version="1.1" id="Capa_1" xmlns="http://www.w3.org/2000/svg" xmlns:xlink="http://www.w3.org/1999/xlink" x="0px" y="0px"
	 viewBox="0 0 512 512" style="enable-background:new 0 0 512 512;" xml:space="preserve">
<circle style="fill:#77DD00;" cx="256" cy="256" r="256"/>
<path style="fill:#66BB00;" d="M511.938,260.938l-129.56-129.559l-46.899-23.634L312.51,84.777L131.619,243.882l64.245,64.254
	L213.039,451l60.397,60.397C405.063,502.541,509.414,394.207,511.938,260.938z"/>
<polygon style="fill:#FFBD86;" points="311.3,405.297 298.961,451 213.039,451 200.7,405.068 229.035,382.445 292.106,382.445 "/>
<polygon style="fill:#F6A96C;" points="292.106,382.445 311.3,405.297 298.961,451 256,451 256,382.445 "/>
<polygon style="fill:#FED2A4;" points="323.412,358.832 311.3,405.297 200.7,405.297 188.588,358.832 227.207,335.98 
	303.074,335.98 "/>
<g>
	<polygon style="fill:#FFBD86;" points="303.074,335.98 323.412,358.832 311.3,405.297 256,405.297 256,335.98 	"/>
	<polygon style="fill:#FFBD86;" points="335.752,313.129 323.412,358.832 188.588,358.832 176.248,313.129 221.265,290.277 
		323.868,290.277 	"/>
</g>
<polygon style="fill:#F6A96C;" points="323.868,290.277 335.752,313.129 323.412,358.832 256,358.832 256,290.277 "/>
<path style="fill:#FED2A4;" d="M157.967,243.813l18.281,69.316h159.503l18.281-69.316L157.967,243.813L157.967,243.813z"/>
<polygon style="fill:#FFBD86;" points="354.033,243.813 335.752,313.129 256,313.129 256,243.813 "/>
<path style="fill:#FDBF00;" d="M404.535,186.684c0,44.103-35.877,79.98-79.98,79.98h-137.11c-44.103,0-79.98-35.877-79.98-79.98
	c0-21.938,9.141-43.19,25.136-58.271c13.941-13.254,31.993-20.567,51.189-21.253C197.043,79.281,224.922,61,256,61
	s58.957,18.281,72.21,46.159c19.196,0.686,37.248,7.999,51.189,21.253C395.394,143.494,404.535,164.746,404.535,186.684z"/>
<path style="fill:#FF9F00;" d="M404.535,186.684c0,44.103-35.877,79.98-79.98,79.98H256V61c31.078,0,58.957,18.281,72.21,46.159
	c19.196,0.686,37.248,7.999,51.189,21.253C395.394,143.494,404.535,164.746,404.535,186.684z"/>
<g>
</g>
<g>
</g>
<g>
</g>
<g>
</g>
<g>
</g>
<g>
</g>
<g>
</g>
<g>
</g>
<g>
</g>
<g>
</g>
<g>
</g>
<g>
</g>
<g>
</g>
<g>
</g>
<g>
</g>
</svg>
