<?xml version="1.0" encoding="iso-8859-1"?>
<!-- Generator: Adobe Illustrator 19.0.0, SVG Export Plug-In . SVG Version: 6.00 Build 0)  -->
<svg version="1.1" id="Capa_1" xmlns="http://www.w3.org/2000/svg" xmlns:xlink="http://www.w3.org/1999/xlink" x="0px" y="0px"
	 viewBox="0 0 512 512" style="enable-background:new 0 0 512 512;" xml:space="preserve">
<circle style="fill:#77DD00;" cx="256" cy="256" r="256"/>
<path style="fill:#66BB00;" d="M291.664,509.515c117.189-16.337,208.962-111.994,219.338-230.989L300.103,67.627L159.941,295.87
	l91.594,91.595L233.148,451L291.664,509.515z"/>
<rect x="233.15" y="319.91" style="fill:#FED2A4;" width="45.703" height="131.09"/>
<rect x="256" y="319.91" style="fill:#F6A96C;" width="22.852" height="131.09"/>
<path style="fill:#913F02;" d="M392.423,184.17l-1.371-13.026l-12.797,2.971c-2.971,0.685-5.484,1.142-7.997,1.142
	c-18.967,0-34.277-15.312-34.277-34.277v-11.426h-11.426c-18.967,0-34.277-15.312-34.277-34.277c0-5.028,1.142-10.055,3.428-14.854
	l6.398-12.797l-14.168-3.2C275.881,62.143,265.597,61,256,61c-74.954-0.229-137.109,61.471-137.109,137.109
	S180.362,335.219,256,335.219s137.109-61.471,137.109-137.109C393.109,193.31,392.88,188.739,392.423,184.17z"/>
<path style="fill:#6F2E01;" d="M393.109,198.109c0,75.638-61.471,137.109-137.109,137.109V61c9.597,0,19.881,1.142,29.935,3.427
	l14.168,3.2l-6.398,12.797c-2.286,4.799-3.428,9.826-3.428,14.854c0,18.966,15.31,34.277,34.277,34.277h11.426v11.426
	c0,18.966,15.31,34.277,34.277,34.277c2.513,0,5.027-0.457,7.997-1.142l12.797-2.971l1.371,13.026
	C392.88,188.739,393.109,193.31,393.109,198.109z"/>
<rect x="244.57" y="152.41" style="fill:#FED2A4;" width="22.852" height="22.852"/>
<rect x="290.28" y="220.96" style="fill:#F6A96C;" width="22.852" height="22.852"/>
<g>
	<rect x="176.02" y="175.26" style="fill:#FED2A4;" width="22.852" height="22.852"/>
	<rect x="221.72" y="243.81" style="fill:#FED2A4;" width="22.852" height="22.852"/>
</g>
<rect x="256" y="152.41" style="fill:#F6A96C;" width="11.426" height="22.852"/>
<g>
</g>
<g>
</g>
<g>
</g>
<g>
</g>
<g>
</g>
<g>
</g>
<g>
</g>
<g>
</g>
<g>
</g>
<g>
</g>
<g>
</g>
<g>
</g>
<g>
</g>
<g>
</g>
<g>
</g>
</svg>
