<?xml version="1.0" encoding="iso-8859-1"?>
<!-- Generator: Adobe Illustrator 19.0.0, SVG Export Plug-In . SVG Version: 6.00 Build 0)  -->
<svg version="1.1" id="Capa_1" xmlns="http://www.w3.org/2000/svg" xmlns:xlink="http://www.w3.org/1999/xlink" x="0px" y="0px"
	 viewBox="0 0 512 512" style="enable-background:new 0 0 512 512;" xml:space="preserve">
<circle style="fill:#00EED0;" cx="256" cy="256" r="256"/>
<path style="fill:#00AB94;" d="M292.692,509.371C416.691,491.572,512,384.924,512,256c0-10.393-0.636-20.635-1.839-30.704
	L390.944,106.08L145.109,281.463l101.213,101.215L234.32,451L292.692,509.371z"/>
<rect x="234.32" y="326.63" style="fill:#FED2A4;" width="43.36" height="124.37"/>
<rect x="256" y="326.63" style="fill:#F6A96C;" width="21.68" height="124.37"/>
<path style="fill:#FF3980;" d="M413.178,211.078c-13.658,43.359-54.416,86.068-126.61,134.197
	c-9.322,6.07-19.945,9.322-30.568,9.322s-21.246-3.253-30.568-9.322c-72.194-48.13-112.952-90.838-126.61-134.197l30.568-55.5
	L256,149.724l114.469-5.203L413.178,211.078z"/>
<path style="fill:#F30051;" d="M413.178,211.078c-13.658,43.359-54.416,86.068-126.61,134.197
	c-9.322,6.07-19.945,9.322-30.568,9.322V149.724l114.469-5.203L413.178,211.078z"/>
<path style="fill:#913F02;" d="M331.879,81c-26.666,0-50.08,12.358-67.424,35.771c-1.952,2.818-5.203,4.119-8.455,4.119
	s-6.504-1.301-8.455-4.119C230.201,93.358,206.787,81,180.121,81c-48.562,0-86.719,42.059-86.719,95.607
	c0,11.708,1.735,23.197,5.42,34.471c4.986,6.504,12.792,10.84,21.68,10.84c14.959,0,27.1-12.141,27.1-27.1v-5.42
	c0-11.924,9.756-21.68,21.68-21.68s21.68,9.756,21.68,21.68v32.52c0,11.924,9.756,21.68,21.68,21.68s21.68-9.756,21.68-21.68v-32.52
	c0-11.924,9.756-21.68,21.68-21.68c11.924,0,21.68,9.756,21.68,21.68v32.52c0,11.924,9.756,21.68,21.68,21.68
	s21.68-9.756,21.68-21.68v-32.52c0-11.924,9.756-21.68,21.68-21.68s21.68,9.756,21.68,21.68v5.42c0,14.959,12.141,27.1,27.1,27.1
	c8.888,0,16.694-4.336,21.68-10.84c3.685-11.274,5.42-22.763,5.42-34.471C418.598,123.059,380.441,81,331.879,81z"/>
<path style="fill:#6F2E01;" d="M418.598,176.607c0,11.708-1.735,23.197-5.42,34.471c-4.986,6.504-12.792,10.84-21.68,10.84
	c-14.959,0-27.1-12.141-27.1-27.1v-5.42c0-11.924-9.756-21.68-21.68-21.68s-21.68,9.756-21.68,21.68v32.52
	c0,11.924-9.756,21.68-21.68,21.68s-21.68-9.756-21.68-21.68v-32.52c0-11.924-9.756-21.68-21.68-21.68V120.89
	c3.252,0,6.504-1.301,8.455-4.119C281.799,93.358,305.213,81,331.879,81C380.441,81,418.598,123.059,418.598,176.607z"/>
<g>
</g>
<g>
</g>
<g>
</g>
<g>
</g>
<g>
</g>
<g>
</g>
<g>
</g>
<g>
</g>
<g>
</g>
<g>
</g>
<g>
</g>
<g>
</g>
<g>
</g>
<g>
</g>
<g>
</g>
</svg>
