<?xml version="1.0" encoding="iso-8859-1"?>
<!-- Generator: Adobe Illustrator 19.0.0, SVG Export Plug-In . SVG Version: 6.00 Build 0)  -->
<svg version="1.1" id="Capa_1" xmlns="http://www.w3.org/2000/svg" xmlns:xlink="http://www.w3.org/1999/xlink" x="0px" y="0px"
	 viewBox="0 0 512 512" style="enable-background:new 0 0 512 512;" xml:space="preserve">
<circle style="fill:#77DD00;" cx="256" cy="256" r="256"/>
<path style="fill:#66BB00;" d="M502.232,326.273L298.807,122.849l-86.944,37.407l4.341,4.375l-84.572,215.764l-16.512,16.513
	l113.65,113.65C237.719,511.504,246.801,512,256,512C373.015,512,471.691,433.49,502.232,326.273z"/>
<rect x="131.63" y="242.74" style="fill:#CCF5FF;" width="248.79" height="144.93"/>
<rect x="256.03" y="242.74" style="fill:#AFD5E0;" width="124.39" height="144.93"/>
<polygon style="fill:#FFD400;" points="337.654,216.975 326.205,230.681 303.748,250.496 256.027,250.826 207.976,251.321 
	185.849,230.681 174.786,217.801 212.599,197.656 241.496,188.409 256.027,190.555 306.225,197.656 "/>
<g>
	<polygon style="fill:#FF3980;" points="124.666,241.775 115.12,230.681 148.981,197.656 185.556,181.917 212.682,197.656 
		185.849,230.681 160.787,242.291 	"/>
	<polygon style="fill:#FF3980;" points="303.748,250.496 256.027,250.826 256.027,190.555 306.225,197.656 337.654,216.975 
		326.205,230.681 	"/>
</g>
<path style="fill:#FF5E95;" d="M305.565,139.862c0,13.705-11.063,24.769-24.769,24.769l-2.642,8.586h-50.528l-4.624-8.586
	c-9.082,0-16.513-7.431-16.513-16.513s7.431-16.513,16.513-16.513h33.025c9.082,0,16.513-7.431,16.513-16.513h8.256
	C294.501,115.093,305.565,126.156,305.565,139.862z"/>
<path style="fill:#FF3980;" d="M278.154,173.216h-22.127v-41.611c9.082,0,16.513-7.431,16.513-16.513h8.256
	c13.706,0,24.769,11.063,24.769,24.769c0,13.705-11.063,24.769-24.769,24.769L278.154,173.216z"/>
<g>
	<path style="fill:#913F02;" d="M363.083,197.656H148.971c3.799-18.825,20.475-33.025,40.456-33.025h133.201
		C342.608,164.631,359.285,178.831,363.083,197.656z"/>
	<rect x="247.77" y="238.94" style="fill:#913F02;" width="16.513" height="149.71"/>
</g>
<rect x="256.03" y="238.94" style="fill:#6F2E01;" width="8.256" height="149.71"/>
<rect x="280.8" y="313.24" width="16.513" height="16.513"/>
<rect x="214.75" y="313.24" style="fill:#913F02;" width="16.513" height="16.513"/>
<path style="fill:#F30051;" d="M150.242,296.731L150.242,296.731c-19.397,0-35.122-15.725-35.122-35.122v-30.928h70.795v30.928
	C185.915,281.006,169.64,296.731,150.242,296.731z"/>
<path style="fill:#FF9F00;" d="M220.971,296.731L220.971,296.731c-19.397,0-35.122-15.725-35.122-35.122v-30.928h70.244v30.928
	C256.093,281.006,240.368,296.731,220.971,296.731z"/>
<path style="fill:#F30051;" d="M291.149,296.731L291.149,296.731c-19.397,0-35.122-15.725-35.122-35.122v-30.928h70.244v30.928
	C326.271,281.006,310.547,296.731,291.149,296.731z"/>
<rect x="280.8" y="313.24" style="fill:#6F2E01;" width="16.513" height="16.513"/>
<polygon style="fill:#FFD400;" points="387.388,239.711 397,230.681 363.073,197.656 327.53,185.013 306.189,197.656 
	326.205,230.681 333.945,242.033 "/>
<path style="fill:#6F2E01;" d="M363.083,197.656H256.027v-33.025h66.601C342.608,164.631,359.285,178.831,363.083,197.656z"/>
<path style="fill:#FF9F00;" d="M361.878,296.731L361.878,296.731c-19.397,0-35.673-15.725-35.673-35.122v-30.928H397v30.928
	C397,281.006,381.275,296.731,361.878,296.731z"/>
<rect x="115.12" y="380.39" style="fill:#913F02;" width="281.81" height="16.513"/>
<rect x="256.03" y="380.39" style="fill:#6F2E01;" width="140.91" height="16.513"/>
<g>
</g>
<g>
</g>
<g>
</g>
<g>
</g>
<g>
</g>
<g>
</g>
<g>
</g>
<g>
</g>
<g>
</g>
<g>
</g>
<g>
</g>
<g>
</g>
<g>
</g>
<g>
</g>
<g>
</g>
</svg>
