<?xml version="1.0" encoding="iso-8859-1"?>
<!-- Generator: Adobe Illustrator 19.0.0, SVG Export Plug-In . SVG Version: 6.00 Build 0)  -->
<svg version="1.1" id="Capa_1" xmlns="http://www.w3.org/2000/svg" xmlns:xlink="http://www.w3.org/1999/xlink" x="0px" y="0px"
	 viewBox="0 0 512 512" style="enable-background:new 0 0 512 512;" xml:space="preserve">
<circle style="fill:#FF5E95;" cx="256" cy="256" r="256"/>
<path style="fill:#BC0048;" d="M291.664,509.515c124.152-17.308,219.789-123.64,220.323-252.434L326.443,71.538L186.557,349.293
	l58.065,58.084L233.148,451L291.664,509.515z"/>
<rect x="233.15" y="343.52" style="fill:#FED2A4;" width="45.703" height="107.48"/>
<rect x="256" y="343.52" style="fill:#F6A96C;" width="22.852" height="107.48"/>
<path style="fill:#77DD00;" d="M335.98,210.297v114.258c0,18.966-15.31,34.277-34.277,34.277h-91.406
	c-18.967,0-34.277-15.312-34.277-34.277V210.297l20.109-18.054h114.715L335.98,210.297z"/>
<path style="fill:#66BB00;" d="M335.98,210.297v114.258c0,18.966-15.31,34.277-34.277,34.277H256V192.243h54.844L335.98,210.297z"/>
<path style="fill:#FFD400;" d="M335.98,95.277v115.02H176.02V95.277C176.02,76.31,191.33,61,210.297,61h91.406
	C320.67,61,335.98,76.31,335.98,95.277z"/>
<path style="fill:#FF9F00;" d="M335.98,95.277v115.02H256V61h45.703C320.67,61,335.98,76.31,335.98,95.277z"/>
<g>
</g>
<g>
</g>
<g>
</g>
<g>
</g>
<g>
</g>
<g>
</g>
<g>
</g>
<g>
</g>
<g>
</g>
<g>
</g>
<g>
</g>
<g>
</g>
<g>
</g>
<g>
</g>
<g>
</g>
</svg>
