<?xml version="1.0" encoding="iso-8859-1"?>
<!-- Generator: Adobe Illustrator 19.0.0, SVG Export Plug-In . SVG Version: 6.00 Build 0)  -->
<svg version="1.1" id="Capa_1" xmlns="http://www.w3.org/2000/svg" xmlns:xlink="http://www.w3.org/1999/xlink" x="0px" y="0px"
	 viewBox="0 0 512 512" style="enable-background:new 0 0 512 512;" xml:space="preserve">
<circle style="fill:#FF5E95;" cx="256" cy="256" r="256"/>
<path style="fill:#BC0048;" d="M291.807,509.495c116.584-16.32,207.985-111.148,219.05-229.337L317.324,86.625L152.315,358.736
	l80.847,80v12.114L291.807,509.495z"/>
<rect x="233.16" y="343.43" style="fill:#FED2A4;" width="45.676" height="107.42"/>
<path style="fill:#913F02;" d="M359.685,358.736h-207.37l18.042-218.865C174.01,94.879,211.009,61.078,256,61.078h0.229
	l12.789,24.208c-0.913,3.198-1.599,6.394-1.599,10.049c0,14.388,9.136,27.406,22.838,32.201l13.931,4.797l-7.993,12.104
	c-3.882,5.938-5.938,12.789-5.938,19.413c0,18.955,15.301,34.257,34.257,34.257c2.969,0,5.938-0.457,8.679-0.914l2.055-0.684
	l12.791,20.326L359.685,358.736z"/>
<rect x="256" y="343.43" style="fill:#F6A96C;" width="22.838" height="107.42"/>
<path style="fill:#6F2E01;" d="M359.685,358.736H256V61.078h0.229l12.789,24.208c-0.913,3.198-1.599,6.394-1.599,10.049
	c0,14.388,9.136,27.406,22.838,32.201l13.931,4.797l-7.993,12.104c-3.882,5.938-5.938,12.789-5.938,19.413
	c0,18.955,15.301,34.257,34.257,34.257c2.969,0,5.938-0.457,8.679-0.914l2.055-0.684l12.791,20.326L359.685,358.736z"/>
<path style="fill:#FFD400;" d="M341.643,139.87c-3.426-42.023-36.54-75.138-78.563-78.563l-6.851-0.457L256,61.307l-3.426,5.481
	c-5.252,8.221-7.993,18.042-7.993,28.548c0,12.561,4.111,24.437,11.419,34.029c4.111,5.71,9.363,10.506,15.301,14.16
	c-2.512,6.395-3.882,13.247-3.882,20.326c0,31.517,25.579,57.095,57.095,57.095c4.797,0,9.592-0.686,14.16-1.827l9.364-2.283
	L341.643,139.87z"/>
<path style="fill:#FDBF00;" d="M348.038,216.835l-9.364,2.283c-4.568,1.142-9.363,1.827-14.16,1.827
	c-31.517,0-57.095-25.579-57.095-57.095c0-7.08,1.37-13.931,3.882-20.326c-5.938-3.653-11.19-8.45-15.301-14.16V61.307l0.229-0.457
	l6.851,0.457c42.023,3.425,75.137,36.541,78.563,78.563L348.038,216.835z"/>
<g>
</g>
<g>
</g>
<g>
</g>
<g>
</g>
<g>
</g>
<g>
</g>
<g>
</g>
<g>
</g>
<g>
</g>
<g>
</g>
<g>
</g>
<g>
</g>
<g>
</g>
<g>
</g>
<g>
</g>
</svg>
