<?xml version="1.0" encoding="iso-8859-1"?>
<!-- Generator: Adobe Illustrator 19.0.0, SVG Export Plug-In . SVG Version: 6.00 Build 0)  -->
<svg version="1.1" id="Capa_1" xmlns="http://www.w3.org/2000/svg" xmlns:xlink="http://www.w3.org/1999/xlink" x="0px" y="0px"
	 viewBox="0 0 512 512" style="enable-background:new 0 0 512 512;" xml:space="preserve">
<circle style="fill:#B34F03;" cx="256" cy="256" r="256"/>
<path style="fill:#6F2E01;" d="M512,256c0-10.672-0.664-21.188-1.932-31.518L409.143,123.558l-80.506,0.261l-42-42.818
	l-60.786,42.516l-96.285,197.586l83.666,83.667L169.536,431l80.93,80.93c1.841,0.039,3.683,0.07,5.534,0.07
	C397.385,512,512,397.385,512,256z"/>
<polygon style="fill:#FF9F00;" points="348.286,142.988 361.579,146.831 398.641,136.216 409.143,123.558 361.839,84.224 
	333.906,117.525 "/>
<polygon style="fill:#913F02;" points="306.413,150.725 312.005,173.637 328.257,178.258 371.236,169.18 398.679,136.205 
	333.881,117.479 306.396,150.702 "/>
<polygon style="fill:#CCF5FF;" points="301.198,431 169.537,431 225.113,375.56 231.881,365.58 235.367,368.178 245.621,375.56 "/>
<g>
	<polygon style="fill:#AFD5E0;" points="245.621,375.56 301.198,431 235.367,431 235.367,368.178 	"/>
	<rect x="225.11" y="337.35" style="fill:#AFD5E0;" width="20.508" height="38.21"/>
</g>
<rect x="235.37" y="337.35" style="fill:#86B5BF;" width="10.254" height="38.21"/>
<path style="fill:#FF9F00;" d="M313.163,238.754l-76.864-4.005l70.115-84.024l64.868,18.445L313.163,238.754z"/>
<path style="fill:#00EED0;" d="M367.848,245.882l-19.893,19.688H245.621v10.254c0,11.484-3.897,22.353-10.254,30.762
	c-1.436,2.05-3.077,3.897-4.716,5.536c-9.229,9.229-22.149,14.972-36.299,14.972c-28.301,0-51.27-22.969-51.27-51.27V265.57h-21.328
	l-18.868-19.483c4.512-34.042,32.608-60.909,67.472-62.549c11.074-23.379,34.042-39.169,60.088-40.81
	c1.641-0.205,3.486-0.205,4.922-0.205c27.89-0.205,53.116,15.997,65.009,41.016C335.24,185.179,363.336,211.84,367.848,245.882z"/>
<path style="fill:#00CCB2;" d="M367.848,245.882l-19.893,19.688H245.621v10.254c0,11.484-3.897,22.353-10.254,30.762V142.523
	c27.89-0.205,53.116,15.997,65.009,41.016C335.24,185.179,363.336,211.84,367.848,245.882z"/>
<path style="fill:#CCF5FF;" d="M368.668,245.063v10.254c0,51.064-41.221,92.285-92.285,92.285h-82.031
	c-51.064,0-92.285-41.221-92.285-92.285v-10.254h30.762c17.022,0,30.762,13.74,30.762,30.762c0,17.021,13.74,30.762,30.762,30.762
	s30.762-13.741,30.762-30.762c0-9.023,3.897-17.227,10.254-22.763c5.332-4.923,12.509-7.998,20.508-7.998L368.668,245.063
	L368.668,245.063z"/>
<path style="fill:#AFD5E0;" d="M368.668,245.063v10.254c0,51.064-41.221,92.285-92.285,92.285h-41.016v-94.541
	c5.332-4.923,12.509-7.998,20.508-7.998L368.668,245.063L368.668,245.063z"/>
<path style="fill:#77DD00;" d="M286.637,81v20.508h-10.254c-17.022,0-30.762,13.74-30.762,30.762h-20.508
	c0-11.484,3.691-22.149,10.254-30.556C244.596,89.204,259.566,81,276.383,81H286.637z"/>
<path style="fill:#66BB00;" d="M245.621,132.27h-10.254v-30.556C244.596,89.204,259.566,81,276.383,81h10.254v20.508h-10.254
	C259.361,101.508,245.621,115.248,245.621,132.27z"/>
<path style="fill:#FF3980;" d="M235.367,122.016c-17.022,0-30.762,13.74-30.762,30.762c0,17.021,13.74,30.762,30.762,30.762
	s30.762-13.741,30.762-30.762C266.129,135.756,252.389,122.016,235.367,122.016z"/>
<path style="fill:#F30051;" d="M235.367,183.539v-61.523c17.022,0,30.762,13.74,30.762,30.762
	C266.129,169.798,252.389,183.539,235.367,183.539z"/>
<g>
</g>
<g>
</g>
<g>
</g>
<g>
</g>
<g>
</g>
<g>
</g>
<g>
</g>
<g>
</g>
<g>
</g>
<g>
</g>
<g>
</g>
<g>
</g>
<g>
</g>
<g>
</g>
<g>
</g>
</svg>
