<svg height="512pt" viewBox="0 0 512 512" width="512pt" xmlns="http://www.w3.org/2000/svg"><path d="m512 256c0 141.386719-114.613281 256-256 256s-256-114.613281-256-256 114.613281-256 256-256 256 114.613281 256 256zm0 0" fill="#ffe670"/><path d="m512 256c0-24.382812-3.410156-47.96875-9.777344-70.308594l-49.371094-49.367187-4.742187 17.886719-90.65625-88.550782-101.453125 8.964844-101.453125-8.964844 15.863281 19.242188c-45.871094 14.128906-65.894531 42.550781-75.742187 83.433594l-35.519531-32.011719-19.988282 132.128906 37.199219 75.082031 51.382813 50.621094c11.136718 18.621094 23.109374 33.679688 35.34375 45.84375l71.316406 71.085938c7.125.59375 14.324218.914062 21.597656.914062 141.386719 0 256-114.613281 256-256zm0 0" fill="#ffcf00"/><path d="m104.207031 343.535156h-27.847656l-37.199219-75.082031 19.988282-132.128906 27.191406 102.519531zm0 0" fill="#fff"/><path d="m425.660156 238.84375 27.191406-102.519531 19.988282 132.128906-37.199219 75.082031h-27.847656zm0 0" fill="#fff5cb"/><path d="m256 74.625c-147.121094 0-163.328125 59.457031-170.445312 164.21875l17.863281 104.6875c16.863281 43.898438 37.855469 74.777344 59.671875 96.46875l-14.746094-114.375h215.3125l-14.746094 114.375c21.816406-21.6875 42.808594-52.570312 59.671875-96.464844l17.863281-104.691406c-7.117187-104.761719-23.324218-164.21875-170.445312-164.21875zm0 0" fill="#005ed3"/><path d="m426.449219 238.839844-17.871094 104.691406c-16.859375 43.898438-37.847656 74.777344-59.667969 96.46875l12.371094-95.898438 2.378906-18.480468h-107.660156v-250.992188c35.628906 0 63.578125 3.492188 85.589844 10.261719 68.851562 21.1875 79.460937 74.558594 84.859375 153.949219zm0 0" fill="#00459f"/><path d="m256 246.511719-127.6875-37.242188 3.722656 137.796875 123.964844-19.683594 123.964844 19.683594 3.722656-137.796875zm0 0" fill="#4fbbef"/><path d="m383.691406 209.269531-3.730468 137.800781-18.679688-2.96875-105.28125-16.722656v-80.867187zm0 0" fill="#009ae5"/><path d="m238.960938 285.726562c-5.261719-6.863281-18.871094-21.796874-39.75-25.273437-24.769532-4.125-45.511719 10.652344-47.789063 12.347656-4.296875 3.191407-6.261719 8.617188-5.007813 13.8125.582032 2.414063 1.800782 4.582031 3.546876 6.316407 3.652343 4.582031 18.589843 21.753906 39.757812 25.273437 2.640625.441406 5.390625.664063 8.175781.664063 20.160157 0 37.328125-11.425782 39.21875-12.726563 4.496094-3.09375 6.632813-8.539063 5.453125-13.863281-.550781-2.472656-1.816406-4.765625-3.605468-6.550782zm0 0" fill="#0082d1"/><path d="m360.582031 272.800781c-2.28125-1.695312-23.023437-16.46875-47.789062-12.347656-20.882813 3.476563-34.492188 18.410156-39.753907 25.273437-1.789062 1.789063-3.054687 4.078126-3.605468 6.550782-1.183594 5.328125.957031 10.769531 5.453125 13.863281 1.890625 1.300781 19.0625 12.726563 39.21875 12.726563 2.78125 0 5.535156-.222657 8.175781-.664063 21.167969-3.519531 36.105469-20.691406 39.753906-25.273437 1.746094-1.734376 2.96875-3.902344 3.546875-6.3125 1.257813-5.199219-.707031-10.625-5-13.816407zm0 0" fill="#005ed3"/><path d="m229.441406 295.144531c-.058594-.121093-12.53125-18.238281-32.421875-21.546875s-37.652343 9.894532-37.652343 9.894532l.117187.019531c.058594.125 13.671875 18.429687 32.421875 21.550781 18.75 3.117188 37.652344-9.898438 37.652344-9.898438zm0 0" fill="#fff"/><path d="m282.558594 295.144531c.058594-.121093 12.53125-18.238281 32.421875-21.546875s37.652343 9.894532 37.652343 9.894532l-.117187.019531c-.058594.125-13.671875 18.429687-32.421875 21.550781-18.75 3.117188-37.652344-9.898438-37.652344-9.898438zm0 0" fill="#fff5cb"/><path d="m256 74.625-101.453125-8.964844 101.453125 123.046875 101.453125-123.046875zm0 0" fill="#ff738e"/><path d="m357.449219 65.660156-15.859375 19.230469-85.589844 103.820313v-114.082032zm0 0" fill="#ff0335"/></svg>