<svg height="512pt" viewBox="0 0 512 512" width="512pt" xmlns="http://www.w3.org/2000/svg"><path d="m512 256c0 141.386719-114.613281 256-256 256s-256-114.613281-256-256 114.613281-256 256-256 256 114.613281 256 256zm0 0" fill="#e1e1e3"/><path d="m512 256c0-19.050781-2.097656-37.609375-6.046875-55.476562l-75.738281-75.738282-7.410156-1.042968-61.851563-62.050782-53.222656 18.808594-41.390625-41.902344-38.03125 43.089844-56.585938-19.996094-9.28125 54.636719-59.980468 8.457031 21.953124 51.546875-47.304687 34.640625 43.542969 43.476563-18.191406 42.710937 42.089843 42.246094-11.179687 21.113281 16.847656 18.285157-31.152344 64.855468 54.921875 54.917969c25.742188 8.703125 53.328125 13.421875 82.011719 13.421875 141.386719 0 256-114.613281 256-256zm0 0" fill="#c8c6cc"/><path d="m455.566406 210.972656-47.304687-34.640625 21.953125-51.546875-59.980469-8.457031-9.28125-54.636719-56.585937 19.996094-38.027344-43.089844-38.03125 43.089844-56.585938-19.996094-9.28125 54.636719-59.980468 8.457031 21.953124 51.546875-47.304687 34.640625 47.304687 34.640625-21.953124 51.546875 59.980468 8.457032-29.074218 54.902343h25.628906l-39.933594 83.136719 109.246094-103.398438 38.03125 43.089844 38.027344-43.089844 56.585937 19.996094 9.28125-54.636718 59.980469-8.457032-21.953125-51.546875zm0 0" fill="#ff0335"/><path d="m408.261719 245.613281 21.957031 51.550781-59.984375 8.453126-9.289063 54.636718-56.582031-19.992187-38.023437 43.089843v-344.75l38.023437 43.085938 56.582031-20 9.289063 54.636719 59.984375 8.464843-21.957031 51.539063 47.304687 34.648437zm0 0" fill="#c2001b"/><path d="m204.144531 188.230469v60.113281h-13.886719v-24.636719h-23.960937v24.636719h-13.882813v-60.113281h13.882813v23.285156h23.960937v-23.285156zm0 0" fill="#ffec97"/><path d="m257.90625 236.152344v12.195312h-42.25v-60.113281h41.488281v12.191406h-27.601562v11.683594h23.703125v11.261719h-23.703125v12.785156h28.363281zm0 0" fill="#ffec97"/><g fill="#ffdb2d"><path d="m266.375 248.347656v-60.113281h13.882812v47.917969h29.125v12.195312zm0 0"/><path d="m315.902344 248.347656v-60.113281h25.652344c2.878906 0 5.515624.589844 7.917968 1.777344 2.398438 1.183593 4.457032 2.738281 6.179688 4.65625 1.71875 1.921875 3.074218 4.09375 4.0625 6.519531.988281 2.425781 1.484375 4.882812 1.484375 7.367188 0 2.652343-.46875 5.191406-1.398438 7.617187-.933593 2.429687-2.230469 4.601563-3.894531 6.519531-1.667969 1.921875-3.683594 3.445313-6.054688 4.574219-2.371093 1.128906-4.996093 1.691406-7.875 1.691406h-12.191406v19.386719h-13.882812zm13.882812-31.496094h11.347656c1.636719 0 3.046876-.707031 4.230469-2.117187 1.1875-1.410156 1.78125-3.472656 1.78125-6.179687 0-1.410157-.183593-2.625-.550781-3.644532-.367188-1.015625-.863281-1.859375-1.480469-2.539062-.621093-.675782-1.328125-1.171875-2.117187-1.480469-.792969-.3125-1.582032-.464844-2.371094-.464844h-10.835938v16.425781zm0 0"/><path d="m370.171875 224.46875v-36.828125h13.546875v36.828125zm0 23.878906v-14.054687h13.546875v14.054687zm0 0"/></g></svg>