<svg height="512pt" viewBox="0 0 512 512" width="512pt" xmlns="http://www.w3.org/2000/svg"><path d="m512 256c0 141.386719-114.613281 256-256 256s-256-114.613281-256-256 114.613281-256 256-256 256 114.613281 256 256zm0 0" fill="#7fc8f1"/><path d="m512 256c0-28.59375-4.691406-56.085938-13.339844-81.761719l-76.40625-76.410156c-59.6875 55.582031-165.738281 91.695313-166.257812 91.722656-.515625-.027343-106.566406-36.140625-166.253906-91.722656 0 0-15.40625 83.429687 14.449218 109.484375 0 0-105.230468 63.765625-18.421875 183.675781l115.023438 115.023438c17.78125 3.910156 36.25 5.988281 55.207031 5.988281 141.386719 0 256-114.613281 256-256zm0 0" fill="#00acea"/><path d="m407.804688 207.3125c29.855468-26.054688 14.449218-109.484375 14.449218-109.484375-59.6875 55.585937-165.738281 91.695313-166.257812 91.726563-.515625-.027344-106.566406-36.140626-166.253906-91.726563 0 0-15.40625 83.429687 14.449218 109.484375 0 0-105.230468 63.769531-18.421875 183.675781 0 0-.839843-74.457031 36.722657-68.65625 37.410156 5.777344 67.820312 51.613281 133.503906-13.71875 65.6875 65.332031 96.097656 19.496094 133.507812 13.71875 37.5625-5.800781 36.722656 68.65625 36.722656 68.65625 86.808594-119.90625-18.421874-183.675781-18.421874-183.675781zm0 0" fill="#57555c"/><path d="m426.230469 390.984375s.839843-74.457031-36.730469-68.652344c-37.40625 5.777344-67.816406 51.617188-133.503906-13.714843v-119.0625c.523437-.03125 106.574218-36.144532 166.253906-91.726563 0 0 15.417969 83.425781-14.445312 109.480469 0 0 105.234374 63.769531 18.425781 183.675781zm0 0" fill="#2a2a2c"/><path d="m150.4375 216.578125-15.3125-18.519531 1.246094 23.140625c.109375 2 3.019531 49.101562 36.300781 61.140625 5.851563 2.113281 11.503906 3.175781 16.914063 3.175781 5.328124 0 10.429687-1.03125 15.253906-3.085937 17.554687-7.480469 24.328125-26.0625 24.605468-26.847657l2.878907-8.097656-9.316407-1.101563c-51.609374-6.109374-72.097656-29.257812-72.570312-29.804687zm0 0" fill="#aeadb3"/><path d="m361.539062 216.605469c-.195312.234375-20.03125 23.5625-72.550781 29.777343l-9.3125 1.101563 2.875 8.097656c.277344.785157 7.050781 19.367188 24.605469 26.847657 4.828125 2.054687 9.925781 3.082031 15.257812 3.082031 5.410157 0 11.0625-1.058594 16.914063-3.175781 33.277344-12.035157 36.191406-59.140626 36.296875-61.136719l1.246094-23.140625zm0 0" fill="#8b8992"/><path d="m163.734375 312.507812c-46.640625-32.574218-96.617187-23.730468-77.964844 78.480469 0 0-.839843-70.671875 36.722657-64.871093 37.410156 5.777343 67.820312 47.828124 133.503906-17.503907 0 0-45.625 36.472657-92.261719 3.894531zm0 0" fill="#aeadb3"/><path d="m255.996094 279.828125-72.273438 42.773437 72.273438 98.058594.003906.003906v-.003906l72.273438-98.058594zm0 0" fill="#8b8992"/><path d="m348.261719 312.507812c-46.628907 32.570313-92.25-3.882812-92.265625-3.894531 65.6875 65.332031 96.097656 23.28125 133.507812 17.503907 37.558594-5.800782 36.722656 64.855468 36.722656 64.871093 18.652344-102.210937-31.324218-111.054687-77.964843-78.480469zm0 0" fill="#8b8992"/><path d="m328.269531 322.601562-72.273437 98.0625v-140.832031zm0 0" fill="#57555c"/><path d="m144.191406 220.851562s21.398438 25.886719 77.800782 32.558594c0 0-12.316407 34.679688-46.417969 22.34375-28.992188-10.484375-31.382813-54.902344-31.382813-54.902344zm0 0" fill="#fff"/><path d="m367.804688 220.851562s-21.398438 25.886719-77.800782 32.558594c0 0 12.316406 34.679688 46.417969 22.34375 28.992187-10.484375 31.382813-54.902344 31.382813-54.902344zm0 0" fill="#d9d9db"/></svg>