<svg height="512pt" viewBox="0 0 512 512" width="512pt" xmlns="http://www.w3.org/2000/svg"><path d="m0 256c0-141.386719 114.613281-256 256-256s256 114.613281 256 256c0 70.691406-28.652344 134.691406-74.980469 181.019531s-110.328125-4.019531-181.019531-4.019531c-70.355469 0-134.082031 50.617188-180.355469 4.679688-46.71875-46.378907-75.644531-110.652344-75.644531-181.679688zm0 0" fill="#d9d9db"/><path d="m256 433c70.691406 0 134.691406 50.347656 181.019531 4.019531 44.742188-44.742187 72.992188-105.964843 74.871094-173.785156l-180.699219-180.699219c-11.414062-12.988281-26.09375-23.253906-43.277344-29.332031-10.644531-3.765625-21.53125-5.703125-31.914062-5.703125-39.144531 0-85.390625 27.527344-99.21875 76.84375-6.492188.128906-11.765625 5.46875-11.765625 11.988281v32.332031c0 3.605469 1.609375 6.847657 4.148437 9.046876l8.652344 8.679687c1.597656 9.378906 3.582032 18.234375 5.933594 23.691406.175781.40625.332031.824219.488281 1.242188 9.808594 25.113281 21.863281 43.082031 34.429688 55.917969l-9.253907 57.757812h-43.78125c-38.648437 0-69.984374 31.332031-69.984374 69.984375v42.6875c.375.371094.757812.726563 1.132812 1.09375 46.179688 44.011719 109.4375-5.765625 179.21875-5.765625zm0 0" fill="#c8c6cc"/><path d="m312.050781 259.246094h-112.101562l-11.09375 69.253906h134.289062zm0 0" fill="#57555c"/><path d="m323.148438 328.5h-67.148438v-69.25h56.050781zm0 0" fill="#2a2a2c"/><path d="m287.917969 53.203125c46.699219 16.523437 75.035156 63.921875 69.132812 113.109375-1.785156 14.882812-4.746093 34.371094-8.800781 43.769531-.175781.40625-.335938.824219-.488281 1.242188-25.578125 65.503906-66.476563 82.449219-91.761719 86.316406-25.285156-3.867187-66.183594-20.8125-91.761719-86.316406-.152343-.417969-.3125-.835938-.488281-1.242188-5.472656-12.699219-8.957031-43.816406-10.25-57.109375-.4375-4.535156-.40625-9.105468.199219-13.628906 7.839843-58.707031 59.351562-91.84375 102.300781-91.84375 10.382812 0 21.269531 1.9375 31.917969 5.703125zm0 0" fill="#8b8992"/><path d="m290.375 54.105469c45.230469 17.265625 72.457031 63.707031 66.726562 111.78125-1.777343 14.9375-4.757812 34.707031-8.851562 44.195312-.199219.457031-.386719.929688-.542969 1.40625-25.597656 65.371094-66.429687 82.292969-91.707031 86.152344v-250.140625c11.1875 0 22.949219 2.246094 34.375 6.605469zm0 0" fill="#57555c"/><path d="m366.367188 325h-220.734376c-38.648437 0-69.984374 31.332031-69.984374 69.984375v42.6875c46.277343 45.941406 109.996093 74.328125 180.351562 74.328125s134.074219-28.386719 180.351562-74.328125v-42.6875c0-38.652344-31.335937-69.984375-69.984374-69.984375zm0 0" fill="#8b8992"/><path d="m436.351562 394.980469v42.691406c-46.273437 45.9375-109.992187 74.328125-180.351562 74.328125v-187h110.371094c21.457031 0 40.660156 9.648438 53.480468 24.859375 10.296876 12.179687 16.5 27.929687 16.5 45.121094zm0 0" fill="#57555c"/><path d="m123.800781 413.328125v61.933594c9.601563 5.800781 19.625 10.976562 30 15.5v-77.433594zm0 0" fill="#57555c"/><path d="m358.199219 413.328125v77.433594c10.375-4.523438 20.398437-9.699219 30-15.5v-61.933594zm0 0" fill="#2a2a2c"/><path d="m354.015625 180.667969h-197c-6.601563 0-12-5.402344-12-12v-32.332031c0-6.601563 5.398437-12 12-12h197c6.597656 0 12 5.398437 12 12v32.332031c0 6.597656-5.402344 12-12 12zm0 0" fill="#aeadb3"/><path d="m366.011719 136.328125v32.34375c0 6.597656-5.402344 12-12 12h-98.011719v-56.34375h98.011719c6.597656 0 12 5.402344 12 12zm0 0" fill="#8b8992"/><path d="m213.015625 238c0-18.777344-15.222656-34-34-34-5.816406 0-11.285156 1.460938-16.070313 4.03125.265626.722656.53125 1.414062.804688 2.050781.175781.40625.332031.824219.488281 1.242188 9.578125 24.527343 21.304688 42.246093 33.550781 55.019531 9.175782-6.089844 15.226563-16.507812 15.226563-28.34375zm0 0" fill="#57555c"/><path d="m348.25 210.082031c.21875-.5.429688-1.035156.640625-1.59375-4.976563-2.851562-10.734375-4.488281-16.875-4.488281-18.78125 0-34 15.222656-34 34 0 12.089844 6.3125 22.695312 15.820313 28.726562 12.382812-12.800781 24.25-30.625 33.925781-55.402343.15625-.417969.3125-.835938.488281-1.242188zm0 0" fill="#2a2a2c"/><path d="m163.898438 137.5h183.230468v30h-183.230468zm0 0" fill="#ff0335"/><path d="m256 137.5h91.128906v30h-91.128906zm0 0" fill="#c2001b"/><path d="m197.003906 137.5-14.570312 30h33.351562l14.570313-30zm0 0" fill="#ffa7b8"/><path d="m233.542969 465.398438-22.457031-38.898438 22.457031-38.898438h44.914062l22.457031 38.898438-22.457031 38.898438zm0 0" fill="#57555c"/><path d="m300.910156 426.5-22.449218 38.898438h-22.460938v-77.796876h22.460938zm0 0" fill="#2a2a2c"/></svg>