<svg height="512pt" viewBox="0 0 512 512" width="512pt" xmlns="http://www.w3.org/2000/svg"><path d="m0 256c0-141.386719 114.613281-256 256-256s256 114.613281 256 256c0 70.691406-28.652344 134.691406-74.980469 181.019531s-110.328125-4.019531-181.019531-4.019531c-70.355469 0-134.082031 50.617188-180.355469 4.679688-46.71875-46.378907-75.644531-110.652344-75.644531-181.679688zm0 0" fill="#7fc8f1"/><path d="m256 433c70.691406 0 134.691406 50.347656 181.019531 4.019531s74.980469-110.328125 74.980469-181.019531l-199-199-13.894531 12.601562-22.070313-21.957031c-6.21875-6.574219-13.445312-13.453125-21.035156-19.144531-22 16.5-41.007812 43-41.007812 43l-15.992188-14.5c-6.753906 10.902344-10.296875 21.023438-11.628906 30.261719-26.574219 9.960937-33.824219 27.699219-31.484375 50.785156 1.230469 12.1875 3.585937 27.46875 6.011719 41.640625-8.949219 2.894531-15.015626 11.769531-13.964844 21.46875l1.773437 16.363281c.558594 5.160157 3.03125 9.667969 6.636719 12.898438l27.949219 27.273437c4.699219 8.542969 9.71875 15.808594 14.902343 21.988282l-9.601562 45.320312h-43.960938c-38.648437 0-69.984374 31.332031-69.984374 69.984375v42.6875c.296874.292969.597656.578125.894531.867187 46.199219 44.410157 109.554687-5.539062 179.457031-5.539062zm0 0" fill="#00acea"/><path d="m312.050781 276.117188h-112.101562l-11.09375 52.382812h134.289062zm0 0" fill="#ffc473"/><path d="m323.148438 328.5h-67.148438v-52.378906h56.050781zm0 0" fill="#ffaa20"/><path d="m347.617188 179.035156c-3.824219-56.308594-51.847657-88.269531-91.617188-88.269531s-87.792969 31.957031-91.617188 88.269531c-10.292968 1.929688-17.59375 11.542969-16.449218 22.121094l1.769531 16.359375c1.203125 11.101563 11.269531 19.199219 22.371094 18l1.910156-.207031c22.722656 59.148437 59.394531 74.375 82.015625 77.835937 22.621094-3.460937 59.289062-18.6875 82.015625-77.835937l1.910156.207031c11.101563 1.199219 21.167969-6.898437 22.371094-18l1.769531-16.359375c1.144532-10.578125-6.15625-20.191406-16.449218-22.121094zm0 0" fill="#ffdba9"/><path d="m364.066406 201.15625-1.773437 16.367188c-1.203125 11.097656-11.265625 19.191406-22.363281 17.988281l-1.910157-.207031c-22.726562 59.152343-59.398437 74.382812-82.019531 77.84375v-222.378907c39.773438 0 87.789062 31.957031 91.613281 88.265625 10.296875 1.929688 17.597657 11.546875 16.453125 22.121094zm0 0" fill="#ffc473"/><path d="m312.425781 192.960938h-56.425781v66.359374h20.046875v-47.757812h36.378906zm0 0" fill="#ffaa20"/><path d="m325.929688 161s-16.273438 25.710938-69.273438 25.710938h-.65625c-53 0-69.273438-25.710938-69.273438-25.710938l-11.476562 22.109375c8.765625 25.039063 31.058594 53.867187 54.316406 52.039063 12.160156-.957032 18.984375-7.535157 22.742188-15.554688 1.59375-3.402344 6.445312-3.402344 8.039062 0 3.757813 8.019531 10.582032 14.597656 22.742188 15.554688 23.257812 1.828124 45.550781-27 54.316406-52.039063zm0 0" fill="#8b8992"/><path d="m337.410156 183.109375c-2.839844 8.109375-7.101562 16.621094-12.351562 24.351563-10.957032 16.148437-26.238282 28.929687-41.96875 27.6875-12.160156-.957032-18.988282-7.539063-22.738282-15.546876-.851562-1.820312-2.640624-2.671874-4.351562-2.550781v-30.339843h.660156c46.078125 0 64.398438-19.441407 68.398438-24.511719.589844-.757813.871094-1.199219.871094-1.199219zm0 0" fill="#57555c"/><path d="m203.480469 187.960938s11.101562 13.375 40.359375 16.820312c0 0-6.386719 17.917969-24.078125 11.542969-15.039063-5.414063-16.28125-28.363281-16.28125-28.363281zm0 0" fill="#fff6c7"/><path d="m309.175781 187.960938s-11.101562 13.375-40.359375 16.820312c0 0 6.386719 17.917969 24.078125 11.542969 15.039063-5.414063 16.28125-28.363281 16.28125-28.363281zm0 0" fill="#ffec97"/><path d="m366.367188 325h-220.734376c-38.648437 0-69.984374 31.332031-69.984374 69.984375v42.6875c46.277343 45.941406 109.996093 74.328125 180.351562 74.328125s134.074219-28.386719 180.351562-74.328125v-42.6875c0-38.652344-31.335937-69.984375-69.984374-69.984375zm0 0" fill="#8b8992"/><path d="m436.351562 394.980469v42.691406c-46.273437 45.9375-109.992187 74.328125-180.351562 74.328125v-187h110.371094c21.457031 0 40.660156 9.648438 53.480468 24.859375 10.296876 12.179687 16.5 27.929687 16.5 45.121094zm0 0" fill="#57555c"/><path d="m287.410156 397.574219-5.210937 11.46875c-4.964844-16.105469-26.199219-35.382813-26.199219-35.382813s-21.234375 19.277344-26.199219 35.382813l-5.210937-11.46875s-38.707032 59.777343 31.410156 79.546875c70.117188-19.769532 31.410156-79.546875 31.410156-79.546875zm0 0" fill="#d9d9db"/><path d="m255.996094 477.121094v-103.457032s21.238281 19.277344 26.203125 35.386719l5.214843-11.476562s38.703126 59.785156-31.417968 79.546875zm0 0" fill="#aeadb3"/><path d="m123.800781 413.328125v61.933594c9.601563 5.800781 19.625 10.976562 30 15.5v-77.433594zm0 0" fill="#57555c"/><path d="m358.199219 413.328125v77.433594c10.375-4.523438 20.398437-9.699219 30-15.5v-61.933594zm0 0" fill="#2a2a2c"/><path d="m256 78.253906c-83.429688 0-103.824219 23.175782-100.113281 59.792969 3.195312 31.5625 13.902343 83.890625 13.902343 83.890625h17.148438v-75.085938l69.0625 5.5625 69.0625-5.5625v75.085938h17.148438s10.707031-52.328125 13.902343-83.890625c3.710938-36.617187-16.683593-59.792969-100.113281-59.792969zm0 0" fill="#ff0335"/><path d="m356.121094 138.050781c-3.199219 31.558594-13.910156 83.890625-13.910156 83.890625h-17.152344v-75.089844l-28.046875 2.257813-41.011719 3.300781v-74.160156c30.839844 0 53.058594 3.171875 68.640625 9.011719 26.570313 9.957031 33.808594 27.699219 31.480469 50.789062zm0 0" fill="#e7001f"/><path d="m313 57-15.992188 14.5s-19.007812-26.5-41.007812-43c-22 16.5-41.007812 43-41.007812 43l-15.992188-14.5c-35 56.5 15.992188 92.109375 15.992188 92.109375l41.007812 3.304687 41.007812-3.304687s50.992188-35.609375 15.992188-92.109375zm0 0" fill="#e7001f"/><path d="m297.011719 149.109375-41.011719 3.300781v-123.910156c22 16.5 41.011719 43 41.011719 43l15.988281-14.5c6.75 10.898438 10.300781 21.019531 11.640625 30.261719 5.589844 38.648437-27.628906 61.847656-27.628906 61.847656zm0 0" fill="#c2001b"/></svg>