<svg height="512pt" viewBox="0 0 512 512" width="512pt" xmlns="http://www.w3.org/2000/svg"><path d="m512 256c0 141.386719-114.613281 256-256 256s-256-114.613281-256-256 114.613281-256 256-256 256 114.613281 256 256zm0 0" fill="#d9d9db"/><path d="m512 256c0-3.089844-.074219-6.160156-.183594-9.226562l-92.816406-92.816407-5.160156 13.273438c-1.339844 3.445312-3.535156 6.441406-6.324219 8.75-10.652344-6.546875-22.910156-10.023438-35.421875-10.023438h-48.566406c-15.886719 0-30.632813 8.261719-38.925782 21.8125-3.957031 6.464844-10.988281 10.40625-18.566406 10.40625h-20.070312c-2.761719 0-5.449219-.53125-7.945313-1.507812l-15.703125-15.664063c-6.832031-7.558594-16.011718-12.617187-26.0625-14.359375l-31.167968-31.0625-3.84375 9.882813c-1.625 4.175781-4.925782 7.480468-9.105469 9.105468l-9.882813 3.84375 9.882813 3.84375c1.277343.496094 2.453125 1.164063 3.542969 1.953126l-4.496094 1.746093h-11.277344c-12.859375 0-25.453125 3.664063-36.308594 10.5625l-53.839844 34.230469c-6.285156 3.996094-10.09375 10.925781-10.09375 18.371094v53.761718c0 5.832032 2.339844 11.351563 6.375 15.386719l14.773438 14.679688c-1.03125.640625-2.125 1.203125-3.277344 1.652343l-12.570312 4.886719 191.792968 191.792969c6.355469.472656 12.769532.71875 19.242188.71875 141.386719 0 256-114.613281 256-256zm0 0" fill="#c8c6cc"/><path d="m372.09375 165.957031h-48.566406c-15.886719 0-30.632813 8.261719-38.925782 21.816407-3.957031 6.460937-10.988281 10.402343-18.566406 10.402343h-20.070312c-7.578125 0-14.609375-3.941406-18.566406-10.402343-8.292969-13.550782-23.039063-21.816407-38.925782-21.816407h-48.566406c-12.859375 0-25.457031 3.664063-36.308594 10.566407l-53.839844 34.226562c-6.285156 3.996094-10.09375 10.925781-10.09375 18.371094v53.761718c0 7.445313 3.808594 14.375 10.09375 18.367188l58.835938 37.40625c7.589844 4.824219 16.398438 7.386719 25.394531 7.386719h54.484375c15.886719 0 30.632813-8.261719 38.925782-21.8125 3.957031-6.464844 10.988281-10.40625 18.566406-10.40625h20.070312c7.578125 0 14.609375 3.941406 18.566406 10.40625 8.292969 13.550781 23.039063 21.8125 38.925782 21.8125h54.484375c8.996093 0 17.804687-2.5625 25.394531-7.386719l58.835938-37.40625c6.285156-3.992188 10.09375-10.921875 10.09375-18.367188v-53.761718c0-7.445313-3.808594-14.375-10.09375-18.371094l-53.839844-34.230469c-10.855469-6.898437-23.449219-10.5625-36.308594-10.5625zm0 0" fill="#ff0335"/><path d="m472.328125 229.121094v53.757812c0 7.449219-3.796875 14.382813-10.089844 18.371094l-58.828125 37.398438c-7.589844 4.832031-16.398437 7.390624-25.398437 7.390624h-54.480469c-7.953125 0-15.609375-2.058593-22.3125-5.820312-6.71875-3.757812-12.480469-9.21875-16.617188-15.988281-1.980468-3.230469-4.722656-5.839844-7.921874-7.628907-3.199219-1.800781-6.859376-2.78125-10.648438-2.78125h-10.03125v-115.640624h10.03125c3.789062 0 7.449219-.980469 10.648438-2.78125 3.199218-1.789063 5.941406-4.398438 7.921874-7.628907 8.289063-13.550781 23.039063-21.808593 38.929688-21.808593h48.558594c12.859375 0 25.460937 3.660156 36.308594 10.558593l53.839843 34.230469c6.292969 3.988281 10.089844 10.921875 10.089844 18.371094zm0 0" fill="#c2001b"/><path d="m229.339844 256c0 6.707031-30.519532 34.445312-68.167969 34.445312-37.652344 0-68.171875-25.925781-68.171875-34.445312s30.519531-34.445312 68.167969-34.445312c37.648437 0 68.171875 27.738281 68.171875 34.445312zm0 0" fill="#3c3b41"/><path d="m419 256c0 6.707031-30.519531 34.445312-68.167969 34.445312-37.648437 0-68.171875-25.925781-68.171875-34.445312s30.523438-34.445312 68.171875-34.445312c37.648438 0 68.167969 27.738281 68.167969 34.445312zm0 0" fill="#2a2a2c"/><path d="m199.160156 256c0 3.554688-17.007812 18.25-37.992187 18.25-20.980469 0-37.992188-13.734375-37.992188-18.25s17.011719-18.25 37.992188-18.25c20.984375 0 37.992187 14.695312 37.992187 18.25zm0 0" fill="#fff"/><path d="m388.820312 256c0 3.554688-17.007812 18.25-37.992187 18.25-20.980469 0-37.988281-13.734375-37.988281-18.25s17.007812-18.25 37.988281-18.25c20.984375 0 37.992187 14.695312 37.992187 18.25zm0 0" fill="#fff5cb"/><path d="m436.390625 179.460938 13.277344 5.164062-13.277344 5.160156c-5.609375 2.183594-10.046875 6.621094-12.230469 12.230469l-5.160156 13.273437-5.160156-13.273437c-2.183594-5.609375-6.621094-10.046875-12.230469-12.230469l-13.277344-5.160156 13.277344-5.164062c5.609375-2.179688 10.046875-6.617188 12.230469-12.230469l5.160156-13.273438 5.160156 13.273438c2.183594 5.613281 6.621094 10.050781 12.230469 12.230469zm0 0" fill="#fff5cb"/><g fill="#fff"><path d="m178.035156 154.570312 9.878906 3.84375-9.878906 3.84375c-4.179687 1.625-7.480468 4.925782-9.105468 9.105469l-3.84375 9.878907-3.84375-9.878907c-1.625-4.179687-4.925782-7.480469-9.105469-9.105469l-9.882813-3.84375 9.882813-3.84375c4.179687-1.625 7.480469-4.925781 9.105469-9.105468l3.84375-9.882813 3.84375 9.882813c1.625 4.179687 4.925781 7.480468 9.105468 9.105468zm0 0"/><path d="m90.476562 314.601562 12.574219 4.886719-12.574219 4.890625c-5.3125 2.0625-9.515624 6.265625-11.582031 11.582032l-4.886719 12.570312-4.886718-12.570312c-2.066406-5.316407-6.269532-9.519532-11.582032-11.582032l-12.570312-4.890625 12.570312-4.886719c5.3125-2.066406 9.515626-6.269531 11.582032-11.582031l4.886718-12.570312 4.886719 12.570312c2.066407 5.3125 6.269531 9.515625 11.582031 11.582031zm0 0"/></g></svg>