<svg height="512pt" viewBox="0 0 512 512" width="512pt" xmlns="http://www.w3.org/2000/svg"><path d="m0 256c0-141.386719 114.613281-256 256-256s256 114.613281 256 256c0 101.890625-59.523438 189.875-145.695312 231.082031-33.402344 15.972657-57.929688-25.671875-97.425782-25.671875-29.632812 0-70.96875 45.554688-97.4375 36.296875-99.835937-34.925781-171.441406-129.953125-171.441406-241.707031zm0 0" fill="#fff6c7"/><path d="m512 256c0-8.957031-.464844-17.804688-1.363281-26.527344l-136.871094-137.253906c-6.457031-7.070312-15.511719-11.46875-25.546875-11.46875-7.09375 0-13.699219 2.203125-19.246094 5.992188-1.894531-2.339844-4.070312-4.417969-6.449218-6.207032-6.507813-8.625-16.511719-14.164062-27.753907-14.164062-9.574219 0-18.257812 4.019531-24.652343 10.535156-.339844-.273438-.6875-.535156-1.035157-.792969-6.507812-8.628906-16.515625-14.164062-27.761719-14.164062-9.992187 0-19.011718 4.367187-25.457031 11.386719-.074219-.058594-.152343-.109376-.222656-.164063-6.515625-8.632813-16.527344-14.171875-27.78125-14.171875-19.621094 0-35.519531 16.820312-35.519531 37.570312v50.289063s-9.738282-15.417969-30.199219-8.429687c-22.242187 7.601562-25.402344 54.269531 13.167969 106.589843 13.75 18.652344 36.140625 58.230469 36.140625 58.230469v194.4375c26.472656 9.261719 54.917969-37.6875 84.550781-37.6875 39.496094 0 76.902344 43.054688 110.304688 27.082031 86.171874-41.207031 145.695312-129.191406 145.695312-231.082031zm0 0" fill="#ffe670"/><path d="m381.46875 105.058594v126.042968c0 17.179688-11.679688 47.71875-15.167969 64.527344v191.441406c-30.359375 14.53125-64.039062 23.238282-99.582031 24.710938-3.558594.148438-7.128906.21875-10.71875.21875-29.628906 0-58.078125-5.03125-84.550781-14.300781v-194.449219s-22.390625-39.578125-36.140625-58.230469c-38.570313-52.320312-35.410156-98.988281-13.167969-106.589843 20.460937-6.988282 30.199219 8.429687 30.199219 8.429687v-50.289063c0-20.75 15.898437-37.570312 35.519531-37.570312 11.351563 0 21.441406 5.628906 27.949219 14.390625 6.453125-7.050781 15.492187-11.441406 25.511718-11.441406 11.699219 0 22.070313 5.980469 28.539063 15.210937 6.421875-6.671875 15.210937-10.789062 24.910156-10.789062 14.289063 0 26.609375 8.929687 32.242188 21.808594 5.917969-4.667969 13.257812-7.429688 21.207031-7.429688 15.210938 0 28.179688 10.101562 33.25 24.308594zm0 0" fill="#ffc473"/><path d="m381.46875 105.070312v126.039063c0 17.179687-11.667969 47.699219-15.167969 64.519531v191.441406c-30.359375 14.53125-64.039062 23.238282-99.582031 24.710938v-438.492188c1.140625 1.210938 2.191406 2.5 3.140625 3.882813 6.410156-6.671875 15.199219-10.792969 24.921875-10.792969 14.289062 0 26.589844 8.929688 32.230469 21.800782 5.9375-4.667969 13.269531-7.441407 21.207031-7.441407 15.222656 0 28.179688 10.113281 33.25 24.332031zm0 0" fill="#ffaa20"/><path d="m366.300781 309.429688v177.640624c-33.402343 15.980469-70.8125 24.929688-110.300781 24.929688-29.628906 0-58.078125-5.03125-84.550781-14.300781v-188.269531zm0 0" fill="#004eb1"/><path d="m366.300781 309.429688v177.640624c-30.359375 14.53125-64.039062 23.238282-99.582031 24.710938v-202.351562zm0 0" fill="#002d6b"/><path d="m171.453125 364.839844h194.847656v30.785156h-194.847656zm0 0" fill="#ff0335"/><path d="m266.71875 364.839844h99.582031v30.78125h-99.582031zm0 0" fill="#c2001b"/><path d="m171.453125 394.898438h194.847656v30.785156h-194.847656zm0 0" fill="#ffdb2d"/><path d="m266.71875 394.898438h99.582031v30.78125h-99.582031zm0 0" fill="#fec000"/><path d="m325.894531 395.625c0 32.683594-26.492187 59.175781-59.175781 59.175781s-59.175781-26.492187-59.175781-59.175781 26.492187-59.175781 59.175781-59.175781 59.175781 26.492187 59.175781 59.175781zm0 0" fill="#fff"/><path d="m325.890625 395.621094c0 32.6875-26.492187 59.179687-59.171875 59.179687v-118.351562c32.679688 0 59.171875 26.492187 59.171875 59.171875zm0 0" fill="#fff5cb"/><path d="m312.554688 395.625c0 25.3125-20.523438 45.835938-45.835938 45.835938s-45.835938-20.523438-45.835938-45.835938 20.523438-45.835938 45.835938-45.835938 45.835938 20.523438 45.835938 45.835938zm0 0" fill="#7fc8f1"/><path d="m312.550781 395.621094c0 25.320312-20.519531 45.839844-45.832031 45.839844v-91.671876c25.3125 0 45.832031 20.519532 45.832031 45.832032zm0 0" fill="#00acea"/><path d="m266.71875 361.257812 9.425781 22.71875 24.519531 1.945313-18.691406 15.984375 5.726563 23.921875-20.980469-12.839844-20.980469 12.839844 5.726563-23.921875-18.691406-15.984375 24.519531-1.945313zm0 0" fill="#ff0335"/><path d="m281.96875 401.910156 5.730469 23.917969-20.980469-12.839844v-51.726562l9.429688 22.71875 24.511718 1.941406zm0 0" fill="#c2001b"/></svg>