<svg height="512pt" viewBox="0 0 512 512" width="512pt" xmlns="http://www.w3.org/2000/svg"><path d="m512 256c0 83.179688-39.671875 157.089844-101.128906 203.851562-43 32.71875-96.671875-16.523437-154.871094-16.523437s-111.871094 49.242187-154.871094 16.523437c-61.457031-46.761718-101.128906-120.671874-101.128906-203.851562 0-141.378906 114.621094-256 256-256s256 114.621094 256 256zm0 0" fill="#004eb1"/><path d="m256 443.328125c58.199219 0 111.871094 49.242187 154.871094 16.523437 61.457031-46.761718 101.128906-120.671874 101.128906-203.851562 0-8.144531-.398438-16.195312-1.140625-24.144531l-118.84375-119.191407c-5.855469-6.222656-13.0625-11.15625-21.152344-14.339843l-39.550781-39.652344c-9.609375-10.4375-23.375-16.980469-38.679688-16.980469-14.246093 0-27.160156 5.671875-36.632812 14.875-9.46875-9.203125-22.382812-14.875-36.632812-14.875-29.042969 0-52.582032 23.542969-52.582032 52.582032 0 .058593.003906.117187.003906.171874-1.417968-.101562-2.84375-.171874-4.285156-.171874-32.246094 0-58.382812 26.136718-58.382812 58.382812 0 10.667969 2.875 20.660156 7.871094 29.265625-15.671876 10.46875-25.996094 28.3125-25.996094 48.574219 0 16.535156 6.886718 31.457031 17.9375 42.074218l6.65625 6.644532c-6.335938 9.777344-9.839844 21.5625-9.308594 34.203125.652344 15.542969 7.5 29.578125 18.109375 39.695312-11.238281 10.875-18.257813 26.082031-18.257813 42.855469v63.882812c42.996094 32.71875 96.667969-16.523437 154.867188-16.523437zm0 0" fill="#002d6b"/><path d="m297.296875 283.351562h-82.59375l-15.335937 59.648438h113.261718zm0 0" fill="#ffc473"/><path d="m312.628906 343h-56.628906v-59.648438h41.300781l.4375 1.707032zm0 0" fill="#ffaa20"/><path d="m355.808594 160.09375c-4.167969-61.34375-56.484375-96.160156-99.808594-96.160156s-95.640625 34.816406-99.808594 96.160156c-11.210937 2.101562-19.167968 12.578125-17.917968 24.097656l1.929687 17.828125c1.308594 12.089844 12.273437 20.914063 24.367187 19.601563l2.082032-.222656c24.757812 64.4375 64.703125 81.027343 89.347656 84.792968 24.644531-3.765625 64.59375-20.355468 89.347656-84.792968l2.082032.222656c12.09375 1.3125 23.058593-7.511719 24.367187-19.601563l1.929687-17.828125c1.25-11.519531-6.707031-21.996094-17.917968-24.097656zm0 0" fill="#ffdba9"/><path d="m373.726562 184.191406-1.929687 17.832032c-1.3125 12.089843-12.273437 20.90625-24.363281 19.597656l-2.082032-.222656c-24.757812 64.4375-64.707031 81.03125-89.351562 84.796874v-242.257812c43.328125 0 95.640625 34.816406 99.804688 96.15625 11.214843 2.105469 19.171874 12.578125 17.921874 24.097656zm0 0" fill="#ffc473"/><path d="m310.5625 187.734375h-54.5625v64.160156h19.382812v-46.175781h35.179688zm0 0" fill="#ffaa20"/><path d="m289 171.667969c-7.363281 0-14.285156 1.21875-20.300781 3.359375-8.191407 2.917968-17.207031 2.917968-25.398438 0-6.015625-2.140625-12.933593-3.359375-20.300781-3.359375-23.195312 0-42 12.085937-42 27 0 14.910156 18.804688 27 42 27 7.367188 0 14.285156-1.222657 20.300781-3.363281 8.191407-2.917969 17.207031-2.917969 25.398438 0 6.015625 2.140624 12.9375 3.363281 20.300781 3.363281 23.195312 0 42-12.089844 42-27 0-14.914063-18.804688-27-42-27zm0 0" fill="#fff"/><path d="m410.871094 395.96875v63.882812c-43 32.71875-96.671875 52.148438-154.871094 52.148438s-111.871094-19.429688-154.871094-52.148438v-63.882812c0-32.828125 26.851563-59.699219 59.710938-59.699219h190.582031c32.726563.140625 59.449219 26.960938 59.449219 59.699219zm0 0" fill="#ffec97"/><path d="m410.871094 395.96875v63.882812c-43 32.71875-96.671875 52.148438-154.871094 52.148438v-175.730469h95.421875c32.726563.140625 59.449219 26.960938 59.449219 59.699219zm0 0" fill="#ffdf47"/><path d="m168.601562 413.328125v83.363281c-10.332031-3.75-20.339843-8.152344-30-13.140625v-70.222656zm0 0" fill="#ffdb2d"/><path d="m373.398438 413.328125v70.222656c-9.660157 4.988281-19.667969 9.390625-30 13.140625v-83.363281zm0 0" fill="#fec000"/><path d="m426.003906 230.496094c0-20.261719-10.324218-38.105469-25.996094-48.574219 4.996094-8.605469 7.871094-18.597656 7.871094-29.265625 0-32.246094-26.136718-58.382812-58.382812-58.382812-1.441406 0-2.867188.070312-4.285156.171874 0-.058593.007812-.113281.007812-.171874 0-29.042969-23.542969-52.585938-52.585938-52.585938-14.246093 0-27.164062 5.675781-36.632812 14.878906-9.46875-9.203125-22.386719-14.878906-36.632812-14.878906-29.042969 0-52.585938 23.542969-52.585938 52.585938 0 .058593.003906.113281.003906.171874-1.414062-.101562-2.839844-.171874-4.285156-.171874-32.242188 0-58.378906 26.136718-58.378906 58.382812 0 10.667969 2.875 20.660156 7.871094 29.265625-15.671876 10.46875-25.996094 28.3125-25.996094 48.574219 0 19.863281 9.929687 37.402344 25.085937 47.945312-6.652343 9.929688-10.347656 22.007813-9.804687 34.976563 1.261718 30.015625 25.585937 54.4375 55.59375 55.808593 33.488281 1.527344 61.117187-25.167968 61.117187-58.320312 0-19.863281-9.929687-37.398438-25.085937-47.945312 6.222656-9.285157 9.855468-20.449219 9.855468-32.464844 0-10.667969-2.875-20.660156-7.871093-29.265625 15.671875-10.46875 25.996093-28.3125 25.996093-48.574219 0-1.96875-.101562-3.914062-.289062-5.828125 13.761719-.316406 26.207031-5.925781 35.40625-14.859375 9.199219 8.933594 21.644531 14.542969 35.40625 14.859375-.1875 1.914063-.289062 3.859375-.289062 5.828125 0 20.257812 10.324218 38.105469 25.996093 48.574219-4.996093 8.605469-7.871093 18.597656-7.871093 29.265625 0 12.015625 3.632812 23.179687 9.855468 32.464844-15.464844 10.757812-25.488281 28.796874-25.074218 49.160156.652343 31.96875 27.480468 57.734375 59.449218 57.15625 31.746094-.574219 57.300782-26.488282 57.300782-58.371094 0-12.015625-3.632813-23.179688-9.855469-32.464844 15.15625-10.542968 25.085937-28.082031 25.085937-47.945312zm0 0" fill="#ff738e"/><path d="m400.917969 278.4375c6.21875 9.285156 9.859375 20.449219 9.859375 32.472656 0 31.882813-25.5625 57.789063-57.304688 58.363282-18.824218.351562-35.867187-8.449219-46.828125-22.261719-7.65625-9.640625-12.347656-21.746094-12.617187-34.886719-.183594-8.820312 1.59375-17.199219 4.929687-24.742188 4.355469-9.878906 11.371094-18.320312 20.140625-24.421874-6.226562-9.28125-9.859375-20.449219-9.859375-32.460938 0-10.671875 2.882813-20.664062 7.875-29.269531-15.675781-10.464844-26-28.3125-26-48.578125 0-1.964844.105469-3.910156.289063-5.824219-13.757813-.316406-26.203125-5.925781-35.402344-14.859375v-75.402344c9.46875-9.199218 22.382812-14.878906 36.628906-14.878906 29.042969 0 52.589844 23.546875 52.589844 52.589844 0 .050781-.007812.113281-.007812.175781 1.417968-.105469 2.847656-.175781 4.289062-.175781 32.246094 0 58.375 26.128906 58.375 58.375 0 10.671875-2.871094 20.664062-7.871094 29.269531 15.671875 10.46875 25.996094 28.3125 25.996094 48.578125 0 19.863281-9.921875 37.398438-25.082031 47.9375zm0 0" fill="#ff3c62"/><path d="m256 72s-75.757812 20.332031-85.832031 81.332031c0 0 36.199219-43.332031 85.832031-43.332031s85.832031 43.332031 85.832031 43.332031c-10.074219-61-85.832031-81.332031-85.832031-81.332031zm0 0" fill="#ffec97"/><path d="m341.828125 153.328125s-36.199219-43.328125-85.828125-43.328125v-38s75.761719 20.328125 85.828125 81.328125zm0 0" fill="#ffdf47"/><path d="m246.058594 206.746094c-.027344-.066406-5.863282-9.949219-16.097656-12.394532-10.238282-2.441406-19.960938 3.789063-19.960938 3.789063l.058594.011719c.027344.066406 6.449218 10.089844 16.097656 12.394531 9.648438 2.300781 19.960938-3.789063 19.960938-3.789063zm0 0" fill="#ff738e"/><path d="m265.941406 206.746094c.027344-.066406 5.863282-9.949219 16.097656-12.394532 10.238282-2.441406 19.960938 3.789063 19.960938 3.789063l-.058594.011719c-.027344.066406-6.449218 10.089844-16.097656 12.394531-9.648438 2.300781-19.960938-3.789063-19.960938-3.789063zm0 0" fill="#ff3c62"/><path d="m256 383 16.261719 33.988281 37.347656 4.960938-27.296875 25.96875 6.820312 37.054687-33.132812-17.9375-33.132812 17.9375 6.820312-37.054687-27.296875-25.96875 37.347656-4.960938zm0 0" fill="#fff"/><path d="m305.992188 425.390625-23.683594 22.527344 3.925781 21.292969 2.277344 12.363281.625 3.394531-6.273438-3.394531-26.863281-14.535157v-84.035156l16.265625 33.984375 37.347656 4.960938zm0 0" fill="#fff5cb"/></svg>