<svg height="512pt" viewBox="0 0 512 512" width="512pt" xmlns="http://www.w3.org/2000/svg"><path d="m0 256c0-141.386719 114.613281-256 256-256s256 114.613281 256 256c0 70.691406-28.652344 134.691406-74.980469 181.019531s-110.328125-4.019531-181.019531-4.019531c-70.355469 0-134.082031 50.617188-180.355469 4.679688-46.71875-46.378907-75.644531-110.652344-75.644531-181.679688zm0 0" fill="#ff0335"/><path d="m256 433c70.691406 0 134.691406 50.347656 181.019531 4.019531s74.980469-110.328125 74.980469-181.019531c0-5.921875-.21875-11.792969-.613281-17.613281l-136.386719-136.386719s-18.644531-5.980469-48.667969-28.402344c-14.671875-10.957031-44.832031-29.097656-70.332031-29.097656-15.667969 0-98.835938 6.9375-98.835938 117.71875-11.097656 2.078125-18.976562 12.453125-17.742187 23.863281l1.914063 17.652344c.554687 5.125 2.863281 9.65625 6.261718 13.0625l31.441406 30.972656c6.496094 11.691407 13.558594 21.152344 20.820313 28.78125l-5.457031 25.757813h-42.886719c-28.902344 0-53.25 20.425781-59.359375 47.550781-10.289062 12.1875-16.503906 27.925781-16.503906 45.125v42.691406c.257812.257813.527344.511719.792968.769531 46.203126 44.578126 109.601563-5.445312 179.554688-5.445312zm0 0" fill="#c2001b"/><path d="m421.332031 411h-330.664062v-47.847656c0-33.464844 27.378906-60.84375 60.84375-60.84375h208.976562c33.464844 0 60.84375 27.378906 60.84375 60.84375zm0 0" fill="#004eb1"/><path d="m421.328125 363.148438v47.851562h-165.328125v-108.691406h104.488281c28.902344 0 53.261719 20.429687 59.363281 47.550781.96875 4.28125 1.476563 8.730469 1.476563 13.289063zm0 0" fill="#002d6b"/><path d="m312.050781 276.117188h-112.101562l-11.09375 52.382812h134.289062zm0 0" fill="#ffc473"/><path d="m323.148438 328.5h-67.148438v-52.378906h56.050781zm0 0" fill="#ffaa20"/><path d="m354.832031 162.21875c-4.125-60.746094-55.929687-95.222656-98.832031-95.222656s-94.707031 34.476562-98.835938 95.222656c-11.097656 2.078125-18.976562 12.453125-17.742187 23.863281l1.914063 17.652344c1.296874 11.972656 12.152343 20.710937 24.128906 19.414063l2.0625-.226563c24.511718 63.808594 64.070312 80.238281 88.472656 83.96875 24.402344-3.730469 63.960938-20.160156 88.472656-83.96875l2.0625.226563c11.976563 1.296874 22.832032-7.441407 24.128906-19.414063l1.914063-17.652344c1.234375-11.410156-6.644531-21.785156-17.746094-23.863281zm0 0" fill="#ffdba9"/><path d="m372.574219 186.082031-1.910157 17.652344c-1.296874 11.972656-12.152343 20.707031-24.125 19.40625l-2.058593-.21875c-24.515625 63.808594-64.074219 80.238281-88.480469 83.972656v-239.894531c42.90625 0 94.707031 34.476562 98.828125 95.21875 11.109375 2.082031 18.984375 12.453125 17.746094 23.863281zm0 0" fill="#ffc473"/><path d="m320.160156 133 19 59.585938h12.667969s11.679687-56.980469-9.242187-93.78125zm0 0" fill="#ffec97"/><path d="m316.871094 170.5h-60.871094v71.582031h21.625v-51.519531h39.246094zm0 0" fill="#ffaa20"/><path d="m187.960938 170.5h54.601562v20.0625h-54.601562zm0 0" fill="#ffc473"/><path d="m366.367188 325h-220.734376c-38.648437 0-69.984374 31.332031-69.984374 69.984375v42.6875c46.277343 45.941406 109.996093 74.328125 180.351562 74.328125s134.074219-28.386719 180.351562-74.328125v-42.6875c0-38.652344-31.335937-69.984375-69.984374-69.984375zm0 0" fill="#ffdb2d"/><path d="m436.351562 394.980469v42.691406c-46.273437 45.9375-109.992187 74.328125-180.351562 74.328125v-187h110.371094c21.457031 0 40.660156 9.648438 53.480468 24.859375 10.296876 12.179687 16.5 27.929687 16.5 45.121094zm0 0" fill="#ffcf00"/><path d="m123.800781 413.328125v61.933594c9.601563 5.800781 19.625 10.976562 30 15.5v-77.433594zm0 0" fill="#fec000"/><path d="m358.199219 413.328125v77.433594c10.375-4.523438 20.398437-9.699219 30-15.5v-61.933594zm0 0" fill="#ffaa20"/><path d="m127.667969 367.667969h30.667969c11.597656 0 21-9.402344 21-21v-33.347657h-27.820313c-17.707031 0-33.703125 7.664063-44.847656 19.835938v13.507812c0 11.601563 9.402343 21.003907 21 21.003907zm0 0" fill="#004eb1"/><path d="m353.667969 367.667969h30.667969c11.597656 0 21-9.402344 21-21v-13.507813c-11.148438-12.171875-27.144532-19.839844-44.847657-19.839844h-27.820312v33.347657c0 11.597656 9.402343 21 21 21zm0 0" fill="#002d6b"/><path d="m157.421875 344.285156c0-5.226562-6.457031-9.464844-14.421875-9.464844s-14.421875 4.238282-14.421875 9.464844c0 5.226563 6.457031 9.464844 14.421875 9.464844s14.421875-4.238281 14.421875-9.464844zm0 0" fill="#fff"/><path d="m383.421875 344.285156c0-5.226562-6.457031-9.464844-14.421875-9.464844s-14.421875 4.238282-14.421875 9.464844c0 5.226563 6.457031 9.464844 14.421875 9.464844s14.421875-4.238281 14.421875-9.464844zm0 0" fill="#fff5cb"/><path d="m157.167969 162.21875 3.167969 30.367188h12.664062l19-59.585938s117 53.667969 183-31c0 0-18.644531-5.980469-48.667969-28.402344-14.671875-10.957031-44.832031-29.097656-70.332031-29.097656-15.667969 0-98.832031 6.9375-98.832031 117.71875zm0 0" fill="#fff"/><path d="m375 102c-33.808594 43.378906-81.011719 50.449219-119 47.019531v-104.519531c25.5 0 55.660156 18.140625 70.328125 29.101562 30.023437 22.417969 48.671875 28.398438 48.671875 28.398438zm0 0" fill="#fff5cb"/><path d="m302.632812 377.5h-93.265624l-25.59375 41.054688 72.226562 63.261718 72.226562-63.261718zm0 0" fill="#fff"/><path d="m328.230469 418.550781-72.230469 63.269531v-104.320312h46.628906l20.890625 33.5zm0 0" fill="#fff5cb"/></svg>