<svg height="512pt" viewBox="0 0 512 512" width="512pt" xmlns="http://www.w3.org/2000/svg"><path d="m512 256c0 141.386719-114.613281 256-256 256s-256-114.613281-256-256 114.613281-256 256-256 256 114.613281 256 256zm0 0" fill="#fff6c7"/><path d="m512 256c0-20.070312-2.316406-39.597656-6.683594-58.335938l-83.703125-83.703124-34.703125 20.871093-21.15625-21.003906c-30.691406-32.921875-72.378906-50.574219-109.753906-50.574219-45.300781 0-96.945312 25.90625-127.65625 73.535156l-37.960938-22.828124 11.292969 78.992187-66.675781 2.625 40.015625 49.757813c-1.179687 4.332031-1.605469 8.964843-1.117187 13.707031l1.285156 12.507812-36.417969 41.613281 198.125 198.125c6.308594.46875 12.679687.710938 19.109375.710938 141.386719 0 256-114.613281 256-256zm0 0" fill="#ffec97"/><path d="m410.386719 219.808594c-6.449219-99.871094-87.371094-156.554688-154.386719-156.554688s-147.9375 56.683594-154.386719 156.554688c-17.339843 3.417968-29.644531 20.476562-27.714843 39.234375l2.984374 29.019531c2.027344 19.6875 18.988282 34.050781 37.691407 31.917969l3.222656-.367188c38.292969 104.90625 100.085937 131.917969 138.203125 138.050781 38.121094-6.132812 99.910156-33.144531 138.203125-138.050781l3.222656.367188c18.703125 2.132812 35.664063-12.230469 37.691407-31.917969l2.984374-29.019531c1.929688-18.757813-10.375-35.816407-27.714843-39.234375zm0 0" fill="#ffdba9"/><path d="m438.101562 259.042969-2.988281 29.027343c-2.023437 19.683594-18.980469 34.039063-37.679687 31.90625l-3.222656-.363281c-38.296876 104.910157-100.085938 131.921875-138.210938 138.058594v-394.414063c67.023438 0 147.9375 56.683594 154.378906 156.550782 17.351563 3.425781 29.65625 20.476562 27.722656 39.234375zm0 0" fill="#ffc473"/><path d="m365.851562 113.898438-109.851562 65.082031-109.851562-65.082031c7.382812-7.949219 15.421874-15 23.882812-21.136719l85.96875 50.949219 85.96875-50.949219c8.460938 6.136719 16.5 13.1875 23.882812 21.136719zm0 0" fill="#005ed3"/><path d="m365.851562 113.898438-109.851562 65.082031v-35.269531l85.96875-50.949219c8.441406 6.128906 16.472656 13.160156 23.832031 21.089843zm0 0" fill="#00459f"/><path d="m384.46875 138.058594-128.46875 76.132812-128.46875-76.132812c5.546875-8.789063 11.808594-16.847656 18.617188-24.160156l.050781-.046876 109.800781 65.058594 109.800781-65.058594.050781.046876c6.808594 7.3125 13.070313 15.371093 18.617188 24.160156zm0 0" fill="#7fc8f1"/><path d="m384.46875 138.058594-128.46875 76.132812v-35.28125l109.800781-65.058594.050781.046876c6.476563 6.960937 12.457032 14.589843 17.796876 22.890624.28125.421876.550781.839844.820312 1.269532zm0 0" fill="#00acea"/><path d="m340.394531 249.339844h-84.394531v104.460937h29.980469v-75.183593h54.414062zm0 0" fill="#ffaa20"/><path d="m477 195.578125-66.675781-2.625 11.292969-78.992187-165.617188 99.601562-165.617188-99.601562 11.292969 78.992187-66.675781 2.625 51.082031 63.519531-47.316406 54.066406h434.46875l-47.316406-54.066406zm0 0" fill="#005ed3"/><path d="m425.921875 259.101562 47.316406 54.058594h-217.238281v-99.601562l127.648438-76.769532 37.972656-22.828124-11.300782 78.988281 66.679688 2.628906zm0 0" fill="#00459f"/><path d="m239.496094 270.1875c-.078125-.230469-18.410156-34.640625-51.566406-42.554688-33.15625-7.914062-65.230469 14.679688-65.230469 14.679688l.191406.046875c.078125.230469 20.316406 35.09375 51.566406 42.554687 31.253907 7.460938 65.230469-14.679687 65.230469-14.679687zm0 0" fill="#ff0335"/><path d="m218.378906 265.140625c-.054687-.136719-12.109375-20.554687-33.257812-25.601563-21.144532-5.046874-41.234375 7.824219-41.234375 7.824219l.125.03125c.050781.136719 13.324219 20.84375 33.253906 25.601563 19.929687 4.757812 41.238281-7.824219 41.238281-7.824219zm0 0" fill="#fff"/><path d="m272.503906 270.1875c.078125-.230469 18.410156-34.640625 51.566406-42.554688 33.15625-7.914062 65.230469 14.679688 65.230469 14.679688l-.195312.046875c-.078125.230469-20.3125 35.09375-51.566407 42.554687-31.25 7.460938-65.230468-14.679687-65.230468-14.679687zm0 0" fill="#c2001b"/><path d="m293.621094 265.140625c.054687-.136719 12.109375-20.554687 33.257812-25.601563 21.144532-5.046874 41.234375 7.824219 41.234375 7.824219l-.125.03125c-.050781.136719-13.324219 20.84375-33.253906 25.601563-19.929687 4.757812-41.238281-7.824219-41.238281-7.824219zm0 0" fill="#fff5cb"/></svg>