<svg height="512pt" viewBox="0 0 512 512" width="512pt" xmlns="http://www.w3.org/2000/svg"><path d="m512 256c0 141.386719-114.613281 256-256 256s-256-114.613281-256-256 114.613281-256 256-256 256 114.613281 256 256zm0 0" fill="#7fc8f1"/><path d="m512 256c0-24.539062-3.460938-48.269531-9.90625-70.738281l-21.652344-21.648438-64.933594-21.777343-19.898437 9.378906-77.246094-76.496094-62.363281-40.386719-62.363281 40.386719 10.675781 14.746094c-33.234375 12.234375-60.925781 35.929687-78.285156 66.296875l-29.535156-13.925781-64.9375 21.777343 61.375 104.132813 13.464843 13.628906v115.507812l112.417969 112.417969c12.140625 1.769531 24.554688 2.699219 37.1875 2.699219 141.386719 0 256-114.613281 256-256zm0 0" fill="#00acea"/><path d="m256 80.292969c-82.625 0-149.605469 66.980469-149.605469 149.605469v166.984374l100.121094 59.140626-50.691406-73.222657v-56.523437h200.351562v56.523437l-50.691406 73.222657 100.121094-59.140626v-166.984374c0-82.625-66.980469-149.605469-149.605469-149.605469zm0 0" fill="#ff0335"/><path d="m405.609375 229.898438v166.980468l-100.128906 59.140625 50.699219-73.21875v-56.519531h-100.179688v-245.992188c18.171875 0 35.578125 3.242188 51.691406 9.171876 57.160156 21.039062 97.917969 75.980468 97.917969 140.4375zm0 0" fill="#c2001b"/><path d="m415.507812 141.835938-128.488281 60.578124-22.570312 89.898438 154.621093-24.566406 61.371094-104.132813zm0 0" fill="#ffcf00"/><path d="m289.195312 257.375c.0625-.183594 15.144532-27.644531 42.492188-34.589844 27.347656-6.941406 53.847656 10.136719 53.847656 10.136719l-.15625.039063c-.066406.183593-16.71875 28.046874-42.496094 34.589843-25.777343 6.542969-53.847656-10.132812-53.847656-10.132812zm0 0" fill="#ffaa20"/><path d="m304.359375 253.785156c.039063-.105468 9.230469-16.347656 25.742187-20.539062 16.511719-4.191406 32.421876 5.773437 32.421876 5.773437l-.09375.027344c-.039063.105469-10.179688 16.589844-25.742188 20.539063-15.566406 3.949218-32.425781-5.773438-32.425781-5.773438zm0 0" fill="#fff5cb"/><path d="m96.492188 141.835938 128.488281 60.578124 22.570312 89.898438-154.621093-24.566406-61.371094-104.132813zm0 0" fill="#ffe670"/><path d="m222.804688 257.375c-.0625-.183594-15.144532-27.644531-42.492188-34.589844-27.347656-6.941406-53.847656 10.136719-53.847656 10.136719l.15625.039063c.066406.183593 16.71875 28.046874 42.496094 34.589843 25.777343 6.542969 53.847656-10.132812 53.847656-10.132812zm0 0" fill="#fec000"/><path d="m207.640625 253.785156c-.039063-.105468-9.230469-16.347656-25.742187-20.539062-16.511719-4.191406-32.421876 5.773437-32.421876 5.773437l.09375.027344c.039063.105469 10.179688 16.589844 25.742188 20.539063 15.566406 3.949218 32.425781-5.773438 32.425781-5.773438zm0 0" fill="#fff"/><path d="m256 34.332031-62.363281 40.390625 62.363281 86.117188 62.363281-86.117188zm0 0" fill="#ffe670"/><path d="m318.359375 74.71875-10.667969 14.742188-51.691406 71.378906v-126.511719zm0 0" fill="#ffcf00"/></svg>