<svg height="512pt" viewBox="0 0 512 512" width="512pt" xmlns="http://www.w3.org/2000/svg"><path d="m0 256c0-141.386719 114.613281-256 256-256s256 114.613281 256 256c0 70.691406-28.652344 134.691406-74.980469 181.019531s-110.328125-4.019531-181.019531-4.019531c-70.355469 0-134.082031 50.617188-180.355469 4.679688-46.71875-46.378907-75.644531-110.652344-75.644531-181.679688zm0 0" fill="#ff0335"/><path d="m256 433c70.691406 0 134.691406 50.347656 181.019531 4.019531s74.980469-110.328125 74.980469-181.019531c0-8.09375-.394531-16.09375-1.128906-23.992188l-164.480469-164.484374c-35.914063-40.738282-86.734375-38.140626-90.632813-37.773438-6.078124-.570312-126.09375-6.566406-126.09375 154.46875v142.632812c-30.949218 7.226563-54.015624 34.976563-54.015624 68.132813v42.6875c.398437.394531.808593.777344 1.210937 1.167969 46.171875 43.882812 109.398437-5.839844 179.140625-5.839844zm0 0" fill="#c2001b"/><path d="m255.757812 29.75c-6.078124-.570312-126.09375-6.566406-126.09375 154.46875v200.78125h252.183594s0-178.667969 0-200.78125c0-161.035156-120.015625-155.039062-126.089844-154.46875zm0 0" fill="#ffec97"/><path d="m381.851562 184.21875v200.78125h-125.851562v-355.269531c8.441406-.660157 125.851562-4.789063 125.851562 154.488281zm0 0" fill="#ffdf47"/><path d="m312.050781 259.246094h-112.101562l-11.09375 69.253906h134.289062zm0 0" fill="#00acea"/><path d="m323.148438 328.5h-67.148438v-69.25h56.050781zm0 0" fill="#0082d1"/><path d="m287.917969 53.203125c46.703125 16.523437 75.035156 63.921875 69.132812 113.109375-1.785156 14.882812-4.746093 34.371094-8.800781 43.769531-.175781.40625-.335938.824219-.488281 1.242188-25.578125 65.503906-66.476563 82.449219-91.761719 86.316406-25.285156-3.867187-66.183594-20.8125-91.761719-86.316406-.152343-.417969-.3125-.835938-.488281-1.242188-5.472656-12.699219-8.957031-43.816406-10.25-57.109375-.4375-4.535156-.40625-9.105468.199219-13.628906 7.839843-58.707031 59.351562-91.84375 102.300781-91.84375 10.382812 0 21.269531 1.9375 31.917969 5.703125zm0 0" fill="#7fc8f1"/><path d="m290.375 54.105469c45.230469 17.265625 72.457031 63.707031 66.726562 111.78125-1.777343 14.9375-4.757812 34.707031-8.851562 44.195312-.199219.457031-.386719.929688-.542969 1.40625-25.597656 65.371094-66.429687 82.292969-91.707031 86.152344v-250.140625c11.1875 0 22.949219 2.246094 34.375 6.605469zm0 0" fill="#00acea"/><path d="m366.367188 325h-220.734376c-38.648437 0-69.984374 31.332031-69.984374 69.984375v42.6875c46.277343 45.941406 109.996093 74.328125 180.351562 74.328125s134.074219-28.386719 180.351562-74.328125v-42.6875c0-38.652344-31.335937-69.984375-69.984374-69.984375zm0 0" fill="#7fc8f1"/><path d="m436.351562 394.980469v42.691406c-46.273437 45.9375-109.992187 74.328125-180.351562 74.328125v-187h110.371094c21.457031 0 40.660156 9.648438 53.480468 24.859375 10.296876 12.179687 16.5 27.929687 16.5 45.121094zm0 0" fill="#00acea"/><path d="m123.800781 413.328125v61.933594c9.601563 5.800781 19.625 10.976562 30 15.5v-77.433594zm0 0" fill="#00acea"/><path d="m358.199219 413.328125v77.433594c10.375-4.523438 20.398437-9.699219 30-15.5v-61.933594zm0 0" fill="#0082d1"/><path d="m365.515625 161.5h-220v-8.910156c0-60.527344 49.0625-109.589844 109.589844-109.589844h.816406c60.527344 0 109.59375 49.066406 109.59375 109.589844zm0 0" fill="#ffec97"/><path d="m365.511719 152.589844v8.910156h-109.511719v-118.5c60.488281.039062 109.511719 49.089844 109.511719 109.589844zm0 0" fill="#ffdf47"/><path d="m242.628906 195.53125c-.042968-.128906-10.390625-19.546875-29.101562-24.011719-18.707032-4.464843-36.808594 8.285157-36.808594 8.285157l.109375.023437c.042969.132813 11.464844 19.808594 29.101563 24.015625 17.632812 4.210938 36.808593-8.285156 36.808593-8.285156zm0 0" fill="#00acea"/><path d="m230.710938 192.6875c-.027344-.078125-6.832032-11.601562-18.765626-14.449219-11.933593-2.847656-23.269531 4.414063-23.269531 4.414063l.070313.019531c.027344.074219 7.519531 11.761719 18.765625 14.445313 11.246093 2.6875 23.269531-4.414063 23.269531-4.414063zm0 0" fill="#fff"/><path d="m268.402344 195.53125c.042968-.128906 10.386718-19.546875 29.097656-24.011719 18.710938-4.464843 36.8125 8.285157 36.8125 8.285157l-.113281.023437c-.042969.132813-11.460938 19.808594-29.097657 24.015625-17.632812 4.210938-36.808593-8.285156-36.808593-8.285156zm0 0" fill="#0082d1"/><path d="m280.316406 192.6875c.03125-.078125 6.835938-11.601562 18.769532-14.449219 11.929687-2.847656 23.269531 4.414063 23.269531 4.414063l-.070313.019531c-.03125.074219-7.519531 11.761719-18.765625 14.445313-11.25 2.6875-23.273437-4.414063-23.273437-4.414063zm0 0" fill="#fff5cb"/><path d="m226.296875 234.917969c-31.289063.679687-51.308594-12.34375-60.917969-20.742188 6.34375 15.625 13.570313 28.386719 21.234375 38.816407 23.847657-1.164063 39.683594-18.074219 39.683594-18.074219zm0 0" fill="#00acea"/><path d="m284.730469 234.917969s16.253906 17.359375 40.628906 18.113281c7.890625-10.734375 15.320313-23.949219 21.800781-40.210938-8.925781 8.269532-29.40625 22.816407-62.429687 22.097657zm0 0" fill="#0082d1"/><path d="m186.753906 358.425781c-27.824218-2.679687-50.695312-16.476562-66.042968-28.839843-15.03125 5.730468-27.570313 16.492187-35.574219 30.226562 51.347656 20.390625 101.617187-1.386719 101.617187-1.386719zm0 0" fill="#00acea"/><path d="m426.863281 359.816406c-8.003906-13.738281-20.542969-24.5-35.574219-30.230468-15.347656 12.363281-38.222656 26.160156-66.042968 28.839843 0 0 50.269531 21.777344 101.617187 1.390625zm0 0" fill="#0082d1"/><path d="m256 365 11.597656 28.246094 30.257813-4.082032-18.664063 24.164063 18.664063 24.167969-30.257813-4.082032-11.597656 28.246094-11.597656-28.246094-30.257813 4.082032 18.664063-24.167969-18.664063-24.164063 30.257813 4.082032zm0 0" fill="#fff"/><path d="m279.191406 413.328125 18.667969 24.160156-30.257813-4.078125-11.601562 28.25v-96.660156l8.210938 20 3.390624 8.25 30.257813-4.078125zm0 0" fill="#fff5cb"/><path d="m270.75 413.328125c0 8.148437-6.605469 14.75-14.75 14.75s-14.75-6.601563-14.75-14.75c0-8.144531 6.605469-14.75 14.75-14.75s14.75 6.605469 14.75 14.75zm0 0" fill="#ffec97"/><path d="m270.75 413.328125c0 8.152344-6.601562 14.75-14.75 14.75v-29.5c8.148438 0 14.75 6.601563 14.75 14.75zm0 0" fill="#ffdf47"/></svg>