<svg height="512pt" viewBox="0 0 512 512" width="512pt" xmlns="http://www.w3.org/2000/svg"><path d="m0 256c0-141.386719 114.613281-256 256-256s256 114.613281 256 256c0 70.691406-28.652344 134.691406-74.980469 181.019531s-110.328125-4.019531-181.019531-4.019531c-70.355469 0-134.082031 50.617188-180.355469 4.679688-46.71875-46.378907-75.644531-110.652344-75.644531-181.679688zm0 0" fill="#d9d9db"/><path d="m256 433c70.691406 0 134.691406 50.347656 181.019531 4.019531s74.980469-110.328125 74.980469-181.019531c0-14.269531-1.1875-28.261719-3.433594-41.894531l-140.742187-140.746094-36.195313 18.046875-75.628906-59.40625-75.628906 59.40625-36.195313-18.046875 17.125 94.910156h-20.300781l3.761719 27.160157 1.367187 12.617187c.5625 5.199219 3.015625 9.75 6.59375 13.0625l29.902344 29.78125c5.648438 10.054687 11.734375 18.371094 17.996094 25.226563h-.671875l-10.355469 48.882812h-43.960938c-38.648437 0-69.984374 31.332031-69.984374 69.984375v42.6875c.015624.015625.035156.042969.046874.058594 46.269532 45.847656 109.976563-4.730469 180.304688-4.730469zm0 0" fill="#c8c6cc"/><path d="m312.050781 276.117188h-112.101562l-11.09375 52.382812h134.289062zm0 0" fill="#c06200"/><path d="m323.148438 328.5h-67.148438v-52.378906h56.050781zm0 0" fill="#9a4c00"/><path d="m350.699219 168.269531c-3.953125-58.203125-53.589844-91.238281-94.699219-91.238281-41.105469 0-90.742188 33.035156-94.699219 91.238281-10.636719 1.992188-18.1875 11.933594-17 22.867188l1.832031 16.910156c1.242188 11.476563 11.644532 19.847656 23.121094 18.601563l1.972656-.210938c23.488282 61.136719 61.390626 76.878906 84.773438 80.453125 23.382812-3.574219 61.285156-19.316406 84.773438-80.453125l1.976562.210938c11.472656 1.246093 21.878906-7.125 23.121094-18.601563l1.832031-16.910156c1.183594-10.933594-6.367187-20.875-17.003906-22.867188zm0 0" fill="#e67500"/><path d="m144.761719 195.429688h27.238281v-27.160157h-31zm0 0" fill="#009ae5"/><path d="m367.699219 191.136719-1.832031 16.914062c-1.242188 11.472657-11.640626 19.839844-23.113282 18.59375l-1.976562-.210937c-23.492188 61.140625-61.390625 76.882812-84.777344 80.460937v-229.859375c41.113281 0 90.742188 33.03125 94.695312 91.234375 10.644532 1.996094 18.191407 11.933594 17.003907 22.867188zm0 0" fill="#c06200"/><path d="m367.238281 195.429688h-27.238281v-27.160157h31zm0 0" fill="#0070b4"/><path d="m314.324219 176.203125h-58.324219v68.589844h20.71875v-49.363281h37.605469zm0 0" fill="#9a4c00"/><path d="m190.804688 176.203125h52.320312v19.226563h-52.320312zm0 0" fill="#c06200"/><path d="m366.367188 325h-220.734376c-38.648437 0-69.984374 31.332031-69.984374 69.984375v42.6875c46.277343 45.941406 109.996093 74.328125 180.351562 74.328125s134.074219-28.386719 180.351562-74.328125v-42.6875c0-38.652344-31.335937-69.984375-69.984374-69.984375zm0 0" fill="#7fc8f1"/><path d="m436.351562 394.980469v42.691406c-46.273437 45.9375-109.992187 74.328125-180.351562 74.328125v-187h110.371094c21.457031 0 40.660156 9.648438 53.480468 24.859375 10.296876 12.179687 16.5 27.929687 16.5 45.121094zm0 0" fill="#009ae5"/><path d="m123.800781 413.328125v61.933594c9.601563 5.800781 19.625 10.976562 30 15.5v-77.433594zm0 0" fill="#00acea"/><path d="m358.199219 413.328125v77.433594c10.375-4.523438 20.398437-9.699219 30-15.5v-61.933594zm0 0" fill="#0082d1"/><path d="m316.464844 425.304688c0 33.394531-27.070313 60.464843-60.464844 60.464843s-60.464844-27.070312-60.464844-60.464843c0-33.394532 27.070313-60.464844 60.464844-60.464844s60.464844 27.070312 60.464844 60.464844zm0 0" fill="#009ae5"/><path d="m316.460938 425.300781c0 33.398438-27.070313 60.46875-60.460938 60.46875v-120.929687c33.390625 0 60.460938 27.070312 60.460938 60.460937zm0 0" fill="#0070b4"/><path d="m294.304688 425.304688c0 21.15625-17.148438 38.304687-38.304688 38.304687s-38.304688-17.148437-38.304688-38.304687 17.148438-38.304688 38.304688-38.304688 38.304688 17.148438 38.304688 38.304688zm0 0" fill="#fff"/><path d="m294.300781 425.300781c0 21.160157-17.140625 38.308594-38.300781 38.308594v-76.609375c21.160156 0 38.300781 17.148438 38.300781 38.300781zm0 0" fill="#fff5cb"/><path d="m331.628906 91.40625-75.628906-59.40625-75.632812 59.40625-36.191407-18.046875 17.125 94.910156 45.832031-38.535156 48.867188 28.746094 48.867188-28.746094 45.832031 38.535156 17.125-94.910156zm0 0" fill="#fff"/><path d="m367.820312 73.359375-17.121093 94.910156-45.828125-38.539062-48.871094 28.75v-126.480469l75.628906 59.410156zm0 0" fill="#fff5cb"/><path d="m340.773438 226.433594h-169.546876l-9.925781-58.164063h189.398438zm0 0" fill="#7fc8f1"/><path d="m350.699219 168.269531-9.929688 58.160157h-84.769531v-58.160157zm0 0" fill="#00acea"/><path d="m238.234375 195.429688-40.667969-14.082032v28.164063h40.667969zm0 0" fill="#fff"/><path d="m273.765625 195.429688 40.667969-14.082032v28.164063h-40.667969zm0 0" fill="#fff5cb"/></svg>