<svg height="512pt" viewBox="0 0 512 512" width="512pt" xmlns="http://www.w3.org/2000/svg"><path d="m512 256c0 83.179688-39.671875 157.089844-101.128906 203.851562-43 32.71875-96.671875-16.523437-154.871094-16.523437s-111.871094 49.242187-154.871094 16.523437c-61.457031-46.761718-101.128906-120.671874-101.128906-203.851562 0-141.378906 114.621094-256 256-256s256 114.621094 256 256zm0 0" fill="#aeadb3"/><path d="m256 443.328125c58.199219 0 111.871094 49.242187 154.871094 16.523437 61.457031-46.761718 101.128906-120.671874 101.128906-203.851562 0-22.046875-2.789062-43.445312-8.03125-63.859375l-137.585938-137.585937-55.996093 28.964843c-20.242188-2.671875-35.609375-4.292969-44.761719-5.167969-6.40625-.613281-12.84375-.613281-19.25 0-9.152344.875-24.519531 2.496094-44.761719 5.167969l-55.996093-28.960937 12.902343 66.292968s-9.3125 59.191407 11.21875 97.175782v118.242187h-8.898437c-32.859375 0-59.710938 26.871094-59.710938 59.699219v63.882812c43 32.71875 96.671875-16.523437 154.871094-16.523437zm0 0" fill="#8b8992"/><path d="m169.738281 211.335938h172.460938v131.664062h-172.460938zm0 0" fill="#ffec97"/><path d="m255.96875 211.332031h86.234375v131.667969h-86.234375zm0 0" fill="#ffdb2d"/><path d="m217 283.351562h78.003906v59.648438h-78.003906zm0 0" fill="#ffc473"/><path d="m256 283.351562h39.003906v59.648438h-39.003906zm0 0" fill="#ffaa20"/><path d="m284.648438 88.167969c41.960937 14.847656 67.421874 57.433593 62.121093 101.632812-1.605469 13.371094-4.265625 30.882813-7.910156 39.328125-.160156.363282-.300781.738282-.441406 1.113282-22.980469 58.859374-59.726563 74.085937-82.449219 77.5625-22.722656-3.476563-59.464844-18.703126-82.449219-77.5625-.140625-.375-.28125-.75-.441406-1.113282-4.917969-11.410156-8.046875-39.371094-9.210937-51.316406-.390626-4.074219-.363282-8.179688.179687-12.246094 7.046875-52.75 53.332031-82.523437 91.921875-82.523437 9.332031 0 19.109375 1.742187 28.679688 5.125zm0 0" fill="#ffdba9"/><path d="m286.855469 88.980469c40.640625 15.511719 65.105469 57.238281 59.957031 100.4375-1.597656 13.421875-4.277344 31.183593-7.953125 39.710937-.179687.410156-.347656.835938-.488281 1.265625-23.003906 58.734375-59.691406 73.941407-82.402344 77.410157v-224.761719c10.050781 0 20.621094 2.019531 30.886719 5.9375zm0 0" fill="#ffc473"/><path d="m308.675781 187.054688h-52.675781v61.945312h18.714844v-44.582031h33.960937zm0 0" fill="#ffaa20"/><path d="m410.871094 395.96875v63.882812c-43 32.71875-96.671875 52.148438-154.871094 52.148438s-111.871094-19.429688-154.871094-52.148438v-63.882812c0-32.828125 26.851563-59.699219 59.710938-59.699219h190.582031c32.726563.140625 59.449219 26.960938 59.449219 59.699219zm0 0" fill="#005ed3"/><path d="m410.871094 395.96875v63.882812c-43 32.71875-96.671875 52.148438-154.871094 52.148438v-175.730469h95.421875c32.726563.140625 59.449219 26.960938 59.449219 59.699219zm0 0" fill="#00459f"/><path d="m168.601562 413.328125v83.363281c-10.332031-3.75-20.339843-8.152344-30-13.140625v-70.222656zm0 0" fill="#00459f"/><path d="m373.398438 413.328125v70.222656c-9.660157 4.988281-19.667969 9.390625-30 13.140625v-83.363281zm0 0" fill="#002d6b"/><path d="m366.382812 54.554688-55.996093 28.964843c-20.242188-2.671875-35.609375-4.292969-44.761719-5.167969-6.40625-.613281-12.84375-.613281-19.25 0-9.152344.875-24.519531 2.496094-44.761719 5.167969l-55.996093-28.964843 12.902343 66.296874s-9.3125 59.1875 11.21875 97.175782h172.460938c20.53125-37.988282 11.277343-97.175782 11.277343-97.175782zm0 0" fill="#005ed3"/><path d="m353.480469 120.851562s9.25 59.1875-11.28125 97.179688h-86.199219v-140.140625c3.210938 0 6.421875.148437 9.621094.460937 9.160156.878907 24.527344 2.5 44.769531 5.167969l55.988281-28.960937zm0 0" fill="#00459f"/><path d="m246.890625 187.265625c-.042969-.128906-10.15625-19.117187-28.453125-23.484375s-35.996094 8.101562-35.996094 8.101562l.109375.023438c.042969.128906 11.207031 19.367188 28.453125 23.484375s35.996094-8.101563 35.996094-8.101563zm0 0" fill="#fff"/><path d="m235.238281 184.480469c-.027343-.074219-6.679687-11.34375-18.347656-14.128907-11.667969-2.785156-22.753906 4.316407-22.753906 4.316407l.066406.015625c.03125.078125 7.351563 11.503906 18.351563 14.128906 10.996093 2.625 22.753906-4.316406 22.753906-4.316406zm0 0" fill="#ff0335"/><path d="m265.109375 187.265625c.042969-.128906 10.15625-19.117187 28.453125-23.484375s35.996094 8.101562 35.996094 8.101562l-.105469.023438c-.042969.128906-11.210937 19.367188-28.457031 23.484375s-35.996094-8.101563-35.996094-8.101563zm0 0" fill="#fff6c7"/><path d="m276.761719 184.480469c.027343-.074219 6.679687-11.34375 18.347656-14.128907 11.667969-2.785156 22.753906 4.316407 22.753906 4.316407l-.066406.015625c-.03125.078125-7.351563 11.503906-18.351563 14.128906-10.996093 2.625-22.753906-4.316406-22.753906-4.316406zm0 0" fill="#c2001b"/><path d="m256 381.246094 11.757812 28.722656 30.753907-4.179688-18.996094 24.542969 18.996094 24.542969-30.753907-4.179688-11.757812 28.726563-11.757812-28.726563-30.753907 4.179688 18.996094-24.542969-18.996094-24.542969 30.753907 4.179688zm0 0" fill="#ffec97"/><path d="m279.511719 430.328125 19 24.550781-30.75-4.179687-11.761719 28.722656v-98.171875l11.761719 28.71875 30.75-4.179688zm0 0" fill="#ffdb2d"/></svg>