<svg height="512pt" viewBox="0 0 512 512" width="512pt" xmlns="http://www.w3.org/2000/svg"><path d="m512 256c0 141.386719-114.613281 256-256 256s-256-114.613281-256-256 114.613281-256 256-256 256 114.613281 256 256zm0 0" fill="#e7001f"/><path d="m512 256c0-14.128906-1.164062-27.980469-3.363281-41.484375l-80.992188-80.992187c-12.578125 39.582031-49.839843 54.515624-65.03125 59.0625-19.878906-9.53125-44.550781-6.101563-60.96875 10.316406l-37.011719 37.011718c-.035156.035157-.070312.070313-.105468.105469-4.730469 4.757813-12.320313 4.757813-17.050782.003907l-37.121093-37.121094c-16.421875-16.417969-41.089844-19.847656-60.972657-10.316406-3.082031-.925782-7.070312-2.273438-11.582031-4.171876l-53.449219-54.886718s-16.257812 39.195312-6.195312 75.285156c-10.179688-4.15625-20.316406-10.574219-29.234375-20.296875 0 0-5.503906 47.597656 21.734375 75.492187l11.617188 11.621094c-.550782 14.371094 4.609374 28.925782 15.515624 39.835938l194.03125 194.027344c124.421876-17.421876 220.179688-124.265626 220.179688-253.492188zm0 0" fill="#901"/><path d="m155.941406 194.273438s-55.640625-10.570313-71.585937-60.75c0 0-16.257813 39.195312-6.199219 75.289062-10.179688-4.15625-20.3125-10.574219-29.234375-20.296875 0 0-9.824219 84.898437 61.648437 94.382813zm0 0" fill="#009ae5"/><path d="m356.058594 194.273438s55.640625-10.570313 71.585937-60.75c0 0 16.257813 39.195312 6.199219 75.289062 10.179688-4.15625 20.3125-10.574219 29.234375-20.296875 0 0 9.824219 84.898437-61.648437 94.382813zm0 0" fill="#0070b4"/><path d="m414.207031 239.914062-37.011719-37.011718c-20.777343-20.777344-54.773437-20.777344-75.550781 0l-37.011719 37.011718c-.035156.035157-.070312.070313-.105468.105469-4.730469 4.757813-12.324219 4.757813-17.058594 0-.035156-.035156-.066406-.070312-.101562-.105469l-37.015626-37.011718c-20.777343-20.777344-54.773437-20.777344-75.550781 0l-37.011719 37.011718c-20.777343 20.777344-20.777343 54.773438 0 75.550782l54.742188 54.742187c11.023438 11.023438 29.066406 11.023438 40.09375 0l54.738281-54.742187c.035157-.035156.070313-.066406.105469-.101563 4.730469-4.761719 12.324219-4.761719 17.058594 0 .035156.035157.066406.066407.101562.101563l54.742188 54.742187c11.027344 11.023438 29.070312 11.023438 40.09375 0l54.742187-54.742187c20.777344-20.777344 20.777344-54.773438 0-75.550782zm0 0" fill="#4fbbef"/><path d="m414.210938 315.46875-54.742188 54.742188c-11.027344 11.019531-29.070312 11.019531-40.097656 0l-54.742188-54.742188c-.027344-.039062-.070312-.070312-.097656-.109375-2.371094-2.378906-5.453125-3.570313-8.53125-3.570313v-68.199218c3.078125 0 6.160156-1.191406 8.53125-3.570313.027344-.039062.070312-.070312.097656-.109375l37.011719-37.011718c20.78125-20.769532 54.78125-20.769532 75.558594 0l37.011719 37.011718c20.769531 20.78125 20.769531 54.78125 0 75.558594zm0 0" fill="#009ae5"/><path d="m174.941406 325.304688c-29.476562 0-53.453125-23.980469-53.453125-53.453126 0-4.378906.539063-8.753906 1.601563-13l3.925781-15.679687 103.496094 34.289063-6.210938 14.917968c-8.324219 20-27.699219 32.925782-49.359375 32.925782zm0 0" fill="#009ae5"/><path d="m136.488281 271.851562c0 21.234376 17.214844 38.453126 38.453125 38.453126 16.003906 0 29.722656-9.78125 35.511719-23.691407l-72.8125-24.121093c-.75 2.996093-1.152344 6.128906-1.152344 9.359374zm0 0" fill="#fff"/><path d="m337.058594 325.304688c-21.660156 0-41.03125-12.925782-49.359375-32.925782l-6.207031-14.917968 103.492187-34.289063 3.925781 15.679687c1.0625 4.246094 1.605469 8.621094 1.605469 13-.003906 29.472657-23.980469 53.453126-53.457031 53.453126zm0 0" fill="#0070b4"/><path d="m375.511719 271.851562c0 21.234376-17.214844 38.453126-38.453125 38.453126-16.003906 0-29.71875-9.78125-35.507813-23.691407l72.808594-24.121093c.75 2.996093 1.152344 6.128906 1.152344 9.359374zm0 0" fill="#fff5cb"/></svg>