<svg height="512pt" viewBox="0 0 512 512" width="512pt" xmlns="http://www.w3.org/2000/svg"><path d="m512 256c0 141.386719-114.613281 256-256 256s-256-114.613281-256-256 114.613281-256 256-256 256 114.613281 256 256zm0 0" fill="#d9d9db"/><path d="m512 256c0-32.972656-6.238281-64.488281-17.59375-93.4375l-90.210938-90.210938c-24.507812 60.765626-77.492187 113.351563-148.195312 140.929688-2.507812-.976562-4.988281-1.988281-7.445312-3.035156l-140.75-137.894532s-4.230469 65.304688 28.015624 127.902344l-45.375-43.296875c-6.570312 16.78125-11.28125 32.445313-14.394531 47.078125-7.867187-6.765625-12.117187-11.085937-12.117187-11.085937-31.675782 83.890625-8.5 139.148437 31.1875 175.316406l143.109375 143.109375c5.871093.402344 11.792969.625 17.769531.625 141.386719 0 256-114.613281 256-256zm0 0" fill="#c8c6cc"/><path d="m404.195312 72.351562c-24.507812 60.765626-77.492187 113.351563-148.195312 140.929688-70.703125-27.578125-123.691406-80.164062-148.195312-140.929688 0 0-11.519532 177.703126 148.195312 227.824219 159.710938-50.121093 148.195312-227.824219 148.195312-227.824219zm0 0" fill="#78777f"/><path d="m376.179688 200.261719c-13.769532 26.71875-34.191407 52.957031-64.429688 73.410156-15.761719 10.65625-34.199219 19.75-55.75 26.507813v-86.898438c70.699219-27.582031 123.6875-80.160156 148.199219-140.929688 0 0 4.230469 65.308594-28.019531 127.910157zm0 0" fill="#57555c"/><path d="m448.0625 192.949219s-80.929688 82.40625-192.0625 91.5625c-111.132812-9.15625-192.066406-91.5625-192.066406-91.5625-80.328125 212.746093 192.066406 241.382812 192.066406 241.382812s272.394531-28.636719 192.0625-241.382812zm0 0" fill="#ffe670"/><path d="m256 434.328125v-149.816406c19.617188-1.621094 38.289062-5.523438 55.75-10.839844 58.789062-17.941406 103.738281-52.050781 124.199219-69.621094 7.878906-6.78125 12.121093-11.101562 12.121093-11.101562 80.320313 212.742187-192.070312 241.378906-192.070312 241.378906zm0 0" fill="#fec000"/><path d="m421.550781 156.957031s-88.144531 100.179688-165.550781 100.179688c-77.410156 0-165.554688-100.179688-165.554688-100.179688-89.835937 229.441407 165.554688 251.523438 165.554688 251.523438s255.390625-22.082031 165.550781-251.523438zm0 0" fill="#ff0335"/><path d="m256 408.480469v-151.339844c42.210938 0 87.617188-29.789063 120.179688-56.878906 27.148437-22.589844 45.371093-43.300781 45.371093-43.300781 6.566407 16.777343 11.296875 32.449218 14.398438 47.089843 39.449219 185.460938-179.949219 204.429688-179.949219 204.429688zm0 0" fill="#c2001b"/><path d="m273.148438 327.230469c.066406-.269531 17.308593-41.613281 54.375-54.253907 37.066406-12.640624 76.199218 9.730469 76.199218 9.730469l-.21875.074219c-.0625.273438-19.4375 42.339844-54.371094 54.253906-34.9375 11.917969-76.199218-9.730468-76.199218-9.730468zm0 0" fill="#57555c"/><path d="m296.253906 318.257812c.046875-.136718 11.238282-20.671874 31.910156-26.363281 20.671876-5.691406 40.910157 6.316407 40.910157 6.316407l-.121094.03125c-.046875.136718-12.425781 21-31.910156 26.363281s-40.910157-6.316407-40.910157-6.316407zm0 0" fill="#fff5cb"/><path d="m238.847656 327.230469c-.0625-.269531-17.308594-41.613281-54.371094-54.253907-37.066406-12.640624-76.199218 9.730469-76.199218 9.730469l.214844.074219c.066406.273438 19.4375 42.339844 54.375 54.253906 34.9375 11.917969 76.199218-9.730468 76.199218-9.730468zm0 0" fill="#78777f"/><path d="m215.746094 318.257812c-.046875-.136718-11.242188-20.671874-31.914063-26.363281-20.671875-5.691406-40.910156 6.316407-40.910156 6.316407l.121094.03125c.046875.136718 12.429687 21 31.914062 26.363281s40.910157-6.316407 40.910157-6.316407zm0 0" fill="#fff"/></svg>