<svg height="512pt" viewBox="0 0 512 512" width="512pt" xmlns="http://www.w3.org/2000/svg"><path d="m512 256c0 141.386719-114.613281 256-256 256s-256-114.613281-256-256 114.613281-256 256-256 256 114.613281 256 256zm0 0" fill="#fff6c7"/><path d="m512 256c0-24.84375-3.550781-48.851562-10.152344-71.5625l-83.4375-83.4375h-324.820312s-44.410156 175.671875 77.386718 291.671875l117.308594 117.308594c126.144532-15.875 223.714844-123.53125 223.714844-253.980469zm0 0" fill="#ffec97"/><path d="m418.410156 101h-324.820312s-62.195313 245.980469 162.410156 348c224.601562-102.019531 162.410156-348 162.410156-348zm0 0" fill="#004eb1"/><path d="m256 449v-348h162.410156s62.191406 245.980469-162.410156 348zm0 0" fill="#002d6b"/><path d="m256 405.445312-6.148438-2.761718c-85.90625-38.601563-114.050781-105.984375-122.53125-155.714844-9.058593-53.101562 1.863282-96.847656 2.332032-98.683594l2.882812-11.285156h246.929688l2.882812 11.285156c.46875 1.835938 11.390625 45.582032 2.332032 98.683594-8.480469 49.730469-36.625 117.113281-122.53125 155.714844zm-99.425781-238.445312c-2.359375 15.148438-5.136719 43.882812.492187 75.933594 10.394532 59.191406 43.667969 102.734375 98.933594 129.515625 55.597656-26.9375 88.925781-70.816407 99.105469-130.523438 5.429687-31.824219 2.691406-59.996093.34375-74.925781zm0 0" fill="#7fc8f1"/><path d="m382.351562 148.289062-2.890624-11.289062h-123.460938v30h99.449219c2.351562 14.929688 5.089843 43.101562-.339844 74.921875-10.1875 59.707031-43.507813 103.589844-99.109375 130.527344v32.992187l6.148438-2.761718c85.902343-38.601563 114.050781-105.980469 122.53125-155.710938 9.058593-53.097656-1.859376-96.847656-2.328126-98.679688zm0 0" fill="#00acea"/><path d="m256.015625 190.332031 18.851563 41.015625 44.832031 5.257813-33.179688 30.605469 8.855469 44.261718-39.359375-22.097656-39.363281 22.097656 8.855468-44.261718-33.183593-30.605469 44.835937-5.257813zm0 0" fill="#ffdf47"/><path d="m286.519531 267.210938 8.851563 44.257812-39.359375-22.089844-.011719.011719v-99.039063l.011719-.023437 18.859375 41.023437 44.828125 5.25zm0 0" fill="#ff9a00"/></svg>