<svg height="512pt" viewBox="0 0 512 512" width="512pt" xmlns="http://www.w3.org/2000/svg"><path d="m512 256c0 83.179688-39.671875 157.089844-101.128906 203.851562-43 32.71875-96.671875-16.523437-154.871094-16.523437s-111.871094 49.242187-154.871094 16.523437c-61.457031-46.761718-101.128906-120.671874-101.128906-203.851562 0-141.378906 114.621094-256 256-256s256 114.621094 256 256zm0 0" fill="#7fc8f1"/><path d="m256 443.328125c58.199219 0 111.871094 49.242187 154.871094 16.523437 61.457031-46.761718 101.128906-120.671874 101.128906-203.851562 0-6.101562-.226562-12.144531-.648438-18.136719l-165.546874-165.917969c-8.429688-9.257812-19.125-16.261718-30.878907-20.945312-26.515625-10.566406-58.921875-9-58.925781-9-.007812 0-32.414062-1.566406-58.929688 9-27.707031 11.039062-49.570312 34.976562-49.570312 71 0 12.921875 1.390625 26.359375 3.34375 39.851562-8.273438 3.921876-13.609375 12.761719-12.570312 22.339844l1.929687 17.828125c.585937 5.410157 3.109375 10.160157 6.804687 13.640625l14.726563 13.574219c4.085937 33.695313 1.875 61.695313-23.59375 74.265625l31.859375 32.769531h-9.160156c-32.859375 0-59.710938 26.871094-59.710938 59.699219v63.882812c43 32.71875 96.671875-16.523437 154.871094-16.523437zm0 0" fill="#00acea"/><path d="m364.5 122c0-36.023438-21.863281-59.960938-49.570312-71-26.515626-10.566406-58.921876-9-58.929688-9s-32.414062-1.566406-58.929688 9c-27.707031 11.039062-49.570312 34.976562-49.570312 71 0 70.5 41.285156 156.5-9.355469 181.5 0 0 44.355469 23.824219 117.855469 23.824219s117.855469-23.824219 117.855469-23.824219c-50.640625-25-9.355469-111-9.355469-181.5zm0 0" fill="#3c3b41"/><path d="m373.859375 303.5s-11.089844 5.960938-31.371094 11.921875c-20.269531 5.949219-49.738281 11.90625-86.488281 11.90625v-285.328125c.011719 0 32.410156-1.570312 58.929688 9 27.699218 11.039062 49.570312 34.980469 49.570312 71 0 70.5-41.289062 156.5 9.359375 181.5zm0 0" fill="#2a2a2c"/><path d="m217 283.351562h78.003906v59.648438h-78.003906zm0 0" fill="#ffc473"/><path d="m256 283.351562h39.003906v59.648438h-39.003906zm0 0" fill="#ffaa20"/><path d="m355.808594 160.09375c-4.167969-61.34375-56.484375-96.160156-99.808594-96.160156s-95.640625 34.816406-99.808594 96.160156c-11.210937 2.101562-19.167968 12.578125-17.917968 24.097656l1.929687 17.828125c1.308594 12.089844 12.273437 20.914063 24.367187 19.601563l2.082032-.222656c24.757812 64.4375 64.703125 81.027343 89.347656 84.792968 24.644531-3.765625 64.59375-20.355468 89.347656-84.792968l2.082032.222656c12.09375 1.3125 23.058593-7.511719 24.367187-19.601563l1.929687-17.828125c1.25-11.519531-6.707031-21.996094-17.917968-24.097656zm0 0" fill="#ffdba9"/><path d="m373.726562 184.191406-1.929687 17.832032c-1.3125 12.089843-12.273437 20.90625-24.363281 19.597656l-2.082032-.222656c-24.757812 64.4375-64.707031 81.03125-89.351562 84.796874v-242.257812c43.328125 0 95.640625 34.816406 99.804688 96.15625 11.214843 2.105469 19.171874 12.578125 17.921874 24.097656zm0 0" fill="#ffc473"/><path d="m256 63.859375c-.007812 0-102.398438-17.523437-99.808594 96.234375 0 0 68.59375.902344 99.808594-41.417969 31.21875 42.320313 99.808594 41.417969 99.808594 41.417969 2.589844-113.757812-99.800782-96.234375-99.808594-96.234375zm0 0" fill="#57555c"/><path d="m355.808594 160.089844s-68.589844.910156-99.808594-41.417969v-54.8125c.011719 0 102.398438-17.519531 99.808594 96.230469zm0 0" fill="#57555c"/><path d="m310.5625 182.734375h-54.5625v64.160156h19.382812v-46.175781h35.179688zm0 0" fill="#ffaa20"/><path d="m355.808594 160.097656h-199.617188l36.6875 60.9375c9.550782 14.492188 30.8125 14.492188 40.359375 0l22.761719-34.550781 22.761719 34.550781c9.546875 14.496094 30.8125 14.496094 40.359375 0zm0 0" fill="#fff"/><path d="m355.808594 160.101562-36.6875 60.929688c-9.550782 14.5-30.8125 14.5-40.359375 0l-22.761719-34.550781v-26.378907zm0 0" fill="#fff5cb"/><path d="m410.871094 395.96875v63.882812c-43 32.71875-96.671875 52.148438-154.871094 52.148438s-111.871094-19.429688-154.871094-52.148438v-63.882812c0-32.828125 26.851563-59.699219 59.710938-59.699219h190.582031c32.726563.140625 59.449219 26.960938 59.449219 59.699219zm0 0" fill="#57555c"/><path d="m410.871094 395.96875v63.882812c-43 32.71875-96.671875 52.148438-154.871094 52.148438v-175.730469h95.421875c32.726563.140625 59.449219 26.960938 59.449219 59.699219zm0 0" fill="#3c3b41"/><path d="m168.601562 413.328125v83.363281c-10.332031-3.75-20.339843-8.152344-30-13.140625v-70.222656zm0 0" fill="#3c3b41"/><path d="m373.398438 413.328125v70.222656c-9.660157 4.988281-19.667969 9.390625-30 13.140625v-83.363281zm0 0" fill="#2a2a2c"/><path d="m194.4375 185.183594c0 11.925781 9.671875 21.59375 21.597656 21.59375 8.988282 0 16.691406-5.492188 19.941406-13.304688l-40.890624-13.546875c-.421876 1.683594-.648438 3.441407-.648438 5.257813zm0 0" fill="#ff738e"/><path d="m314.929688 185.183594c0 11.925781-9.671876 21.59375-21.597657 21.59375-8.988281 0-16.691406-5.492188-19.941406-13.304688l40.890625-13.546875c.417969 1.683594.648438 3.441407.648438 5.257813zm0 0" fill="#ff0335"/><path d="m287.699219 402.042969c-8.976563-5.109375-21.910157-.019531-31.699219 11.488281-9.789062-11.507812-22.722656-16.597656-31.699219-11.488281-10.960937 6.238281-11.875 25.300781-2.042969 42.582031 8.339844 14.65625 24.917969 21.5 33.742188 20.980469 8.824219.519531 25.402344-6.324219 33.742188-20.980469 9.832031-17.28125 8.917968-36.34375-2.042969-42.582031zm0 0" fill="#3c3b41"/><path d="m289.738281 444.628906c-8.339843 14.652344-24.917969 21.5-33.738281 20.980469v-52.078125c9.789062-11.511719 22.71875-16.589844 31.699219-11.492188 10.960937 6.242188 11.878906 25.300782 2.039062 42.589844zm0 0" fill="#2a2a2c"/><path d="m336.070312 89.949219c-8.085937-9.664063-17.851562-15.972657-27.746093-20.042969-15.949219 6.375-33.746094 9.757812-52.324219 9.757812s-36.375-3.382812-52.324219-9.757812c-9.894531 4.070312-19.660156 10.378906-27.746093 20.042969 23.46875 12.816406 51.082031 19.714843 80.070312 19.714843s56.601562-6.898437 80.070312-19.714843zm0 0" fill="#ff3c62"/><path d="m336.070312 89.949219c-23.46875 12.820312-51.082031 19.722656-80.070312 19.722656v-30c18.578125 0 36.371094-3.390625 52.320312-9.761719 9.898438 4.070313 19.660157 10.371094 27.75 20.039063zm0 0" fill="#ff0335"/><path d="m276.503906 94.5c0 11.324219-9.179687 20.503906-20.503906 20.503906s-20.503906-9.179687-20.503906-20.503906 9.179687-20.503906 20.503906-20.503906 20.503906 9.179687 20.503906 20.503906zm0 0" fill="#c8c6cc"/><path d="m276.5 94.5c0 5.710938-2.339844 10.878906-6.101562 14.589844-3.707032 3.648437-8.789063 5.910156-14.398438 5.910156v-41c5.160156 0 9.878906 1.921875 13.488281 5.058594 4.300781 3.761718 7.011719 9.28125 7.011719 15.441406zm0 0" fill="#aeadb3"/></svg>