<svg height="512pt" viewBox="0 0 512 512" width="512pt" xmlns="http://www.w3.org/2000/svg"><path d="m512 256c0 141.386719-114.613281 256-256 256s-256-114.613281-256-256 114.613281-256 256-256 256 114.613281 256 256zm0 0" fill="#004eb1"/><path d="m512 256c0-11.726562-.804688-23.261719-2.332031-34.566406l-168.433594-168.433594h-42.761719v20.996094h-64.390625l-20.5625-20.996094h-42.761719v20.996094l-103.386718 319.105468 104.867187 104.863282c26.246094 9.085937 54.421875 14.035156 83.761719 14.035156 141.386719 0 256-114.613281 256-256zm0 0" fill="#002d6b"/><path d="m170.757812 53h42.761719v26.613281h-42.761719zm0 0" fill="#ff3c62"/><path d="m298.472656 53h42.761719v26.613281h-42.761719zm0 0" fill="#e7001f"/><path d="m341.242188 73.996094h-170.484376l-103.386718 319.105468s65.21875-15.042968 93.675781 9.683594c26.164063 22.734375 59.882813 33.691406 94.953125 33.691406s68.789062-10.957031 94.953125-33.691406c28.457031-24.726562 93.675781-9.683594 93.675781-9.683594zm0 0" fill="#ff738e"/><path d="m444.628906 393.101562s-65.21875-15.042968-93.679687 9.6875c-26.160157 22.730469-59.878907 33.691407-94.949219 33.691407v-362.480469h85.238281zm0 0" fill="#ff3c62"/><path d="m156.796875 399.554688c1.492187.996093 2.910156 2.066406 4.25 3.230468 11.75 10.210938 25.027344 18.035156 39.261719 23.570313v-198.058594zm0 0" fill="#ff3c62"/><path d="m311.6875 426.355469c14.238281-5.535157 27.515625-13.359375 39.265625-23.570313 1.339844-1.164062 2.757813-2.238281 4.25-3.230468l-43.515625-171.257813zm0 0" fill="#e7001f"/></svg>