<svg id="Capa_1" enable-background="new 0 0 512 512" height="512" viewBox="0 0 512 512" width="512" xmlns="http://www.w3.org/2000/svg"><g><g><g><g><g><g><g><g><g><circle cx="256" cy="256" fill="#fe8205" r="256"/></g></g></g></g></g></g></g></g><path d="m512 256c0-12.911-.956-25.599-2.801-37.997l-111.373-111.373-324.963 85.63 55.503 55.502-43.774 110.652 152.929 152.929c6.103.435 12.265.657 18.479.657 141.385 0 256-114.615 256-256z" fill="#fa5d0f"/><g><path d="m256 454.196c-111.421-43.004-144.042-130.968-144.042-130.968l-27.366 35.185c-31.276-76.235 31.276-166.154 31.276-166.154h-43.005c27.366-127.057 126.276-134.876 183.137-134.876s155.771 7.819 183.137 134.878h-43.004s62.552 89.918 31.276 166.154l-27.366-35.185c-.001-.002-32.622 87.962-144.043 130.966z" fill="#ffce00"/></g><g><path d="m256 454.196c111.421-43.004 144.042-130.968 144.042-130.968l27.366 35.185c31.276-76.235-31.276-166.153-31.276-166.153h43.004c-27.365-127.058-126.275-134.877-183.136-134.877-.023 0 .023 0 0 0z" fill="#fdba12"/></g><g><path d="m355.56 202.344c0-51.708-44.575-81.758-99.56-81.758s-99.56 30.05-99.56 81.758c0 30.239 15.245 57.13 38.901 74.247v18.659c0 25.887 20.986 46.873 46.873 46.873h27.572c25.887 0 46.873-20.986 46.873-46.873v-18.659c23.656-17.117 38.901-44.007 38.901-74.247z" fill="#fff"/></g><g><path d="m256 120.586c-.024 0 .024.001 0 0v221.538h13.786c25.887 0 46.873-20.986 46.873-46.873v-18.659c23.656-17.118 38.901-44.008 38.901-74.248 0-51.708-44.575-81.758-99.56-81.758z" fill="#e9edf5"/></g><g><g><circle cx="206.806" cy="198.597" fill="#555a66" r="12.852"/></g><g><circle cx="305.194" cy="198.597" fill="#333940" r="12.852"/></g></g><g><path d="m267.704 252.769h-23.407c-2.656 0-5.116-1.395-6.48-3.674l-8.793-14.691c-3.013-5.034.614-11.431 6.48-11.431h40.993c5.867 0 9.493 6.397 6.48 11.431l-8.793 14.691c-1.364 2.279-3.824 3.674-6.48 3.674z" fill="#555a66"/></g><g><path d="m276.496 222.973h-20.496v29.795h11.704c2.656 0 5.116-1.395 6.48-3.674l8.793-14.69c3.013-5.033-.614-11.431-6.481-11.431z" fill="#333940"/></g><g><path d="m243.5 243.735h25v69.719h-25z" fill="#555a66"/></g><g><path d="m256 243.735h12.5v69.719h-12.5z" fill="#333940"/></g><g><g><path d="m150.118 158.858c-15.966 0-28.909-12.943-28.909-28.909s12.943-28.91 28.909-28.91 28.909 12.943 28.909 28.909z" fill="#fff4c5"/></g><g><path d="m361.882 158.858c15.966 0 28.909-12.943 28.909-28.909s-12.943-28.91-28.909-28.91-28.909 12.943-28.909 28.909z" fill="#ffe89c"/></g></g></g></svg>