<?xml version="1.0" encoding="iso-8859-1"?>
<!-- Generator: Adobe Illustrator 19.0.0, SVG Export Plug-In . SVG Version: 6.00 Build 0)  -->
<svg version="1.1" id="Capa_1" xmlns="http://www.w3.org/2000/svg" xmlns:xlink="http://www.w3.org/1999/xlink" x="0px" y="0px"
	 viewBox="0 0 512 512" style="enable-background:new 0 0 512 512;" xml:space="preserve">
<circle style="fill:#17ACE8;" cx="256" cy="256" r="256"/>
<path style="fill:#136EF1;" d="M175.781,356.399l-9.888-9.882l-50.006,14.615l150.636,150.636C403.026,506.246,512,393.858,512,256
	c0-3.638-0.095-7.253-0.245-10.854L407,140.391l-51.973,4.179l-28.696-28.682l-14.615,50.006l9.882,9.888h-5.036l-70-70.781
	l-70.781,38.465l-9.888-9.882l-50.006,14.615l59.894,59.898v100.989L175.781,356.399L175.781,356.399z"/>
<polygon style="fill:#32D736;" points="336.219,175.781 336.219,291.391 318.523,312.094 292.335,312.094 265.438,291.391 
	265.438,175.781 "/>
<polygon style="fill:#10BB67;" points="336.219,175.781 336.219,291.391 318.523,312.094 300.828,312.094 300.828,175.781 "/>
<polygon style="fill:#32D736;" points="246.563,220.609 246.563,309.086 233.998,325.011 197.193,325.011 175.781,309.086 
	175.781,220.609 193.477,207.691 233.645,207.691 "/>
<g>
	<polygon style="fill:#10BB67;" points="246.563,220.609 246.563,309.086 233.998,325.011 211.172,325.011 211.172,207.691 
		233.645,207.691 	"/>
	<rect x="175.78" y="309.09" style="fill:#10BB67;" width="70.781" height="97.91"/>
	<rect x="175.78" y="105" style="fill:#10BB67;" width="70.781" height="115.61"/>
</g>
<g>
	<rect x="211.17" y="105" style="fill:#0CA656;" width="35.391" height="115.61"/>
	<rect x="211.17" y="309.09" style="fill:#0CA656;" width="35.391" height="97.91"/>
</g>
<path style="fill:#10BB67;" d="M336.219,291.391c0,40.168,0,10.852,0,115.609h-70.781c0-104.757,0-75.442,0-115.609H336.219z"/>
<path style="fill:#0CA656;" d="M336.219,291.391c0,40.168,0,10.852,0,115.609h-35.391V291.391H336.219z"/>
<g>
	<path style="fill:#32D736;" d="M140.391,158.086c-19.518,0-35.391-15.872-35.391-35.391h35.391
		c19.518,0,35.391,15.872,35.391,35.391H140.391z"/>
	<path style="fill:#32D736;" d="M140.391,371.02c-19.518,0-35.391-15.872-35.391-35.391h35.391
		c19.518,0,35.391,15.872,35.391,35.391H140.391z"/>
</g>
<g>
	<path style="fill:#10BB67;" d="M336.219,175.781c0-9.539,3.707-18.404,10.437-24.953c1.918-2.074,4.242-3.854,7.249-5.651
		c5.322-3.119,11.466-4.787,17.704-4.787H407c0,9.539-3.707,18.404-10.437,24.953c-6.627,6.791-15.423,10.437-24.953,10.437h-35.391
		V175.781z"/>
	<path style="fill:#10BB67;" d="M336.219,353.324c0-9.539,3.707-18.404,10.437-24.953c6.61-6.791,15.414-10.437,24.953-10.437H407
		c0,9.539-3.707,18.404-10.437,24.953c-6.627,6.791-15.423,10.437-24.953,10.437H336.219z"/>
</g>
<path style="fill:#32D736;" d="M300.828,140.391c0,19.518,15.872,35.391,35.391,35.391v-35.391
	c0-19.518-15.872-35.391-35.391-35.391V140.391z"/>
<g>
</g>
<g>
</g>
<g>
</g>
<g>
</g>
<g>
</g>
<g>
</g>
<g>
</g>
<g>
</g>
<g>
</g>
<g>
</g>
<g>
</g>
<g>
</g>
<g>
</g>
<g>
</g>
<g>
</g>
</svg>
