<?xml version="1.0" encoding="iso-8859-1"?>
<!-- Generator: Adobe Illustrator 19.0.0, SVG Export Plug-In . SVG Version: 6.00 Build 0)  -->
<svg version="1.1" id="Capa_1" xmlns="http://www.w3.org/2000/svg" xmlns:xlink="http://www.w3.org/1999/xlink" x="0px" y="0px"
	 viewBox="0 0 512 512" style="enable-background:new 0 0 512 512;" xml:space="preserve">
<circle style="fill:#FEDB41;" cx="256" cy="256" r="256"/>
<path style="fill:#FEA832;" d="M488.843,362.515l-87.179-87.179l-19.66,1.031l-97-97.711H276l-24.123-24.116L149.652,295.292
	L91,372.016l138.642,138.642C238.307,511.543,247.1,512,256,512C359.374,512,448.426,450.723,488.843,362.515z"/>
<path style="fill:#8B8892;" d="M265.023,372.016H91v-9.668c0-37.312,30.363-67.676,67.676-67.676h3.22L265.023,372.016z"/>
<path style="fill:#AEADB3;" d="M401.664,323.676v-48.34h-9.668c-12.955,0-25.975,5.22-34.87,14.308l-43.312-54.14
	c-9.281-11.602-23.01-18.176-37.705-18.176h-15.856c3.288-5.801,5.415-12.182,5.415-19.336v-9.668
	c0-26.684-21.656-48.34-48.34-48.34h-19.336c-26.684,0-48.34,21.656-48.34,48.34V304.34c0,34.031,25.33,62.261,58.008,66.902
	c3.093,0.581,6.381,0.774,9.668,0.774H421v-9.668C421,347.072,413.652,332.763,401.664,323.676z"/>
<rect x="246.33" y="178.66" style="fill:#787780;" width="38.672" height="19.336"/>
<path style="fill:#8B8892;" d="M421,362.348v9.668H217.328c-3.287,0-6.575-0.194-9.668-0.774V139.984h9.668
	c26.684,0,48.34,21.656,48.34,48.34v9.668c0,7.154-2.127,13.535-5.415,19.336h15.856c14.695,0,28.424,6.574,37.705,18.176
	l43.312,54.14c8.895-9.089,21.915-14.308,34.87-14.308h9.668v48.34C413.652,332.763,421,347.072,421,362.348z"/>
<path style="fill:#787780;" d="M326.383,372.016h-19.917l-1.74-7.348c-9.089-34.998-44.086-58.008-79.857-52.014l-12.375,2.127
	l-3.093-19.142l12.374-1.933c45.44-7.735,90.3,21.463,101.514,66.322L326.383,372.016z"/>
<rect x="207.66" y="178.66" style="fill:#2B292C;" width="19.336" height="19.336"/>
<g>
</g>
<g>
</g>
<g>
</g>
<g>
</g>
<g>
</g>
<g>
</g>
<g>
</g>
<g>
</g>
<g>
</g>
<g>
</g>
<g>
</g>
<g>
</g>
<g>
</g>
<g>
</g>
<g>
</g>
</svg>
