<?xml version="1.0" encoding="iso-8859-1"?>
<!-- Generator: Adobe Illustrator 19.0.0, SVG Export Plug-In . SVG Version: 6.00 Build 0)  -->
<svg version="1.1" id="Capa_1" xmlns="http://www.w3.org/2000/svg" xmlns:xlink="http://www.w3.org/1999/xlink" x="0px" y="0px"
	 viewBox="0 0 512 512" style="enable-background:new 0 0 512 512;" xml:space="preserve">
<circle style="fill:#FE91C2;" cx="256" cy="256" r="256"/>
<path style="fill:#FE52A2;" d="M512,256c0-4.73-0.138-9.428-0.392-14.095L420,150.297h-33.972l-20.395-20.395L150.91,149.305
	l69.504,69.508L100.965,372.957l138.497,138.497C244.931,511.802,250.442,512,256,512C397.385,512,512,397.385,512,256z"/>
<path style="fill:#C8C6CD;" d="M420,150.297v19.219c0,42.473-34.401,76.875-76.875,76.875v97.054
	c22.87,4.805,38.438,24.408,38.438,47.086v9.609H178.484c-12.876,0-24.984-4.997-34.018-14.03
	c-9.032-9.032-14.029-21.14-14.029-34.016c0-38.438,14.991-74.761,42.281-101.859c24.792-24.985,58.745-39.591,93.531-41.898
	v-38.821c0-0.385,0-0.961,0.192-1.345c0-5.573,0.961-10.955,2.499-16.337l6.918-39.974h48.047c1.921,0,3.844,0.192,5.573,0.576
	c22.678,2.306,41.513,17.297,48.816,37.862H420V150.297z"/>
<path style="fill:#AEADB3;" d="M420,150.297v19.219c0,42.473-34.401,76.875-76.875,76.875v97.054
	c22.87,4.805,38.438,24.408,38.438,47.086v9.609h-86.484V111.859h28.828c1.921,0,3.844,0.192,5.573,0.576
	c22.678,2.306,41.513,17.297,48.816,37.862H420z"/>
<rect x="323.91" y="150.3" style="fill:#3C3A41;" width="19.219" height="19.219"/>
<path style="fill:#E5E5E5;" d="M323.906,111.859H128.9l5.574,13.261c11.146,26.906,37.284,44.395,66.496,44.395h51.058
	c4.805,0,9.802-0.385,14.414-1.345c10.378-1.73,19.987-5.765,28.636-11.34c11.723-7.303,21.333-18.257,27.867-31.134l6.534-13.261
	C327.75,112.052,325.828,111.859,323.906,111.859z"/>
<path style="fill:#FEB1D4;" d="M200.97,150.297c-16.115,0-30.933-7.225-40.772-19.219h135.967c-3.388,3.718-7.166,6.897-11.25,9.44
	l-0.25,0.158c-6.904,4.45-14.098,7.322-21.384,8.537l-0.38,0.063l-0.377,0.079c-2.959,0.616-6.588,0.942-10.496,0.942
	L200.97,150.297L200.97,150.297z"/>
<path style="fill:#E5E5E5;" d="M239.436,342.687c16.283-14.107,26.814-34.676,26.814-57.859h-19.219
	c0,31.794-27.144,57.656-58.938,57.656v19.219h49.328c15.952,0,28.828,12.876,28.828,28.828v9.609h19.219v-9.609
	C285.469,364.699,265.004,343.766,239.436,342.687z"/>
<path style="fill:#C8C6CD;" d="M329.479,112.435l-6.534,13.261c-6.535,12.877-16.144,23.831-27.867,31.134v-44.971h28.828
	C325.828,111.859,327.75,112.052,329.479,112.435z"/>
<rect x="285.47" y="323.27" style="fill:#E5E5E5;" width="19.219" height="76.875"/>
<rect x="295.08" y="323.27" style="fill:#C8C6CD;" width="9.609" height="76.875"/>
<path style="fill:#E5E5E5;" d="M120.828,380.922c-15.897,0-28.828-12.931-28.828-28.828s12.931-28.828,28.828-28.828
	s28.828,12.931,28.828,28.828S136.725,380.922,120.828,380.922z"/>
<g>
</g>
<g>
</g>
<g>
</g>
<g>
</g>
<g>
</g>
<g>
</g>
<g>
</g>
<g>
</g>
<g>
</g>
<g>
</g>
<g>
</g>
<g>
</g>
<g>
</g>
<g>
</g>
<g>
</g>
</svg>
