<?xml version="1.0" encoding="iso-8859-1"?>
<!-- Generator: Adobe Illustrator 19.0.0, SVG Export Plug-In . SVG Version: 6.00 Build 0)  -->
<svg version="1.1" id="Capa_1" xmlns="http://www.w3.org/2000/svg" xmlns:xlink="http://www.w3.org/1999/xlink" x="0px" y="0px"
	 viewBox="0 0 512 512" style="enable-background:new 0 0 512 512;" xml:space="preserve">
<circle style="fill:#32D736;" cx="256" cy="256" r="256"/>
<path style="fill:#0CA656;" d="M512,256c0-8.832-0.448-17.559-1.321-26.161L406,125.16l-162.979,21.187l34.526,34.548L267.25,212.23
	l-72.712,40.732L106,164.417l17.497,225.085l122.276,122.276c3.394,0.133,6.8,0.221,10.227,0.221C397.385,512,512,397.385,512,256z"
	/>
<path style="fill:#FEDBAB;" d="M299.593,282.953l-2.109,5.8c-4.395,12.481-14.414,22.501-26.894,26.895l-5.801,2.109v53.086h8.789
	c12.656,0,24.61-2.989,35.156-8.262c26.015-13.008,43.945-39.902,43.945-70.839v-8.789H299.593z"/>
<path style="fill:#FEC478;" d="M352.68,282.953v8.789c0,30.938-17.93,57.832-43.945,70.839v-79.628H352.68z"/>
<path style="fill:#FE8821;" d="M379.047,176.313H406V125.16L308.734,106h-79.102v8.789c0,24.258,19.687,43.945,43.945,43.945h11.25
	l-17.578,53.496c-50.449,3.34-90.938,45.937-90.938,97.09v17.578c0,4.921-3.867,8.789-8.789,8.789s-8.789-3.868-8.789-8.789v-55.723
	c0-33.926-13.711-67.733-37.793-91.641L106,164.418v183.75C106,379.984,132.015,406,163.832,406h30.059
	c14.59,0,28.536-5.977,38.027-15.645C235.961,399.496,245.278,406,256,406h114.258v-8.789c0-24.258-19.687-43.945-43.945-43.945
	h-43.945V329.71c10.898-5.097,20.215-13.71,26.367-24.082c1.055-1.581,1.933-3.34,2.812-5.097H406v-8.789
	c0-24.258-20.273-43.945-44.531-43.945h-8.789v-54.785C363.226,190.902,372.719,184.926,379.047,176.313z"/>
<g>
	<path style="fill:#E5741A;" d="M370.258,397.211V406h-61.523v-52.734h17.578C350.57,353.266,370.258,372.953,370.258,397.211z"/>
	<path style="fill:#E5741A;" d="M352.68,193.012v54.785h8.789c24.258,0,44.531,19.687,44.531,43.945v8.789h-94.454
		c-0.879,1.757-1.757,3.516-2.812,5.097V106L406,125.16v51.153h-26.953C372.719,184.926,363.226,190.902,352.68,193.012z"/>
</g>
<rect x="335.1" y="141.16" style="fill:#2B292C;" width="17.578" height="17.578"/>
<g>
</g>
<g>
</g>
<g>
</g>
<g>
</g>
<g>
</g>
<g>
</g>
<g>
</g>
<g>
</g>
<g>
</g>
<g>
</g>
<g>
</g>
<g>
</g>
<g>
</g>
<g>
</g>
<g>
</g>
</svg>
