<?xml version="1.0" encoding="iso-8859-1"?>
<!-- Generator: Adobe Illustrator 19.0.0, SVG Export Plug-In . SVG Version: 6.00 Build 0)  -->
<svg version="1.1" id="Capa_1" xmlns="http://www.w3.org/2000/svg" xmlns:xlink="http://www.w3.org/1999/xlink" x="0px" y="0px"
	 viewBox="0 0 512 512" style="enable-background:new 0 0 512 512;" xml:space="preserve">
<circle style="fill:#FEDB41;" cx="256" cy="256" r="256"/>
<path style="fill:#FEA832;" d="M512,256c0-9.146-0.489-18.177-1.425-27.076L387.13,105.479l-261.26,83.66l53.501,53.524
	l2.795,167.762l100.228,100.229C411.378,497.441,512,388.473,512,256z"/>
<path style="fill:#59422D;" d="M305.333,145.032v250.35h59.002l0.198-250.35L305.333,145.032L305.333,145.032z"/>
<path style="fill:#8B8892;" d="M167.2,87.609c-32.645,0-59.2,26.555-59.2,59.2s26.555,59.2,59.2,59.2
	c12.921,0,25.206-4.095,35.526-11.842l13.47-80.581C205.154,97.321,186.837,87.609,167.2,87.609z"/>
<path style="fill:#FEB1D4;" d="M167.2,107.342c-21.766,0-39.467,17.7-39.467,39.467s17.7,39.467,39.467,39.467
	c9.339,0,18.17-3.205,25.388-9.245l2.68-57.962C187.916,111.63,177.847,107.342,167.2,107.342z"/>
<path style="fill:#787780;" d="M344.8,87.609c-19.637,0-37.954,9.713-48.996,25.977l13.47,80.581
	c10.32,7.747,22.605,11.842,35.526,11.842c32.645,0,59.2-26.555,59.2-59.2S377.445,87.609,344.8,87.609z"/>
<path style="fill:#FE91C2;" d="M344.8,107.342c-10.647,0-20.716,4.288-28.068,11.726l2.92,58.161
	c7.174,5.913,15.913,9.046,25.148,9.046c21.766,0,39.467-17.7,39.467-39.467S366.566,107.342,344.8,107.342z"/>
<path style="fill:#8B8892;" d="M344.8,345.458h-19.733v-40.782H344.8c3.749,0,7.696-0.593,11.248-1.579
	c16.575-4.933,28.219-20.522,28.219-37.888c0-21.707-17.76-39.467-39.467-39.467H216.533c-27.232,0-49.333,22.101-49.333,49.333
	v99.982c0,27.232,22.101,49.333,49.333,49.333H344.8c21.706,0,39.467-17.76,39.467-39.467
	C384.267,363.217,366.506,345.458,344.8,345.458z"/>
<path style="fill:#787780;" d="M384.267,384.924c0,21.706-17.76,39.467-39.467,39.467H256V225.742h88.8
	c21.706,0,39.467,17.759,39.467,39.467c0,17.365-11.643,32.954-28.219,37.888c-3.552,0.986-7.499,1.579-11.248,1.579h-19.733v40.782
	H344.8C366.506,345.458,384.267,363.217,384.267,384.924z"/>
<path style="fill:#AEADB3;" d="M295.467,107.342h-78.933c-16.379,0-29.6,13.221-29.6,29.6v78.933c0,16.378,13.221,29.6,29.6,29.6
	h78.933c16.379,0,29.6-13.222,29.6-29.6v-78.933C325.067,120.563,311.846,107.342,295.467,107.342z"/>
<path style="fill:#8B8892;" d="M325.067,136.942v78.933c0,16.378-13.221,29.6-29.6,29.6H256V107.342h39.467
	C311.846,107.342,325.067,120.563,325.067,136.942z"/>
<rect x="265.87" y="146.81" style="fill:#2B292C;" width="19.733" height="19.733"/>
<g>
	<rect x="246.13" y="186.28" style="fill:#3C3A41;" width="19.733" height="19.733"/>
	<rect x="226.4" y="146.81" style="fill:#3C3A41;" width="19.733" height="19.733"/>
</g>
<rect x="256" y="186.28" style="fill:#2B292C;" width="9.867" height="19.733"/>
<g>
</g>
<g>
</g>
<g>
</g>
<g>
</g>
<g>
</g>
<g>
</g>
<g>
</g>
<g>
</g>
<g>
</g>
<g>
</g>
<g>
</g>
<g>
</g>
<g>
</g>
<g>
</g>
<g>
</g>
</svg>
