<?xml version="1.0" encoding="iso-8859-1"?>
<!-- Generator: Adobe Illustrator 19.0.0, SVG Export Plug-In . SVG Version: 6.00 Build 0)  -->
<svg version="1.1" id="Capa_1" xmlns="http://www.w3.org/2000/svg" xmlns:xlink="http://www.w3.org/1999/xlink" x="0px" y="0px"
	 viewBox="0 0 512 512" style="enable-background:new 0 0 512 512;" xml:space="preserve">
<circle style="fill:#32D736;" cx="256" cy="256" r="256"/>
<path style="fill:#0CA656;" d="M501.056,330.226L400.585,229.755l-29.088-15.1l-83-83.809L78.499,343.13l7,5.716l10.673,17.987
	l144.711,144.711C245.886,511.835,250.923,512,256,512C371.57,512,469.238,435.411,501.056,330.226z"/>
<path style="fill:#8B8892;" d="M288.497,130.846v51.98h-62.376c0-28.693,23.287-51.98,51.98-51.98H288.497z"/>
<rect x="278.1" y="130.85" style="fill:#787780;" width="10.396" height="51.98"/>
<path style="fill:#AEADB3;" d="M363.348,214.013H326.13l-20.792-41.584H78.499v141.176l34.099-4.782l47.405,19.544l38.257-21.416
	l22.664,19.129l51.355-16.01l5.822,1.664l30.148,8.524l25.99,6.237l25.158-17.049l32.227,13.307l19.544-1.247l4.159-8.317v-47.197
	C415.327,237.3,392.041,214.013,363.348,214.013z"/>
<path style="fill:#8B8892;" d="M415.327,265.993v47.197l-4.159,8.317l-19.544,1.247l-32.227-13.307l-25.158,17.049l-25.99-6.237
	l-30.148-8.524V172.43h27.237l20.792,41.584h37.217C392.041,214.013,415.327,237.3,415.327,265.993z"/>
<rect x="267.7" y="214.01" style="fill:#3C3A41;" width="20.792" height="20.792"/>
<rect x="226.12" y="255.6" style="fill:#787780;" width="20.792" height="70.985"/>
<rect x="120.08" y="276.39" style="fill:#8B8892;" width="20.792" height="41.584"/>
<rect x="278.1" y="214.01" style="fill:#2B292C;" width="10.396" height="20.792"/>
<g>
	<path style="fill:#1DE8F1;" d="M433,366.833c-7.693,7.901-17.881,11.643-28.069,11.643s-20.376-3.742-28.069-11.643
		c-7.278-7.069-19.753-7.069-27.03,0c-15.386,15.594-42.83,15.594-58.216,0c-3.744-3.534-8.525-5.406-13.515-5.406
		s-9.772,1.872-13.515,5.406c-15.386,15.594-40.751,15.594-56.137,0c-7.486-7.277-19.544-7.277-27.03,0
		c-15.386,15.594-42.83,15.594-58.216,0c-7.486-7.277-19.544-7.277-27.03,0L81.62,352.278c15.386-15.594,40.751-15.594,56.137,0
		c7.278,7.07,19.753,7.07,27.03,0c15.386-15.594,42.83-15.594,58.216,0c7.486,7.278,19.544,7.278,27.03,0
		c7.693-7.693,17.881-11.643,28.068-11.643s20.376,3.951,28.069,11.643c7.486,7.278,19.544,7.278,27.03,0
		c15.386-15.594,42.83-15.594,58.216,0c7.486,7.278,19.544,7.278,27.03,0L433,366.833z"/>
	<path style="fill:#1DE8F1;" d="M418.447,310.695c-1.041,0.832-2.08,1.664-3.119,2.495l-0.208-0.623
		c-10.188,5.406-18.089,3.534-23.703-1.872c-15.386-15.594-42.83-15.594-58.216,0c-7.486,7.278-19.544,7.278-27.03,0
		c-7.693-7.693-17.881-11.643-28.069-11.643s-20.376,3.951-28.068,11.643c-7.486,7.278-19.544,7.278-27.03,0
		c-15.386-15.594-42.83-15.594-58.216,0c-7.278,7.07-19.753,7.07-27.03,0c-7.693-7.901-17.881-11.643-28.069-11.643
		c-11.435,0-22.871,4.783-31.188,14.555v29.524l17.673-17.881c7.486-7.277,19.544-7.277,27.03,0
		c15.386,15.594,42.83,15.594,58.216,0c7.486-7.277,19.544-7.277,27.03,0c15.386,15.594,40.751,15.594,56.137,0
		c3.744-3.534,8.525-5.406,13.515-5.406s9.772,1.872,13.515,5.406c15.386,15.594,42.83,15.594,58.216,0
		c7.486-7.277,19.544-7.277,27.03,0c15.386,15.594,40.751,15.594,56.137,0L418.447,310.695z"/>
</g>
<g>
	<path style="fill:#1BD9DE;" d="M418.447,352.278L433,366.833c-7.693,7.901-17.881,11.643-28.069,11.643
		s-20.376-3.742-28.069-11.643c-7.278-7.069-19.753-7.069-27.03,0c-15.386,15.594-42.83,15.594-58.216,0
		c-3.744-3.534-8.525-5.406-13.515-5.406v-20.792c10.188,0,20.376,3.951,28.069,11.643c7.486,7.278,19.544,7.278,27.03,0
		c15.386-15.594,42.83-15.594,58.216,0C398.902,359.556,410.961,359.556,418.447,352.278z"/>
	<path style="fill:#1BD9DE;" d="M291.616,325.249c-3.744-3.534-8.525-5.406-13.515-5.406v-20.792
		c10.188,0,20.376,3.951,28.069,11.643c7.486,7.278,19.544,7.278,27.03,0c15.386-15.594,42.83-15.594,58.216,0
		c5.614,5.406,13.515,7.278,23.703,1.872l0.208,0.623c1.039-0.831,2.079-1.662,3.119-2.495L433,325.249
		c-15.386,15.594-40.751,15.594-56.137,0c-7.486-7.277-19.544-7.277-27.03,0C334.447,340.843,307.002,340.843,291.616,325.249z"/>
</g>
<g>
</g>
<g>
</g>
<g>
</g>
<g>
</g>
<g>
</g>
<g>
</g>
<g>
</g>
<g>
</g>
<g>
</g>
<g>
</g>
<g>
</g>
<g>
</g>
<g>
</g>
<g>
</g>
<g>
</g>
</svg>
