<svg id="Capa_1" enable-background="new 0 0 512 512" height="512" viewBox="0 0 512 512" width="512" xmlns="http://www.w3.org/2000/svg"><g><g><g><g><g><g><g><g><circle cx="256" cy="256" fill="#b46e5a" r="256"/></g></g></g></g></g></g></g><path d="m511.821 265.667-174.446-174.446-216.077 313.129 106.067 106.067c9.4 1.046 18.955 1.583 28.635 1.583 138.148 0 250.738-109.428 255.821-246.333z" fill="#915041"/><g><path d="m390.702 404.35-44.901 34.998-44.901-2.917-44.9 34.999-44.901-34.998-44.901 2.917-44.901-34.998 22.66-245.752c5.338-57.895 53.904-102.189 112.043-102.189 58.139 0 106.704 44.293 112.043 102.187z" fill="#fff"/></g><g><path d="m368.043 158.597c-5.338-57.893-53.904-102.187-112.043-102.187v415.02l44.901-34.998 44.901 2.917 44.901-34.999z" fill="#e9edf5"/></g><g><path d="m256 280.939-43.849-76.752 43.849-44.043 44.237 44.042z" fill="#ffce00"/></g><g><path d="m300.237 204.187-44.237-44.043v120.795z" fill="#fdba12"/></g><g><g><circle cx="201.05" cy="162.334" fill="#555a66" r="17.263"/></g><g><circle cx="310.95" cy="162.334" fill="#333940" r="17.263"/></g></g></g></svg>