<?xml version="1.0" encoding="iso-8859-1"?>
<!-- Generator: Adobe Illustrator 19.0.0, SVG Export Plug-In . SVG Version: 6.00 Build 0)  -->
<svg version="1.1" id="Capa_1" xmlns="http://www.w3.org/2000/svg" xmlns:xlink="http://www.w3.org/1999/xlink" x="0px" y="0px"
	 viewBox="0 0 512 512" style="enable-background:new 0 0 512 512;" xml:space="preserve">
<circle style="fill:#FEDB41;" cx="256" cy="256" r="256"/>
<path style="fill:#FEA832;" d="M512,256c0-0.873-0.024-1.741-0.033-2.612L365.535,106.957l-264.47,164.751l25.443,25.461
	l15.066,74.835l138.831,138.831C410.34,498.545,512,389.152,512,256z"/>
<path style="fill:#8B8892;" d="M145.766,285.883h-9.961c-27.461,0-49.805-22.344-49.805-49.805s22.344-49.805,49.805-49.805h9.961
	V285.883z"/>
<path style="fill:#AEADB3;" d="M126.508,264.254c-11.595-4.111-19.922-15.189-19.922-28.176s8.327-24.065,19.922-28.176
	C126.508,207.902,126.508,264.254,126.508,264.254z"/>
<path style="fill:#787780;" d="M376.195,285.883h-9.961v-99.609h9.961c27.461,0,49.805,22.344,49.805,49.805
	S403.656,285.883,376.195,285.883z"/>
<g>
	<path style="fill:#8B8892;" d="M385.492,207.902c11.595,4.111,19.922,15.189,19.922,28.176s-8.327,24.065-19.922,28.176V207.902z"
		/>
	<path style="fill:#8B8892;" d="M339.273,400.699C330.707,415.84,314.371,426,295.844,426h-79.688
		c-18.527,0-34.863-10.16-43.23-25.301l38.25-42.833h84.668L339.273,400.699z"/>
</g>
<path style="fill:#787780;" d="M339.273,400.699C330.707,415.84,314.371,426,295.844,426H256v-68.134h39.844L339.273,400.699z"/>
<path style="fill:#57555C;" d="M315.766,86H196.234c-38.449,0-69.727,31.277-69.727,69.727v180.625
	c0,27.492,22.312,49.805,49.805,49.805h7.77l22.512-90.313l-16.536-65.941L256,246.437l65.941-16.534l-16.535,65.941l22.512,90.313
	h7.77c27.492,0,49.805-22.312,49.805-49.805V155.727C385.492,117.277,354.215,86,315.766,86z"/>
<path style="fill:#3C3A41;" d="M385.492,155.727v180.625c0,27.492-22.312,49.805-49.805,49.805h-7.77l-22.512-90.313l16.535-65.941
	L256,246.437V86h59.766C354.215,86,385.492,117.277,385.492,155.727z"/>
<path style="fill:#AEADB3;" d="M326.125,295.844l19.523,80.352c0,1.792-0.199,3.785-0.199,5.577
	c-0.796,6.774-2.988,13.349-6.176,18.926c-27.093-9.363-55.184-13.946-83.273-13.946s-56.18,4.583-83.074,13.946
	c-3.388-5.577-5.579-12.152-6.375-18.926c0-1.792-0.199-3.785-0.199-5.577l0.399-2.391l19.124-77.961l-19.523-71.918l20.52-4.383
	l68.729,17.531l0.399-0.199l73.113-19.125l16.535,6.177L326.125,295.844z"/>
<path style="fill:#8B8892;" d="M326.125,295.844l19.523,80.352c0,1.792-0.199,3.785-0.199,5.577
	c-0.796,6.774-2.988,13.349-6.176,18.926c-27.093-9.363-55.184-13.946-83.273-13.946V236.875l73.113-19.125l16.535,6.177
	L326.125,295.844z"/>
<g>
	<polygon style="fill:#57555C;" points="322.738,162.699 300.028,185.609 211.972,185.609 189.262,162.699 203.207,148.753 
		220.34,165.688 291.66,165.688 308.793,148.753 	"/>
	<rect x="226.12" y="125.84" style="fill:#57555C;" width="59.766" height="19.922"/>
</g>
<polygon style="fill:#3C3A41;" points="226.117,227.909 226.117,256 206.195,256 206.195,223.328 "/>
<polygon style="fill:#2B292C;" points="305.805,224.124 305.805,256 285.883,256 285.883,228.907 "/>
<path style="fill:#3C3A41;" d="M246.039,315.766h-19.922c0-5.496-4.465-9.961-9.961-9.961v-19.922
	C232.635,285.883,246.039,299.287,246.039,315.766z"/>
<path style="fill:#2B292C;" d="M285.883,315.766h-19.922c0-16.478,13.404-29.883,29.883-29.883v19.922
	C290.348,305.805,285.883,310.27,285.883,315.766z"/>
<polygon style="fill:#57555C;" points="345.648,186.273 345.648,223.926 256,246.437 166.352,223.926 166.352,186.273 
	186.273,186.273 186.273,208.386 256,225.718 325.727,208.386 325.727,186.273 "/>
<g>
	<rect x="256" y="125.84" style="fill:#3C3A41;" width="29.883" height="19.922"/>
	<polygon style="fill:#3C3A41;" points="300.028,185.609 256,185.609 256,165.688 291.66,165.688 308.793,148.753 322.738,162.699 	
		"/>
	<polygon style="fill:#3C3A41;" points="345.648,186.273 345.648,223.926 256,246.437 256,225.718 325.727,208.386 325.727,186.273 
			"/>
</g>
<g>
</g>
<g>
</g>
<g>
</g>
<g>
</g>
<g>
</g>
<g>
</g>
<g>
</g>
<g>
</g>
<g>
</g>
<g>
</g>
<g>
</g>
<g>
</g>
<g>
</g>
<g>
</g>
<g>
</g>
</svg>
