<?xml version="1.0" encoding="iso-8859-1"?>
<!-- Generator: Adobe Illustrator 19.0.0, SVG Export Plug-In . SVG Version: 6.00 Build 0)  -->
<svg version="1.1" id="Capa_1" xmlns="http://www.w3.org/2000/svg" xmlns:xlink="http://www.w3.org/1999/xlink" x="0px" y="0px"
	 viewBox="0 0 512 512" style="enable-background:new 0 0 512 512;" xml:space="preserve">
<circle style="fill:#32D736;" cx="256" cy="256" r="256"/>
<path style="fill:#0CA656;" d="M310.136,506.246c90.799-19.551,163.695-87.248,190.636-175.063L368.325,198.736l-114.392-24.579
	l-69.927-69.924L93,143.375l43.934,43.476l14.438,60.688l100.171,100.174l14.326,52.187L222.891,419L310.136,506.246z"/>
<polygon style="fill:#FE73B1;" points="308.848,313.305 308.848,419 222.891,419 222.891,399.898 251.543,399.898 251.543,313.305 
	270.645,313.305 270.645,399.898 289.746,399.898 289.746,313.305 "/>
<polygon style="fill:#FE52A2;" points="289.746,313.305 308.848,313.305 308.848,419 280.195,419 280.195,399.898 289.746,399.898 
	"/>
<path style="fill:#FE73B1;" d="M211.335,279.989L163.329,256c-16.285-8.142-26.395-24.511-26.395-42.717V165.76L93,143.375
	l38.822-39.667C138.724,96.805,147.911,93,157.677,93c20.156,0,36.562,16.397,36.562,36.562v63.23l32.803,16.406L211.335,279.989z"
	/>
<path style="fill:#57555C;" d="M419,284.652h-47.117c-14.326,23.686-39.54,38.203-67.619,38.203h-43.17
	c-36.866,0-66.855-29.99-66.855-66.855c0-4.967,0.382-9.742,1.146-14.326c2.674-16.427,9.933-30.944,20.248-42.597l64.563,16.428
	l9.168,2.292l25.023-45.844c53.675,8.405,71.949,46.799,93.534,90.541L419,284.652z"/>
<path style="fill:#3C3A41;" d="M419,284.652h-47.117c-14.326,23.686-39.54,38.203-67.619,38.203h-24.068v-107.35l9.168,2.292
	l25.023-45.844c53.675,8.405,71.949,46.799,93.534,90.541L419,284.652z"/>
<path style="fill:#AEADB3;" d="M314.387,171.953c-4.965-0.955-13.561-1.91-24.067-1.91h-10.124
	c-25.978,0-49.664,11.843-64.563,29.034c3.247,14.517,10.314,27.889,20.821,39.159c11.843,12.607,27.124,21.394,43.742,25.023
	c6.304,1.527,12.607,2.292,19.102,2.292h41.259L314.387,171.953z"/>
<path style="fill:#8B8892;" d="M299.297,265.551c-6.495,0-12.798-0.765-19.102-2.292v-93.216h10.124
	c10.506,0,19.102,0.955,24.067,1.91l26.169,93.598H299.297z"/>
<g>
</g>
<g>
</g>
<g>
</g>
<g>
</g>
<g>
</g>
<g>
</g>
<g>
</g>
<g>
</g>
<g>
</g>
<g>
</g>
<g>
</g>
<g>
</g>
<g>
</g>
<g>
</g>
<g>
</g>
</svg>
