<?xml version="1.0" encoding="iso-8859-1"?>
<!-- Generator: Adobe Illustrator 19.0.0, SVG Export Plug-In . SVG Version: 6.00 Build 0)  -->
<svg version="1.1" id="Capa_1" xmlns="http://www.w3.org/2000/svg" xmlns:xlink="http://www.w3.org/1999/xlink" x="0px" y="0px"
	 viewBox="0 0 512 512" style="enable-background:new 0 0 512 512;" xml:space="preserve">
<circle style="fill:#FEDB41;" cx="256" cy="256" r="256"/>
<path style="fill:#FEA832;" d="M511.403,273.34l-129.37-129.37l-16.405-11.6l-16.88-17.207l-22.1-1.336l-17.51-17.869L285.676,107
	l-19.774-20l-19.805,28.235L221.99,90.832l-8.768,43.774c-0.882,0.313-1.757,0.641-2.631,0.971l-30.183-30.317l2.883,44.615
	c-3.809,2.62-30.796,29.607-33.416,33.416l-44.615-2.883l30.317,30.183c-0.331,0.874-0.659,1.749-0.971,2.631l-43.774,8.768
	l24.403,24.108L87,265.902l20,19.774l-11.043,23.462l17.869,17.51l1.337,22.1l17.207,16.881l11.601,16.404l9.222,9.222
	c-3.99,7.173-6.118,33.745-6.118,33.745l85.964,85.964C240.604,511.636,248.259,512,256,512
	C391.555,512,502.484,406.636,511.403,273.34z"/>
<g>
	
		<rect x="194.09" y="107.398" transform="matrix(-0.2589 -0.9659 0.9659 -0.2589 162.191 359.0416)" style="fill:#73553A;" width="49.49" height="19.803"/>
	
		<rect x="159.434" y="121.74" transform="matrix(-0.4999 -0.8661 0.8661 -0.4999 162.2417 356.9726)" style="fill:#73553A;" width="49.501" height="19.808"/>
	
		<rect x="129.718" y="144.571" transform="matrix(-0.7071 -0.7071 0.7071 -0.7071 154.4728 372.9288)" style="fill:#73553A;" width="49.51" height="19.803"/>
	
		<rect x="106.908" y="174.307" transform="matrix(-0.8661 -0.4999 0.4999 -0.8661 153.6005 409.5688)" style="fill:#73553A;" width="49.501" height="19.808"/>
	
		<rect x="92.555" y="208.929" transform="matrix(-0.9659 -0.2589 0.2589 -0.9659 173.9448 460.5678)" style="fill:#73553A;" width="49.49" height="19.803"/>
	<rect x="87" y="246.1" style="fill:#73553A;" width="50.17" height="19.805"/>
	
		<rect x="107.406" y="268.409" transform="matrix(-0.2588 -0.9659 0.9659 -0.2588 -135.498 482.3334)" style="fill:#73553A;" width="19.802" height="49.489"/>
	
		<rect x="121.727" y="303.044" transform="matrix(-0.4999 -0.8661 0.8661 -0.4999 -86.4655 605.6602)" style="fill:#73553A;" width="19.808" height="49.501"/>
	
		<rect x="144.569" y="332.767" transform="matrix(-0.7071 -0.7071 0.7071 -0.7071 10.8922 719.5551)" style="fill:#73553A;" width="19.803" height="49.51"/>
	<rect x="246.1" y="87" style="fill:#73553A;" width="19.805" height="50.17"/>
</g>
<g>
	
		<rect x="332.771" y="347.625" transform="matrix(-0.7071 -0.7071 0.7071 -0.7071 357.5247 863.1444)" style="fill:#59422D;" width="49.51" height="19.803"/>
	
		<rect x="355.635" y="317.89" transform="matrix(-0.8661 -0.4999 0.4999 -0.8661 545.9706 801.8449)" style="fill:#59422D;" width="49.501" height="19.808"/>
	
		<rect x="369.959" y="283.262" transform="matrix(-0.9659 -0.2589 0.2589 -0.9659 700.0487 678.5203)" style="fill:#59422D;" width="49.49" height="19.803"/>
	<rect x="374.83" y="246.1" style="fill:#59422D;" width="50.17" height="19.805"/>
	
		<rect x="384.795" y="194.072" transform="matrix(-0.2588 -0.9659 0.9659 -0.2588 285.4851 656.6964)" style="fill:#59422D;" width="19.802" height="49.489"/>
	
		<rect x="370.439" y="159.456" transform="matrix(-0.4999 -0.8661 0.8661 -0.4999 410.9355 605.7001)" style="fill:#59422D;" width="19.808" height="49.501"/>
	
		<rect x="347.63" y="129.715" transform="matrix(-0.7071 -0.7071 0.7071 -0.7071 501.1174 516.5092)" style="fill:#59422D;" width="19.803" height="49.51"/>
	
		<rect x="317.896" y="106.896" transform="matrix(-0.8661 -0.4999 0.4999 -0.8661 545.8954 409.5286)" style="fill:#59422D;" width="19.808" height="49.501"/>
	
		<rect x="283.267" y="92.544" transform="matrix(-0.9659 -0.2588 0.2588 -0.9659 545.9932 306.4542)" style="fill:#59422D;" width="19.802" height="49.489"/>
	<rect x="256" y="87" style="fill:#59422D;" width="9.902" height="50.17"/>
</g>
<path style="fill:#896748;" d="M256,127.27c-70.901,0-128.73,57.829-128.73,128.73c0,36.836,15.844,72.089,43.571,96.449
	l2.773,2.575h164.774l2.773-2.575c27.727-24.359,43.571-59.612,43.571-96.449C384.73,185.099,326.901,127.27,256,127.27z"/>
<path style="fill:#73553A;" d="M384.73,256c0,36.836-15.844,72.089-43.571,96.449l-2.773,2.575H256V127.27
	C326.901,127.27,384.73,185.099,384.73,256z"/>
<path style="fill:#FEDBAB;" d="M295.609,186.684c-16.24,0-30.499,7.724-39.609,19.805c-9.111-12.081-23.369-19.805-39.609-19.805
	c-27.331,0-49.512,22.181-49.512,49.512v99.023c0,16.24,4.356,32.083,12.477,45.749l3.565,5.941l6.931-1.386
	c11.884-2.575,20.598,0.792,27.727,8.121c5.149,4.951,8.119,11.486,8.516,18.813l0.396,7.131l6.733,1.782
	c7.131,1.981,14.656,2.971,22.776,2.971c8.12,0,15.645-0.99,22.776-2.971l6.733-1.782l0.396-7.131
	c0.396-7.328,3.366-13.862,8.714-19.012c5.346-5.546,12.872-8.714,20.795-8.714c1.98,0,3.961,0.198,6.536,0.792l6.931,1.386
	l3.565-5.941c8.319-13.864,12.675-29.707,12.675-45.749v-99.023C345.121,208.865,322.94,186.684,295.609,186.684z"/>
<path style="fill:#FEC478;" d="M345.121,236.195v99.023c0,16.042-4.356,31.885-12.675,45.749l-3.565,5.941l-6.931-1.386
	c-2.575-0.594-4.556-0.792-6.536-0.792c-7.922,0-15.448,3.168-20.795,8.714c-5.348,5.149-8.318,11.684-8.714,19.012l-0.396,7.131
	l-6.733,1.782c-7.131,1.981-14.656,2.971-22.776,2.971V206.488c9.111-12.081,23.369-19.805,39.609-19.805
	C322.94,186.684,345.121,208.865,345.121,236.195z"/>
<rect x="206.49" y="246.1" style="fill:#57555C;" width="19.805" height="19.805"/>
<rect x="285.71" y="246.1" style="fill:#3C3A41;" width="19.805" height="19.805"/>
<path style="fill:#57555C;" d="M256,265.902c-16.438,0-29.707,13.269-29.707,29.707c0,16.437,13.269,29.707,29.707,29.707
	s29.707-13.27,29.707-29.707C285.707,279.171,272.438,265.902,256,265.902z"/>
<path style="fill:#3C3A41;" d="M285.707,295.609c0,16.437-13.269,29.707-29.707,29.707v-59.414
	C272.438,265.902,285.707,279.171,285.707,295.609z"/>
<path style="fill:#896748;" d="M246.098,425h-99.023v-9.902c0-13.374,5.212-25.81,14.679-35.026
	c6.411-6.663,14.815-11.334,24.079-13.287c18.422-3.926,34.223,1.615,45.779,13.48c8.394,8.152,13.538,19.466,14.273,31.66
	c0.213,0.203,0.213,1.992,0.213,3.172L246.098,425L246.098,425z"/>
<path style="fill:#73553A;" d="M364.926,425h-99.023v-9.902c0-1.18,0-2.969,0.474-4.922c0.474-10.444,5.618-21.758,14.215-30.113
	c9.013-9.264,21.449-14.476,34.823-14.476c3.356,0,6.721,0.387,10.579,1.199c9.4,1.982,17.871,6.663,24.475,13.509
	c9.245,8.993,14.457,21.429,14.457,34.803V425z"/>
<g>
</g>
<g>
</g>
<g>
</g>
<g>
</g>
<g>
</g>
<g>
</g>
<g>
</g>
<g>
</g>
<g>
</g>
<g>
</g>
<g>
</g>
<g>
</g>
<g>
</g>
<g>
</g>
<g>
</g>
</svg>
