<svg height="512pt" viewBox="0 0 512 512" width="512pt" xmlns="http://www.w3.org/2000/svg"><path d="m512 256c0 141.386719-114.613281 256-256 256s-256-114.613281-256-256 114.613281-256 256-256 256 114.613281 256 256zm0 0" fill="#ffe000"/><path d="m512 256c0-6.363281-.242188-12.671875-.695312-18.917969l-87.976563-88.136719-38.253906 77.878907-47.175781-47.175781-99.199219 100.882812-100.878907-100.878906-49.148437 183.402344 148.410156 148.25c6.246094.453124 12.554688.695312 18.917969.695312 141.386719 0 256-114.613281 256-256zm0 0" fill="#fdba12"/><path d="m88.671875 363.054688c0-13.382813-7.898437-13.382813-7.898437-26.765626 0-13.386718 7.898437-13.386718 7.898437-26.769531 0-13.382812-7.898437-13.382812-7.898437-26.761719 0-13.386718 7.898437-13.386718 7.898437-26.765624 0-13.382813-7.898437-13.382813-7.898437-26.765626 0-13.382812 7.898437-13.382812 7.898437-26.761718s-7.898437-13.378906-7.898437-26.761719c0-13.378906 7.898437-13.378906 7.898437-26.757813h.164063c45.777343 14.058594 79.058593 56.667969 79.058593 107.054688s-33.445312 92.996094-79.222656 107.054688zm0 0" fill="#ed074f"/><path d="m423.328125 148.945312c0 13.382813 7.898437 13.382813 7.898437 26.765626 0 13.386718-7.898437 13.386718-7.898437 26.769531 0 13.382812 7.898437 13.382812 7.898437 26.761719 0 13.382812-7.898437 13.382812-7.898437 26.765624 0 13.382813 7.898437 13.382813 7.898437 26.765626 0 13.382812-7.898437 13.382812-7.898437 26.761718s7.898437 13.378906 7.898437 26.761719c0 13.378906-7.898437 13.378906-7.898437 26.757813h-.164063c-45.777343-14.058594-79.058593-56.667969-79.058593-107.054688s33.445312-92.996094 79.222656-107.058594zm0 0" fill="#d80e56"/><path d="m367.976562 256c0 61.84375-50.132812 111.976562-111.976562 111.976562s-111.976562-50.132812-111.976562-111.976562 50.132812-111.976562 111.976562-111.976562 111.976562 50.132812 111.976562 111.976562zm0 0" fill="#ff0062"/><path d="m256 144.023438c-.078125 0-.15625.003906-.238281.003906v223.945312c.082031 0 .160156.003906.238281.003906 61.84375 0 111.976562-50.132812 111.976562-111.976562 0-61.839844-50.132812-111.976562-111.976562-111.976562zm0 0" fill="#dd0e4e"/><path d="m244.296875 344.339844c-2.625 8.136718-5.285156 15.375-7.972656 21.910156 6.390625 1.132812 12.960937 1.726562 19.675781 1.726562 5.136719 0 10.191406-.355468 15.144531-1.023437.546875-7.042969.855469-14.742187.855469-23.289063 0-43.832031-8-65.75-16-87.664062.882812 23.3125 1.761719 46.628906-11.703125 88.339844zm0 0" fill="#fff"/><path d="m256 256c.414062 10.929688.828125 21.859375-.238281 34.683594v77.289062c.078125 0 .15625.003906.238281.003906 5.136719 0 10.191406-.355468 15.144531-1.023437.546875-7.042969.855469-14.742187.855469-23.289063 0-43.832031-8-65.75-16-87.664062zm0 0" fill="#e9edf5"/><path d="m267.703125 167.652344c2.625-8.132813 5.285156-15.371094 7.972656-21.902344-6.390625-1.132812-12.960937-1.726562-19.675781-1.726562-5.136719 0-10.191406.355468-15.144531 1.023437-.546875 7.039063-.855469 14.738281-.855469 23.28125 0 43.835937 8 65.753906 16 87.671875-.878906-23.316406-1.761719-46.632812 11.703125-88.347656zm0 0" fill="#fff"/><path d="m267.703125 167.652344c2.625-8.132813 5.285156-15.371094 7.972656-21.902344-6.390625-1.132812-12.960937-1.726562-19.675781-1.726562-.078125 0-.15625.003906-.238281.003906v84.902344c.703125-16.21875 3.503906-35.132813 11.941406-61.277344zm0 0" fill="#e9edf5"/><path d="m256 256c-.082031-2.226562-.167969-4.453125-.238281-6.695312v6.039062c.082031.21875.160156.4375.238281.65625zm0 0" fill="#fff"/><path d="m185.261719 310.191406c-7.605469 3.894532-14.601563 7.128906-21.121094 9.847656 6.6875 9.574219 14.832031 18.054688 24.117187 25.121094 5.363282-4.589844 11.027344-9.820312 17.066407-15.859375 30.996093-30.996093 40.835937-52.148437 50.675781-73.300781-15.859375 17.105469-31.722656 34.214844-70.738281 54.191406zm0 0" fill="#fff"/><path d="m323.742188 166.839844c-5.363282 4.589844-11.023438 9.8125-17.0625 15.851562-30.996094 30.996094-40.835938 52.152344-50.675782 73.308594 15.863282-17.109375 31.726563-34.21875 70.746094-54.195312 7.601562-3.894532 14.59375-7.128907 21.109375-9.847657-6.691406-9.574219-14.835937-18.054687-24.117187-25.117187zm0 0" fill="#e9edf5"/><path d="m256 256c23.316406-.882812 46.632812-1.761719 88.347656 11.703125 8.132813 2.625 15.371094 5.285156 21.90625 7.96875 1.128906-6.386719 1.722656-12.960937 1.722656-19.671875 0-5.136719-.355468-10.191406-1.023437-15.144531-7.039063-.550781-14.738281-.855469-23.28125-.855469-43.835937 0-65.753906 8-87.671875 16zm0 0" fill="#e9edf5"/><path d="m167.660156 244.296875c-8.136718-2.625-15.375-5.285156-21.910156-7.972656-1.132812 6.386719-1.726562 12.960937-1.726562 19.675781 0 5.136719.355468 10.191406 1.023437 15.144531 7.042969.546875 14.746094.855469 23.289063.855469 43.832031 0 65.75-8 87.667968-16-23.316406.882812-46.632812 1.761719-88.34375-11.703125zm0 0" fill="#fff"/><path d="m201.804688 185.25c-3.890626-7.601562-7.125-14.59375-9.84375-21.109375-9.578126 6.6875-18.054688 14.835937-25.121094 24.117187 4.589844 5.363282 9.816406 11.023438 15.851562 17.0625 31 30.996094 52.152344 40.835938 73.308594 50.675782-17.109375-15.863282-34.21875-31.726563-54.195312-70.746094zm0 0" fill="#fff"/><path d="m329.300781 306.671875c-30.992187-30.992187-52.148437-40.832031-73.300781-50.675781 17.109375 15.863281 34.21875 31.726562 54.191406 70.742187 3.894532 7.605469 7.128906 14.601563 9.851563 21.121094 9.574219-6.6875 18.054687-14.835937 25.117187-24.117187-4.589844-5.367188-9.816406-11.027344-15.859375-17.070313zm0 0" fill="#e9edf5"/></svg>