<svg height="512pt" viewBox="0 0 512 512" width="512pt" xmlns="http://www.w3.org/2000/svg"><path d="m512 256c0 141.386719-114.613281 256-256 256s-256-114.613281-256-256 114.613281-256 256-256 256 114.613281 256 256zm0 0" fill="#ffe000"/><path d="m512 256c0-7.207031-.3125-14.339844-.898438-21.398438l-89.101562-89.101562-28.371094 49.097656-115.640625-115.644531-58.707031 44.949219 59.9375 59.933594-216.71875 190.164062 130.074219 130.074219c20.285156 5.171875 41.53125 7.925781 63.425781 7.925781 141.386719 0 256-114.613281 256-256zm0 0" fill="#fdba12"/><path d="m90 145.5h332v209h-332zm0 0" fill="#cc866d"/><path d="m255.667969 145.5h166.332031v209h-166.332031zm0 0" fill="#bf7e6a"/><path d="m422 145.5h-332v209h57v-159h275zm0 0" fill="#994c0f"/><path d="m255.667969 145.5h166.332031v50h-166.332031zm0 0" fill="#912e13"/><path d="m62.5 325h387v49h-387zm0 0" fill="#fff"/><path d="m255.667969 325h193.832031v49h-193.832031zm0 0" fill="#e9edf5"/><path d="m292.5 145.5h-28.582031c-31.4375 0-56.917969-25.480469-56.917969-56.917969v-28.582031h28.582031c31.433594 0 56.917969 25.480469 56.917969 56.917969zm0 0" fill="#ff0062"/><path d="m292.5 145.5v-28.582031c0-31.4375-25.480469-56.917969-56.917969-56.917969h-28.582031v.667969l84.832031 84.832031zm0 0" fill="#dd0e4e"/></svg>