<svg height="512pt" viewBox="0 0 512 512" width="512pt" xmlns="http://www.w3.org/2000/svg"><path d="m512 256c0 141.386719-114.613281 256-256 256s-256-114.613281-256-256 114.613281-256 256-256 256 114.613281 256 256zm0 0" fill="#994c0f"/><path d="m511.914062 262.699219-180.082031-180.078125-119.886719 16.371094-56.460937 114.042968 177.925781 177.925782-24.425781 42.039062 55.105469 55.109375c85.457031-39.867187 145.257812-125.511719 147.824218-225.410156zm0 0" fill="#912c12"/><path d="m331.832031 441.824219c-18.777343 0-34-15.222657-34-34v-245.820313c0-23.070312-18.765625-41.835937-41.832031-41.835937s-41.832031 18.765625-41.832031 41.835937v27.660156c0 18.777344-15.222657 34-34 34-18.777344 0-34-15.222656-34-34v-27.660156c0-60.5625 49.269531-109.835937 109.832031-109.835937s109.832031 49.273437 109.832031 109.835937v245.820313c0 18.777343-15.222656 34-34 34zm0 0" fill="#ff0062"/><path d="m256 52.167969c-.078125 0-.160156.003906-.238281.003906v68.003906c.082031 0 .160156-.007812.238281-.007812 23.066406 0 41.832031 18.765625 41.832031 41.835937v245.820313c0 18.777343 15.222657 34 34 34 18.777344 0 34-15.222657 34-34v-245.820313c0-60.5625-49.269531-109.835937-109.832031-109.835937zm0 0" fill="#ea0663"/><g fill="#e9edf5"><path d="m365.832031 248.628906v-74.242187l-68 68v74.242187zm0 0"/><path d="m365.832031 289.027344-68 68v50.796875c0 6.683593 1.9375 12.914062 5.273438 18.171875l62.726562-62.726563zm0 0"/><path d="m297.832031 162.003906v39.984375l65.101563-65.097656c-4.324219-18.421875-13.296875-35.070313-25.609375-48.632813l-48.21875 48.214844c5.464843 7.070313 8.726562 15.921875 8.726562 25.53125zm0 0"/></g><path d="m258.734375 52.203125-112.566406 112.570313v24.890624c0 13.347657 7.695312 24.894532 18.890625 30.457032l49.109375-49.105469v-9.011719c0-23.066406 18.765625-41.832031 41.832031-41.832031 2.804688 0 5.546875.28125 8.199219.808594l51.277343-51.273438c-16.4375-10.628906-35.875-16.992187-56.742187-17.503906zm0 0" fill="#fff"/><path d="m258.734375 52.203125-2.972656 2.972656v65c.082031 0 .160156-.007812.238281-.007812 2.804688 0 5.546875.28125 8.199219.8125l51.277343-51.277344c-16.4375-10.625-35.875-16.988281-56.742187-17.5zm0 0" fill="#e9edf5"/></svg>