<svg height="512pt" viewBox="0 0 512 512" width="512pt" xmlns="http://www.w3.org/2000/svg"><path d="m512 256c0 141.386719-114.613281 256-256 256s-256-114.613281-256-256 114.613281-256 256-256 256 114.613281 256 256zm0 0" fill="#00edff"/><path d="m512 256c0-1.519531-.03125-3.035156-.058594-4.550781l-142.941406-142.941407-4.347656 5.332032-21.511719-21.511719-20.796875 24.84375-29.699219-29.699219-7.578125 39.644532-39.644531-39.644532-10.480469 38.335938-33.480468-33.480469-58.460938 245.71875-46.496094 48.953125 122.300782 122.300781c12.144531 1.769531 24.558593 2.699219 37.195312 2.699219 141.386719 0 256-114.613281 256-256zm0 0" fill="#07bee8"/><path d="m203.074219 99.753906c0 9.890625-8.019531 17.910156-17.914063 17.910156-9.890625 0-17.914062-8.019531-17.914062-17.910156 0-9.894531 8.023437-17.914062 17.914062-17.914062 9.894532 0 17.914063 8.019531 17.914063 17.914062zm0 0" fill="#ff0062"/><path d="m250.300781 99.753906c0 9.890625-8.019531 17.910156-17.914062 17.910156s-17.914063-8.019531-17.914063-17.910156c0-9.894531 8.019532-17.914062 17.914063-17.914062s17.914062 8.019531 17.914062 17.914062zm0 0" fill="#ff0062"/><path d="m297.527344 99.753906c0 9.890625-8.019532 17.910156-17.914063 17.910156s-17.914062-8.019531-17.914062-17.910156c0-9.894531 8.019531-17.914062 17.914062-17.914062s17.914063 8.019531 17.914063 17.914062zm0 0" fill="#ef0665"/><path d="m344.753906 99.753906c0 9.890625-8.023437 17.910156-17.914062 17.910156-9.894532 0-17.914063-8.019531-17.914063-17.910156 0-9.894531 8.019531-17.914062 17.914063-17.914062 9.890625 0 17.914062 8.019531 17.914062 17.914062zm0 0" fill="#ef0665"/><path d="m143 108.507812h226v141.492188h-226zm0 0" fill="#ff8287"/><path d="m255.761719 108.507812h113.238281v141.492188h-113.238281zm0 0" fill="#ff5a5f"/><path d="m369 108.507812h-226v63.726563c5.503906-3.242187 11.171875-6.382813 22.164062-6.382813 22.707032 0 22.707032 13.402344 45.410157 13.402344 22.707031 0 22.707031-13.402344 45.410156-13.402344 22.707031 0 22.707031 13.402344 45.414063 13.402344 22.703124 0 22.703124-13.402344 45.410156-13.402344 11.007812 0 16.679687 3.152344 22.191406 6.398438zm0 0" fill="#fff"/><path d="m255.761719 108.507812v57.347657c.078125 0 .144531-.003907.222656-.003907 22.707031 0 22.707031 13.402344 45.414063 13.402344 22.703124 0 22.703124-13.402344 45.410156-13.402344 11.007812 0 16.679687 3.152344 22.191406 6.398438v-63.742188zm0 0" fill="#e9edf5"/><path d="m114.332031 226.507812h283.332031v141.492188h-283.332031zm0 0" fill="#ff8287"/><path d="m255.761719 226.507812h141.90625v141.492188h-141.90625zm0 0" fill="#ff5a5f"/><path d="m114.332031 296.113281c4.472657-1.351562 9.769531-2.222656 16.535157-2.222656 31.277343 0 31.277343 18.464844 62.554687 18.464844s31.277344-18.464844 62.554687-18.464844c31.28125 0 31.28125 18.464844 62.558594 18.464844s31.277344-18.464844 62.558594-18.464844c6.785156 0 12.089844.875 16.570312 2.234375v-69.617188h-283.332031zm0 0" fill="#ff0062"/><path d="m255.761719 226.507812v67.386719c.074219 0 .140625-.003906.21875-.003906 31.277343 0 31.277343 18.464844 62.554687 18.464844 31.28125 0 31.28125-18.464844 62.558594-18.464844 6.785156 0 12.09375.875 16.570312 2.234375v-69.617188zm0 0" fill="#ea0663"/><path d="m96.503906 348h318.992188v39h-318.992188zm0 0" fill="#fff"/><path d="m255.761719 348h159.734375v39h-159.734375zm0 0" fill="#e9edf5"/></svg>