<svg height="512pt" viewBox="0 0 512 512" width="512pt" xmlns="http://www.w3.org/2000/svg"><path d="m512 256c0 141.386719-114.613281 256-256 256s-256-114.613281-256-256 114.613281-256 256-256 256 114.613281 256 256zm0 0" fill="#ffe000"/><path d="m512 256c0-6.929688-.285156-13.792969-.824219-20.585938l-152.203125-152.203124-205.945312 345.578124 82.386718 82.386719c6.792969.539063 13.65625.824219 20.585938.824219 141.386719 0 256-114.613281 256-256zm0 0" fill="#fdba12"/><path d="m153.027344 83.210938h205.945312v345.578124h-205.945312zm0 0" fill="#994c0f"/><path d="m255.761719 83.210938h103.210937v345.578124h-103.210937zm0 0" fill="#912c12"/><path d="m179.25 109h60.988281v85.328125h-60.988281zm0 0" fill="#bf6015"/><path d="m271.761719 109h60.988281v85.328125h-60.988281zm0 0" fill="#994c10"/><path d="m179.25 213.335938h60.988281v85.328124h-60.988281zm0 0" fill="#bf6015"/><path d="m271.761719 213.335938h60.988281v85.328124h-60.988281zm0 0" fill="#994c10"/><path d="m179.25 318.671875h60.988281v85.328125h-60.988281zm0 0" fill="#bf6015"/><path d="m271.761719 318.671875h60.988281v85.328125h-60.988281zm0 0" fill="#994c10"/></svg>