<svg height="512pt" viewBox="0 0 512 512" width="512pt" xmlns="http://www.w3.org/2000/svg"><path d="m512 256c0 141.386719-114.613281 256-256 256s-256-114.613281-256-256 114.613281-256 256-256 256 114.613281 256 256zm0 0" fill="#00edff"/><path d="m512 256c0-7.34375-.328125-14.609375-.933594-21.796875l-109.949218-109.949219-215 49.605469-66.449219 222.953125 114.222656 114.226562c7.289063.625 14.660156.960938 22.109375.960938 141.386719 0 256-114.613281 256-256zm0 0" fill="#07bee8"/><path d="m256 60c-108.246094 0-196 87.753906-196 196s87.753906 196 196 196 196-87.753906 196-196-87.753906-196-196-196zm0 273.667969c-42.894531 0-77.667969-34.773438-77.667969-77.667969s34.773438-77.667969 77.667969-77.667969 77.667969 34.773438 77.667969 77.667969-34.773438 77.667969-77.667969 77.667969zm0 0" fill="#ffff91"/><path d="m256 60c-.078125 0-.15625.003906-.238281.003906v118.335938c.082031 0 .160156-.007813.238281-.007813 42.894531 0 77.667969 34.773438 77.667969 77.667969s-34.773438 77.667969-77.667969 77.667969c-.078125 0-.15625-.007813-.238281-.007813v118.335938c.082031 0 .160156.003906.238281.003906 108.246094 0 196-87.753906 196-196s-87.753906-196-196-196zm0 0" fill="#fff573"/><path d="m178.332031 256c0-42.894531 34.773438-77.667969 77.667969-77.667969s77.667969 34.773438 77.667969 77.667969c0 21.835938-9.027344 41.554688-23.535157 55.667969h133.835938c5.214844-17.648438 8.03125-36.328125 8.03125-55.667969 0-108.246094-87.753906-196-196-196s-196 87.753906-196 196c0 19.339844 2.816406 38.019531 8.03125 55.667969h133.835938c-14.507813-14.113281-23.535157-33.832031-23.535157-55.667969zm0 0" fill="#a700ff"/><path d="m256 60c-.078125 0-.15625.003906-.238281.003906v118.335938c.082031 0 .160156-.007813.238281-.007813 42.894531 0 77.667969 34.773438 77.667969 77.667969 0 21.835938-9.027344 41.554688-23.535157 55.667969h133.835938c5.214844-17.648438 8.03125-36.328125 8.03125-55.667969 0-108.246094-87.753906-196-196-196zm0 0" fill="#9206ed"/><path d="m95.859375 266.414062 15.554687-15.554687 32.054688 32.054687-15.554688 15.558594zm0 0" fill="#fff573"/><path d="m137.25 173.859375 15.554688 15.554687-32.054688 32.054688-15.554688-15.554688zm0 0" fill="#fff"/><path d="m358.636719 154.523438 15.554687 15.558593-32.054687 32.054688-15.554688-15.558594zm0 0" fill="#e9edf5"/><path d="m363.992188 278.828125 15.558593 15.558594-32.054687 32.054687-15.558594-15.558594zm0 0" fill="#e80a65"/><path d="m154.523438 132.417969 15.558593-15.554688 32.054688 32.054688-15.554688 15.554687zm0 0" fill="#ff0062"/><path d="m286.050781 100.417969 15.558594-15.554688 32.054687 32.054688-15.558593 15.554687zm0 0" fill="#e80a65"/><path d="m264.25 114.523438 15.554688 15.558593-32.054688 32.054688-15.554688-15.554688zm0 0" fill="#fff"/><path d="m264.25 114.527344-8.488281 8.488281v31.113281l24.042969-24.042968zm0 0" fill="#e9edf5"/><path d="m380.523438 241.75 15.554687-15.554688 32.054687 32.054688-15.554687 15.554688zm0 0" fill="#ffc200"/></svg>