<svg height="512pt" viewBox="0 0 512 512" width="512pt" xmlns="http://www.w3.org/2000/svg"><path d="m512 256c0 141.386719-114.613281 256-256 256s-256-114.613281-256-256 114.613281-256 256-256 256 114.613281 256 256zm0 0" fill="#994c0f"/><path d="m512 256c0-3.597656-.09375-7.171875-.238281-10.730469l-100.628907-100.628906-324.109374 81.71875 124.167968 124.167969-124.167968 2.734375 158.507812 158.507812c3.472656.140625 6.960938.230469 10.46875.230469 141.386719 0 256-114.613281 256-256zm0 0" fill="#713708"/><path d="m435 202.613281c0-64.136719-80.140625-116.128906-179-116.128906s-179 51.992187-179 116.128906v.40625c.109375 21.035157 21.222656 37.914063 46.773438 37.914063h264.453124c25.550782 0 46.664063-16.878906 46.773438-37.914063 0-.136719 0-.269531 0-.40625zm0 0" fill="#ffd7dc"/><path d="m256 86.484375c-.078125 0-.15625 0-.238281 0v154.449219h132.464843c25.550782 0 46.664063-16.878906 46.773438-37.914063 0-.136719 0-.269531 0-.40625 0-64.136719-80.140625-116.128906-179-116.128906zm0 0" fill="#ffcdd2"/><path d="m397.050781 365.515625h-282.101562c-20.960938 0-37.949219-16.988281-37.949219-37.945313 0-20.960937 16.988281-37.949218 37.949219-37.949218h282.101562c20.960938 0 37.949219 16.988281 37.949219 37.949218 0 20.957032-16.988281 37.945313-37.949219 37.945313zm0 0" fill="#ffd7dc"/><path d="m397.050781 289.621094h-141.289062v75.894531h141.289062c20.960938 0 37.949219-16.988281 37.949219-37.945313 0-20.960937-16.988281-37.949218-37.949219-37.949218zm0 0" fill="#ffcdd2"/><path d="m394.902344 296.78125h-277.804688c-16.609375 0-30.074218-13.464844-30.074218-30.070312 0-16.609376 13.464843-30.074219 30.074218-30.074219h277.804688c16.609375 0 30.074218 13.464843 30.074218 30.074219 0 16.605468-13.464843 30.070312-30.074218 30.070312zm0 0" fill="#fff"/><path d="m394.902344 236.636719h-139.140625v60.144531h139.140625c16.609375 0 30.074218-13.464844 30.074218-30.070312 0-16.609376-13.464843-30.074219-30.074218-30.074219zm0 0" fill="#e9edf5"/></svg>