<svg height="512pt" viewBox="0 0 512 512" width="512pt" xmlns="http://www.w3.org/2000/svg"><path d="m512 256c0 141.386719-114.613281 256-256 256s-256-114.613281-256-256 114.613281-256 256-256 256 114.613281 256 256zm0 0" fill="#00edff"/><path d="m510.785156 280.953125-207.285156-207.285156-145.679688 356.992187 80.738282 80.738282c5.765625.386718 11.578125.601562 17.441406.601562 132.964844 0 242.242188-101.371094 254.785156-231.046875zm0 0" fill="#07bee8"/><path d="m347.589844 269.394531h-183.179688c-34.136718 0-61.8125-27.671875-61.8125-61.808593 0-34.136719 27.675782-61.8125 61.8125-61.8125h183.179688c34.136718 0 61.8125 27.675781 61.8125 61.8125 0 34.136718-27.675782 61.808593-61.8125 61.808593zm0 0" fill="#ff0062"/><path d="m347.589844 145.773438h-91.828125v123.621093h91.828125c34.136718 0 61.8125-27.671875 61.8125-61.808593 0-34.136719-27.675782-61.8125-61.8125-61.8125zm0 0" fill="#ef0766"/><path d="m270.496094 157.507812h-28.988282c-26.746093 0-48.421874-21.679687-48.421874-48.421874 0-26.746094 21.675781-48.425782 48.421874-48.425782h28.988282c26.742187 0 48.421875 21.679688 48.421875 48.425782 0 26.742187-21.679688 48.421874-48.421875 48.421874zm0 0" fill="#a700ff"/><path d="m270.496094 60.660156h-14.734375v96.847656h14.734375c26.742187 0 48.421875-21.679687 48.421875-48.421874 0-26.746094-21.679688-48.425782-48.421875-48.425782zm0 0" fill="#8c03e5"/><path d="m398.929688 243.984375-35.738282 17.324219-35.738281-17.324219-35.730469 17.324219-35.734375-17.324219-35.734375 17.324219-35.730468-17.324219-35.726563 17.324219-35.726563-17.324219 44.75 186.675781h196.359376zm0 0" fill="#fff"/><path d="m398.929688 243.984375-35.738282 17.324219-35.738281-17.324219-35.730469 17.324219-35.734375-17.324219-.226562.109375v186.566406h98.417969zm0 0" fill="#e9edf5"/><path d="m185 430.660156h141.332031l36.859375-169.351562-35.738281-17.324219-35.730469 17.324219-35.734375-17.324219-35.734375 17.324219-35.730468-17.324219-35.726563 17.324219zm0 0" fill="#ffe6e6"/><path d="m363.191406 261.308594-35.738281-17.324219-35.730469 17.324219-35.734375-17.324219-.226562.109375v186.566406h70.570312zm0 0" fill="#ffd7dc"/><path d="m291.722656 261.308594-35.734375-17.324219-35.734375 17.324219 6.414063 169.351562h53.664062zm0 0" fill="#fff"/><path d="m291.722656 261.308594-35.734375-17.324219-.226562.109375v186.566406h24.570312zm0 0" fill="#e9edf5"/></svg>