<svg height="512pt" viewBox="0 0 512 512" width="512pt" xmlns="http://www.w3.org/2000/svg"><path d="m512 256c0 141.386719-114.613281 256-256 256s-256-114.613281-256-256 114.613281-256 256-256 256 114.613281 256 256zm0 0" fill="#a700ff"/><path d="m510.9375 279.242188-159.519531-159.523438-5.488281 8.261719-74.882813-74.886719-130.222656 318.207031-38.824219 27.699219 109.066406 109.066406c14.585938 2.582032 29.601563 3.933594 44.933594 3.933594 133.550781 0 243.191406-102.269531 254.9375-232.757812zm0 0" fill="#9503f4"/><path d="m386 385h-260v-177c0-71.796875 58.203125-130 130-130s130 58.203125 130 130zm0 0" fill="#fff"/><path d="m386 208c0-71.796875-58.203125-130-130-130-.078125 0-.15625.003906-.238281.003906v306.996094h130.238281zm0 0" fill="#e9edf5"/><path d="m178.863281 260.878906h154.277344v97.121094h-154.277344zm0 0" fill="#ff82a0"/><path d="m255.761719 260.878906h77.375v97.121094h-77.375zm0 0" fill="#ff6e91"/><path d="m178.863281 307.5h154.277344v23.878906h-154.277344zm0 0" fill="#fcbed2"/><path d="m255.761719 307.5h77.375v23.878906h-77.375zm0 0" fill="#edb4c9"/><path d="m333.136719 260.878906h-154.273438v97.121094h26.484375v-73.886719h127.789063zm0 0" fill="#ff0062"/><path d="m255.761719 260.878906h77.375v23.234375h-77.375zm0 0" fill="#e80360"/><path d="m275.5 65.5c0 10.769531-8.730469 19.5-19.5 19.5s-19.5-8.730469-19.5-19.5 8.730469-19.5 19.5-19.5 19.5 8.730469 19.5 19.5zm0 0" fill="#fff"/><path d="m256 46c-.078125 0-.15625.011719-.238281.011719v38.976562c.082031 0 .160156.011719.238281.011719 10.769531 0 19.5-8.730469 19.5-19.5s-8.730469-19.5-19.5-19.5zm0 0" fill="#e9edf5"/><path d="m102 358h308v41h-308zm0 0" fill="#dcd2cd"/><path d="m255.761719 358h154.238281v41h-154.238281zm0 0" fill="#c8beb9"/><path d="m279.628906 237.375c0 12.632812-10.242187 22.871094-22.875 22.871094-12.632812 0-22.875-10.238282-22.875-22.871094s10.242188-22.875 22.875-22.875c12.632813 0 22.875 10.242188 22.875 22.875zm0 0" fill="#ffe000"/><path d="m256.753906 214.5c-.332031 0-.664062.011719-.992187.023438v45.699218c.328125.015625.660156.023438.992187.023438 12.632813 0 22.875-10.238282 22.875-22.871094s-10.242187-22.875-22.875-22.875zm0 0" fill="#ffc200"/></svg>