<svg height="512pt" viewBox="0 0 512 512" width="512pt" xmlns="http://www.w3.org/2000/svg"><path d="m512 256c0 141.386719-114.613281 256-256 256s-256-114.613281-256-256 114.613281-256 256-256 256 114.613281 256 256zm0 0" fill="#a700ff"/><path d="m299.757812 508.257812c120.539063-20.761718 212.242188-125.792968 212.242188-252.257812 0-1.4375-.03125-2.867188-.054688-4.296875l-164.984374-164.984375-177.78125 181.292969 95.996093 95.996093-21.675781 87.992188zm0 0" fill="#8f03ea"/><path d="m243.5 155h25v297h-25zm0 0" fill="#fff"/><path d="m255.761719 155h12.738281v297h-12.738281zm0 0" fill="#e9edf5"/><path d="m383 175.332031c0 70.140625-56.859375 127-127 127s-127-56.859375-127-127 56.859375-127 127-127 127 56.859375 127 127zm0 0" fill="#ffe000"/><path d="m256 48.332031c-.078125 0-.15625.003907-.238281.003907v253.992187c.082031 0 .160156.003906.238281.003906 70.140625 0 127-56.859375 127-127s-56.859375-127-127-127zm0 0" fill="#ffc200"/><path d="m359 175.332031c0 56.886719-46.113281 103-103 103s-103-46.113281-103-103c0-56.882812 46.113281-103 103-103s103 46.117188 103 103zm0 0" fill="#ffff91"/><path d="m256 72.332031c-.078125 0-.15625.003907-.238281.003907v205.992187c.082031 0 .160156.003906.238281.003906 56.886719 0 103-46.113281 103-103 0-56.882812-46.113281-103-103-103zm0 0" fill="#fff573"/><path d="m264 94.058594v61.210937l43.394531-43.394531c-12.089843-9.804688-27.03125-16.226562-43.394531-17.816406zm0 0" fill="#ffc200"/><g fill="#ffe000"><path d="m236.6875 182.582031h-62.019531c1.464843 16.65625 7.921875 31.871094 17.875 44.144531zm0 0"/><path d="m236.6875 166.582031-43.472656-43.472656c-10.03125 12.050781-16.660156 27.03125-18.414063 43.472656zm0 0"/><path d="m248 155.269531v-61.210937c-16.363281 1.589844-31.304688 8.011718-43.394531 17.816406zm0 0"/><path d="m248 193.898438-44.222656 44.21875c12.234375 10.1875 27.488281 16.863281 44.222656 18.492187zm0 0"/></g><path d="m275.3125 166.582031h61.886719c-1.753907-16.441406-8.378907-31.421875-18.414063-43.472656zm0 0" fill="#ffc200"/><path d="m275.3125 182.582031 44.144531 44.144531c9.953125-12.273437 16.410157-27.488281 17.875-44.144531zm0 0" fill="#ffc200"/><path d="m264 193.894531v62.714844c16.734375-1.628906 31.988281-8.304687 44.222656-18.492187zm0 0" fill="#ffc200"/></svg>