<svg height="512pt" viewBox="0 0 512 512" width="512pt" xmlns="http://www.w3.org/2000/svg"><path d="m512 256c0 141.386719-114.613281 256-256 256s-256-114.613281-256-256 114.613281-256 256-256 256 114.613281 256 256zm0 0" fill="#00edff"/><path d="m509.039062 295.039062-240.539062-240.539062-8.769531 265.617188-112.0625 114.882812 74.816406 74.816406c10.96875 1.433594 22.152344 2.183594 33.515625 2.183594 128.109375 0 234.242188-94.105469 253.039062-216.960938zm0 0" fill="#07bee8"/><path d="m243.5 54.5h25v297h-25zm0 0" fill="#fff"/><path d="m255.554688 54.5h12.890624v297h-12.890624zm0 0" fill="#e9edf5"/><path d="m356.789062 374.859375c15.648438-21.222656 26.277344-44.703125 24.726563-68.515625-2.21875-34.144531-32.96875-62.496094-67.183594-62.28125-15.976562.097656-30.621093 5.796875-42.078125 15.226562-9.433594 7.769532-22.976562 7.890626-32.394531.097657-11.574219-9.574219-26.421875-15.328125-42.617187-15.328125-36.953126 0-66.910157 29.957031-66.910157 66.910156 0 21.863281 10.132813 43.46875 24.640625 63.203125 6.359375 8.65625 7.703125 19.894531 3.769532 29.890625-.199219.507812-.390626 1.019531-.578126 1.539062l-10.496093 29.398438h216.667969l-10.5-29.398438c-.183594-.511718-.375-1.015624-.570313-1.519531-3.832031-9.753906-2.695313-20.789062 3.523437-29.222656zm0 0" fill="#994c0f"/><path d="m353.832031 405.601562c-.183593-.511718-.371093-1.015624-.570312-1.519531-3.828125-9.753906-2.691407-20.789062 3.527343-29.222656 15.648438-21.222656 26.277344-44.703125 24.726563-68.515625-2.21875-34.144531-32.96875-62.496094-67.183594-62.28125-15.976562.097656-30.621093 5.796875-42.078125 15.226562-4.839844 3.988282-10.757812 5.945313-16.648437 5.867188v169.84375h108.726562zm0 0" fill="#912c12"/></svg>