<svg height="512pt" viewBox="0 0 512 512.001" width="512pt" xmlns="http://www.w3.org/2000/svg"><path d="m512 256c0 141.386719-114.613281 256-256 256-141.382812 0-256-114.613281-256-256s114.617188-256 256-256c141.386719 0 256 114.613281 256 256zm0 0" fill="#00edff"/><path d="m512 256c0-2.070312-.027344-4.132812-.078125-6.191406l-79.699219-79.703125-353.175781 58.945312 104.605469 104.605469-106.652344 8.132812 170.039062 170.039063c2.976563.101563 5.960938.171875 8.960938.171875 141.386719 0 256-114.613281 256-256zm0 0" fill="#07bee8"/><path d="m409.152344 276.042969h-306.300782c-8.449218 0-15.300781-6.847657-15.300781-15.300781v-6.671876c0-8.449218 6.851563-15.296874 15.300781-15.296874h306.300782c8.445312 0 15.296875 6.847656 15.296875 15.296874v6.671876c0 8.453124-6.851563 15.300781-15.296875 15.300781zm0 0" fill="#ffff91"/><path d="m409.152344 238.773438h-154.152344v37.269531h154.152344c8.445312 0 15.296875-6.847657 15.296875-15.296875v-6.671875c0-8.449219-6.851563-15.300781-15.296875-15.300781zm0 0" fill="#ffe000"/><path d="m403.773438 356.113281h-295.546876c-22.769531 0-41.226562-18.457031-41.226562-41.226562s18.457031-41.226563 41.226562-41.226563h295.546876c22.769531 0 41.226562 18.457032 41.226562 41.226563s-18.457031 41.226562-41.226562 41.226562zm0 0" fill="#994c0f"/><path d="m403.773438 273.660156h-148.773438v82.453125h148.773438c22.769531 0 41.226562-18.457031 41.226562-41.226562s-18.457031-41.226563-41.226562-41.226563zm0 0" fill="#912c12"/><path d="m403.773438 241.15625h-295.546876c-22.769531 0-41.226562-18.457031-41.226562-41.226562 0-22.769532 18.457031-41.226563 41.226562-41.226563h295.546876c22.769531 0 41.226562 18.457031 41.226562 41.226563 0 22.769531-18.457031 41.226562-41.226562 41.226562zm0 0" fill="#994c0f"/><path d="m403.773438 158.703125h-148.773438v82.453125h148.773438c22.769531 0 41.226562-18.457031 41.226562-41.226562 0-22.769532-18.457031-41.226563-41.226562-41.226563zm0 0" fill="#912c12"/></svg>