<svg height="512pt" viewBox="0 0 512 512" width="512pt" xmlns="http://www.w3.org/2000/svg"><path d="m512 256c0 141.386719-114.613281 256-256 256s-256-114.613281-256-256 114.613281-256 256-256 256 114.613281 256 256zm0 0" fill="#ff0062"/><path d="m512 256c0-10.671875-.664062-21.1875-1.933594-31.515625l-133.816406-133.816406-12.257812 134.410156-134.410157-134.410156-76.558593 281.699219 43.25 43.25-27.292969 21.714843 74.355469 74.355469c4.195312.203125 8.417968.3125 12.664062.3125 141.386719 0 256-114.613281 256-256zm0 0" fill="#dd0e4e"/><path d="m195.332031 448.667969c-20.066406 0-36.332031-16.269531-36.332031-36.332031v-285.335938c0-20.066406 16.265625-36.332031 36.332031-36.332031 20.066407 0 36.332031 16.265625 36.332031 36.332031v285.332031c.003907 20.066407-16.265624 36.335938-36.332031 36.335938zm0 0" fill="#ffff91"/><path d="m195.332031 90.667969c-.3125 0-.625.015625-.9375.023437v357.953125c.3125.007813.625.023438.9375.023438 20.066407 0 36.332031-16.269531 36.332031-36.332031v-285.335938c.003907-20.066406-16.265624-36.332031-36.332031-36.332031zm0 0" fill="#ffe000"/><path d="m241.667969 122c0-25.773438-20.894531-46.667969-46.667969-46.667969s-46.667969 20.894531-46.667969 46.667969v238c0 10.308594 8.359375 18.667969 18.667969 18.667969s18.667969-8.359375 18.667969-18.667969v-27.332031c0-12.886719 10.445312-23.332031 23.332031-23.332031h32.667969zm0 0" fill="#994c0f"/><path d="m195 75.332031c-.203125 0-.402344.015625-.605469.015625v239.128906c4-3.214843 9.074219-5.144531 14.605469-5.144531h32.667969v-187.332031c0-25.773438-20.894531-46.667969-46.667969-46.667969zm0 0" fill="#8e2b10"/><path d="m342 448.667969c-20.066406 0-36.332031-16.269531-36.332031-36.332031v-285.335938c0-20.066406 16.265625-36.332031 36.332031-36.332031s36.332031 16.265625 36.332031 36.332031v285.332031c0 20.066407-16.265625 36.335938-36.332031 36.335938zm0 0" fill="#ffff91"/><path d="m342 90.667969c-.113281 0-.222656.007812-.332031.007812v357.980469c.109375.003906.21875.011719.332031.011719 20.066406 0 36.332031-16.269531 36.332031-36.332031v-285.335938c0-20.066406-16.265625-36.332031-36.332031-36.332031zm0 0" fill="#ffe000"/><path d="m388.332031 122c0-25.773438-20.890625-46.667969-46.667969-46.667969-25.769531 0-46.664062 20.894531-46.664062 46.667969v238c0 10.308594 8.355469 18.667969 18.667969 18.667969 10.308593 0 18.667969-8.359375 18.667969-18.667969v-27.332031c0-12.886719 10.445312-23.332031 23.332031-23.332031h32.667969v-187.335938zm0 0" fill="#994c0f"/><path d="m341.667969 75.332031v238.667969c3.898437-2.929688 8.746093-4.667969 14-4.667969h32.667969v-187.332031c-.003907-25.773438-20.894532-46.667969-46.667969-46.667969zm0 0" fill="#8e2b10"/></svg>