<svg height="512pt" viewBox="0 0 512 512" width="512pt" xmlns="http://www.w3.org/2000/svg"><path d="m512 256c0 141.386719-114.613281 256-256 256s-256-114.613281-256-256 114.613281-256 256-256 256 114.613281 256 256zm0 0" fill="#ffe000"/><path d="m509.421875 292.328125-115.476563-115.476563-20.910156 52.761719-57.972656-57.972656-15.316406 59.335937-61.3125-61.3125-12.285156 62.5625-60.585938-60.585937-82.605469 166.359375 173.988281 173.988281c128.625-.464843 234.875-95.789062 252.476563-219.660156zm0 0" fill="#fdba12"/><path d="m444.296875 284.890625h-376.59375v-7.199219c0-34.5625 28.019531-62.582031 62.578125-62.582031h251.433594c34.5625 0 62.582031 28.019531 62.582031 62.582031zm0 0" fill="#ff0062"/><path d="m444.296875 277.691406c0-34.5625-28.019531-62.582031-62.582031-62.582031h-126.109375v69.78125h188.691406zm0 0" fill="#f20666"/><path d="m429.042969 338h-346.089844l-30-68.332031h406.089844zm0 0" fill="#994c0f"/><path d="m459.042969 269.667969h-203.4375v68.332031h173.4375zm0 0" fill="#8c2a10"/><path d="m106.5 210.644531c0-20.640625 16.734375-50.375 37.375-50.375s37.375 29.734375 37.375 50.375-16.734375 17.625-37.375 17.625-37.375 3.015625-37.375-17.625zm0 0" fill="#be234b"/><path d="m181.25 210.644531c0-20.640625 16.734375-50.375 37.375-50.375s37.375 29.734375 37.375 50.375-16.734375 17.625-37.375 17.625-37.375 3.015625-37.375-17.625zm0 0" fill="#be234b"/><g fill="#9b143c"><path d="m256 210.644531c0-20.640625 16.734375-50.375 37.375-50.375s37.375 29.734375 37.375 50.375-16.734375 17.625-37.375 17.625-37.375 3.015625-37.375-17.625zm0 0"/><path d="m330.75 210.644531c0-20.640625 16.734375-50.375 37.375-50.375s37.375 29.734375 37.375 50.375-16.734375 17.625-37.375 17.625-37.375 3.015625-37.375-17.625zm0 0"/></g></svg>