<svg height="512pt" viewBox="0 0 512 512" width="512pt" xmlns="http://www.w3.org/2000/svg"><path d="m512 256c0 141.386719-114.613281 256-256 256s-256-114.613281-256-256 114.613281-256 256-256 256 114.613281 256 256zm0 0" fill="#994c0f"/><path d="m256.660156 511.992188c140.089844-.355469 253.714844-113.230469 255.304688-253.027344l-177.296875-177.296875-157.335938 43.332031 85.164063 85.164062-102.90625 204.753907zm0 0" fill="#932c11"/><path d="m308.976562 435h-105.953124c-31.492188 0-57.023438-25.53125-57.023438-57.023438v-195.953124c0-31.492188 25.53125-57.023438 57.023438-57.023438h105.953124c31.492188 0 57.023438 25.53125 57.023438 57.023438v195.953124c0 31.492188-25.53125 57.023438-57.023438 57.023438zm0 0" fill="#00edff"/><path d="m308.976562 125h-53.214843v310h53.214843c31.492188 0 57.023438-25.53125 57.023438-57.023438v-195.953124c0-31.492188-25.53125-57.023438-57.023438-57.023438zm0 0" fill="#07bee8"/><path d="m177.332031 81.667969h157.332031v43.332031h-157.332031zm0 0" fill="#ff0062"/><path d="m255.761719 81.667969h78.90625v43.332031h-78.90625zm0 0" fill="#f20867"/><path d="m209.519531 397.601562c0 12.429688-10.078125 22.507813-22.507812 22.507813-12.433594 0-22.511719-10.078125-22.511719-22.507813 0-12.433593 10.078125-22.511718 22.511719-22.511718 12.429687 0 22.507812 10.078125 22.507812 22.511718zm0 0" fill="#ff0062"/><path d="m256 397.601562c0 12.429688-10.078125 22.507813-22.511719 22.507813-12.429687 0-22.507812-10.078125-22.507812-22.507813 0-12.433593 10.078125-22.511718 22.507812-22.511718 12.433594 0 22.511719 10.078125 22.511719 22.511718zm0 0" fill="#a700ff"/><path d="m233.492188 357.84375c0 12.429688-10.078126 22.507812-22.511719 22.507812-12.429688 0-22.507813-10.078124-22.507813-22.507812 0-12.433594 10.078125-22.511719 22.507813-22.511719 12.433593 0 22.511719 10.078125 22.511719 22.511719zm0 0" fill="#ffe000"/><path d="m301.019531 397.601562c0 12.429688-10.078125 22.507813-22.507812 22.507813-12.433594 0-22.511719-10.078125-22.511719-22.507813 0-12.433593 10.078125-22.511718 22.511719-22.511718 12.429687 0 22.507812 10.078125 22.507812 22.511718zm0 0" fill="#ea0764"/><path d="m347.5 397.601562c0 12.429688-10.078125 22.507813-22.511719 22.507813-12.429687 0-22.507812-10.078125-22.507812-22.507813 0-12.433593 10.078125-22.511718 22.507812-22.511718 12.433594 0 22.511719 10.078125 22.511719 22.511718zm0 0" fill="#8903e0"/><path d="m279.242188 357.84375c0 12.429688-10.078126 22.507812-22.511719 22.507812-12.429688 0-22.507813-10.078124-22.507813-22.507812 0-12.433594 10.078125-22.511719 22.507813-22.511719 12.433593 0 22.511719 10.078125 22.511719 22.511719zm0 0" fill="#ffd7cd"/><path d="m256.730469 335.332031c-.324219 0-.644531.011719-.96875.027344v44.96875c.324219.015625.644531.023437.96875.023437 12.433593 0 22.511719-10.078124 22.511719-22.507812 0-12.433594-10.078126-22.511719-22.511719-22.511719zm0 0" fill="#fab9af"/><path d="m324.992188 357.84375c0 12.429688-10.078126 22.507812-22.511719 22.507812-12.429688 0-22.507813-10.078124-22.507813-22.507812 0-12.433594 10.078125-22.511719 22.507813-22.511719 12.433593 0 22.511719 10.078125 22.511719 22.511719zm0 0" fill="#fdba12"/><path d="m209.519531 318.265625c0 12.433594-10.078125 22.511719-22.507812 22.511719-12.433594 0-22.511719-10.078125-22.511719-22.511719 0-12.429687 10.078125-22.507813 22.511719-22.507813 12.429687 0 22.507812 10.078126 22.507812 22.507813zm0 0" fill="#ff0062"/><path d="m256 318.265625c0 12.433594-10.078125 22.511719-22.511719 22.511719-12.429687 0-22.507812-10.078125-22.507812-22.511719 0-12.429687 10.078125-22.507813 22.507812-22.507813 12.433594 0 22.511719 10.078126 22.511719 22.507813zm0 0" fill="#a700ff"/><path d="m233.492188 278.511719c0 12.429687-10.078126 22.507812-22.511719 22.507812-12.429688 0-22.507813-10.078125-22.507813-22.507812 0-12.433594 10.078125-22.511719 22.507813-22.511719 12.433593 0 22.511719 10.078125 22.511719 22.511719zm0 0" fill="#ffe000"/><path d="m301.019531 318.265625c0 12.433594-10.078125 22.511719-22.507812 22.511719-12.433594 0-22.511719-10.078125-22.511719-22.511719 0-12.429687 10.078125-22.507813 22.511719-22.507813 12.429687 0 22.507812 10.078126 22.507812 22.507813zm0 0" fill="#ff0062"/><path d="m347.5 318.265625c0 12.433594-10.078125 22.511719-22.511719 22.511719-12.429687 0-22.507812-10.078125-22.507812-22.511719 0-12.429687 10.078125-22.507813 22.507812-22.507813 12.433594 0 22.511719 10.078126 22.511719 22.507813zm0 0" fill="#8903e0"/><path d="m279.242188 278.511719c0 12.429687-10.078126 22.507812-22.511719 22.507812-12.429688 0-22.507813-10.078125-22.507813-22.507812 0-12.433594 10.078125-22.511719 22.507813-22.511719 12.433593 0 22.511719 10.078125 22.511719 22.511719zm0 0" fill="#b5daff"/><path d="m324.992188 278.511719c0 12.429687-10.078126 22.507812-22.511719 22.507812-12.429688 0-22.507813-10.078125-22.507813-22.507812 0-12.433594 10.078125-22.511719 22.507813-22.511719 12.433593 0 22.511719 10.078125 22.511719 22.511719zm0 0" fill="#ffe000"/><path d="m209.519531 233.488281c0 12.433594-10.078125 22.511719-22.507812 22.511719-12.433594 0-22.511719-10.078125-22.511719-22.511719 0-12.429687 10.078125-22.507812 22.511719-22.507812 12.429687 0 22.507812 10.078125 22.507812 22.507812zm0 0" fill="#ff0062"/><path d="m256 233.488281c0 12.433594-10.078125 22.511719-22.511719 22.511719-12.429687 0-22.507812-10.078125-22.507812-22.511719 0-12.429687 10.078125-22.507812 22.507812-22.507812 12.433594 0 22.511719 10.078125 22.511719 22.507812zm0 0" fill="#a700ff"/><path d="m233.492188 193.734375c0 12.429687-10.078126 22.507813-22.511719 22.507813-12.429688 0-22.507813-10.078126-22.507813-22.507813 0-12.433594 10.078125-22.511719 22.507813-22.511719 12.433593 0 22.511719 10.078125 22.511719 22.511719zm0 0" fill="#ffe000"/><path d="m301.019531 233.488281c0 12.433594-10.078125 22.511719-22.507812 22.511719-12.433594 0-22.511719-10.078125-22.511719-22.511719 0-12.429687 10.078125-22.507812 22.511719-22.507812 12.429687 0 22.507812 10.078125 22.507812 22.507812zm0 0" fill="#ea0764"/><path d="m347.5 233.488281c0 12.433594-10.078125 22.511719-22.511719 22.511719-12.429687 0-22.507812-10.078125-22.507812-22.511719 0-12.429687 10.078125-22.507812 22.507812-22.507812 12.433594 0 22.511719 10.078125 22.511719 22.507812zm0 0" fill="#8903e0"/><path d="m279.242188 193.734375c0 12.429687-10.078126 22.507813-22.511719 22.507813-12.429688 0-22.507813-10.078126-22.507813-22.507813 0-12.433594 10.078125-22.511719 22.507813-22.511719 12.433593 0 22.511719 10.078125 22.511719 22.511719zm0 0" fill="#ffd7cd"/><path d="m256.730469 171.222656c-.324219 0-.644531.011719-.96875.027344v44.96875c.324219.015625.644531.023438.96875.023438 12.433593 0 22.511719-10.078126 22.511719-22.507813 0-12.433594-10.078126-22.511719-22.511719-22.511719zm0 0" fill="#fab9af"/><path d="m324.992188 193.734375c0 12.429687-10.078126 22.507813-22.511719 22.507813-12.429688 0-22.507813-10.078126-22.507813-22.507813 0-12.433594 10.078125-22.511719 22.507813-22.511719 12.433593 0 22.511719 10.078125 22.511719 22.511719zm0 0" fill="#fdba12"/><path d="m180.167969 225h151.667969v118h-151.667969zm0 0" fill="#fff"/><path d="m255.761719 225h76.070312v118h-76.070312zm0 0" fill="#e9edf5"/></svg>