<svg height="512pt" viewBox="0 0 512 512" width="512pt" xmlns="http://www.w3.org/2000/svg"><path d="m512 256c0 141.386719-114.613281 256-256 256s-256-114.613281-256-256 114.613281-256 256-256 256 114.613281 256 256zm0 0" fill="#a700ff"/><path d="m512 256c0-4.554688-.125-9.078125-.359375-13.574219l-149.171875-149.175781-202.496094 328.511719 90.167969 90.164062c1.949219.042969 3.898437.074219 5.859375.074219 141.386719 0 256-114.613281 256-256zm0 0" fill="#9407ef"/><path d="m245.863281 130.878906c0 30.660156-24.855469 55.515625-55.515625 55.515625s-55.515625-24.855469-55.515625-55.515625 24.855469-55.515625 55.515625-55.515625 55.515625 24.855469 55.515625 55.515625zm0 0" fill="#fdba12"/><path d="m377.167969 130.878906c0 30.660156-24.855469 55.515625-55.515625 55.515625s-55.515625-24.855469-55.515625-55.515625 24.855469-55.515625 55.515625-55.515625 55.515625 24.855469 55.515625 55.515625zm0 0" fill="#ffa300"/><path d="m297.164062 434.53125h-82.328124c-32.339844 0-58.558594-26.214844-58.558594-58.554688v-198.863281c0-55.074219 44.648437-99.722656 99.722656-99.722656s99.722656 44.648437 99.722656 99.722656v198.863281c0 32.339844-26.21875 58.554688-58.558594 58.554688zm0 0" fill="#ffe000"/><path d="m256 77.394531c-.078125 0-.160156 0-.238281 0v357.136719h41.402343c32.339844 0 58.558594-26.214844 58.558594-58.554688v-198.863281c0-55.074219-44.648437-99.71875-99.722656-99.71875zm0 0" fill="#ffc200"/><path d="m238.074219 390.28125c0 25.074219-20.328125 45.402344-45.402344 45.402344s-45.398437-20.328125-45.398437-45.402344 20.324218-45.398438 45.398437-45.398438 45.402344 20.324219 45.402344 45.398438zm0 0" fill="#fdba12"/><path d="m238.074219 270.035156c0 25.074219-20.328125 45.402344-45.402344 45.402344s-45.398437-20.328125-45.398437-45.402344c0-25.074218 20.324218-45.402344 45.398437-45.402344s45.402344 20.328126 45.402344 45.402344zm0 0" fill="#fdba12"/><path d="m362.46875 390.28125c0 25.074219-20.328125 45.402344-45.402344 45.402344-25.074218 0-45.402344-20.328125-45.402344-45.402344s20.328126-45.398438 45.402344-45.398438c25.074219 0 45.402344 20.324219 45.402344 45.398438zm0 0" fill="#ffa300"/><path d="m362.46875 270.035156c0 25.074219-20.328125 45.402344-45.402344 45.402344-25.074218 0-45.402344-20.328125-45.402344-45.402344 0-25.074218 20.328126-45.402344 45.402344-45.402344 25.074219 0 45.402344 20.328126 45.402344 45.402344zm0 0" fill="#ffa300"/><path d="m275.121094 212.195312h-38.242188c-15.902344 0-28.792968-12.890624-28.792968-28.796874 0-15.902344 12.890624-28.792969 28.792968-28.792969h38.238282c15.90625 0 28.796874 12.890625 28.796874 28.792969 0 15.90625-12.890624 28.796874-28.792968 28.796874zm0 0" fill="#fdba12"/><path d="m275.121094 154.605469h-19.359375v57.589843h19.359375c15.902344 0 28.792968-12.890624 28.792968-28.796874 0-15.902344-12.890624-28.792969-28.792968-28.792969zm0 0" fill="#ffa300"/></svg>