<svg xmlns="http://www.w3.org/2000/svg" height="512pt" version="1.1" viewBox="0 0 512 512" width="512pt">
<g id="surface1">
<path d="M 512 256 C 512 397.386719 397.386719 512 256 512 C 114.613281 512 0 397.386719 0 256 C 0 114.613281 114.613281 0 256 0 C 397.386719 0 512 114.613281 512 256 Z M 512 256 " style=" stroke:none;fill-rule:nonzero;fill:rgb(25.490196%,28.627451%,32.156863%);fill-opacity:1;" />
<path d="M 54.5 277 L 287.5625 510.0625 C 403.914062 495.757812 496.097656 403.390625 510.132812 286.957031 L 327.59375 104.414062 L 271.5625 88.375 L 249.226562 85.832031 L 275.113281 111.71875 L 104.300781 261.527344 Z M 54.5 277 " style=" stroke:none;fill-rule:nonzero;fill:rgb(20%,22.352941%,25.098039%);fill-opacity:1;" />
<path d="M 285.105469 426.679688 L 100.339844 255.929688 L 285.136719 86.625 L 298.644531 101.375 L 129.878906 255.992188 L 298.679688 411.988281 Z M 285.105469 426.679688 " style=" stroke:none;fill-rule:nonzero;fill:rgb(100%,100%,100%);fill-opacity:1;" />
<path d="M 130.066406 255.816406 L 100.460938 255.816406 L 100.339844 255.929688 L 285.105469 426.679688 L 298.679688 411.988281 L 129.878906 255.992188 Z M 130.066406 255.816406 " style=" stroke:none;fill-rule:nonzero;fill:rgb(94.901961%,96.470588%,98.823529%);fill-opacity:1;" />
<path d="M 383.835938 256 C 383.835938 155.902344 325.0625 73.363281 249.226562 61.679688 L 249.226562 85.828125 C 314.6875 97.359375 365.105469 169.148438 365.105469 256 C 365.105469 342.851562 314.6875 414.640625 249.226562 426.171875 L 249.226562 450.320312 C 325.0625 438.636719 383.835938 356.097656 383.835938 256 Z M 383.835938 256 " style=" stroke:none;fill-rule:nonzero;fill:rgb(97.647059%,15.686275%,7.843137%);fill-opacity:1;" />
<path d="M 365.101562 255.816406 C 365.101562 255.878906 365.105469 255.9375 365.105469 256 C 365.105469 342.851562 314.6875 414.640625 249.226562 426.171875 L 249.226562 450.320312 C 325.0625 438.636719 383.835938 356.097656 383.835938 256 C 383.835938 255.9375 383.835938 255.878906 383.835938 255.816406 Z M 365.101562 255.816406 " style=" stroke:none;fill-rule:nonzero;fill:rgb(85.882353%,1.568627%,1.568627%);fill-opacity:1;" />
<path d="M 107 247 L 411 247 L 411 265 L 107 265 Z M 107 247 " style=" stroke:none;fill-rule:nonzero;fill:rgb(100%,80.784314%,0%);fill-opacity:1;" />
<path d="M 107 256 L 411 256 L 411 265 L 107 265 Z M 107 256 " style=" stroke:none;fill-rule:nonzero;fill:rgb(100%,66.666667%,0%);fill-opacity:1;" />
<path d="M 473.5 256 L 419.15625 287.550781 L 387.609375 256 L 419.152344 224.449219 Z M 473.5 256 " style=" stroke:none;fill-rule:nonzero;fill:rgb(82.352941%,82.352941%,84.313725%);fill-opacity:1;" />
<path d="M 387.609375 256 L 419.15625 287.550781 L 473.5 256 Z M 387.609375 256 " style=" stroke:none;fill-rule:nonzero;fill:rgb(72.54902%,72.54902%,74.509804%);fill-opacity:1;" />
<path d="M 54.5 235 L 74.5 256 L 54.5 277 L 106 277 L 126 256 L 106 235 Z M 54.5 235 " style=" stroke:none;fill-rule:nonzero;fill:rgb(86.27451%,88.235294%,92.156863%);fill-opacity:1;" />
<path d="M 74.5 256 L 54.5 277 L 106 277 L 126 256 Z M 74.5 256 " style=" stroke:none;fill-rule:nonzero;fill:rgb(80.392157%,82.352941%,88.235294%);fill-opacity:1;" />
</g>
</svg>