<svg xmlns="http://www.w3.org/2000/svg" height="512pt" version="1.1" viewBox="0 0 512 512.001" width="512pt">
<g id="surface1">
<path d="M 512 256 C 512 397.386719 397.386719 512 256 512 C 114.617188 512 0 397.386719 0 256 C 0 114.613281 114.617188 0 256 0 C 397.386719 0 512 114.613281 512 256 Z M 512 256 " style=" stroke:none;fill-rule:nonzero;fill:rgb(67.058824%,35.294118%,11.372549%);fill-opacity:1;" />
<path d="M 512 256 C 512 241.820312 510.828125 227.914062 508.613281 214.359375 L 425.261719 131.011719 L 390.929688 181.519531 L 153.855469 220.605469 L 115.667969 182.417969 L 94.335938 230.417969 L 201.535156 337.617188 L 152.167969 430.335938 L 232.773438 510.941406 C 240.425781 511.628906 248.167969 512 256 512 C 397.386719 512 512 397.386719 512 256 Z M 512 256 " style=" stroke:none;fill-rule:nonzero;fill:rgb(54.117647%,27.843137%,6.666667%);fill-opacity:1;" />
<path d="M 311 430.332031 L 274.167969 390.332031 L 237.332031 455.667969 L 200.5 390.332031 L 163.667969 430.332031 L 163.667969 211 L 311 211 Z M 311 430.332031 " style=" stroke:none;fill-rule:nonzero;fill:rgb(97.647059%,15.686275%,7.843137%);fill-opacity:1;" />
<path d="M 237.332031 211 L 237.332031 455.667969 L 274.167969 390.332031 L 311 430.332031 L 311 211 Z M 237.332031 211 " style=" stroke:none;fill-rule:nonzero;fill:rgb(85.882353%,1.568627%,1.568627%);fill-opacity:1;" />
<path d="M 227.316406 461.3125 L 198.25 409.753906 L 172.125 438.121094 L 152.167969 430.332031 L 152.167969 211 L 163.667969 199.5 L 311 199.5 L 322.5 211 L 322.5 430.332031 L 302.542969 438.121094 L 276.417969 409.753906 L 247.351562 461.3125 Z M 192.042969 382.542969 L 210.519531 384.683594 L 237.335938 432.25 L 264.148438 384.683594 L 282.625 382.542969 L 299.5 400.867188 L 299.5 212.5 L 175.167969 212.5 L 175.167969 400.867188 Z M 192.042969 382.542969 " style=" stroke:none;fill-rule:nonzero;fill:rgb(100%,100%,100%);fill-opacity:1;" />
<path d="M 237.332031 461.3125 L 247.351562 461.3125 L 276.417969 409.757812 L 302.542969 438.121094 L 322.5 430.332031 L 322.5 211 L 311 199.5 L 236.820312 199.5 L 236.820312 212.5 L 299.5 212.5 L 299.5 400.867188 L 282.625 382.542969 L 264.148438 384.6875 L 237.332031 432.25 Z M 237.332031 461.3125 " style=" stroke:none;fill-rule:nonzero;fill:rgb(94.901961%,96.470588%,98.823529%);fill-opacity:1;" />
<path d="M 405.28125 281.824219 L 386.292969 264.941406 C 355.082031 237.195312 311.191406 221.417969 265.214844 221.417969 L 99.667969 221.417969 L 99.667969 191.417969 L 265.214844 191.417969 C 311.191406 191.417969 355.082031 175.640625 386.292969 147.894531 L 405.285156 131.011719 L 405.285156 281.824219 Z M 405.28125 281.824219 " style=" stroke:none;fill-rule:nonzero;fill:rgb(100%,80.784314%,0%);fill-opacity:1;" />
<path d="M 405.28125 281.824219 L 386.292969 264.941406 C 355.082031 237.195312 311.191406 221.417969 265.214844 221.417969 L 99.667969 221.417969 L 99.667969 191.417969 L 265.214844 191.417969 C 311.191406 191.417969 355.082031 175.640625 386.292969 147.894531 L 405.285156 131.011719 L 405.285156 281.824219 Z M 405.28125 281.824219 " style=" stroke:none;fill-rule:nonzero;fill:rgb(100%,80.784314%,0%);fill-opacity:1;" />
<path d="M 99.667969 206.121094 L 99.667969 221.414062 L 265.214844 221.414062 C 311.191406 221.414062 355.082031 237.191406 386.292969 264.941406 L 405.285156 281.820312 L 405.285156 206.121094 Z M 99.667969 206.121094 " style=" stroke:none;fill-rule:nonzero;fill:rgb(100%,66.666667%,0%);fill-opacity:1;" />
<path d="M 397.4375 131.011719 L 425.261719 131.011719 L 425.261719 281.820312 L 397.4375 281.820312 Z M 397.4375 131.011719 " style=" stroke:none;fill-rule:nonzero;fill:rgb(100%,66.666667%,0%);fill-opacity:1;" />
<path d="M 397.4375 206.121094 L 425.261719 206.121094 L 425.261719 281.820312 L 397.4375 281.820312 Z M 397.4375 206.121094 " style=" stroke:none;fill-rule:nonzero;fill:rgb(100%,49.019608%,3.921569%);fill-opacity:1;" />
<path d="M 94.332031 182.414062 L 115.667969 182.414062 L 115.667969 230.414062 L 94.332031 230.414062 Z M 94.332031 182.414062 " style=" stroke:none;fill-rule:nonzero;fill:rgb(100%,66.666667%,0%);fill-opacity:1;" />
<path d="M 94.332031 206.121094 L 115.667969 206.121094 L 115.667969 230.414062 L 94.332031 230.414062 Z M 94.332031 206.121094 " style=" stroke:none;fill-rule:nonzero;fill:rgb(100%,49.019608%,3.921569%);fill-opacity:1;" />
</g>
</svg>