<svg xmlns="http://www.w3.org/2000/svg" height="512pt" version="1.1" viewBox="0 0 512 512" width="512pt">
<g id="surface1">
<path d="M 512 256 C 512 397.386719 397.386719 512 256 512 C 114.613281 512 0 397.386719 0 256 C 0 114.613281 114.613281 0 256 0 C 397.386719 0 512 114.613281 512 256 Z M 512 256 " style=" stroke:none;fill-rule:nonzero;fill:rgb(0%,92.941176%,100%);fill-opacity:1;" />
<path d="M 512 256 C 512 244.632812 511.25 233.445312 509.8125 222.46875 L 381.886719 94.542969 L 306.773438 200.550781 L 353.613281 247.390625 L 342.585938 307.011719 L 130.113281 94.542969 L 55 200.550781 L 155.609375 301.160156 L 73.4375 380.539062 L 198.390625 505.488281 C 216.90625 509.746094 236.191406 512 256 512 C 397.386719 512 512 397.386719 512 256 Z M 512 256 " style=" stroke:none;fill-rule:nonzero;fill:rgb(2.745098%,74.509804%,90.980392%);fill-opacity:1;" />
<path d="M 166 211 L 348 211 L 348 380.539062 L 166 380.539062 Z M 166 211 " style=" stroke:none;fill-rule:nonzero;fill:rgb(33.333333%,35.294118%,40%);fill-opacity:1;" />
<path d="M 256.210938 211 L 348 211 L 348 380.539062 L 256.210938 380.539062 Z M 256.210938 211 " style=" stroke:none;fill-rule:nonzero;fill:rgb(25.490196%,28.627451%,32.156863%);fill-opacity:1;" />
<path d="M 73.441406 184.570312 L 186.785156 184.570312 L 186.785156 380.539062 L 73.441406 380.539062 Z M 73.441406 184.570312 " style=" stroke:none;fill-rule:nonzero;fill:rgb(43.921569%,46.666667%,53.72549%);fill-opacity:1;" />
<path d="M 130.113281 184.570312 L 186.785156 184.570312 L 186.785156 380.539062 L 130.113281 380.539062 Z M 130.113281 184.570312 " style=" stroke:none;fill-rule:nonzero;fill:rgb(38.823529%,41.176471%,47.058824%);fill-opacity:1;" />
<path d="M 55 200.550781 L 130.113281 94.542969 L 205.226562 200.550781 Z M 55 200.550781 " style=" stroke:none;fill-rule:nonzero;fill:rgb(97.647059%,15.686275%,7.843137%);fill-opacity:1;" />
<path d="M 130.113281 200.550781 L 205.226562 200.550781 L 130.113281 94.542969 Z M 130.113281 200.550781 " style=" stroke:none;fill-rule:nonzero;fill:rgb(85.882353%,1.568627%,1.568627%);fill-opacity:1;" />
<path d="M 325.214844 184.570312 L 438.558594 184.570312 L 438.558594 380.539062 L 325.214844 380.539062 Z M 325.214844 184.570312 " style=" stroke:none;fill-rule:nonzero;fill:rgb(43.921569%,46.666667%,53.72549%);fill-opacity:1;" />
<path d="M 381.886719 184.570312 L 438.5625 184.570312 L 438.5625 380.539062 L 381.886719 380.539062 Z M 381.886719 184.570312 " style=" stroke:none;fill-rule:nonzero;fill:rgb(38.823529%,41.176471%,47.058824%);fill-opacity:1;" />
<path d="M 306.773438 200.550781 L 381.886719 94.542969 L 457 200.550781 Z M 306.773438 200.550781 " style=" stroke:none;fill-rule:nonzero;fill:rgb(97.647059%,15.686275%,7.843137%);fill-opacity:1;" />
<path d="M 381.886719 200.550781 L 457 200.550781 L 381.886719 94.542969 Z M 381.886719 200.550781 " style=" stroke:none;fill-rule:nonzero;fill:rgb(85.882353%,1.568627%,1.568627%);fill-opacity:1;" />
<path d="M 150.613281 380.539062 L 109.613281 380.539062 L 109.613281 316.269531 C 109.613281 304.945312 118.789062 295.769531 130.113281 295.769531 C 141.433594 295.769531 150.613281 304.945312 150.613281 316.269531 Z M 150.613281 380.539062 " style=" stroke:none;fill-rule:nonzero;fill:rgb(33.333333%,35.294118%,40%);fill-opacity:1;" />
<path d="M 150.613281 316.269531 C 150.613281 304.949219 141.433594 295.769531 130.113281 295.769531 C 129.285156 295.769531 130.917969 295.832031 130.113281 295.929688 L 130.113281 380.539062 L 150.613281 380.539062 Z M 150.613281 316.269531 " style=" stroke:none;fill-rule:nonzero;fill:rgb(25.490196%,28.627451%,32.156863%);fill-opacity:1;" />
<path d="M 402.386719 380.539062 L 361.386719 380.539062 L 361.386719 316.269531 C 361.386719 304.945312 370.566406 295.769531 381.886719 295.769531 C 393.210938 295.769531 402.386719 304.945312 402.386719 316.269531 Z M 402.386719 380.539062 " style=" stroke:none;fill-rule:nonzero;fill:rgb(33.333333%,35.294118%,40%);fill-opacity:1;" />
<path d="M 402.386719 316.269531 C 402.386719 304.949219 393.210938 295.769531 381.886719 295.769531 C 381.363281 295.769531 382.402344 295.808594 381.886719 295.847656 L 381.886719 380.539062 L 402.386719 380.539062 Z M 402.386719 316.269531 " style=" stroke:none;fill-rule:nonzero;fill:rgb(25.490196%,28.627451%,32.156863%);fill-opacity:1;" />
</g>
</svg>