<svg xmlns="http://www.w3.org/2000/svg" height="512pt" version="1.1" viewBox="0 0 512 512.001" width="512pt">
<g id="surface1">
<path d="M 255.605469 511.996094 C 255.738281 511.996094 255.867188 512 256 512 C 397.386719 512 512 397.386719 512 256 C 512 114.613281 397.386719 0 256 0 C 114.617188 0 0 114.613281 0 256 C 0 397.253906 114.402344 511.78125 255.605469 511.996094 " style=" stroke:none;fill-rule:nonzero;fill:rgb(100%,80.784314%,0%);fill-opacity:1;" />
<path d="M 512 256 C 512 245.140625 511.320312 234.441406 510.003906 223.9375 L 372.964844 86.898438 L 384.03125 253.578125 L 286.476562 156.023438 L 261.5 209.363281 L 139.035156 86.898438 L 132.382812 352.140625 L 111.425781 401.316406 L 219.503906 509.394531 C 231.300781 511.078125 243.347656 511.976562 255.605469 511.996094 C 255.738281 511.996094 255.867188 512 256 512 C 397.386719 512 512 397.386719 512 256 Z M 512 256 " style=" stroke:none;fill-rule:nonzero;fill:rgb(100%,66.666667%,0%);fill-opacity:1;" />
<path d="M 139.035156 86.898438 L 140.398438 155.597656 C 140.753906 173.5625 147.929688 190.714844 160.472656 203.578125 L 195.632812 239.640625 L 131.945312 277.691406 L 111.996094 232.386719 C 105.117188 216.761719 104.121094 199.175781 109.191406 182.875 Z M 139.035156 86.898438 " style=" stroke:none;fill-rule:nonzero;fill:rgb(56.862745%,58.823529%,66.666667%);fill-opacity:1;" />
<path d="M 372.964844 86.898438 L 371.601562 155.597656 C 371.246094 173.5625 364.070312 190.714844 351.527344 203.578125 L 316.367188 239.640625 L 380.058594 277.691406 L 400.003906 232.386719 C 406.882812 216.761719 407.878906 199.175781 402.808594 182.875 Z M 372.964844 86.898438 " style=" stroke:none;fill-rule:nonzero;fill:rgb(43.921569%,46.666667%,53.72549%);fill-opacity:1;" />
<path d="M 390.910156 384.222656 L 121.089844 384.222656 L 121.089844 305.792969 C 121.089844 249.339844 155.121094 198.453125 207.296875 176.894531 L 222.035156 170.804688 C 243.785156 161.8125 268.214844 161.8125 289.96875 170.804688 L 304.703125 176.894531 C 356.878906 198.453125 390.910156 249.339844 390.910156 305.792969 Z M 390.910156 384.222656 " style=" stroke:none;fill-rule:nonzero;fill:rgb(67.058824%,35.294118%,11.372549%);fill-opacity:1;" />
<path d="M 390.910156 305.792969 C 390.910156 249.339844 356.878906 198.453125 304.703125 176.894531 L 289.96875 170.804688 C 279.15625 166.335938 267.6875 164.09375 256.210938 164.066406 L 256.210938 384.222656 L 390.910156 384.222656 Z M 390.910156 305.792969 " style=" stroke:none;fill-rule:nonzero;fill:rgb(54.117647%,27.843137%,6.666667%);fill-opacity:1;" />
<path d="M 111.425781 342.597656 L 400.574219 342.597656 L 400.574219 401.316406 L 111.425781 401.316406 Z M 111.425781 342.597656 " style=" stroke:none;fill-rule:nonzero;fill:rgb(56.862745%,58.823529%,66.666667%);fill-opacity:1;" />
<path d="M 256.210938 342.597656 L 400.574219 342.597656 L 400.574219 401.316406 L 256.210938 401.316406 Z M 256.210938 342.597656 " style=" stroke:none;fill-rule:nonzero;fill:rgb(43.921569%,46.666667%,53.72549%);fill-opacity:1;" />
<path d="M 225.523438 156.023438 L 286.476562 156.023438 L 286.476562 425.105469 L 225.523438 425.105469 Z M 225.523438 156.023438 " style=" stroke:none;fill-rule:nonzero;fill:rgb(68.627451%,70.588235%,78.431373%);fill-opacity:1;" />
<path d="M 256.210938 156.023438 L 286.476562 156.023438 L 286.476562 425.105469 L 256.210938 425.105469 Z M 256.210938 156.023438 " style=" stroke:none;fill-rule:nonzero;fill:rgb(56.862745%,58.823529%,66.666667%);fill-opacity:1;" />
<path d="M 272.5 380.5 C 272.5 389.613281 265.113281 397 256 397 C 246.886719 397 239.5 389.613281 239.5 380.5 C 239.5 371.386719 246.886719 364 256 364 C 265.113281 364 272.5 371.386719 272.5 380.5 Z M 272.5 380.5 " style=" stroke:none;fill-rule:nonzero;fill:rgb(49.411765%,52.156863%,58.823529%);fill-opacity:1;" />
<path d="M 272.5 380.5 C 272.5 371.460938 265.226562 364.125 256.210938 364.011719 L 256.210938 396.988281 C 265.226562 396.875 272.5 389.539062 272.5 380.5 Z M 272.5 380.5 " style=" stroke:none;fill-rule:nonzero;fill:rgb(43.137255%,45.490196%,49.803922%);fill-opacity:1;" />
<path d="M 272.5 315 C 272.5 324.113281 265.113281 331.5 256 331.5 C 246.886719 331.5 239.5 324.113281 239.5 315 C 239.5 305.886719 246.886719 298.5 256 298.5 C 265.113281 298.5 272.5 305.886719 272.5 315 Z M 272.5 315 " style=" stroke:none;fill-rule:nonzero;fill:rgb(49.411765%,52.156863%,58.823529%);fill-opacity:1;" />
<path d="M 272.5 315 C 272.5 305.960938 265.226562 298.625 256.210938 298.511719 L 256.210938 331.488281 C 265.226562 331.375 272.5 324.039062 272.5 315 Z M 272.5 315 " style=" stroke:none;fill-rule:nonzero;fill:rgb(43.137255%,45.490196%,49.803922%);fill-opacity:1;" />
<path d="M 272.5 256 C 272.5 265.113281 265.113281 272.5 256 272.5 C 246.886719 272.5 239.5 265.113281 239.5 256 C 239.5 246.886719 246.886719 239.5 256 239.5 C 265.113281 239.5 272.5 246.886719 272.5 256 Z M 272.5 256 " style=" stroke:none;fill-rule:nonzero;fill:rgb(49.411765%,52.156863%,58.823529%);fill-opacity:1;" />
<path d="M 272.5 256 C 272.5 246.960938 265.226562 239.625 256.210938 239.511719 L 256.210938 272.488281 C 265.226562 272.375 272.5 265.039062 272.5 256 Z M 272.5 256 " style=" stroke:none;fill-rule:nonzero;fill:rgb(43.137255%,45.490196%,49.803922%);fill-opacity:1;" />
<path d="M 272.5 197 C 272.5 206.113281 265.113281 213.5 256 213.5 C 246.886719 213.5 239.5 206.113281 239.5 197 C 239.5 187.886719 246.886719 180.5 256 180.5 C 265.113281 180.5 272.5 187.886719 272.5 197 Z M 272.5 197 " style=" stroke:none;fill-rule:nonzero;fill:rgb(49.411765%,52.156863%,58.823529%);fill-opacity:1;" />
<path d="M 272.5 197 C 272.5 187.960938 265.226562 180.625 256.210938 180.511719 L 256.210938 213.488281 C 265.226562 213.375 272.5 206.039062 272.5 197 Z M 272.5 197 " style=" stroke:none;fill-rule:nonzero;fill:rgb(43.137255%,45.490196%,49.803922%);fill-opacity:1;" />
</g>
</svg>