<svg xmlns="http://www.w3.org/2000/svg" height="512pt" version="1.1" viewBox="0 0 512 512" width="512pt">
<g id="surface1">
<path d="M 512 256 C 512 397.386719 397.386719 512 256 512 C 114.613281 512 0 397.386719 0 256 C 0 114.613281 114.613281 0 256 0 C 397.386719 0 512 114.613281 512 256 Z M 512 256 " style=" stroke:none;fill-rule:nonzero;fill:rgb(97.647059%,15.686275%,7.843137%);fill-opacity:1;" />
<path d="M 195.265625 448.484375 L 258.746094 511.964844 C 398.863281 510.488281 512 396.464844 512 256 C 512 249.90625 511.773438 243.867188 511.355469 237.882812 L 350.472656 77 L 183.65625 231.945312 L 266.222656 314.511719 L 232.15625 410.550781 Z M 195.265625 448.484375 " style=" stroke:none;fill-rule:nonzero;fill:rgb(85.882353%,1.568627%,1.568627%);fill-opacity:1;" />
<path d="M 195.265625 448.484375 L 208.863281 433.191406 C 231.210938 408.050781 243.917969 372.703125 243.917969 335.671875 L 243.917969 202.339844 L 268.082031 202.339844 L 268.082031 335.671875 C 268.082031 372.703125 280.789062 408.050781 303.136719 433.191406 L 316.734375 448.484375 Z M 195.265625 448.484375 " style=" stroke:none;fill-rule:nonzero;fill:rgb(100%,66.666667%,0%);fill-opacity:1;" />
<path d="M 303.136719 433.191406 C 280.789062 408.050781 268.082031 372.703125 268.082031 335.671875 L 268.082031 202.339844 L 255.605469 202.339844 L 255.605469 448.484375 L 316.734375 448.484375 Z M 303.136719 433.191406 " style=" stroke:none;fill-rule:nonzero;fill:rgb(100%,49.019608%,3.921569%);fill-opacity:1;" />
<path d="M 256 265.667969 C 203.824219 265.667969 161.527344 223.371094 161.527344 171.195312 L 161.527344 77 L 350.472656 77 L 350.472656 171.195312 C 350.472656 223.371094 308.175781 265.667969 256 265.667969 Z M 256 265.667969 " style=" stroke:none;fill-rule:nonzero;fill:rgb(100%,80.784314%,0%);fill-opacity:1;" />
<path d="M 255.605469 77 L 255.605469 265.660156 C 255.738281 265.660156 255.867188 265.667969 256 265.667969 C 308.175781 265.667969 350.472656 223.371094 350.472656 171.195312 L 350.472656 77 Z M 255.605469 77 " style=" stroke:none;fill-rule:nonzero;fill:rgb(100%,66.666667%,0%);fill-opacity:1;" />
<path d="M 161.527344 103 L 350.472656 103 L 350.472656 162.332031 L 161.527344 162.332031 Z M 161.527344 103 " style=" stroke:none;fill-rule:nonzero;fill:rgb(100%,66.666667%,0%);fill-opacity:1;" />
<path d="M 255.605469 103 L 350.472656 103 L 350.472656 162.332031 L 255.605469 162.332031 Z M 255.605469 103 " style=" stroke:none;fill-rule:nonzero;fill:rgb(100%,49.019608%,3.921569%);fill-opacity:1;" />
<path d="M 275 132.667969 C 275 143.160156 266.492188 151.667969 256 151.667969 C 245.507812 151.667969 237 143.160156 237 132.667969 C 237 122.171875 245.507812 113.667969 256 113.667969 C 266.492188 113.667969 275 122.171875 275 132.667969 Z M 275 132.667969 " style=" stroke:none;fill-rule:nonzero;fill:rgb(0%,75.686275%,36.078431%);fill-opacity:1;" />
<path d="M 256 113.667969 C 255.867188 113.667969 255.738281 113.683594 255.605469 113.6875 L 255.605469 151.648438 C 255.738281 151.648438 255.867188 151.667969 256 151.667969 C 266.492188 151.667969 275 143.160156 275 132.667969 C 275 122.171875 266.492188 113.667969 256 113.667969 Z M 256 113.667969 " style=" stroke:none;fill-rule:nonzero;fill:rgb(3.921569%,62.745098%,30.588235%);fill-opacity:1;" />
<path d="M 211.667969 132.667969 C 211.667969 143.160156 203.160156 151.667969 192.667969 151.667969 C 182.171875 151.667969 173.667969 143.160156 173.667969 132.667969 C 173.667969 122.171875 182.171875 113.667969 192.667969 113.667969 C 203.160156 113.667969 211.667969 122.171875 211.667969 132.667969 Z M 211.667969 132.667969 " style=" stroke:none;fill-rule:nonzero;fill:rgb(0%,75.686275%,36.078431%);fill-opacity:1;" />
<path d="M 338.332031 132.667969 C 338.332031 143.160156 329.828125 151.667969 319.332031 151.667969 C 308.839844 151.667969 300.332031 143.160156 300.332031 132.667969 C 300.332031 122.171875 308.839844 113.667969 319.332031 113.667969 C 329.828125 113.667969 338.332031 122.171875 338.332031 132.667969 Z M 338.332031 132.667969 " style=" stroke:none;fill-rule:nonzero;fill:rgb(3.921569%,62.745098%,30.588235%);fill-opacity:1;" />
</g>
</svg>