<svg xmlns="http://www.w3.org/2000/svg" height="512pt" version="1.1" viewBox="0 0 512 512" width="512pt">
<g id="surface1">
<path d="M 512 256 C 512 397.386719 397.386719 512 256 512 C 114.613281 512 0 397.386719 0 256 C 0 114.613281 114.613281 0 256 0 C 397.386719 0 512 114.613281 512 256 Z M 512 256 " style=" stroke:none;fill-rule:nonzero;fill:rgb(67.058824%,35.294118%,11.372549%);fill-opacity:1;" />
<path d="M 264.707031 511.835938 C 402.058594 507.242188 512 394.46875 512 256 C 512 234.835938 509.414062 214.277344 504.570312 194.605469 L 397.90625 87.941406 L 114.09375 125.980469 L 272.230469 284.113281 L 127.667969 374.796875 Z M 264.707031 511.835938 " style=" stroke:none;fill-rule:nonzero;fill:rgb(54.117647%,27.843137%,6.666667%);fill-opacity:1;" />
<path d="M 384.332031 374.796875 L 256 454.796875 L 127.667969 374.796875 L 127.667969 111 L 384.332031 111 Z M 384.332031 374.796875 " style=" stroke:none;fill-rule:nonzero;fill:rgb(100%,100%,100%);fill-opacity:1;" />
<path d="M 384.332031 111 L 256.125 111 L 256 454.796875 L 384.332031 374.796875 Z M 384.332031 111 " style=" stroke:none;fill-rule:nonzero;fill:rgb(94.901961%,96.470588%,98.823529%);fill-opacity:1;" />
<path d="M 114.09375 87.941406 L 397.90625 87.941406 L 397.90625 125.980469 L 114.09375 125.980469 Z M 114.09375 87.941406 " style=" stroke:none;fill-rule:nonzero;fill:rgb(86.27451%,88.235294%,92.156863%);fill-opacity:1;" />
<path d="M 256.125 87.941406 L 397.90625 87.941406 L 397.90625 125.980469 L 256.125 125.980469 Z M 256.125 87.941406 " style=" stroke:none;fill-rule:nonzero;fill:rgb(80.392157%,82.352941%,88.235294%);fill-opacity:1;" />
<path d="M 358.332031 278.5 C 358.332031 278.5 346.46875 260.503906 346.46875 251.507812 C 323.390625 254.792969 300.183594 256.800781 276.941406 257.558594 C 277.699219 234.316406 279.707031 211.109375 282.992188 188.03125 C 273.992188 188.03125 256 176.167969 256 176.167969 C 256 176.167969 238.003906 188.03125 229.007812 188.03125 C 232.292969 211.109375 234.300781 234.316406 235.058594 257.558594 C 211.816406 256.800781 188.605469 254.792969 165.53125 251.507812 C 165.53125 260.503906 153.664062 278.5 153.664062 278.5 C 153.664062 278.5 165.53125 296.496094 165.53125 305.492188 C 188.605469 302.207031 211.816406 300.199219 235.058594 299.441406 C 234.300781 322.683594 232.289062 345.890625 229.007812 368.96875 C 238.003906 368.96875 256 380.832031 256 380.832031 C 256 380.832031 273.992188 368.96875 282.992188 368.96875 C 279.707031 345.890625 277.699219 322.683594 276.941406 299.441406 C 300.179688 300.199219 323.390625 302.207031 346.464844 305.492188 C 346.46875 296.496094 358.332031 278.5 358.332031 278.5 Z M 358.332031 278.5 " style=" stroke:none;fill-rule:nonzero;fill:rgb(97.647059%,15.686275%,7.843137%);fill-opacity:1;" />
<path d="M 358.332031 278.5 C 358.332031 278.5 346.46875 260.503906 346.46875 251.507812 C 323.390625 254.792969 300.183594 256.800781 276.941406 257.558594 C 277.699219 234.316406 279.707031 211.109375 282.992188 188.03125 C 274.410156 188.03125 257.652344 177.246094 256.125 176.25 L 256.125 380.753906 C 257.652344 379.757812 274.410156 368.96875 282.992188 368.96875 C 279.707031 345.894531 277.699219 322.683594 276.941406 299.441406 C 300.183594 300.199219 323.390625 302.210938 346.46875 305.492188 C 346.46875 296.496094 358.332031 278.5 358.332031 278.5 Z M 358.332031 278.5 " style=" stroke:none;fill-rule:nonzero;fill:rgb(85.882353%,1.568627%,1.568627%);fill-opacity:1;" />
</g>
</svg>