<svg xmlns="http://www.w3.org/2000/svg" height="512pt" version="1.1" viewBox="0 0 512 512" width="512pt">
<g id="surface1">
<path d="M 512 256 C 512 397.386719 397.386719 512 256 512 C 114.613281 512 0 397.386719 0 256 C 0 114.613281 114.613281 0 256 0 C 397.386719 0 512 114.613281 512 256 Z M 512 256 " style=" stroke:none;fill-rule:nonzero;fill:rgb(100%,80.784314%,0%);fill-opacity:1;" />
<path d="M 512 256 C 512 255.746094 511.992188 255.496094 511.988281 255.242188 L 296.550781 39.800781 L 297.753906 81.554688 L 256 39.800781 L 257.636719 81.984375 L 215.449219 39.800781 L 193 442 L 262.90625 511.90625 C 401.097656 508.246094 512 395.074219 512 256 Z M 512 256 " style=" stroke:none;fill-rule:nonzero;fill:rgb(100%,66.666667%,0%);fill-opacity:1;" />
<path d="M 296.550781 172 L 296.550781 418 C 348.160156 418 390 376.160156 390 324.550781 L 390 265.449219 C 390 213.839844 348.160156 172 296.550781 172 Z M 368.859375 323.832031 C 368.859375 359.824219 346.683594 389 310.691406 389 L 310.691406 201 L 310.695312 201 C 346.683594 201 368.859375 230.175781 368.859375 266.167969 Z M 368.859375 323.832031 " style=" stroke:none;fill-rule:nonzero;fill:rgb(54.117647%,27.843137%,6.666667%);fill-opacity:1;" />
<path d="M 206.449219 406.300781 L 206.449219 102.300781 L 224.449219 102.300781 L 224.449219 406.300781 Z M 206.449219 406.300781 " style=" stroke:none;fill-rule:nonzero;fill:rgb(100%,100%,100%);fill-opacity:1;" />
<path d="M 215.449219 39.800781 L 247 94.144531 L 215.449219 125.691406 L 183.898438 94.148438 Z M 215.449219 39.800781 " style=" stroke:none;fill-rule:nonzero;fill:rgb(38.823529%,41.176471%,47.058824%);fill-opacity:1;" />
<path d="M 287.550781 406.300781 L 287.550781 102.300781 L 305.550781 102.300781 L 305.550781 406.300781 Z M 287.550781 406.300781 " style=" stroke:none;fill-rule:nonzero;fill:rgb(94.901961%,96.470588%,98.823529%);fill-opacity:1;" />
<path d="M 296.550781 39.800781 L 328.101562 94.144531 L 296.550781 125.691406 L 265 94.148438 Z M 296.550781 39.800781 " style=" stroke:none;fill-rule:nonzero;fill:rgb(33.333333%,35.294118%,40%);fill-opacity:1;" />
<path d="M 247 406.300781 L 247 102.300781 L 265 102.300781 L 265 406.300781 Z M 247 406.300781 " style=" stroke:none;fill-rule:nonzero;fill:rgb(100%,100%,100%);fill-opacity:1;" />
<path d="M 265 102.300781 L 256 102.121094 L 256 406.121094 L 265 406.300781 Z M 265 102.300781 " style=" stroke:none;fill-rule:nonzero;fill:rgb(94.901961%,96.470588%,98.823529%);fill-opacity:1;" />
<path d="M 256 39.800781 L 287.550781 94.144531 L 256 125.691406 L 224.449219 94.148438 Z M 256 39.800781 " style=" stroke:none;fill-rule:nonzero;fill:rgb(25.490196%,28.627451%,32.156863%);fill-opacity:1;" />
<path d="M 256 39.800781 L 256 125.691406 L 287.550781 94.144531 Z M 256 39.800781 " style=" stroke:none;fill-rule:nonzero;fill:rgb(20%,22.352941%,25.098039%);fill-opacity:1;" />
<path d="M 193 156 L 319 156 L 319 442 L 193 442 Z M 193 156 " style=" stroke:none;fill-rule:nonzero;fill:rgb(67.058824%,35.294118%,11.372549%);fill-opacity:1;" />
<path d="M 256 156 L 319 156 L 319 442 L 256 442 Z M 256 156 " style=" stroke:none;fill-rule:nonzero;fill:rgb(54.117647%,27.843137%,6.666667%);fill-opacity:1;" />
<path d="M 193 191 L 319 191 L 319 211 L 193 211 Z M 193 191 " style=" stroke:none;fill-rule:nonzero;fill:rgb(54.117647%,27.843137%,6.666667%);fill-opacity:1;" />
<path d="M 256 191 L 319 191 L 319 211 L 256 211 Z M 256 191 " style=" stroke:none;fill-rule:nonzero;fill:rgb(47.058824%,24.705882%,8.627451%);fill-opacity:1;" />
<path d="M 193 224 L 319 224 L 319 244 L 193 244 Z M 193 224 " style=" stroke:none;fill-rule:nonzero;fill:rgb(54.117647%,27.843137%,6.666667%);fill-opacity:1;" />
<path d="M 256 224 L 319 224 L 319 244 L 256 244 Z M 256 224 " style=" stroke:none;fill-rule:nonzero;fill:rgb(47.058824%,24.705882%,8.627451%);fill-opacity:1;" />
<path d="M 193 365 L 319 365 L 319 385 L 193 385 Z M 193 365 " style=" stroke:none;fill-rule:nonzero;fill:rgb(54.117647%,27.843137%,6.666667%);fill-opacity:1;" />
<path d="M 256 365 L 319 365 L 319 385 L 256 385 Z M 256 365 " style=" stroke:none;fill-rule:nonzero;fill:rgb(47.058824%,24.705882%,8.627451%);fill-opacity:1;" />
<path d="M 193 398 L 319 398 L 319 418 L 193 418 Z M 193 398 " style=" stroke:none;fill-rule:nonzero;fill:rgb(54.117647%,27.843137%,6.666667%);fill-opacity:1;" />
<path d="M 256 398 L 319 398 L 319 418 L 256 418 Z M 256 398 " style=" stroke:none;fill-rule:nonzero;fill:rgb(47.058824%,24.705882%,8.627451%);fill-opacity:1;" />
</g>
</svg>