<svg xmlns="http://www.w3.org/2000/svg" height="512pt" version="1.1" viewBox="0 0 512 512" width="512pt">
<g id="surface1">
<path d="M 512 256 C 512 397.386719 397.386719 512 256 512 C 114.613281 512 0 397.386719 0 256 C 0 114.613281 114.613281 0 256 0 C 397.386719 0 512 114.613281 512 256 Z M 512 256 " style=" stroke:none;fill-rule:nonzero;fill:rgb(25.490196%,28.627451%,32.156863%);fill-opacity:1;" />
<path d="M 512 256 C 512 239.113281 510.347656 222.613281 507.226562 206.640625 L 402.910156 102.324219 L 128.976562 418.6875 L 219.71875 509.429688 C 231.574219 511.109375 243.683594 512 256 512 C 397.386719 512 512 397.386719 512 256 Z M 512 256 " style=" stroke:none;fill-rule:nonzero;fill:rgb(20%,22.352941%,25.098039%);fill-opacity:1;" />
<path d="M 315.652344 147.15625 L 358.078125 189.582031 L 128.976562 418.683594 L 86.550781 376.257812 Z M 315.652344 147.15625 " style=" stroke:none;fill-rule:nonzero;fill:rgb(73.72549%,40.784314%,16.078431%);fill-opacity:1;" />
<path d="M 107.824219 397.535156 L 336.925781 168.433594 L 358.074219 189.582031 L 128.972656 418.683594 Z M 107.824219 397.535156 " style=" stroke:none;fill-rule:nonzero;fill:rgb(67.058824%,35.294118%,11.372549%);fill-opacity:1;" />
<path d="M 312.546875 134 L 402.910156 102.324219 L 371.234375 192.691406 Z M 312.546875 134 " style=" stroke:none;fill-rule:nonzero;fill:rgb(68.627451%,70.588235%,78.431373%);fill-opacity:1;" />
<path d="M 402.910156 102.324219 L 341.953125 163.410156 L 371.234375 192.691406 Z M 402.910156 102.324219 " style=" stroke:none;fill-rule:nonzero;fill:rgb(56.862745%,58.823529%,66.666667%);fill-opacity:1;" />
<path d="M 287.015625 73.261719 L 431.96875 218.21875 L 344.996094 305.191406 L 200.039062 160.234375 Z M 287.015625 73.261719 " style=" stroke:none;fill-rule:nonzero;fill:rgb(56.862745%,58.823529%,66.666667%);fill-opacity:1;" />
<path d="M 272.578125 232.78125 L 359.550781 145.808594 L 431.96875 218.222656 L 344.992188 305.195312 Z M 272.578125 232.78125 " style=" stroke:none;fill-rule:nonzero;fill:rgb(43.921569%,46.666667%,53.72549%);fill-opacity:1;" />
<path d="M 417.085938 203.332031 L 441.480469 227.726562 L 354.507812 314.699219 L 330.113281 290.304688 Z M 417.085938 203.332031 " style=" stroke:none;fill-rule:nonzero;fill:rgb(56.862745%,58.823529%,66.666667%);fill-opacity:1;" />
<path d="M 274.304688 60.550781 L 298.699219 84.945312 L 211.726562 171.921875 L 187.328125 147.527344 Z M 274.304688 60.550781 " style=" stroke:none;fill-rule:nonzero;fill:rgb(68.627451%,70.588235%,78.431373%);fill-opacity:1;" />
</g>
</svg>