<svg xmlns="http://www.w3.org/2000/svg" height="512pt" version="1.1" viewBox="0 0 512 512" width="512pt">
<g id="surface1">
<path d="M 512 256 C 512 397.386719 397.386719 512 256 512 C 114.613281 512 0 397.386719 0 256 C 0 114.613281 114.613281 0 256 0 C 397.386719 0 512 114.613281 512 256 Z M 512 256 " style=" stroke:none;fill-rule:nonzero;fill:rgb(97.647059%,15.686275%,7.843137%);fill-opacity:1;" />
<path d="M 512 256 C 512 255.449219 511.984375 254.902344 511.980469 254.355469 L 343.933594 86.308594 L 276.210938 124.910156 L 214.800781 215.445312 L 268.25 268.890625 L 142.339844 411.960938 L 241.992188 511.613281 C 246.628906 511.863281 251.300781 512 256 512 C 397.386719 512 512 397.386719 512 256 Z M 512 256 " style=" stroke:none;fill-rule:nonzero;fill:rgb(85.882353%,1.568627%,1.568627%);fill-opacity:1;" />
<path d="M 431.691406 174.066406 C 429.050781 178.480469 425.835938 182.648438 422.035156 186.449219 C 406.4375 202.046875 384.765625 207.851562 364.636719 203.882812 C 364.699219 203.773438 364.769531 203.664062 364.835938 203.554688 C 352.738281 201.300781 341.171875 195.523438 331.777344 186.222656 C 322.476562 176.828125 316.703125 165.261719 314.445312 153.164062 C 314.335938 153.230469 314.226562 153.300781 314.117188 153.363281 C 310.148438 133.238281 315.953125 111.5625 331.550781 95.964844 C 335.355469 92.164062 339.519531 88.949219 343.933594 86.3125 C 307.894531 56.597656 262.214844 66.308594 228.507812 100.015625 C 194.800781 133.722656 185.089844 179.402344 214.800781 215.445312 C 217.441406 211.03125 220.652344 206.863281 224.457031 203.0625 C 240.054688 187.464844 261.726562 181.65625 281.855469 185.628906 C 281.789062 185.738281 281.722656 185.847656 281.65625 185.953125 C 293.753906 188.210938 305.320312 193.988281 314.710938 203.289062 C 324.015625 212.683594 329.789062 224.246094 332.046875 236.34375 C 332.15625 236.28125 332.261719 236.210938 332.371094 236.144531 C 336.34375 256.273438 330.535156 277.949219 314.9375 293.546875 C 311.136719 297.347656 306.96875 300.5625 302.554688 303.199219 C 338.597656 332.910156 384.277344 323.199219 417.984375 289.492188 C 451.691406 255.785156 461.402344 210.105469 431.691406 174.066406 Z M 431.691406 174.066406 " style=" stroke:none;fill-rule:nonzero;fill:rgb(100%,100%,100%);fill-opacity:1;" />
<path d="M 431.691406 174.066406 C 429.050781 178.480469 425.835938 182.648438 422.035156 186.449219 C 406.4375 202.046875 384.765625 207.851562 364.636719 203.882812 C 364.699219 203.773438 364.769531 203.664062 364.835938 203.554688 C 352.738281 201.296875 341.171875 195.523438 331.777344 186.222656 C 331.691406 186.132812 331.613281 186.042969 331.527344 185.957031 L 314.449219 203.035156 C 314.535156 203.121094 314.625 203.203125 314.710938 203.289062 C 324.015625 212.679688 329.789062 224.246094 332.046875 236.34375 C 332.15625 236.28125 332.261719 236.210938 332.371094 236.144531 C 336.34375 256.273438 330.535156 277.945312 314.9375 293.542969 C 311.136719 297.34375 306.96875 300.558594 302.554688 303.199219 C 338.597656 332.910156 384.277344 323.199219 417.984375 289.492188 C 451.691406 255.785156 461.402344 210.105469 431.691406 174.066406 Z M 431.691406 174.066406 " style=" stroke:none;fill-rule:nonzero;fill:rgb(94.901961%,96.470588%,98.823529%);fill-opacity:1;" />
<path d="M 142.339844 411.960938 L 106.039062 375.664062 L 344.859375 136.84375 C 354.882812 126.820312 371.136719 126.820312 381.15625 136.84375 C 391.183594 146.867188 391.183594 163.117188 381.15625 173.140625 Z M 142.339844 411.960938 " style=" stroke:none;fill-rule:nonzero;fill:rgb(54.117647%,27.843137%,6.666667%);fill-opacity:1;" />
<path d="M 381.15625 136.84375 C 381.070312 136.757812 380.980469 136.675781 380.894531 136.589844 L 123.929688 393.554688 L 142.339844 411.960938 L 381.15625 173.140625 C 391.183594 163.117188 391.183594 146.867188 381.15625 136.84375 Z M 381.15625 136.84375 " style=" stroke:none;fill-rule:nonzero;fill:rgb(47.058824%,24.705882%,8.627451%);fill-opacity:1;" />
<path d="M 352.332031 165.664062 C 335.910156 149.242188 309.285156 149.242188 292.863281 165.664062 C 276.441406 182.085938 276.441406 208.710938 292.863281 225.132812 C 309.285156 241.554688 335.910156 241.554688 352.332031 225.132812 C 368.753906 208.710938 368.753906 182.085938 352.332031 165.664062 Z M 352.332031 165.664062 " style=" stroke:none;fill-rule:nonzero;fill:rgb(74.509804%,76.470588%,82.352941%);fill-opacity:1;" />
<path d="M 352.070312 165.414062 L 292.617188 224.867188 C 292.699219 224.957031 292.78125 225.046875 292.867188 225.132812 C 309.289062 241.554688 335.914062 241.554688 352.335938 225.132812 C 368.757812 208.710938 368.757812 182.085938 352.335938 165.664062 C 352.25 165.578125 352.160156 165.5 352.070312 165.414062 Z M 352.070312 165.414062 " style=" stroke:none;fill-rule:nonzero;fill:rgb(68.627451%,70.588235%,78.431373%);fill-opacity:1;" />
</g>
</svg>