<svg xmlns="http://www.w3.org/2000/svg" height="512pt" version="1.1" viewBox="0 0 512 512" width="512pt">
<g id="surface1">
<path d="M 512 256 C 512 397.386719 397.386719 512 256 512 C 114.613281 512 0 397.386719 0 256 C 0 114.613281 114.613281 0 256 0 C 397.386719 0 512 114.613281 512 256 Z M 512 256 " style=" stroke:none;fill-rule:nonzero;fill:rgb(0%,92.941176%,100%);fill-opacity:1;" />
<path d="M 511.0625 277.832031 L 331.738281 98.507812 L 321.730469 128.730469 L 274 81 L 261.054688 243.078125 L 155 256 L 212.007812 313.007812 L 194.757812 321.238281 L 121.824219 248.304688 L 113.089844 360.203125 L 264.71875 511.835938 C 394.769531 507.480469 500.226562 406.136719 511.0625 277.832031 Z M 511.0625 277.832031 " style=" stroke:none;fill-rule:nonzero;fill:rgb(2.745098%,74.509804%,90.980392%);fill-opacity:1;" />
<path d="M 238 81 L 274 81 L 274 298 L 238 298 Z M 238 81 " style=" stroke:none;fill-rule:nonzero;fill:rgb(78.039216%,45.098039%,18.039216%);fill-opacity:1;" />
<path d="M 255.605469 81 L 274 81 L 274 298 L 255.605469 298 Z M 255.605469 81 " style=" stroke:none;fill-rule:nonzero;fill:rgb(73.72549%,40.784314%,16.078431%);fill-opacity:1;" />
<path d="M 331.738281 256 C 272.824219 256 213.914062 256 155 256 C 185.503906 207.933594 185.503906 146.574219 155 98.507812 C 213.914062 98.507812 272.824219 98.507812 331.738281 98.507812 C 362.242188 146.574219 362.242188 207.933594 331.738281 256 Z M 331.738281 256 " style=" stroke:none;fill-rule:nonzero;fill:rgb(100%,100%,100%);fill-opacity:1;" />
<path d="M 331.738281 98.507812 C 306.359375 98.507812 280.984375 98.507812 255.605469 98.507812 L 255.605469 256 C 280.984375 256 306.359375 256 331.738281 256 C 362.242188 207.933594 362.242188 146.574219 331.738281 98.507812 Z M 331.738281 98.507812 " style=" stroke:none;fill-rule:nonzero;fill:rgb(94.901961%,96.470588%,98.823529%);fill-opacity:1;" />
<path d="M 429.171875 217.578125 C 429.171875 202.347656 416.824219 190 401.589844 190 C 386.792969 190 374.71875 201.65625 374.046875 216.289062 L 374.011719 216.289062 L 374.011719 260.300781 C 374.011719 275.054688 362.050781 287.019531 347.292969 287.019531 L 148.539062 287.019531 C 133.785156 287.019531 121.824219 275.054688 121.824219 260.300781 L 121.824219 248.304688 L 102.085938 248.304688 L 102.085938 332.011719 C 102.085938 355.007812 120.726562 373.648438 143.722656 373.648438 L 368.261719 373.648438 C 391.257812 373.648438 409.898438 355.007812 409.898438 332.011719 L 409.898438 243.882812 C 421.070312 240.355469 429.171875 229.914062 429.171875 217.578125 Z M 429.171875 217.578125 " style=" stroke:none;fill-rule:nonzero;fill:rgb(67.058824%,35.294118%,11.372549%);fill-opacity:1;" />
<path d="M 401.59375 190 C 386.792969 190 374.722656 201.65625 374.046875 216.289062 L 374.011719 216.289062 L 374.011719 260.300781 C 374.011719 275.054688 362.050781 287.019531 347.296875 287.019531 L 255.605469 287.019531 L 255.605469 373.648438 L 368.261719 373.648438 C 391.257812 373.648438 409.898438 355.007812 409.898438 332.011719 L 409.898438 243.882812 C 421.070312 240.355469 429.171875 229.914062 429.171875 217.578125 C 429.171875 202.347656 416.824219 190 401.59375 190 Z M 401.59375 190 " style=" stroke:none;fill-rule:nonzero;fill:rgb(54.117647%,27.843137%,6.666667%);fill-opacity:1;" />
<path d="M 340.5 331 C 332.492188 331 326 324.507812 326 316.5 C 326 308.492188 332.492188 302 340.5 302 C 348.507812 302 355 308.492188 355 316.5 C 355 324.507812 348.507812 331 340.5 331 Z M 340.5 331 " style=" stroke:none;fill-rule:nonzero;fill:rgb(73.72549%,40.784314%,16.078431%);fill-opacity:1;" />
<path d="M 292.875 331 C 284.867188 331 278.375 324.507812 278.375 316.5 C 278.375 308.492188 284.867188 302 292.875 302 C 300.882812 302 307.375 308.492188 307.375 316.5 C 307.375 324.507812 300.882812 331 292.875 331 Z M 292.875 331 " style=" stroke:none;fill-rule:nonzero;fill:rgb(73.72549%,40.784314%,16.078431%);fill-opacity:1;" />
<path d="M 245.25 331 C 237.242188 331 230.75 324.507812 230.75 316.5 C 230.75 308.492188 237.242188 302 245.25 302 C 253.257812 302 259.75 308.492188 259.75 316.5 C 259.75 324.507812 253.257812 331 245.25 331 Z M 245.25 331 " style=" stroke:none;fill-rule:nonzero;fill:rgb(78.039216%,45.098039%,18.039216%);fill-opacity:1;" />
<path d="M 255.605469 306.359375 L 255.605469 326.640625 C 258.167969 324.023438 259.75 320.449219 259.75 316.5 C 259.75 312.550781 258.167969 308.976562 255.605469 306.359375 Z M 255.605469 306.359375 " style=" stroke:none;fill-rule:nonzero;fill:rgb(73.72549%,40.784314%,16.078431%);fill-opacity:1;" />
<path d="M 197.625 331 C 189.617188 331 183.125 324.507812 183.125 316.5 C 183.125 308.492188 189.617188 302 197.625 302 C 205.632812 302 212.125 308.492188 212.125 316.5 C 212.125 324.507812 205.632812 331 197.625 331 Z M 197.625 331 " style=" stroke:none;fill-rule:nonzero;fill:rgb(78.039216%,45.098039%,18.039216%);fill-opacity:1;" />
<path d="M 150 331 C 141.992188 331 135.5 324.507812 135.5 316.5 C 135.5 308.492188 141.992188 302 150 302 C 158.007812 302 164.5 308.492188 164.5 316.5 C 164.5 324.507812 158.007812 331 150 331 Z M 150 331 " style=" stroke:none;fill-rule:nonzero;fill:rgb(78.039216%,45.098039%,18.039216%);fill-opacity:1;" />
<path d="M 286.761719 98.507812 C 262.867188 98.507812 238.972656 98.507812 215.078125 98.507812 C 245.582031 146.574219 245.582031 207.933594 215.078125 256 C 238.972656 256 262.867188 256 286.761719 256 C 317.265625 207.933594 317.265625 146.574219 286.761719 98.507812 Z M 286.761719 98.507812 " style=" stroke:none;fill-rule:nonzero;fill:rgb(97.647059%,15.686275%,7.843137%);fill-opacity:1;" />
<path d="M 286.761719 98.507812 C 276.378906 98.507812 265.992188 98.507812 255.605469 98.507812 L 255.605469 256 C 265.992188 256 276.378906 256 286.761719 256 C 317.265625 207.933594 317.265625 146.574219 286.761719 98.507812 Z M 286.761719 98.507812 " style=" stroke:none;fill-rule:nonzero;fill:rgb(85.882353%,1.568627%,1.568627%);fill-opacity:1;" />
</g>
</svg>