<svg xmlns="http://www.w3.org/2000/svg" height="512pt" version="1.1" viewBox="0 0 512 512" width="512pt">
<g id="surface1">
<path d="M 512 256 C 512 397.386719 397.386719 512 256 512 C 114.613281 512 0 397.386719 0 256 C 0 114.613281 114.613281 0 256 0 C 397.386719 0 512 114.613281 512 256 Z M 512 256 " style=" stroke:none;fill-rule:nonzero;fill:rgb(0%,75.686275%,36.078431%);fill-opacity:1;" />
<path d="M 512 256 C 512 243.574219 511.097656 231.363281 509.386719 219.410156 L 397.984375 108.011719 L 271.910156 242.371094 L 243.039062 213.503906 L 210.476562 246.070312 L 240.378906 275.972656 L 123.042969 401.015625 L 232.984375 510.960938 C 240.566406 511.636719 248.242188 512 256 512 C 397.386719 512 512 397.386719 512 256 Z M 512 256 " style=" stroke:none;fill-rule:nonzero;fill:rgb(3.921569%,62.745098%,30.588235%);fill-opacity:1;" />
<path d="M 280.953125 206.984375 L 299.015625 225.042969 L 123.046875 401.015625 L 104.984375 382.953125 Z M 280.953125 206.984375 " style=" stroke:none;fill-rule:nonzero;fill:rgb(54.117647%,27.843137%,6.666667%);fill-opacity:1;" />
<path d="M 113.996094 391.96875 L 289.964844 216 L 299.007812 225.046875 L 123.039062 401.015625 Z M 113.996094 391.96875 " style=" stroke:none;fill-rule:nonzero;fill:rgb(54.117647%,27.843137%,6.666667%);fill-opacity:1;" />
<path d="M 292.496094 246.070312 L 259.925781 213.507812 L 297.648438 175.785156 C 327.710938 145.71875 362.734375 122.0625 397.984375 108.011719 C 383.933594 143.261719 360.28125 178.285156 330.214844 208.351562 Z M 292.496094 246.070312 " style=" stroke:none;fill-rule:nonzero;fill:rgb(38.823529%,41.176471%,47.058824%);fill-opacity:1;" />
<path d="M 276.195312 229.773438 L 292.496094 246.070312 L 330.214844 208.351562 C 360.28125 178.285156 383.9375 143.261719 397.984375 108.011719 C 397.96875 108.015625 397.953125 108.023438 397.9375 108.03125 Z M 276.195312 229.773438 " style=" stroke:none;fill-rule:nonzero;fill:rgb(33.333333%,35.294118%,40%);fill-opacity:1;" />
<path d="M 203.953125 225.046875 L 222.015625 206.984375 L 397.984375 382.953125 L 379.921875 401.015625 Z M 203.953125 225.046875 " style=" stroke:none;fill-rule:nonzero;fill:rgb(73.72549%,40.784314%,16.078431%);fill-opacity:1;" />
<path d="M 212.875 216.121094 L 222.011719 206.984375 L 397.980469 382.953125 L 388.84375 392.089844 Z M 212.875 216.121094 " style=" stroke:none;fill-rule:nonzero;fill:rgb(67.058824%,35.294118%,11.372549%);fill-opacity:1;" />
<path d="M 243.039062 213.503906 L 210.476562 246.070312 L 172.757812 208.351562 C 142.691406 178.285156 119.03125 143.261719 104.980469 108.011719 C 140.230469 122.0625 175.253906 145.71875 205.320312 175.78125 Z M 243.039062 213.503906 " style=" stroke:none;fill-rule:nonzero;fill:rgb(38.823529%,41.176471%,47.058824%);fill-opacity:1;" />
<path d="M 243.039062 213.503906 L 205.320312 175.78125 C 175.253906 145.71875 140.230469 122.0625 104.980469 108.011719 C 105.027344 108.132812 105.082031 108.253906 105.132812 108.371094 L 226.652344 229.894531 Z M 243.039062 213.503906 " style=" stroke:none;fill-rule:nonzero;fill:rgb(33.333333%,35.294118%,40%);fill-opacity:1;" />
</g>
</svg>