<svg xmlns="http://www.w3.org/2000/svg" height="512pt" version="1.1" viewBox="0 0 512 512" width="512pt">
<g id="surface1">
<path d="M 512 256 C 512 397.386719 397.386719 512 256 512 C 114.613281 512 0 397.386719 0 256 C 0 114.613281 114.613281 0 256 0 C 397.386719 0 512 114.613281 512 256 Z M 512 256 " style=" stroke:none;fill-rule:nonzero;fill:rgb(97.647059%,15.686275%,7.843137%);fill-opacity:1;" />
<path d="M 511.992188 256.667969 L 310.738281 55.410156 L 277.273438 131.421875 L 201.265625 55.410156 L 254.441406 183.292969 L 181.699219 348.535156 L 132.855469 356.765625 L 165.953125 389.863281 L 130.578125 433.242188 L 204.058594 506.722656 C 220.828125 510.179688 238.203125 512 256 512 C 397.160156 512 511.632812 397.742188 511.992188 256.667969 Z M 511.992188 256.667969 " style=" stroke:none;fill-rule:nonzero;fill:rgb(85.882353%,1.568627%,1.568627%);fill-opacity:1;" />
<path d="M 203.585938 323.164062 L 187.433594 316.136719 L 291.59375 76.769531 L 310.738281 55.410156 L 307.742188 83.796875 Z M 203.585938 323.164062 " style=" stroke:none;fill-rule:nonzero;fill:rgb(100%,100%,100%);fill-opacity:1;" />
<path d="M 195.554688 319.667969 L 203.585938 323.164062 L 307.742188 83.796875 L 310.738281 55.410156 Z M 195.554688 319.667969 " style=" stroke:none;fill-rule:nonzero;fill:rgb(94.901961%,96.470588%,98.823529%);fill-opacity:1;" />
<path d="M 172.101562 337.847656 L 198.175781 349.191406 L 156.65625 444.609375 L 130.582031 433.265625 Z M 172.101562 337.847656 " style=" stroke:none;fill-rule:nonzero;fill:rgb(100%,66.666667%,0%);fill-opacity:1;" />
<path d="M 143.625 438.921875 L 156.648438 444.589844 L 198.167969 349.175781 L 185.167969 343.519531 Z M 143.625 438.921875 " style=" stroke:none;fill-rule:nonzero;fill:rgb(100%,49.019608%,3.921569%);fill-opacity:1;" />
<path d="M 216.273438 294.003906 L 200.121094 286.976562 L 110.917969 322.144531 C 132.820312 377.796875 195.691406 405.152344 251.34375 383.25 Z M 216.273438 294.003906 " style=" stroke:none;fill-rule:nonzero;fill:rgb(100%,80.784314%,0%);fill-opacity:1;" />
<path d="M 208.25 290.515625 L 168.503906 381.789062 C 193.910156 392.835938 223.527344 394.195312 251.34375 383.246094 L 216.273438 294.003906 Z M 208.25 290.515625 " style=" stroke:none;fill-rule:nonzero;fill:rgb(100%,66.666667%,0%);fill-opacity:1;" />
<path d="M 308.414062 323.164062 L 324.566406 316.136719 L 220.40625 76.769531 L 201.261719 55.410156 L 204.257812 83.796875 Z M 308.414062 323.164062 " style=" stroke:none;fill-rule:nonzero;fill:rgb(86.27451%,88.235294%,92.156863%);fill-opacity:1;" />
<path d="M 324.566406 316.136719 L 220.40625 76.769531 L 201.261719 55.410156 L 316.511719 319.640625 Z M 324.566406 316.136719 " style=" stroke:none;fill-rule:nonzero;fill:rgb(80.392157%,82.352941%,88.235294%);fill-opacity:1;" />
<path d="M 381.40625 433.226562 L 355.332031 444.570312 L 313.816406 349.152344 L 339.890625 337.808594 Z M 381.40625 433.226562 " style=" stroke:none;fill-rule:nonzero;fill:rgb(100%,66.666667%,0%);fill-opacity:1;" />
<path d="M 381.421875 433.242188 L 339.90625 337.828125 L 326.90625 343.488281 L 368.476562 438.878906 Z M 381.421875 433.242188 " style=" stroke:none;fill-rule:nonzero;fill:rgb(100%,49.019608%,3.921569%);fill-opacity:1;" />
<path d="M 295.726562 294.003906 L 311.878906 286.976562 L 401.082031 322.144531 C 379.179688 377.796875 316.308594 405.152344 260.65625 383.25 Z M 295.726562 294.003906 " style=" stroke:none;fill-rule:nonzero;fill:rgb(100%,80.784314%,0%);fill-opacity:1;" />
<path d="M 401.082031 322.144531 L 311.878906 286.976562 L 303.808594 290.488281 L 343.582031 381.753906 C 368.96875 370.6875 390.140625 349.949219 401.082031 322.144531 Z M 401.082031 322.144531 " style=" stroke:none;fill-rule:nonzero;fill:rgb(100%,66.666667%,0%);fill-opacity:1;" />
</g>
</svg>