<svg xmlns="http://www.w3.org/2000/svg" height="512pt" version="1.1" viewBox="0 0 512 512" width="512pt">
<g id="surface1">
<path d="M 512 256 C 512 397.386719 397.386719 512 256 512 C 114.613281 512 0 397.386719 0 256 C 0 114.613281 114.613281 0 256 0 C 397.386719 0 512 114.613281 512 256 Z M 512 256 " style=" stroke:none;fill-rule:nonzero;fill:rgb(0%,92.941176%,100%);fill-opacity:1;" />
<path d="M 512 256 C 512 237.109375 509.9375 218.707031 506.054688 200.984375 L 403.835938 98.761719 L 302.871094 204.917969 L 189.753906 124.050781 L 142.710938 142.933594 L 176.839844 177.058594 L 151.535156 437.800781 L 223.714844 509.980469 C 234.289062 511.3125 245.0625 512 256 512 C 397.386719 512 512 397.386719 512 256 Z M 512 256 " style=" stroke:none;fill-rule:nonzero;fill:rgb(2.745098%,74.509804%,90.980392%);fill-opacity:1;" />
<path d="M 305.222656 143.652344 L 358.941406 197.371094 L 163.359375 392.953125 L 109.640625 339.234375 Z M 305.222656 143.652344 " style=" stroke:none;fill-rule:nonzero;fill:rgb(67.058824%,35.294118%,11.372549%);fill-opacity:1;" />
<path d="M 136.363281 365.96875 L 331.945312 170.386719 L 358.9375 197.378906 L 163.355469 392.960938 Z M 136.363281 365.96875 " style=" stroke:none;fill-rule:nonzero;fill:rgb(54.117647%,27.843137%,6.666667%);fill-opacity:1;" />
<path d="M 128.191406 374.40625 L 172.835938 127.296875 L 199.40625 132.097656 L 161.679688 340.917969 L 370.5 303.191406 L 375.300781 329.761719 Z M 128.191406 374.40625 " style=" stroke:none;fill-rule:nonzero;fill:rgb(94.901961%,96.470588%,98.823529%);fill-opacity:1;" />
<path d="M 161.679688 340.917969 L 161.738281 340.597656 L 128.25 374.082031 L 128.191406 374.40625 L 375.300781 329.761719 L 370.5 303.191406 Z M 161.679688 340.917969 " style=" stroke:none;fill-rule:nonzero;fill:rgb(91.372549%,92.941176%,96.078431%);fill-opacity:1;" />
<path d="M 101.566406 314.289062 L 188.304688 401.027344 L 151.535156 437.796875 L 64.796875 351.058594 Z M 101.566406 314.289062 " style=" stroke:none;fill-rule:nonzero;fill:rgb(54.117647%,27.843137%,6.666667%);fill-opacity:1;" />
<path d="M 108.03125 394.300781 L 144.800781 357.53125 L 188.300781 401.03125 L 151.53125 437.800781 Z M 108.03125 394.300781 " style=" stroke:none;fill-rule:nonzero;fill:rgb(54.117647%,27.843137%,6.666667%);fill-opacity:1;" />
<path d="M 368.734375 119.484375 L 383.109375 133.859375 L 152.125 364.847656 L 137.746094 350.46875 Z M 368.734375 119.484375 " style=" stroke:none;fill-rule:nonzero;fill:rgb(100%,80.784314%,0%);fill-opacity:1;" />
<path d="M 144.800781 357.535156 L 375.789062 126.546875 L 383.109375 133.871094 L 152.121094 364.855469 Z M 144.800781 357.535156 " style=" stroke:none;fill-rule:nonzero;fill:rgb(100%,66.666667%,0%);fill-opacity:1;" />
<path d="M 318.511719 125.347656 L 403.835938 98.761719 L 377.261719 184.074219 Z M 318.511719 125.347656 " style=" stroke:none;fill-rule:nonzero;fill:rgb(35.294118%,33.333333%,33.333333%);fill-opacity:1;" />
<path d="M 347.753906 154.578125 L 377.261719 184.074219 L 403.835938 98.761719 Z M 347.753906 154.578125 " style=" stroke:none;fill-rule:nonzero;fill:rgb(27.45098%,25.490196%,25.490196%);fill-opacity:1;" />
<path d="M 386.480469 363.023438 L 359.664062 359.886719 L 360.519531 352.578125 C 362.875 332.488281 359.765625 310.675781 351.535156 289.492188 C 343.183594 267.996094 329.730469 247.59375 312.632812 230.492188 L 272.101562 189.964844 C 255.003906 172.863281 234.601562 159.410156 213.105469 151.058594 C 191.921875 142.828125 170.109375 139.722656 150.019531 142.074219 L 142.710938 142.933594 L 139.570312 116.117188 L 146.878906 115.261719 C 196.589844 109.433594 250.546875 130.226562 291.195312 170.875 L 331.722656 211.402344 C 372.371094 252.050781 393.160156 306 387.335938 355.71875 Z M 386.480469 363.023438 " style=" stroke:none;fill-rule:nonzero;fill:rgb(97.647059%,15.686275%,7.843137%);fill-opacity:1;" />
<path d="M 311.328125 191.007812 L 292.234375 210.097656 L 312.632812 230.496094 C 329.734375 247.597656 343.1875 267.996094 351.535156 289.492188 C 359.765625 310.675781 362.875 332.488281 360.519531 352.578125 L 359.664062 359.886719 L 386.480469 363.027344 L 387.335938 355.71875 C 393.160156 306 372.371094 252.050781 331.722656 211.402344 Z M 311.328125 191.007812 " style=" stroke:none;fill-rule:nonzero;fill:rgb(85.882353%,1.568627%,1.568627%);fill-opacity:1;" />
</g>
</svg>