<svg xmlns="http://www.w3.org/2000/svg" height="512pt" version="1.1" viewBox="0 0 512 512" width="512pt">
<g id="surface1">
<path d="M 512 256 C 512 397.386719 397.386719 512 256 512 C 114.613281 512 0 397.386719 0 256 C 0 114.613281 114.613281 0 256 0 C 397.386719 0 512 114.613281 512 256 Z M 512 256 " style=" stroke:none;fill-rule:nonzero;fill:rgb(97.647059%,15.686275%,7.843137%);fill-opacity:1;" />
<path d="M 511.535156 271.230469 L 293.179688 52.871094 L 115 427.832031 L 190.769531 503.601562 C 211.59375 509.074219 233.453125 512 256 512 C 392.269531 512 503.65625 405.523438 511.535156 271.230469 Z M 511.535156 271.230469 " style=" stroke:none;fill-rule:nonzero;fill:rgb(85.882353%,1.568627%,1.568627%);fill-opacity:1;" />
<path d="M 397 427.835938 L 115 427.835938 L 115 220.976562 C 115 143.101562 178.128906 79.976562 256 79.976562 C 333.871094 79.976562 397 143.101562 397 220.976562 Z M 397 427.835938 " style=" stroke:none;fill-rule:nonzero;fill:rgb(33.333333%,35.294118%,40%);fill-opacity:1;" />
<path d="M 397 220.976562 C 397 143.101562 333.871094 79.976562 256 79.976562 C 255.867188 79.976562 255.738281 79.980469 255.605469 79.980469 L 255.605469 427.832031 L 397 427.832031 Z M 397 220.976562 " style=" stroke:none;fill-rule:nonzero;fill:rgb(25.490196%,28.627451%,32.156863%);fill-opacity:1;" />
<path d="M 271.757812 206.191406 L 271.757812 351.300781 L 256 361.148438 L 240.242188 351.300781 L 240.242188 206.191406 L 147.660156 206.191406 L 147.660156 253.464844 L 215.617188 273.164062 L 225.46875 427.835938 L 286.53125 427.835938 L 296.382812 273.164062 L 364.339844 253.464844 L 364.339844 206.191406 Z M 271.757812 206.191406 " style=" stroke:none;fill-rule:nonzero;fill:rgb(20%,22.352941%,25.098039%);fill-opacity:1;" />
<path d="M 271.757812 206.191406 L 271.757812 351.300781 L 256 361.148438 L 255.605469 360.902344 L 255.605469 427.832031 L 286.53125 427.832031 L 296.382812 273.164062 L 364.339844 253.464844 L 364.339844 206.191406 Z M 271.757812 206.191406 " style=" stroke:none;fill-rule:nonzero;fill:rgb(13.72549%,15.294118%,16.862745%);fill-opacity:1;" />
<path d="M 218.820312 52.871094 L 293.179688 52.871094 L 293.179688 139.414062 L 218.820312 139.414062 Z M 218.820312 52.871094 " style=" stroke:none;fill-rule:nonzero;fill:rgb(100%,80.784314%,0%);fill-opacity:1;" />
<path d="M 255.605469 52.871094 L 293.179688 52.871094 L 293.179688 139.414062 L 255.605469 139.414062 Z M 255.605469 52.871094 " style=" stroke:none;fill-rule:nonzero;fill:rgb(100%,66.666667%,0%);fill-opacity:1;" />
</g>
</svg>