<svg xmlns="http://www.w3.org/2000/svg" height="512pt" version="1.1" viewBox="0 0 512 512" width="512pt">
<g id="surface1">
<path d="M 512 256 C 512 397.386719 397.386719 512 256 512 C 114.613281 512 0 397.386719 0 256 C 0 114.613281 114.613281 0 256 0 C 397.386719 0 512 114.613281 512 256 Z M 512 256 " style=" stroke:none;fill-rule:nonzero;fill:rgb(67.058824%,35.294118%,11.372549%);fill-opacity:1;" />
<path d="M 512 256 C 512 245.027344 511.308594 234.222656 509.96875 223.613281 L 448.332031 161.980469 L 436.160156 179.808594 L 367 110.644531 L 308.175781 252.175781 L 153.667969 97.667969 L 125.667969 431.667969 L 199.796875 505.796875 C 217.882812 509.847656 236.6875 512 256 512 C 397.386719 512 512 397.386719 512 256 Z M 512 256 " style=" stroke:none;fill-rule:nonzero;fill:rgb(54.117647%,27.843137%,6.666667%);fill-opacity:1;" />
<path d="M 448.332031 326.570312 L 300.128906 326.570312 L 300.128906 161.980469 L 448.332031 161.980469 L 408.332031 244.273438 Z M 448.332031 326.570312 " style=" stroke:none;fill-rule:nonzero;fill:rgb(86.27451%,88.235294%,92.156863%);fill-opacity:1;" />
<path d="M 300.128906 244.304688 L 300.128906 326.570312 L 448.332031 326.570312 L 408.347656 244.304688 Z M 300.128906 244.304688 " style=" stroke:none;fill-rule:nonzero;fill:rgb(80.392157%,82.352941%,88.235294%);fill-opacity:1;" />
<path d="M 150 110.644531 L 367 110.644531 L 367 275.238281 L 150 275.238281 Z M 150 110.644531 " style=" stroke:none;fill-rule:nonzero;fill:rgb(100%,100%,100%);fill-opacity:1;" />
<path d="M 150 196.425781 L 367 196.425781 L 367 275.238281 L 150 275.238281 Z M 150 196.425781 " style=" stroke:none;fill-rule:nonzero;fill:rgb(94.901961%,96.470588%,98.823529%);fill-opacity:1;" />
<path d="M 312.523438 149.992188 C 312.523438 155.292969 315.222656 159.964844 319.320312 162.707031 L 293.152344 182.9375 L 266.984375 162.707031 C 271.085938 159.964844 273.785156 155.296875 273.785156 149.992188 C 273.785156 141.550781 266.941406 134.707031 258.5 134.707031 C 250.058594 134.707031 243.214844 141.550781 243.214844 149.992188 C 243.214844 155.292969 245.914062 159.964844 250.011719 162.707031 L 223.84375 182.9375 L 197.675781 162.707031 C 201.777344 159.964844 204.476562 155.296875 204.476562 149.992188 C 204.476562 141.550781 197.632812 134.707031 189.191406 134.707031 L 189.191406 251.175781 L 327.808594 251.175781 L 327.808594 134.707031 C 319.367188 134.707031 312.523438 141.550781 312.523438 149.992188 Z M 312.523438 149.992188 " style=" stroke:none;fill-rule:nonzero;fill:rgb(100%,80.784314%,0%);fill-opacity:1;" />
<path d="M 189.191406 196.425781 L 327.808594 196.425781 L 327.808594 251.175781 L 189.191406 251.175781 Z M 189.191406 196.425781 " style=" stroke:none;fill-rule:nonzero;fill:rgb(100%,66.666667%,0%);fill-opacity:1;" />
<path d="M 367 275.238281 L 300.128906 326.570312 L 300.128906 275.238281 Z M 367 275.238281 " style=" stroke:none;fill-rule:nonzero;fill:rgb(68.627451%,70.588235%,78.431373%);fill-opacity:1;" />
<path d="M 125.667969 97.667969 L 153.667969 97.667969 L 153.667969 431.667969 L 125.667969 431.667969 Z M 125.667969 97.667969 " style=" stroke:none;fill-rule:nonzero;fill:rgb(100%,80.784314%,0%);fill-opacity:1;" />
<path d="M 139.242188 97.667969 L 153.664062 97.667969 L 153.664062 431.667969 L 139.242188 431.667969 Z M 139.242188 97.667969 " style=" stroke:none;fill-rule:nonzero;fill:rgb(100%,66.666667%,0%);fill-opacity:1;" />
</g>
</svg>