<svg xmlns="http://www.w3.org/2000/svg" height="512pt" version="1.1" viewBox="0 0 512 512" width="512pt">
<g id="surface1">
<path d="M 512 256 C 512 397.386719 397.386719 512 256 512 C 114.613281 512 0 397.386719 0 256 C 0 114.613281 114.613281 0 256 0 C 397.386719 0 512 114.613281 512 256 Z M 512 256 " style=" stroke:none;fill-rule:nonzero;fill:rgb(100%,80.784314%,0%);fill-opacity:1;" />
<path d="M 199.527344 404.636719 L 302.640625 507.746094 C 421.753906 485.820312 512 381.453125 512 256 C 512 242.589844 510.964844 229.421875 508.976562 216.566406 L 390.53125 98.125 Z M 199.527344 404.636719 " style=" stroke:none;fill-rule:nonzero;fill:rgb(100%,66.666667%,0%);fill-opacity:1;" />
<path d="M 289.636719 425.074219 L 256 451.875 L 222.363281 425.074219 C 158.605469 374.269531 121.46875 297.191406 121.46875 215.667969 L 121.46875 98.125 L 390.53125 98.125 L 390.53125 215.671875 C 390.53125 297.191406 353.394531 374.273438 289.636719 425.074219 Z M 289.636719 425.074219 " style=" stroke:none;fill-rule:nonzero;fill:rgb(67.058824%,35.294118%,11.372549%);fill-opacity:1;" />
<path d="M 256.210938 98.125 L 256.210938 451.707031 L 289.636719 425.074219 C 353.394531 374.273438 390.53125 297.191406 390.53125 215.671875 L 390.53125 98.125 Z M 256.210938 98.125 " style=" stroke:none;fill-rule:nonzero;fill:rgb(54.117647%,27.843137%,6.666667%);fill-opacity:1;" />
<path d="M 282.117188 391.515625 L 256 412.324219 L 229.882812 391.515625 C 180.382812 352.074219 151.550781 292.230469 151.550781 228.9375 L 151.550781 127.675781 L 360.449219 127.675781 L 360.449219 228.9375 C 360.449219 292.230469 331.617188 352.074219 282.117188 391.515625 Z M 282.117188 391.515625 " style=" stroke:none;fill-rule:nonzero;fill:rgb(54.117647%,27.843137%,6.666667%);fill-opacity:1;" />
<path d="M 256.210938 127.675781 L 256.210938 412.15625 L 282.117188 391.515625 C 331.617188 352.074219 360.449219 292.226562 360.449219 228.933594 L 360.449219 127.675781 Z M 256.210938 127.675781 " style=" stroke:none;fill-rule:nonzero;fill:rgb(47.058824%,24.705882%,8.627451%);fill-opacity:1;" />
<path d="M 335 238.25 C 335 238.25 325.839844 224.359375 325.839844 217.410156 C 308.027344 219.945312 290.109375 221.496094 272.167969 222.082031 C 272.753906 204.140625 274.304688 186.222656 276.839844 168.410156 C 269.890625 168.410156 256 159.25 256 159.25 C 256 159.25 242.109375 168.410156 235.160156 168.410156 C 237.695312 186.222656 239.246094 204.140625 239.832031 222.082031 C 221.890625 221.496094 203.972656 219.945312 186.15625 217.410156 C 186.15625 224.359375 177 238.25 177 238.25 C 177 238.25 186.15625 252.140625 186.15625 259.089844 C 203.972656 256.554688 221.890625 255.003906 239.832031 254.417969 C 239.246094 272.359375 237.695312 290.277344 235.160156 308.089844 C 242.109375 308.089844 256 317.25 256 317.25 C 256 317.25 269.890625 308.089844 276.839844 308.089844 C 274.304688 290.277344 272.753906 272.359375 272.167969 254.417969 C 290.109375 255.003906 308.027344 256.554688 325.839844 259.089844 C 325.839844 252.140625 335 238.25 335 238.25 Z M 335 238.25 " style=" stroke:none;fill-rule:nonzero;fill:rgb(100%,100%,100%);fill-opacity:1;" />
<path d="M 335 238.25 C 335 238.25 325.839844 224.359375 325.839844 217.410156 C 308.027344 219.945312 290.109375 221.496094 272.167969 222.082031 C 272.753906 204.140625 274.304688 186.222656 276.839844 168.410156 C 270.386719 168.410156 257.957031 160.515625 256.214844 159.386719 L 256.214844 317.113281 C 257.957031 315.984375 270.386719 308.089844 276.839844 308.089844 C 274.304688 290.277344 272.753906 272.359375 272.167969 254.417969 C 290.109375 255.003906 308.027344 256.554688 325.839844 259.089844 C 325.839844 252.140625 335 238.25 335 238.25 Z M 335 238.25 " style=" stroke:none;fill-rule:nonzero;fill:rgb(94.901961%,96.470588%,98.823529%);fill-opacity:1;" />
</g>
</svg>