<svg xmlns="http://www.w3.org/2000/svg" height="512pt" version="1.1" viewBox="0 0 512 512" width="512pt">
<g id="surface1">
<path d="M 512 256 C 512 397.386719 397.386719 512 256 512 C 114.613281 512 0 397.386719 0 256 C 0 114.613281 114.613281 0 256 0 C 397.386719 0 512 114.613281 512 256 Z M 512 256 " style=" stroke:none;fill-rule:nonzero;fill:rgb(0%,92.941176%,100%);fill-opacity:1;" />
<path d="M 512 256 C 512 228.609375 507.683594 202.234375 499.71875 177.492188 L 407.320312 85.097656 L 385.203125 118.171875 L 313.101562 46.066406 L 262 148.546875 L 179.851562 179.316406 L 252.199219 251.664062 L 122.355469 405.417969 L 227.328125 510.394531 C 236.742188 511.441406 246.304688 512 256 512 C 397.386719 512 512 397.386719 512 256 Z M 512 256 " style=" stroke:none;fill-rule:nonzero;fill:rgb(2.745098%,74.509804%,90.980392%);fill-opacity:1;" />
<path d="M 253.46875 203.59375 L 288.824219 238.949219 L 122.359375 405.414062 L 87.003906 370.058594 Z M 253.46875 203.59375 " style=" stroke:none;fill-rule:nonzero;fill:rgb(67.058824%,35.294118%,11.372549%);fill-opacity:1;" />
<path d="M 104.480469 387.542969 L 270.949219 221.078125 L 288.820312 238.949219 L 122.351562 405.417969 Z M 104.480469 387.542969 " style=" stroke:none;fill-rule:nonzero;fill:rgb(54.117647%,27.843137%,6.666667%);fill-opacity:1;" />
<path d="M 404.960938 154.367188 L 446.351562 179.316406 L 404.960938 204.265625 C 396.339844 209.464844 385.351562 203.253906 385.351562 193.191406 L 385.351562 165.445312 C 385.351562 155.382812 396.339844 149.171875 404.960938 154.367188 Z M 404.960938 154.367188 " style=" stroke:none;fill-rule:nonzero;fill:rgb(25.490196%,28.627451%,32.156863%);fill-opacity:1;" />
<path d="M 221.238281 204.265625 L 179.851562 179.316406 L 221.238281 154.367188 C 229.859375 149.171875 240.851562 155.382812 240.851562 165.445312 L 240.851562 193.191406 C 240.851562 203.253906 229.859375 209.464844 221.238281 204.265625 Z M 221.238281 204.265625 " style=" stroke:none;fill-rule:nonzero;fill:rgb(33.333333%,35.294118%,40%);fill-opacity:1;" />
<path d="M 288.152344 87.457031 L 313.101562 46.066406 L 338.050781 87.457031 C 343.246094 96.078125 337.035156 107.066406 326.972656 107.066406 L 299.226562 107.066406 C 289.164062 107.066406 282.953125 96.078125 288.152344 87.457031 Z M 288.152344 87.457031 " style=" stroke:none;fill-rule:nonzero;fill:rgb(33.333333%,35.294118%,40%);fill-opacity:1;" />
<path d="M 338.050781 271.179688 L 313.101562 312.566406 L 288.152344 271.179688 C 282.953125 262.558594 289.164062 251.566406 299.226562 251.566406 L 326.972656 251.566406 C 337.035156 251.566406 343.246094 262.558594 338.050781 271.179688 Z M 338.050781 271.179688 " style=" stroke:none;fill-rule:nonzero;fill:rgb(25.490196%,28.627451%,32.156863%);fill-opacity:1;" />
<path d="M 379.800781 112.617188 C 342.960938 75.777344 283.234375 75.777344 246.394531 112.617188 C 209.554688 149.457031 209.554688 209.183594 246.394531 246.023438 C 283.234375 282.859375 342.960938 282.859375 379.800781 246.023438 C 416.636719 209.183594 416.636719 149.457031 379.800781 112.617188 Z M 379.800781 112.617188 " style=" stroke:none;fill-rule:nonzero;fill:rgb(43.921569%,46.666667%,53.72549%);fill-opacity:1;" />
<path d="M 379.605469 112.425781 L 246.207031 245.824219 C 246.273438 245.886719 246.332031 245.957031 246.394531 246.023438 C 283.234375 282.859375 342.964844 282.859375 379.804688 246.023438 C 416.640625 209.183594 416.640625 149.453125 379.804688 112.613281 C 379.738281 112.550781 379.671875 112.488281 379.605469 112.425781 Z M 379.605469 112.425781 " style=" stroke:none;fill-rule:nonzero;fill:rgb(38.823529%,41.176471%,47.058824%);fill-opacity:1;" />
<path d="M 360.414062 96.722656 L 407.320312 85.097656 L 395.695312 132.003906 C 393.277344 141.773438 381.113281 145.15625 373.996094 138.039062 L 354.378906 118.421875 C 347.261719 111.304688 350.644531 99.144531 360.414062 96.722656 Z M 360.414062 96.722656 " style=" stroke:none;fill-rule:nonzero;fill:rgb(33.333333%,35.294118%,40%);fill-opacity:1;" />
<path d="M 363.996094 128.035156 L 373.996094 138.039062 C 381.113281 145.15625 393.277344 141.773438 395.695312 132.003906 L 407.320312 85.097656 Z M 363.996094 128.035156 " style=" stroke:none;fill-rule:nonzero;fill:rgb(25.490196%,28.627451%,32.156863%);fill-opacity:1;" />
<path d="M 265.785156 261.914062 L 218.878906 273.539062 L 230.503906 226.632812 C 232.925781 216.863281 245.085938 213.480469 252.203125 220.597656 L 271.820312 240.214844 C 278.9375 247.332031 275.554688 259.492188 265.785156 261.914062 Z M 265.785156 261.914062 " style=" stroke:none;fill-rule:nonzero;fill:rgb(33.333333%,35.294118%,40%);fill-opacity:1;" />
<path d="M 261.816406 230.214844 L 219.007812 273.023438 L 218.878906 273.539062 L 265.785156 261.914062 C 275.554688 259.496094 278.9375 247.335938 271.820312 240.21875 Z M 261.816406 230.214844 " style=" stroke:none;fill-rule:nonzero;fill:rgb(25.490196%,28.627451%,32.156863%);fill-opacity:1;" />
<path d="M 395.695312 226.632812 L 407.320312 273.539062 L 360.414062 261.914062 C 350.644531 259.492188 347.261719 247.332031 354.378906 240.214844 L 373.996094 220.597656 C 381.113281 213.480469 393.277344 216.863281 395.695312 226.632812 Z M 395.695312 226.632812 " style=" stroke:none;fill-rule:nonzero;fill:rgb(25.490196%,28.627451%,32.156863%);fill-opacity:1;" />
<path d="M 230.503906 132.003906 L 218.878906 85.097656 L 265.785156 96.722656 C 275.554688 99.144531 278.9375 111.304688 271.820312 118.421875 L 252.203125 138.039062 C 245.085938 145.15625 232.925781 141.773438 230.503906 132.003906 Z M 230.503906 132.003906 " style=" stroke:none;fill-rule:nonzero;fill:rgb(33.333333%,35.294118%,40%);fill-opacity:1;" />
<path d="M 330.539062 161.878906 C 320.777344 152.113281 304.945312 152.113281 295.183594 161.878906 C 285.421875 171.640625 285.421875 187.46875 295.183594 197.230469 C 304.945312 206.996094 320.777344 206.996094 330.539062 197.230469 C 340.300781 187.46875 340.300781 171.640625 330.539062 161.878906 Z M 330.539062 161.878906 " style=" stroke:none;fill-rule:nonzero;fill:rgb(33.333333%,35.294118%,40%);fill-opacity:1;" />
<path d="M 330.34375 161.6875 L 294.996094 197.03125 C 295.0625 197.097656 295.121094 197.167969 295.1875 197.230469 C 304.949219 206.996094 320.777344 206.996094 330.539062 197.230469 C 340.304688 187.46875 340.304688 171.640625 330.539062 161.878906 C 330.476562 161.8125 330.410156 161.75 330.34375 161.6875 Z M 330.34375 161.6875 " style=" stroke:none;fill-rule:nonzero;fill:rgb(25.490196%,28.627451%,32.156863%);fill-opacity:1;" />
</g>
</svg>