<svg xmlns="http://www.w3.org/2000/svg" height="512pt" version="1.1" viewBox="0 0 512 512" width="512pt">
<g id="surface1">
<path d="M 512 256 C 512 397.386719 397.386719 512 256 512 C 114.613281 512 0 397.386719 0 256 C 0 114.613281 114.613281 0 256 0 C 397.386719 0 512 114.613281 512 256 Z M 512 256 " style=" stroke:none;fill-rule:nonzero;fill:rgb(0%,92.941176%,100%);fill-opacity:1;" />
<path d="M 512 256 C 512 246.386719 511.453125 236.902344 510.421875 227.566406 L 425.589844 142.734375 L 77 373.519531 L 211.640625 508.160156 C 226.050781 510.675781 240.871094 512 256 512 C 397.386719 512 512 397.386719 512 256 Z M 512 256 " style=" stroke:none;fill-rule:nonzero;fill:rgb(2.745098%,74.509804%,90.980392%);fill-opacity:1;" />
<path d="M 77 167.976562 L 435 167.976562 L 435 373.519531 L 77 373.519531 Z M 77 167.976562 " style=" stroke:none;fill-rule:nonzero;fill:rgb(67.058824%,35.294118%,11.372549%);fill-opacity:1;" />
<path d="M 256.210938 167.976562 L 435 167.976562 L 435 373.519531 L 256.210938 373.519531 Z M 256.210938 167.976562 " style=" stroke:none;fill-rule:nonzero;fill:rgb(54.117647%,27.843137%,6.666667%);fill-opacity:1;" />
<path d="M 435 223.121094 L 77 223.121094 L 77 169.613281 C 77 145.789062 96.3125 126.480469 120.132812 126.480469 L 391.867188 126.480469 C 415.691406 126.480469 435 145.789062 435 169.613281 Z M 435 223.121094 " style=" stroke:none;fill-rule:nonzero;fill:rgb(54.117647%,27.843137%,6.666667%);fill-opacity:1;" />
<path d="M 435 169.613281 C 435 145.792969 415.6875 126.480469 391.867188 126.480469 L 256.210938 126.480469 L 256.210938 223.121094 L 435 223.121094 Z M 435 169.613281 " style=" stroke:none;fill-rule:nonzero;fill:rgb(47.058824%,24.705882%,8.627451%);fill-opacity:1;" />
<path d="M 133.035156 126.480469 L 184.960938 126.480469 L 184.960938 373.519531 L 133.035156 373.519531 Z M 133.035156 126.480469 " style=" stroke:none;fill-rule:nonzero;fill:rgb(100%,80.784314%,0%);fill-opacity:1;" />
<path d="M 327.039062 126.480469 L 378.964844 126.480469 L 378.964844 373.519531 L 327.039062 373.519531 Z M 327.039062 126.480469 " style=" stroke:none;fill-rule:nonzero;fill:rgb(100%,66.666667%,0%);fill-opacity:1;" />
<path d="M 126.996094 187.667969 L 190.996094 187.667969 L 190.996094 262 L 126.996094 262 Z M 126.996094 187.667969 " style=" stroke:none;fill-rule:nonzero;fill:rgb(100%,66.666667%,0%);fill-opacity:1;" />
<path d="M 139.164062 201.800781 L 178.832031 201.800781 L 178.832031 247.867188 L 139.164062 247.867188 Z M 139.164062 201.800781 " style=" stroke:none;fill-rule:nonzero;fill:rgb(100%,33.333333%,10.980392%);fill-opacity:1;" />
<path d="M 321.003906 187.667969 L 385.003906 187.667969 L 385.003906 262 L 321.003906 262 Z M 321.003906 187.667969 " style=" stroke:none;fill-rule:nonzero;fill:rgb(100%,49.019608%,3.921569%);fill-opacity:1;" />
<path d="M 333.171875 201.800781 L 372.835938 201.800781 L 372.835938 247.867188 L 333.171875 247.867188 Z M 333.171875 201.800781 " style=" stroke:none;fill-rule:nonzero;fill:rgb(92.941176%,28.235294%,10.588235%);fill-opacity:1;" />
<path d="M 278.027344 264.359375 C 278.027344 252.195312 268.164062 242.332031 256 242.332031 C 243.835938 242.332031 233.972656 252.195312 233.972656 264.359375 C 233.972656 271.300781 237.183594 277.484375 242.195312 281.519531 L 242.195312 311 L 269.804688 311 L 269.804688 281.523438 C 274.816406 277.484375 278.027344 271.300781 278.027344 264.359375 Z M 278.027344 264.359375 " style=" stroke:none;fill-rule:nonzero;fill:rgb(54.117647%,27.843137%,6.666667%);fill-opacity:1;" />
<path d="M 256.210938 242.339844 L 256.210938 311 L 269.804688 311 L 269.804688 281.523438 C 274.816406 277.484375 278.027344 271.300781 278.027344 264.363281 C 278.027344 252.265625 268.28125 242.453125 256.210938 242.339844 Z M 256.210938 242.339844 " style=" stroke:none;fill-rule:nonzero;fill:rgb(47.058824%,24.705882%,8.627451%);fill-opacity:1;" />
</g>
</svg>