<svg xmlns="http://www.w3.org/2000/svg" height="512pt" version="1.1" viewBox="0 0 512 512" width="512pt">
<g id="surface1">
<path d="M 512 256 C 512 397.386719 397.386719 512 256 512 C 114.613281 512 0 397.386719 0 256 C 0 114.613281 114.613281 0 256 0 C 397.386719 0 512 114.613281 512 256 Z M 512 256 " style=" stroke:none;fill-rule:nonzero;fill:rgb(25.490196%,28.627451%,32.156863%);fill-opacity:1;" />
<path d="M 511.589844 270.414062 L 400.113281 158.941406 L 398.765625 162.265625 L 299.5 63 L 298.359375 66.621094 L 273 41.261719 L 212.5 95.761719 L 275.035156 158.296875 L 133.789062 174 L 90 387.421875 L 210.554688 507.976562 C 225.304688 510.617188 240.492188 512 256 512 C 392.546875 512 504.109375 405.09375 511.589844 270.414062 Z M 511.589844 270.414062 " style=" stroke:none;fill-rule:nonzero;fill:rgb(20%,22.352941%,25.098039%);fill-opacity:1;" />
<path d="M 224.089844 361 L 116.925781 361 L 116.925781 268.734375 C 116.925781 229.316406 150.292969 201.515625 187.652344 208.507812 L 224.089844 215.328125 Z M 224.089844 361 " style=" stroke:none;fill-rule:nonzero;fill:rgb(97.647059%,15.686275%,7.843137%);fill-opacity:1;" />
<path d="M 287.910156 361 L 395.074219 361 L 395.074219 268.734375 C 395.074219 229.316406 361.707031 201.515625 324.347656 208.507812 L 287.910156 215.328125 Z M 287.910156 361 " style=" stroke:none;fill-rule:nonzero;fill:rgb(85.882353%,1.568627%,1.568627%);fill-opacity:1;" />
<path d="M 288.742188 180.425781 L 175.921875 141.679688 C 138.898438 128.964844 99.355469 155.234375 98.035156 194.355469 C 98.011719 195.050781 98 195.742188 98 196.441406 L 98 326.5 L 135.5 326.5 L 135.5 207.773438 C 135.5 207.242188 135.511719 206.71875 135.535156 206.191406 C 136.542969 183.859375 159.636719 169.355469 180.558594 177.226562 L 288.742188 217.925781 Z M 288.742188 180.425781 " style=" stroke:none;fill-rule:nonzero;fill:rgb(100%,80.784314%,0%);fill-opacity:1;" />
<path d="M 223.257812 180.425781 L 336.082031 141.679688 C 373.101562 128.964844 412.644531 155.234375 413.964844 194.355469 C 413.988281 195.050781 414 195.742188 414 196.441406 L 414 326.5 L 376.5 326.5 L 376.5 207.773438 C 376.5 207.242188 376.488281 206.71875 376.464844 206.191406 C 375.457031 183.859375 352.367188 169.355469 331.441406 177.226562 L 223.257812 217.925781 Z M 223.257812 180.425781 " style=" stroke:none;fill-rule:nonzero;fill:rgb(100%,66.666667%,0%);fill-opacity:1;" />
<path d="M 299.5 63 L 273 63 L 273 41.261719 L 239 41.261719 L 239 63 L 212.5 63 L 212.5 95.761719 L 239 95.761719 L 239 150.261719 L 273 150.261719 L 273 95.761719 L 299.5 95.761719 Z M 299.5 63 " style=" stroke:none;fill-rule:nonzero;fill:rgb(100%,80.784314%,0%);fill-opacity:1;" />
<path d="M 273 63 L 273 41.261719 L 255.605469 41.261719 L 255.605469 150.261719 L 273 150.261719 L 273 95.761719 L 299.5 95.761719 L 299.5 63 Z M 273 63 " style=" stroke:none;fill-rule:nonzero;fill:rgb(100%,66.666667%,0%);fill-opacity:1;" />
<path d="M 218.5 135.757812 L 293.5 135.757812 L 293.5 326.5 L 218.5 326.5 Z M 218.5 135.757812 " style=" stroke:none;fill-rule:nonzero;fill:rgb(100%,90.588235%,20%);fill-opacity:1;" />
<path d="M 255.605469 135.757812 L 293.5 135.757812 L 293.5 326.5 L 255.605469 326.5 Z M 255.605469 135.757812 " style=" stroke:none;fill-rule:nonzero;fill:rgb(94.901961%,84.705882%,7.45098%);fill-opacity:1;" />
<path d="M 90 301.75 L 422 301.75 L 422 387.421875 L 90 387.421875 Z M 90 301.75 " style=" stroke:none;fill-rule:nonzero;fill:rgb(100%,66.666667%,0%);fill-opacity:1;" />
<path d="M 255.605469 301.75 L 422 301.75 L 422 387.421875 L 255.605469 387.421875 Z M 255.605469 301.75 " style=" stroke:none;fill-rule:nonzero;fill:rgb(100%,49.019608%,3.921569%);fill-opacity:1;" />
<path d="M 285 348 C 285 364.015625 272.015625 377 256 377 C 239.984375 377 227 364.015625 227 348 C 227 331.984375 239.984375 319 256 319 C 272.015625 319 285 331.984375 285 348 Z M 285 348 " style=" stroke:none;fill-rule:nonzero;fill:rgb(0%,75.686275%,36.078431%);fill-opacity:1;" />
<path d="M 256 319 C 255.867188 319 255.738281 319.007812 255.605469 319.011719 L 255.605469 376.988281 C 255.738281 376.992188 255.867188 377 256 377 C 272.015625 377 285 364.015625 285 348 C 285 331.984375 272.015625 319 256 319 Z M 256 319 " style=" stroke:none;fill-rule:nonzero;fill:rgb(3.921569%,62.745098%,30.588235%);fill-opacity:1;" />
</g>
</svg>