<svg xmlns="http://www.w3.org/2000/svg" height="512pt" version="1.1" viewBox="0 0 512 512" width="512pt">
<g id="surface1">
<path d="M 512 256 C 512 397.386719 397.386719 512 256 512 C 114.613281 512 0 397.386719 0 256 C 0 114.613281 114.613281 0 256 0 C 397.386719 0 512 114.613281 512 256 Z M 512 256 " style=" stroke:none;fill-rule:nonzero;fill:rgb(0%,92.941176%,100%);fill-opacity:1;" />
<path d="M 511.355469 237.90625 L 339.9375 66.488281 L 248.976562 145.472656 L 298.230469 194.726562 L 260.65625 310.261719 L 410.511719 460.113281 C 472.167969 413.367188 512 339.339844 512 256 C 512 249.914062 511.773438 243.886719 511.355469 237.90625 Z M 511.355469 237.90625 " style=" stroke:none;fill-rule:nonzero;fill:rgb(2.745098%,74.509804%,90.980392%);fill-opacity:1;" />
<path d="M 281.839844 97.621094 L 325.605469 109.988281 L 259.703125 372.765625 L 219.125 403.125 L 200.441406 356.019531 Z M 281.839844 97.621094 " style=" stroke:none;fill-rule:nonzero;fill:rgb(100%,100%,100%);fill-opacity:1;" />
<path d="M 302.773438 103.535156 L 218.976562 402.75 L 219.125 403.125 L 259.703125 372.765625 L 325.605469 109.988281 Z M 302.773438 103.535156 " style=" stroke:none;fill-rule:nonzero;fill:rgb(94.901961%,96.470588%,98.823529%);fill-opacity:1;" />
<path d="M 318.03125 144.011719 L 270.253906 130.511719 L 292.152344 53.003906 L 339.929688 66.503906 Z M 318.03125 144.011719 " style=" stroke:none;fill-rule:nonzero;fill:rgb(38.823529%,41.176471%,47.058824%);fill-opacity:1;" />
<path d="M 339.9375 66.488281 L 315.113281 59.472656 L 293.394531 137.035156 L 318.03125 144 Z M 339.9375 66.488281 " style=" stroke:none;fill-rule:nonzero;fill:rgb(33.333333%,35.294118%,40%);fill-opacity:1;" />
<path d="M 328.554688 167.972656 L 248.976562 145.488281 L 257.410156 115.632812 L 336.992188 138.117188 Z M 328.554688 167.972656 " style=" stroke:none;fill-rule:nonzero;fill:rgb(25.490196%,28.627451%,32.156863%);fill-opacity:1;" />
<path d="M 336.996094 138.105469 L 296.3125 126.605469 L 287.945312 156.484375 L 328.558594 167.960938 Z M 336.996094 138.105469 " style=" stroke:none;fill-rule:nonzero;fill:rgb(20%,22.352941%,25.098039%);fill-opacity:1;" />
<path d="M 183 262 L 361.183594 262 L 361.183594 387 L 183 387 Z M 183 262 " style=" stroke:none;fill-rule:nonzero;fill:rgb(33.333333%,35.294118%,40%);fill-opacity:1;" />
<path d="M 255.605469 262 L 361.183594 262 L 361.183594 387 L 255.605469 387 Z M 255.605469 262 " style=" stroke:none;fill-rule:nonzero;fill:rgb(25.490196%,28.627451%,32.156863%);fill-opacity:1;" />
<path d="M 91.417969 452.070312 C 135.921875 489.464844 193.324219 512 256 512 C 325.414062 512 388.363281 484.359375 434.476562 439.5 L 390.910156 315.984375 L 111.425781 315.984375 Z M 91.417969 452.070312 " style=" stroke:none;fill-rule:nonzero;fill:rgb(25.490196%,28.627451%,32.156863%);fill-opacity:1;" />
<path d="M 434.476562 439.5 L 390.910156 315.984375 L 255.605469 315.984375 L 255.605469 511.996094 C 255.738281 511.996094 255.867188 512 256 512 C 325.414062 512 388.363281 484.359375 434.476562 439.5 Z M 434.476562 439.5 " style=" stroke:none;fill-rule:nonzero;fill:rgb(20%,22.352941%,25.098039%);fill-opacity:1;" />
<path d="M 121.089844 284.996094 L 272.5 284.996094 L 272.5 357 L 121.089844 357 Z M 121.089844 284.996094 " style=" stroke:none;fill-rule:nonzero;fill:rgb(38.823529%,41.176471%,47.058824%);fill-opacity:1;" />
<path d="M 255.605469 284.996094 L 272.5 284.996094 L 272.5 357 L 255.605469 357 Z M 255.605469 284.996094 " style=" stroke:none;fill-rule:nonzero;fill:rgb(33.333333%,35.294118%,40%);fill-opacity:1;" />
<path d="M 293.726562 354.5 L 428.640625 354.5 L 428.640625 419.5 L 293.726562 419.5 Z M 293.726562 354.5 " style=" stroke:none;fill-rule:nonzero;fill:rgb(33.333333%,35.294118%,40%);fill-opacity:1;" />
</g>
</svg>