<svg xmlns="http://www.w3.org/2000/svg" height="512pt" version="1.1" viewBox="0 0 512 512" width="512pt">
<g id="surface1">
<path d="M 512 256 C 512 397.386719 397.386719 512 256 512 C 114.613281 512 0 397.386719 0 256 C 0 114.613281 114.613281 0 256 0 C 397.386719 0 512 114.613281 512 256 Z M 512 256 " style=" stroke:none;fill-rule:nonzero;fill:rgb(0%,75.686275%,36.078431%);fill-opacity:1;" />
<path d="M 512 256 C 512 252.472656 511.910156 248.964844 511.765625 245.46875 L 441.308594 175.011719 L 439.445312 176.578125 L 360.890625 98.027344 L 118.664062 133.882812 L 293.15625 308.378906 L 118.664062 413.371094 L 213.8125 508.519531 C 227.539062 510.796875 241.628906 512 256 512 C 397.386719 512 512 397.386719 512 256 Z M 512 256 " style=" stroke:none;fill-rule:nonzero;fill:rgb(3.921569%,62.745098%,30.588235%);fill-opacity:1;" />
<path d="M 340.039062 88.550781 C 324.738281 88.550781 312.332031 100.953125 312.332031 116.257812 L 144.257812 116.257812 L 144.257812 395.742188 L 312.335938 395.742188 C 312.335938 411.046875 324.738281 423.449219 340.039062 423.449219 C 355.339844 423.449219 367.746094 411.046875 367.746094 395.742188 L 367.746094 116.257812 C 367.742188 100.953125 355.339844 88.550781 340.039062 88.550781 Z M 340.039062 88.550781 " style=" stroke:none;fill-rule:nonzero;fill:rgb(100%,100%,100%);fill-opacity:1;" />
<path d="M 340.039062 88.550781 C 324.738281 88.550781 312.332031 100.953125 312.332031 116.257812 L 255.605469 116.257812 L 255.605469 395.742188 L 312.332031 395.742188 C 312.332031 411.046875 324.738281 423.449219 340.039062 423.449219 C 355.339844 423.449219 367.746094 411.046875 367.746094 395.742188 L 367.746094 116.257812 C 367.742188 100.953125 355.339844 88.550781 340.039062 88.550781 Z M 340.039062 88.550781 " style=" stroke:none;fill-rule:nonzero;fill:rgb(94.901961%,96.470588%,98.823529%);fill-opacity:1;" />
<path d="M 140.039062 88.550781 C 124.738281 88.550781 112.332031 100.953125 112.332031 116.257812 C 112.332031 131.558594 124.738281 143.960938 140.039062 143.960938 L 340.039062 143.960938 C 324.738281 143.960938 312.332031 131.558594 312.332031 116.257812 C 312.332031 100.953125 324.738281 88.550781 340.039062 88.550781 Z M 140.039062 88.550781 " style=" stroke:none;fill-rule:nonzero;fill:rgb(100%,80.784314%,0%);fill-opacity:1;" />
<path d="M 312.332031 116.257812 C 312.332031 100.953125 324.738281 88.550781 340.039062 88.550781 L 255.605469 88.550781 L 255.605469 143.960938 L 340.039062 143.960938 C 324.738281 143.960938 312.332031 131.558594 312.332031 116.257812 Z M 312.332031 116.257812 " style=" stroke:none;fill-rule:nonzero;fill:rgb(100%,66.666667%,0%);fill-opacity:1;" />
<path d="M 140.039062 368.039062 C 124.738281 368.039062 112.332031 380.441406 112.332031 395.746094 C 112.332031 411.046875 124.738281 423.449219 140.039062 423.449219 L 340.039062 423.449219 C 324.738281 423.449219 312.332031 411.046875 312.332031 395.746094 C 312.332031 380.445312 324.738281 368.039062 340.039062 368.039062 Z M 140.039062 368.039062 " style=" stroke:none;fill-rule:nonzero;fill:rgb(100%,80.784314%,0%);fill-opacity:1;" />
<path d="M 312.332031 395.742188 C 312.332031 380.441406 324.738281 368.039062 340.039062 368.039062 L 255.605469 368.039062 L 255.605469 423.449219 L 340.039062 423.449219 C 324.738281 423.449219 312.332031 411.046875 312.332031 395.742188 Z M 312.332031 395.742188 " style=" stroke:none;fill-rule:nonzero;fill:rgb(100%,66.666667%,0%);fill-opacity:1;" />
<path d="M 249.234375 290.230469 L 362.265625 177.199219 C 384.734375 154.734375 421.15625 154.734375 443.621094 177.199219 L 330.589844 290.230469 C 308.121094 312.699219 271.699219 312.699219 249.234375 290.230469 Z M 249.234375 290.230469 " style=" stroke:none;fill-rule:nonzero;fill:rgb(38.823529%,41.176471%,47.058824%);fill-opacity:1;" />
<path d="M 416.6875 162.007812 L 273.890625 304.808594 C 293.367188 310.4375 315.238281 305.585938 330.589844 290.230469 L 443.621094 177.199219 C 435.910156 169.488281 426.558594 164.425781 416.6875 162.007812 Z M 416.6875 162.007812 " style=" stroke:none;fill-rule:nonzero;fill:rgb(33.333333%,35.294118%,40%);fill-opacity:1;" />
<path d="M 185.730469 353.734375 L 217.777344 346.300781 L 336.988281 227.085938 C 343.785156 220.289062 343.785156 209.273438 336.988281 202.476562 Z M 185.730469 353.734375 " style=" stroke:none;fill-rule:nonzero;fill:rgb(56.862745%,58.823529%,66.666667%);fill-opacity:1;" />
<path d="M 336.988281 202.476562 L 255.605469 283.859375 L 255.605469 308.472656 L 336.988281 227.085938 C 343.785156 220.289062 343.785156 209.273438 336.988281 202.476562 Z M 336.988281 202.476562 " style=" stroke:none;fill-rule:nonzero;fill:rgb(43.921569%,46.666667%,53.72549%);fill-opacity:1;" />
</g>
</svg>