<svg xmlns="http://www.w3.org/2000/svg" height="512pt" version="1.1" viewBox="0 0 512 512" width="512pt">
<g id="surface1">
<path d="M 512 256 C 512 397.386719 397.386719 512 256 512 C 114.613281 512 0 397.386719 0 256 C 0 114.613281 114.613281 0 256 0 C 397.386719 0 512 114.613281 512 256 Z M 512 256 " style=" stroke:none;fill-rule:nonzero;fill:rgb(0%,75.686275%,36.078431%);fill-opacity:1;" />
<path d="M 512 256 C 512 243.988281 511.152344 232.175781 509.550781 220.601562 L 398.640625 109.6875 L 133.917969 414.214844 L 230.4375 510.734375 C 238.847656 511.566406 247.371094 512 256 512 C 397.386719 512 512 397.386719 512 256 Z M 512 256 " style=" stroke:none;fill-rule:nonzero;fill:rgb(3.921569%,62.745098%,30.588235%);fill-opacity:1;" />
<path d="M 168.65625 375.949219 L 132.378906 339.671875 L 341.96875 117.234375 L 398.640625 109.6875 L 391.09375 166.359375 Z M 168.65625 375.949219 " style=" stroke:none;fill-rule:nonzero;fill:rgb(100%,100%,100%);fill-opacity:1;" />
<path d="M 150.855469 358.144531 L 168.65625 375.949219 L 391.09375 166.359375 L 398.535156 110.464844 Z M 150.855469 358.144531 " style=" stroke:none;fill-rule:nonzero;fill:rgb(94.901961%,96.470588%,98.823529%);fill-opacity:1;" />
<path d="M 158.566406 310.351562 L 198.171875 349.957031 L 133.921875 414.207031 L 94.316406 374.601562 Z M 158.566406 310.351562 " style=" stroke:none;fill-rule:nonzero;fill:rgb(38.823529%,41.176471%,47.058824%);fill-opacity:1;" />
<path d="M 114.351562 394.644531 L 178.601562 330.394531 L 198.167969 349.957031 L 133.914062 414.210938 Z M 114.351562 394.644531 " style=" stroke:none;fill-rule:nonzero;fill:rgb(33.333333%,35.294118%,40%);fill-opacity:1;" />
<path d="M 161.398438 280.960938 L 227.363281 346.929688 L 202.613281 371.679688 L 136.648438 305.710938 Z M 161.398438 280.960938 " style=" stroke:none;fill-rule:nonzero;fill:rgb(25.490196%,28.627451%,32.156863%);fill-opacity:1;" />
<path d="M 169.960938 339.035156 L 194.710938 314.285156 L 227.359375 346.933594 L 202.609375 371.679688 Z M 169.960938 339.035156 " style=" stroke:none;fill-rule:nonzero;fill:rgb(20%,22.352941%,25.098039%);fill-opacity:1;" />
</g>
</svg>