<svg xmlns="http://www.w3.org/2000/svg" height="512pt" version="1.1" viewBox="0 0 512 512" width="512pt">
<g id="surface1">
<path d="M 512 256 C 512 397.386719 397.386719 512 256 512 C 114.613281 512 0 397.386719 0 256 C 0 114.613281 114.613281 0 256 0 C 397.386719 0 512 114.613281 512 256 Z M 512 256 " style=" stroke:none;fill-rule:nonzero;fill:rgb(25.490196%,28.627451%,32.156863%);fill-opacity:1;" />
<path d="M 284.910156 510.367188 C 397.203125 497.742188 487.507812 412.488281 507.742188 302.675781 L 287.691406 82.628906 L 287.15625 91.15625 L 256 60 L 258.488281 116.808594 L 224.308594 82.628906 L 162.332031 256 L 281.558594 375.222656 L 217.675781 443.132812 Z M 284.910156 510.367188 " style=" stroke:none;fill-rule:nonzero;fill:rgb(20%,22.352941%,25.098039%);fill-opacity:1;" />
<path d="M 287.691406 82.628906 C 287.691406 82.628906 283.976562 88.074219 278.691406 96.609375 C 267.324219 76.25 256 60 256 60 C 256 60 244.675781 76.25 233.308594 96.609375 C 228.023438 88.078125 224.308594 82.628906 224.308594 82.628906 C 224.308594 82.628906 179.613281 148.160156 179.613281 180.90625 C 179.613281 213.65625 199.625 240.203125 224.308594 240.203125 C 236.695312 240.203125 247.90625 233.515625 256 222.710938 C 264.09375 233.511719 275.304688 240.203125 287.691406 240.203125 C 312.375 240.203125 332.382812 213.65625 332.382812 180.90625 C 332.382812 148.160156 287.691406 82.628906 287.691406 82.628906 Z M 287.691406 82.628906 " style=" stroke:none;fill-rule:nonzero;fill:rgb(97.647059%,15.686275%,7.843137%);fill-opacity:1;" />
<path d="M 287.691406 82.628906 C 287.691406 82.628906 283.976562 88.074219 278.691406 96.609375 C 268.21875 77.851562 257.574219 62.285156 256 60 L 256.210938 222.980469 C 264.289062 233.621094 275.410156 240.203125 287.691406 240.203125 C 312.375 240.203125 332.382812 213.65625 332.382812 180.90625 C 332.382812 148.160156 287.691406 82.628906 287.691406 82.628906 Z M 287.691406 82.628906 " style=" stroke:none;fill-rule:nonzero;fill:rgb(85.882353%,1.568627%,1.568627%);fill-opacity:1;" />
<path d="M 287.691406 134.230469 C 287.691406 134.230469 283.976562 139.679688 278.691406 148.210938 C 267.320312 127.851562 256.066406 111.617188 256.066406 111.617188 C 256.066406 111.617188 244.675781 127.855469 233.304688 148.210938 C 228.023438 139.679688 224.304688 134.230469 224.304688 134.230469 C 224.304688 134.230469 203.59375 164.605469 190.367188 194.332031 L 321.628906 194.332031 C 308.40625 164.609375 287.691406 134.230469 287.691406 134.230469 Z M 287.691406 134.230469 " style=" stroke:none;fill-rule:nonzero;fill:rgb(100%,80.784314%,0%);fill-opacity:1;" />
<path d="M 287.691406 134.230469 C 287.691406 134.230469 283.976562 139.679688 278.691406 148.210938 C 268.214844 129.453125 257.644531 113.902344 256.066406 111.617188 L 256.210938 194.332031 L 321.628906 194.332031 C 308.40625 164.609375 287.691406 134.230469 287.691406 134.230469 Z M 287.691406 134.230469 " style=" stroke:none;fill-rule:nonzero;fill:rgb(100%,66.666667%,0%);fill-opacity:1;" />
<path d="M 294.324219 443.132812 L 217.675781 443.132812 L 195.628906 240.203125 L 316.371094 240.203125 Z M 294.324219 443.132812 " style=" stroke:none;fill-rule:nonzero;fill:rgb(86.27451%,88.235294%,92.156863%);fill-opacity:1;" />
<path d="M 316.371094 240.203125 L 256.210938 240.203125 L 256.210938 443.132812 L 294.324219 443.132812 Z M 316.371094 240.203125 " style=" stroke:none;fill-rule:nonzero;fill:rgb(80.392157%,82.352941%,88.235294%);fill-opacity:1;" />
<path d="M 162.332031 187.707031 L 349.664062 187.707031 L 349.664062 256 L 162.332031 256 Z M 162.332031 187.707031 " style=" stroke:none;fill-rule:nonzero;fill:rgb(74.509804%,76.470588%,82.352941%);fill-opacity:1;" />
<path d="M 256.210938 187.707031 L 349.667969 187.707031 L 349.667969 256 L 256.210938 256 Z M 256.210938 187.707031 " style=" stroke:none;fill-rule:nonzero;fill:rgb(68.627451%,70.588235%,78.431373%);fill-opacity:1;" />
</g>
</svg>