<svg xmlns="http://www.w3.org/2000/svg" height="512pt" version="1.1" viewBox="0 0 512 512" width="512pt">
<g id="surface1">
<path d="M 512 256 C 512 397.386719 397.386719 512 256 512 C 114.613281 512 0 397.386719 0 256 C 0 114.613281 114.613281 0 256 0 C 397.386719 0 512 114.613281 512 256 Z M 512 256 " style=" stroke:none;fill-rule:nonzero;fill:rgb(0%,75.686275%,36.078431%);fill-opacity:1;" />
<path d="M 512 256 C 512 238.617188 510.257812 221.640625 506.957031 205.230469 L 409 107.273438 L 342.632812 143.398438 L 276.234375 77 L 273.53125 134.652344 L 103 142.078125 L 229.121094 268.199219 L 132.367188 423.0625 L 218.574219 509.269531 C 230.792969 511.058594 243.285156 512 256 512 C 397.386719 512 512 397.386719 512 256 Z M 512 256 " style=" stroke:none;fill-rule:nonzero;fill:rgb(3.921569%,62.745098%,30.588235%);fill-opacity:1;" />
<path d="M 235.765625 511.207031 C 242.441406 511.726562 249.1875 512 256 512 C 262.8125 512 269.558594 511.726562 276.234375 511.207031 L 276.234375 77 L 235.765625 77 Z M 235.765625 511.207031 " style=" stroke:none;fill-rule:nonzero;fill:rgb(67.058824%,35.294118%,11.372549%);fill-opacity:1;" />
<path d="M 235.765625 511.207031 C 242.441406 511.726562 249.1875 512 256 512 C 262.8125 512 269.558594 511.726562 276.234375 511.207031 L 276.234375 77 L 235.765625 77 Z M 235.765625 511.207031 " style=" stroke:none;fill-rule:nonzero;fill:rgb(67.058824%,35.294118%,11.372549%);fill-opacity:1;" />
<path d="M 255.605469 77 L 255.605469 511.996094 C 255.738281 511.996094 255.867188 512 256 512 C 262.8125 512 269.558594 511.726562 276.234375 511.207031 L 276.234375 77 Z M 255.605469 77 " style=" stroke:none;fill-rule:nonzero;fill:rgb(54.117647%,27.843137%,6.666667%);fill-opacity:1;" />
<path d="M 379.632812 423.0625 L 254.910156 368.675781 L 132.367188 423.0625 L 132.367188 116.335938 L 379.632812 116.335938 Z M 379.632812 423.0625 " style=" stroke:none;fill-rule:nonzero;fill:rgb(100%,100%,100%);fill-opacity:1;" />
<path d="M 379.632812 116.335938 L 255.605469 116.335938 L 255.605469 368.980469 L 379.632812 423.0625 Z M 379.632812 116.335938 " style=" stroke:none;fill-rule:nonzero;fill:rgb(94.901961%,96.470588%,98.823529%);fill-opacity:1;" />
<path d="M 352.960938 377.722656 L 255.148438 335.070312 L 159.039062 377.722656 L 159.039062 137.167969 L 352.960938 137.167969 Z M 352.960938 377.722656 " style=" stroke:none;fill-rule:nonzero;fill:rgb(97.647059%,15.686275%,7.843137%);fill-opacity:1;" />
<path d="M 352.960938 137.167969 L 255.605469 137.167969 L 255.605469 335.269531 L 352.960938 377.722656 Z M 352.960938 137.167969 " style=" stroke:none;fill-rule:nonzero;fill:rgb(85.882353%,1.568627%,1.568627%);fill-opacity:1;" />
<path d="M 103 107.273438 L 409 107.273438 L 409 142.078125 L 103 142.078125 Z M 103 107.273438 " style=" stroke:none;fill-rule:nonzero;fill:rgb(54.117647%,27.843137%,6.666667%);fill-opacity:1;" />
<path d="M 255.605469 107.273438 L 409 107.273438 L 409 142.078125 L 255.605469 142.078125 Z M 255.605469 107.273438 " style=" stroke:none;fill-rule:nonzero;fill:rgb(47.058824%,24.705882%,8.627451%);fill-opacity:1;" />
</g>
</svg>