<svg xmlns="http://www.w3.org/2000/svg" height="512pt" version="1.1" viewBox="0 0 512 512" width="512pt">
<g id="surface1">
<path d="M 512 256 C 512 397.386719 397.386719 512 256 512 C 114.613281 512 0 397.386719 0 256 C 0 114.613281 114.613281 0 256 0 C 397.386719 0 512 114.613281 512 256 Z M 512 256 " style=" stroke:none;fill-rule:nonzero;fill:rgb(67.058824%,35.294118%,11.372549%);fill-opacity:1;" />
<path d="M 512 256 C 512 232.378906 508.785156 209.511719 502.796875 187.796875 L 420 105 L 122.507812 412 L 219.96875 509.464844 C 231.742188 511.121094 243.769531 512 256 512 C 397.386719 512 512 397.386719 512 256 Z M 512 256 " style=" stroke:none;fill-rule:nonzero;fill:rgb(54.117647%,27.843137%,6.666667%);fill-opacity:1;" />
<path d="M 170 83.710938 C 144.199219 77.601562 117.027344 84.03125 96.703125 101.058594 L 92 105 L 131.707031 195.238281 L 177.5 207.5 L 190 140.75 Z M 170 83.710938 " style=" stroke:none;fill-rule:nonzero;fill:rgb(68.627451%,70.588235%,78.431373%);fill-opacity:1;" />
<path d="M 342 83.710938 C 367.800781 77.601562 394.972656 84.03125 415.296875 101.058594 L 420 105 L 380.292969 195.238281 L 334.5 207.5 L 322 140.75 Z M 342 83.710938 " style=" stroke:none;fill-rule:nonzero;fill:rgb(56.862745%,58.823529%,66.666667%);fill-opacity:1;" />
<path d="M 389.492188 412 L 369.492188 339.199219 L 380.386719 194.59375 C 358.453125 189.917969 342 170.4375 342 147.113281 L 342 83.710938 L 295.332031 63.710938 L 216.664062 63.710938 L 170 83.710938 L 170 147.777344 C 170 171.074219 153.59375 190.527344 131.707031 195.238281 L 142.507812 339.199219 L 122.507812 412 Z M 389.492188 412 " style=" stroke:none;fill-rule:nonzero;fill:rgb(86.27451%,88.235294%,92.156863%);fill-opacity:1;" />
<path d="M 369.492188 339.199219 L 380.386719 194.59375 C 358.453125 189.917969 342 170.4375 342 147.113281 L 342 83.710938 L 295.332031 63.710938 L 256.210938 63.710938 L 256.210938 412 L 389.492188 412 Z M 369.492188 339.199219 " style=" stroke:none;fill-rule:nonzero;fill:rgb(80.392157%,82.352941%,88.235294%);fill-opacity:1;" />
<path d="M 198.332031 342.910156 L 313.667969 342.910156 L 313.667969 71.566406 L 295.332031 63.710938 L 216.667969 63.710938 L 198.332031 71.566406 Z M 198.332031 342.910156 " style=" stroke:none;fill-rule:nonzero;fill:rgb(91.372549%,92.941176%,96.078431%);fill-opacity:1;" />
<path d="M 313.667969 71.566406 L 295.332031 63.710938 L 256.210938 63.710938 L 256.210938 342.910156 L 313.667969 342.910156 Z M 313.667969 71.566406 " style=" stroke:none;fill-rule:nonzero;fill:rgb(86.27451%,88.235294%,92.156863%);fill-opacity:1;" />
<path d="M 142.507812 339.199219 L 122.507812 412 L 389.492188 412 L 369.492188 339.199219 Z M 142.507812 339.199219 " style=" stroke:none;fill-rule:nonzero;fill:rgb(74.509804%,76.470588%,82.352941%);fill-opacity:1;" />
<path d="M 369.492188 339.199219 L 256.210938 339.199219 L 256.210938 412 L 389.492188 412 Z M 369.492188 339.199219 " style=" stroke:none;fill-rule:nonzero;fill:rgb(68.627451%,70.588235%,78.431373%);fill-opacity:1;" />
<path d="M 256 172.332031 C 234.277344 172.332031 216.667969 154.722656 216.667969 133 L 216.667969 63.710938 L 295.335938 63.710938 L 295.335938 133 C 295.332031 154.722656 277.722656 172.332031 256 172.332031 Z M 256 172.332031 " style=" stroke:none;fill-rule:nonzero;fill:rgb(68.627451%,70.588235%,78.431373%);fill-opacity:1;" />
<path d="M 256.210938 63.710938 L 256.210938 172.328125 C 277.835938 172.214844 295.332031 154.652344 295.332031 133 L 295.332031 63.710938 Z M 256.210938 63.710938 " style=" stroke:none;fill-rule:nonzero;fill:rgb(56.862745%,58.823529%,66.666667%);fill-opacity:1;" />
</g>
</svg>