<svg xmlns="http://www.w3.org/2000/svg" height="512pt" version="1.1" viewBox="0 0 512 512" width="512pt">
<g id="surface1">
<path d="M 512 256 C 512 397.386719 397.386719 512 256 512 C 114.613281 512 0 397.386719 0 256 C 0 114.613281 114.613281 0 256 0 C 397.386719 0 512 114.613281 512 256 Z M 512 256 " style=" stroke:none;fill-rule:nonzero;fill:rgb(25.490196%,28.627451%,32.156863%);fill-opacity:1;" />
<path d="M 512 256 C 512 254.195312 511.96875 252.394531 511.933594 250.597656 L 347 85.667969 L 334.8125 136.648438 L 283.835938 85.667969 L 270.835938 169.335938 L 187.167969 85.667969 L 165 171.667969 L 192.800781 199.46875 L 155.332031 427 L 239.808594 511.476562 C 245.164062 511.808594 250.558594 512 256 512 C 397.386719 512 512 397.386719 512 256 Z M 512 256 " style=" stroke:none;fill-rule:nonzero;fill:rgb(20%,22.352941%,25.098039%);fill-opacity:1;" />
<path d="M 356.667969 427 L 155.332031 427 L 185.332031 140.332031 L 326.667969 140.332031 Z M 356.667969 427 " style=" stroke:none;fill-rule:nonzero;fill:rgb(74.509804%,76.470588%,82.352941%);fill-opacity:1;" />
<path d="M 326.667969 140.332031 L 255.605469 140.332031 L 255.605469 427 L 356.667969 427 Z M 326.667969 140.332031 " style=" stroke:none;fill-rule:nonzero;fill:rgb(68.627451%,70.588235%,78.431373%);fill-opacity:1;" />
<path d="M 324.832031 85.667969 L 324.832031 112.667969 L 283.832031 112.667969 L 283.832031 85.667969 L 228.167969 85.667969 L 228.167969 112.667969 L 187.167969 112.667969 L 187.167969 85.667969 L 165 85.667969 L 165 171.667969 L 347 171.667969 L 347 85.667969 Z M 324.832031 85.667969 " style=" stroke:none;fill-rule:nonzero;fill:rgb(86.27451%,88.235294%,92.156863%);fill-opacity:1;" />
<path d="M 347 85.667969 L 324.832031 85.667969 L 324.832031 112.667969 L 283.832031 112.667969 L 283.832031 85.667969 L 255.605469 85.667969 L 255.605469 171.667969 L 347 171.667969 Z M 347 85.667969 " style=" stroke:none;fill-rule:nonzero;fill:rgb(80.392157%,82.352941%,88.235294%);fill-opacity:1;" />
<path d="M 177.519531 215 L 215 215 L 215 189.667969 L 180.171875 189.667969 Z M 177.519531 215 " style=" stroke:none;fill-rule:nonzero;fill:rgb(68.627451%,70.588235%,78.431373%);fill-opacity:1;" />
<path d="M 200.332031 271 L 245.664062 271 L 245.664062 296.332031 L 200.332031 296.332031 Z M 200.332031 271 " style=" stroke:none;fill-rule:nonzero;fill:rgb(68.627451%,70.588235%,78.431373%);fill-opacity:1;" />
<path d="M 294.332031 325.667969 L 339.664062 325.667969 L 339.664062 351 L 294.332031 351 Z M 294.332031 325.667969 " style=" stroke:none;fill-rule:nonzero;fill:rgb(56.862745%,58.823529%,66.666667%);fill-opacity:1;" />
<path d="M 262 390.332031 L 307.332031 390.332031 L 307.332031 415.664062 L 262 415.664062 Z M 262 390.332031 " style=" stroke:none;fill-rule:nonzero;fill:rgb(56.862745%,58.823529%,66.666667%);fill-opacity:1;" />
<path d="M 236.273438 309.269531 L 198.941406 309.269531 L 198.941406 268.664062 C 198.941406 258.355469 207.300781 250 217.609375 250 C 227.917969 250 236.273438 258.355469 236.273438 268.664062 Z M 236.273438 309.269531 " style=" stroke:none;fill-rule:nonzero;fill:rgb(43.921569%,46.666667%,53.72549%);fill-opacity:1;" />
<path d="M 317 250 L 279.667969 250 L 279.667969 209.394531 C 279.667969 199.085938 288.027344 190.730469 298.335938 190.730469 C 308.644531 190.730469 317 199.085938 317 209.394531 Z M 317 250 " style=" stroke:none;fill-rule:nonzero;fill:rgb(38.823529%,41.176471%,47.058824%);fill-opacity:1;" />
<path d="M 326 384.9375 L 288.667969 384.9375 L 288.667969 344.332031 C 288.667969 334.023438 297.023438 325.667969 307.332031 325.667969 C 317.640625 325.667969 325.996094 334.023438 325.996094 344.332031 L 325.996094 384.9375 Z M 326 384.9375 " style=" stroke:none;fill-rule:nonzero;fill:rgb(38.823529%,41.176471%,47.058824%);fill-opacity:1;" />
</g>
</svg>