<svg xmlns="http://www.w3.org/2000/svg" height="512pt" version="1.1" viewBox="0 0 512 512" width="512pt">
<g id="surface1">
<path d="M 512 256 C 512 397.386719 397.386719 512 256 512 C 114.613281 512 0 397.386719 0 256 C 0 114.613281 114.613281 0 256 0 C 397.386719 0 512 114.613281 512 256 Z M 512 256 " style=" stroke:none;fill-rule:nonzero;fill:rgb(0%,92.941176%,100%);fill-opacity:1;" />
<path d="M 509.832031 289.40625 L 295.722656 75.296875 L 275.886719 245.894531 L 126.332031 266 L 190.179688 329.847656 L 141.664062 406.332031 L 247.164062 511.832031 C 250.097656 511.929688 253.039062 512 256 512 C 386.0625 512 493.460938 415.003906 509.832031 289.40625 Z M 509.832031 289.40625 " style=" stroke:none;fill-rule:nonzero;fill:rgb(2.745098%,74.509804%,90.980392%);fill-opacity:1;" />
<path d="M 331.046875 169.207031 C 331.046875 123.304688 308.933594 80.214844 271.648438 53.445312 L 257.09375 43 L 242.542969 53.445312 C 205.253906 80.214844 183.144531 123.304688 183.144531 169.207031 L 183.144531 314.332031 L 331.046875 314.332031 Z M 331.046875 169.207031 " style=" stroke:none;fill-rule:nonzero;fill:rgb(67.058824%,35.294118%,11.372549%);fill-opacity:1;" />
<path d="M 257.09375 314.332031 L 331.046875 314.332031 L 331.046875 169.207031 C 331.046875 123.304688 308.933594 80.214844 271.648438 53.445312 L 257.09375 43 Z M 257.09375 314.332031 " style=" stroke:none;fill-rule:nonzero;fill:rgb(54.117647%,27.843137%,6.666667%);fill-opacity:1;" />
<path d="M 309.792969 165.234375 C 309.792969 132.523438 294.035156 101.816406 267.464844 82.742188 L 257.09375 75.296875 L 246.726562 82.742188 C 220.152344 101.816406 204.398438 132.523438 204.398438 165.234375 L 204.398438 314.332031 L 309.792969 314.332031 Z M 309.792969 165.234375 " style=" stroke:none;fill-rule:nonzero;fill:rgb(97.647059%,15.686275%,7.843137%);fill-opacity:1;" />
<path d="M 257.09375 314.332031 L 309.792969 314.332031 L 309.792969 165.234375 C 309.792969 132.523438 294.035156 101.816406 267.464844 82.742188 L 257.09375 75.296875 Z M 257.09375 314.332031 " style=" stroke:none;fill-rule:nonzero;fill:rgb(85.882353%,1.568627%,1.568627%);fill-opacity:1;" />
<path d="M 162.332031 289 L 347.664062 289 L 347.664062 343 L 162.332031 343 Z M 162.332031 289 " style=" stroke:none;fill-rule:nonzero;fill:rgb(85.882353%,1.568627%,1.568627%);fill-opacity:1;" />
<path d="M 257.09375 289 L 347.667969 289 L 347.667969 343 L 257.09375 343 Z M 257.09375 289 " style=" stroke:none;fill-rule:nonzero;fill:rgb(75.686275%,0%,0%);fill-opacity:1;" />
<path d="M 126.332031 222.332031 L 126.332031 266 L 141.667969 266 L 141.667969 406.332031 L 183.144531 406.332031 L 183.144531 222.332031 Z M 126.332031 222.332031 " style=" stroke:none;fill-rule:nonzero;fill:rgb(54.117647%,27.843137%,6.666667%);fill-opacity:1;" />
<path d="M 387.855469 222.332031 L 331.046875 222.332031 L 331.046875 406.332031 L 372.523438 406.332031 L 372.523438 266 L 387.855469 266 Z M 387.855469 222.332031 " style=" stroke:none;fill-rule:nonzero;fill:rgb(47.058824%,24.705882%,8.627451%);fill-opacity:1;" />
</g>
</svg>