<svg xmlns="http://www.w3.org/2000/svg" height="512pt" version="1.1" viewBox="0 0 512 512" width="512pt">
<g id="surface1">
<path d="M 512 256 C 512 397.386719 397.386719 512 256 512 C 114.613281 512 0 397.386719 0 256 C 0 114.613281 114.613281 0 256 0 C 397.386719 0 512 114.613281 512 256 Z M 512 256 " style=" stroke:none;fill-rule:nonzero;fill:rgb(0%,92.941176%,100%);fill-opacity:1;" />
<path d="M 510.722656 281.660156 L 291.832031 62.769531 L 121.566406 293.386719 L 208.585938 380.402344 L 125.910156 406.335938 L 230.296875 510.71875 C 238.75 511.5625 247.324219 512 256 512 C 388.722656 512 497.851562 410.996094 510.722656 281.660156 Z M 510.722656 281.660156 " style=" stroke:none;fill-rule:nonzero;fill:rgb(2.745098%,74.509804%,90.980392%);fill-opacity:1;" />
<path d="M 346.742188 362.382812 L 386.089844 406.332031 L 256 487.9375 L 125.910156 406.332031 L 156.574219 362.382812 Z M 346.742188 362.382812 " style=" stroke:none;fill-rule:nonzero;fill:rgb(56.862745%,58.823529%,66.666667%);fill-opacity:1;" />
<path d="M 256 487.9375 L 386.089844 406.332031 L 346.742188 362.382812 L 256 362.382812 Z M 256 487.9375 " style=" stroke:none;fill-rule:nonzero;fill:rgb(43.921569%,46.666667%,53.72549%);fill-opacity:1;" />
<path d="M 256 415.597656 C 190.558594 415.597656 137.507812 362.546875 137.507812 297.105469 L 137.507812 210.972656 C 137.507812 154.992188 182.886719 109.613281 238.863281 109.613281 L 273.136719 109.613281 C 329.113281 109.613281 374.496094 154.992188 374.496094 210.972656 L 374.496094 297.105469 C 374.492188 362.546875 321.441406 415.597656 256 415.597656 Z M 256 415.597656 " style=" stroke:none;fill-rule:nonzero;fill:rgb(43.921569%,46.666667%,53.72549%);fill-opacity:1;" />
<path d="M 256 415.597656 C 321.441406 415.597656 374.492188 362.546875 374.492188 297.105469 L 374.492188 210.972656 C 374.492188 154.992188 329.113281 109.613281 273.136719 109.613281 L 255.605469 109.675781 Z M 256 415.597656 " style=" stroke:none;fill-rule:nonzero;fill:rgb(38.823529%,41.176471%,47.058824%);fill-opacity:1;" />
<path d="M 281.832031 154.613281 L 230.167969 154.613281 L 220.167969 62.769531 L 291.832031 62.769531 Z M 281.832031 154.613281 " style=" stroke:none;fill-rule:nonzero;fill:rgb(97.647059%,15.686275%,7.843137%);fill-opacity:1;" />
<path d="M 291.832031 62.769531 L 255.605469 62.769531 L 255.664062 154.609375 L 281.832031 154.609375 Z M 291.832031 62.769531 " style=" stroke:none;fill-rule:nonzero;fill:rgb(85.882353%,1.568627%,1.568627%);fill-opacity:1;" />
<path d="M 390.433594 293.386719 L 256 362.382812 L 121.566406 293.386719 L 121.566406 215.617188 L 390.433594 215.617188 Z M 390.433594 293.386719 " style=" stroke:none;fill-rule:nonzero;fill:rgb(56.862745%,58.823529%,66.666667%);fill-opacity:1;" />
<path d="M 256 362.382812 L 390.433594 293.386719 L 390.433594 215.617188 L 255.742188 215.617188 Z M 256 362.382812 " style=" stroke:none;fill-rule:nonzero;fill:rgb(43.921569%,46.666667%,53.72549%);fill-opacity:1;" />
<path d="M 273.917969 338.6875 L 294.582031 328.082031 L 294.582031 227.167969 L 273.917969 227.167969 Z M 273.917969 338.6875 " style=" stroke:none;fill-rule:nonzero;fill:rgb(33.333333%,35.294118%,40%);fill-opacity:1;" />
<path d="M 330.417969 309.691406 L 351.082031 299.082031 L 351.082031 227.167969 L 330.417969 227.167969 Z M 330.417969 309.691406 " style=" stroke:none;fill-rule:nonzero;fill:rgb(33.333333%,35.294118%,40%);fill-opacity:1;" />
<path d="M 217.417969 328.082031 L 238.082031 338.6875 L 238.082031 227.167969 L 217.417969 227.167969 Z M 217.417969 328.082031 " style=" stroke:none;fill-rule:nonzero;fill:rgb(38.823529%,41.176471%,47.058824%);fill-opacity:1;" />
<path d="M 160.917969 299.082031 L 181.582031 309.691406 L 181.582031 227.167969 L 160.917969 227.167969 Z M 160.917969 299.082031 " style=" stroke:none;fill-rule:nonzero;fill:rgb(38.823529%,41.176471%,47.058824%);fill-opacity:1;" />
</g>
</svg>