<svg xmlns="http://www.w3.org/2000/svg" height="512pt" version="1.1" viewBox="0 0 512 512" width="512pt">
<g id="surface1">
<path d="M 512 256 C 512 397.386719 397.386719 512 256 512 C 114.613281 512 0 397.386719 0 256 C 0 114.613281 114.613281 0 256 0 C 397.386719 0 512 114.613281 512 256 Z M 512 256 " style=" stroke:none;fill-rule:nonzero;fill:rgb(0%,92.941176%,100%);fill-opacity:1;" />
<path d="M 512 256 C 512 248.355469 511.644531 240.792969 510.988281 233.320312 L 424.039062 146.367188 L 413.226562 187.078125 L 333.148438 107 L 256 156.425781 L 257.019531 218.683594 L 239.332031 201 L 239.332031 217.664062 L 168.035156 146.367188 L 159.71875 201.335938 L 104.75 146.367188 L 84.796875 384.855469 L 207.292969 507.351562 C 223.0625 510.390625 239.34375 512 256 512 C 397.386719 512 512 397.386719 512 256 Z M 512 256 " style=" stroke:none;fill-rule:nonzero;fill:rgb(2.745098%,74.509804%,90.980392%);fill-opacity:1;" />
<path d="M 257.019531 107 L 333.148438 107 L 333.148438 160.332031 L 257.019531 160.332031 Z M 257.019531 107 " style=" stroke:none;fill-rule:nonzero;fill:rgb(97.647059%,15.686275%,7.843137%);fill-opacity:1;" />
<path d="M 257.019531 132.789062 L 333.148438 132.789062 L 333.148438 160.332031 L 257.019531 160.332031 Z M 257.019531 132.789062 " style=" stroke:none;fill-rule:nonzero;fill:rgb(85.882353%,1.568627%,1.568627%);fill-opacity:1;" />
<path d="M 249.519531 107 L 264.519531 107 L 264.519531 231 L 249.519531 231 Z M 249.519531 107 " style=" stroke:none;fill-rule:nonzero;fill:rgb(67.058824%,35.294118%,11.372549%);fill-opacity:1;" />
<path d="M 255.605469 107 L 264.519531 107 L 264.519531 231 L 255.605469 231 Z M 255.605469 107 " style=" stroke:none;fill-rule:nonzero;fill:rgb(54.117647%,27.843137%,6.666667%);fill-opacity:1;" />
<path d="M 325.53125 201 L 325.53125 221.667969 L 292.199219 221.667969 L 292.199219 201 L 272.667969 201 L 272.667969 221.667969 L 239.332031 221.667969 L 239.332031 201 L 219.800781 201 L 219.800781 221.667969 L 186.46875 221.667969 L 186.46875 201 L 155.667969 201 L 155.667969 384.855469 L 356.332031 384.855469 L 356.332031 201 Z M 325.53125 201 " style=" stroke:none;fill-rule:nonzero;fill:rgb(43.921569%,46.666667%,53.72549%);fill-opacity:1;" />
<path d="M 356.332031 201 L 325.53125 201 L 325.53125 221.667969 L 292.199219 221.667969 L 292.199219 201 L 272.667969 201 L 272.667969 221.667969 L 255.605469 221.667969 L 255.605469 384.855469 L 356.332031 384.855469 Z M 356.332031 201 " style=" stroke:none;fill-rule:nonzero;fill:rgb(38.823529%,41.176471%,47.058824%);fill-opacity:1;" />
<path d="M 148.085938 146.367188 L 148.085938 166.332031 L 104.75 166.332031 L 104.75 146.367188 L 84.796875 146.367188 L 84.796875 384.855469 L 168.035156 384.855469 L 168.035156 146.367188 Z M 148.085938 146.367188 " style=" stroke:none;fill-rule:nonzero;fill:rgb(33.333333%,35.294118%,40%);fill-opacity:1;" />
<path d="M 404.085938 146.367188 L 404.085938 166.332031 L 360.75 166.332031 L 360.75 146.367188 L 340.796875 146.367188 L 340.796875 384.855469 L 424.035156 384.855469 L 424.035156 146.367188 Z M 404.085938 146.367188 " style=" stroke:none;fill-rule:nonzero;fill:rgb(25.490196%,28.627451%,32.156863%);fill-opacity:1;" />
<path d="M 220.667969 305.667969 L 189.335938 305.667969 L 189.335938 265.667969 C 189.335938 257.015625 196.347656 250 205 250 C 213.652344 250 220.667969 257.015625 220.667969 265.667969 Z M 220.667969 305.667969 " style=" stroke:none;fill-rule:nonzero;fill:rgb(33.333333%,35.294118%,40%);fill-opacity:1;" />
<path d="M 322.667969 305.667969 L 291.335938 305.667969 L 291.335938 265.667969 C 291.335938 257.015625 298.347656 250 307 250 C 315.652344 250 322.667969 257.015625 322.667969 265.667969 Z M 322.667969 305.667969 " style=" stroke:none;fill-rule:nonzero;fill:rgb(25.490196%,28.627451%,32.156863%);fill-opacity:1;" />
<path d="M 281.53125 384.855469 L 230.46875 384.855469 L 230.46875 337.050781 C 230.46875 322.953125 241.898438 311.523438 256 311.523438 C 270.101562 311.523438 281.53125 322.953125 281.53125 337.050781 Z M 281.53125 384.855469 " style=" stroke:none;fill-rule:nonzero;fill:rgb(33.333333%,35.294118%,40%);fill-opacity:1;" />
<path d="M 281.53125 337.050781 C 281.53125 322.953125 270.101562 311.523438 256 311.523438 C 255.867188 311.523438 255.738281 311.53125 255.605469 311.53125 L 255.605469 384.855469 L 281.53125 384.855469 Z M 281.53125 337.050781 " style=" stroke:none;fill-rule:nonzero;fill:rgb(25.490196%,28.627451%,32.156863%);fill-opacity:1;" />
</g>
</svg>