<svg xmlns="http://www.w3.org/2000/svg" height="512pt" version="1.1" viewBox="0 0 512 512" width="512pt">
<g id="surface1">
<path d="M 512 256 C 512 397.386719 397.386719 512 256 512 C 114.613281 512 0 397.386719 0 256 C 0 114.613281 114.613281 0 256 0 C 397.386719 0 512 114.613281 512 256 Z M 512 256 " style=" stroke:none;fill-rule:nonzero;fill:rgb(25.490196%,28.627451%,32.156863%);fill-opacity:1;" />
<path d="M 194.46875 399.417969 L 302.769531 507.722656 C 421.820312 485.742188 512 381.410156 512 256 C 512 242.589844 510.964844 229.421875 508.976562 216.566406 L 390.53125 98.125 Z M 194.46875 399.417969 " style=" stroke:none;fill-rule:nonzero;fill:rgb(20%,22.352941%,25.098039%);fill-opacity:1;" />
<path d="M 289.636719 425.074219 L 256 451.875 L 222.363281 425.074219 C 158.605469 374.269531 121.46875 297.191406 121.46875 215.667969 L 121.46875 98.125 L 390.53125 98.125 L 390.53125 215.671875 C 390.53125 297.191406 353.394531 374.273438 289.636719 425.074219 Z M 289.636719 425.074219 " style=" stroke:none;fill-rule:nonzero;fill:rgb(100%,100%,100%);fill-opacity:1;" />
<path d="M 256.210938 98.125 L 256.210938 451.707031 L 289.636719 425.074219 C 353.394531 374.273438 390.53125 297.191406 390.53125 215.671875 L 390.53125 98.125 Z M 256.210938 98.125 " style=" stroke:none;fill-rule:nonzero;fill:rgb(94.901961%,96.470588%,98.823529%);fill-opacity:1;" />
<path d="M 274.5 98.125 L 237.5 98.125 L 237.5 194 L 121.46875 194 L 121.46875 215.667969 C 121.46875 220.800781 121.617188 225.910156 121.90625 231 L 237.5 231 L 237.5 437.136719 L 256 451.875 L 274.5 437.136719 L 274.5 231 L 390.09375 231 C 390.386719 225.910156 390.53125 220.800781 390.53125 215.667969 L 390.53125 194 L 274.5 194 Z M 274.5 98.125 " style=" stroke:none;fill-rule:nonzero;fill:rgb(97.647059%,15.686275%,7.843137%);fill-opacity:1;" />
<path d="M 274.5 194 L 274.5 98.125 L 256.210938 98.125 L 256.210938 451.707031 L 274.5 437.136719 L 274.5 231 L 390.09375 231 C 390.386719 225.910156 390.53125 220.800781 390.53125 215.667969 L 390.53125 194 Z M 274.5 194 " style=" stroke:none;fill-rule:nonzero;fill:rgb(85.882353%,1.568627%,1.568627%);fill-opacity:1;" />
</g>
</svg>