<?xml version="1.0" encoding="iso-8859-1"?>
<!-- Generator: Adobe Illustrator 19.0.0, SVG Export Plug-In . SVG Version: 6.00 Build 0)  -->
<svg version="1.1" id="Capa_1" xmlns="http://www.w3.org/2000/svg" xmlns:xlink="http://www.w3.org/1999/xlink" x="0px" y="0px"
	 viewBox="0 0 512 512" style="enable-background:new 0 0 512 512;" xml:space="preserve">
<circle style="fill:#17ACE8;" cx="256" cy="256" r="256"/>
<path style="fill:#136EF1;" d="M509.916,288.801L384.05,162.935l-64.124-17.95l-18.01-18.01l-175.43,122.469l37.231,37.243
	l16.211,28.26l50.017,50.017l23.555,19.044L127.992,401l110.385,110.385C244.202,511.781,250.075,512,256,512
	C386.271,512,493.814,414.694,509.916,288.801z"/>
<path style="fill:#664B34;" d="M246.938,331.898H221.45c-32.79,0-59.473-26.683-59.473-59.473v-25.488h50.977v25.488
	c0,4.688,3.808,8.496,8.496,8.496h25.488V331.898z"/>
<path style="fill:#59422D;" d="M290.551,314.906v-16.992c14.055,0,25.488-11.433,25.488-25.488v-16.992h16.992v16.992
	C333.031,295.848,313.973,314.906,290.551,314.906z"/>
<path style="fill:#896748;" d="M229.945,246.938V401h69.102V246.938H229.945z"/>
<rect x="264.5" y="246.94" style="fill:#73553A;" width="34.551" height="154.06"/>
<path style="fill:#32D736;" d="M341.527,144.984H313.15C306.013,124.934,286.247,111,264.496,111h-68.535
	c-14.443,0-28.207,6.117-37.892,16.822c-9.006,10.026-13.764,23.449-13.084,37.043C124.934,172.002,111,191.034,111,212.953
	c0,28.038,22.939,50.977,50.977,50.977h179.551c32.795,0,59.473-26.678,59.473-59.473S374.322,144.984,341.527,144.984z"/>
<path style="fill:#10BB67;" d="M341.527,263.93h-77.031V111c21.75,0,41.517,13.934,48.655,33.984h28.377
	c32.795,0,59.473,26.678,59.473,59.473S374.322,263.93,341.527,263.93z"/>
<rect x="127.99" y="384.01" style="fill:#6ECD24;" width="256.02" height="16.992"/>
<rect x="264.5" y="384.01" style="fill:#66BD21;" width="119.51" height="16.992"/>
<g>
</g>
<g>
</g>
<g>
</g>
<g>
</g>
<g>
</g>
<g>
</g>
<g>
</g>
<g>
</g>
<g>
</g>
<g>
</g>
<g>
</g>
<g>
</g>
<g>
</g>
<g>
</g>
<g>
</g>
</svg>
