<?xml version="1.0" encoding="iso-8859-1"?>
<!-- Generator: Adobe Illustrator 19.0.0, SVG Export Plug-In . SVG Version: 6.00 Build 0)  -->
<svg version="1.1" id="Capa_1" xmlns="http://www.w3.org/2000/svg" xmlns:xlink="http://www.w3.org/1999/xlink" x="0px" y="0px"
	 viewBox="0 0 512 512" style="enable-background:new 0 0 512 512;" xml:space="preserve">
<circle style="fill:#FE91C2;" cx="256" cy="256" r="256"/>
<path style="fill:#FE52A2;" d="M512,256c0-5.793-0.211-11.535-0.59-17.232c-55.137-55.138-118.399-118.401-118.59-118.587
	c-9.713-9.971-86.541,14.329-86.541,14.329l-97.556-1.383l-13.073-13.069l-75.53,75.671l9.627,9.64l3.781,161.297l144.391,144.391
	C409.04,499.936,512,390,512,256z"/>
<path style="fill:#3C3A41;" d="M146.026,209.91l-4.992-1.6C118.881,201.169,104,180.729,104,157.438
	C104,127.97,127.97,104,157.438,104c24.57,0,45.888,16.63,51.846,40.443l1.279,5.088L146.026,209.91z"/>
<path style="fill:#57555C;" d="M141.799,189.47c-12.124-5.888-19.987-18.213-19.987-32.033c0-19.648,15.977-35.625,35.625-35.625
	c14.673,0,27.606,8.898,32.998,22.153L141.799,189.47z"/>
<path style="fill:#2B292C;" d="M365.974,209.91l-64.536-60.378l1.279-5.088C308.674,120.63,329.992,104,354.563,104
	C384.03,104,408,127.97,408,157.438c0,23.292-14.881,43.731-37.034,50.872L365.974,209.91z"/>
<path style="fill:#3C3A41;" d="M321.564,143.965c5.401-13.264,18.326-22.153,32.998-22.153c19.648,0,35.625,15.977,35.625,35.625
	c0,13.82-7.854,26.136-19.987,32.033L321.564,143.965z"/>
<path style="fill:#E5E5E5;" d="M256,122.406c-74.991,0-152,85.321-152,169.219C104,376.946,182.791,408,256,408
	s152-31.054,152-116.375C408,207.728,330.991,122.406,256,122.406z"/>
<path style="fill:#C8C6CD;" d="M408,291.625C408,376.946,329.209,408,256,408V122.406C330.991,122.406,408,207.728,408,291.625z"/>
<path style="fill:#57555C;" d="M185.602,302.958c-2.679,0-5.34-0.191-7.958-0.591c-13.377-2.044-24.127-9.019-30.267-19.648
	c-12.272-21.265-1.505-50.55,24.014-65.284c12.046-6.958,25.632-9.75,38.278-7.802c13.377,2.044,24.127,9.019,30.267,19.648
	c12.272,21.265,1.505,50.55-24.014,65.284C206.372,300.079,195.848,302.958,185.602,302.958z"/>
<path style="fill:#3C3A41;" d="M326.398,302.958c-10.246,0-20.77-2.879-30.32-8.393c-25.518-14.734-36.286-44.018-24.014-65.284
	c6.14-10.628,16.891-17.604,30.267-19.648c12.611-1.948,26.223,0.844,38.278,7.802c25.518,14.734,36.286,44.018,24.014,65.284
	c-6.14,10.628-16.891,17.604-30.267,19.648C331.738,302.767,329.076,302.958,326.398,302.958z"/>
<path style="fill:#8B8892;" d="M300.531,353.969v17.813c-18.347,0-34.913-9.441-44.531-24.225
	c-9.618,14.784-26.184,24.225-44.531,24.225v-17.813c16.922,0,31.707-12.112,34.913-28.678L256,327.25l9.618-1.959
	C268.824,341.856,283.609,353.969,300.531,353.969z"/>
<path style="fill:#787780;" d="M300.531,353.969v17.813c-18.347,0-34.913-9.441-44.531-24.225V327.25l9.618-1.959
	C268.824,341.856,283.609,353.969,300.531,353.969z"/>
<rect x="193.66" y="247.09" style="fill:#3C3A41;" width="17.813" height="17.813"/>
<rect x="300.53" y="247.09" style="fill:#2B292C;" width="17.813" height="17.813"/>
<path style="fill:#3C3A41;" d="M256,282.719c-14.785,0-26.719,11.934-26.719,26.719c0,14.784,11.934,26.719,26.719,26.719
	c14.785,0,26.719-11.935,26.719-26.719C282.719,294.653,270.785,282.719,256,282.719z"/>
<path style="fill:#2B292C;" d="M282.719,309.438c0,14.784-11.934,26.719-26.719,26.719v-53.438
	C270.785,282.719,282.719,294.653,282.719,309.438z"/>
<g>
</g>
<g>
</g>
<g>
</g>
<g>
</g>
<g>
</g>
<g>
</g>
<g>
</g>
<g>
</g>
<g>
</g>
<g>
</g>
<g>
</g>
<g>
</g>
<g>
</g>
<g>
</g>
<g>
</g>
</svg>
