<?xml version="1.0" encoding="iso-8859-1"?>
<!-- Generator: Adobe Illustrator 19.0.0, SVG Export Plug-In . SVG Version: 6.00 Build 0)  -->
<svg version="1.1" id="Capa_1" xmlns="http://www.w3.org/2000/svg" xmlns:xlink="http://www.w3.org/1999/xlink" x="0px" y="0px"
	 viewBox="0 0 512 512" style="enable-background:new 0 0 512 512;" xml:space="preserve">
<circle style="fill:#17ACE8;" cx="256" cy="256" r="256"/>
<path style="fill:#136EF1;" d="M505.057,315.404L318.811,129.158L166.99,117.171l52.153,52.152l58.524,190.801L127,413.257
	l96.723,96.724C234.295,511.311,245.067,512,256,512C376.933,512,478.267,428.14,505.057,315.404z"/>
<path style="fill:#FEA832;" d="M231.543,413.257H127v-9.214c0-25.402,20.669-46.071,46.071-46.071h3.923l4.202,2.834
	L231.543,413.257z"/>
<path style="fill:#E5E5E5;" d="M385,394.829v18.429H206.058l-28.38-28.564c-20.824-20.641-32.25-48.898-32.25-78.383
	c0-34.461,16.402-67.265,44.045-87.905l8.845-6.634c7.003-5.159,12.347-12.162,16.033-19.903l28.933-24.018l21.93,36.181
	l82.929,134.897v19.043C348.143,378.242,364.729,394.829,385,394.829z"/>
<path style="fill:#C8C6CD;" d="M385,394.829v18.429H265.214V204.031l82.929,134.897v19.043
	C348.143,378.242,364.729,394.829,385,394.829z"/>
<path style="fill:#57555C;" d="M265.214,100.401c-5.897-1.106-12.162-1.658-18.429-1.658H166.99v18.429
	c28.749,0,52.153,23.404,52.153,52.152c0,1.107,0,2.028-0.184,3.134c-0.369,6.634-1.842,13.515-4.607,19.411
	c5.528-0.737,11.241-0.368,16.586,1.475C245.865,198.503,256,212.509,256,228.357v55.286c0,11.241,3.501,21.746,9.214,30.591
	c9.951,14.743,26.906,24.695,46.071,24.695h36.857V200.714C348.143,151.141,312.207,109.063,265.214,100.401z"/>
<g>
	<path style="fill:#3C3A41;" d="M348.143,200.714v138.214h-36.857c-19.165,0-36.12-9.952-46.071-24.695V100.401
		C312.207,109.063,348.143,151.141,348.143,200.714z"/>
	<rect x="256" y="135.6" style="fill:#3C3A41;" width="18.429" height="18.429"/>
</g>
<rect x="265.21" y="135.6" style="fill:#2B292C;" width="9.214" height="18.429"/>
<g>
</g>
<g>
</g>
<g>
</g>
<g>
</g>
<g>
</g>
<g>
</g>
<g>
</g>
<g>
</g>
<g>
</g>
<g>
</g>
<g>
</g>
<g>
</g>
<g>
</g>
<g>
</g>
<g>
</g>
</svg>
