<?xml version="1.0" encoding="iso-8859-1"?>
<!-- Generator: Adobe Illustrator 19.0.0, SVG Export Plug-In . SVG Version: 6.00 Build 0)  -->
<svg version="1.1" id="Capa_1" xmlns="http://www.w3.org/2000/svg" xmlns:xlink="http://www.w3.org/1999/xlink" x="0px" y="0px"
	 viewBox="0 0 512 512" style="enable-background:new 0 0 512 512;" xml:space="preserve">
<circle style="fill:#FE91C2;" cx="256" cy="256" r="256"/>
<path style="fill:#FE52A2;" d="M261.492,511.93c130.706-2.752,237.302-103.459,249.356-231.672l-111.91-111.91l-28.158-9.725
	l-68.284-68.271l-111.638,65.333l-30.777-30.766l-46.018,176.304l99.352,99.362l-22.557,40.71L261.492,511.93z"/>
<path style="fill:#0CA656;" d="M375.429,158.286c-17.961,0-32.571,14.61-32.571,32.571v97.714h-32.571v65.143h65.143
	c17.961,0,32.571-14.611,32.571-32.571V190.857C408,172.896,393.389,158.286,375.429,158.286z"/>
<path style="fill:#10BB67;" d="M169.143,245.143v-97.714c0-17.961-14.61-32.571-32.571-32.571S104,129.468,104,147.429v130.286
	c0,17.961,14.61,32.571,32.571,32.571h65.143v-65.143H169.143z"/>
<path style="fill:#32D736;" d="M256,70.705c-35.829,0-65.143,29.314-65.143,65.143v305.448h130.286V135.848
	C321.143,100.019,291.829,70.705,256,70.705z"/>
<path style="fill:#10BB67;" d="M321.143,135.848v305.448H256V70.705C291.829,70.705,321.143,100.019,321.143,135.848z"/>
<rect x="234.29" y="135.85" style="fill:#D9D9D9;" width="21.714" height="43.43"/>
<rect x="256" y="201.71" style="fill:#C8C6CD;" width="21.714" height="43.43"/>
<rect x="234.29" y="266.86" style="fill:#D9D9D9;" width="21.714" height="43.43"/>
<rect x="256" y="332" style="fill:#C8C6CD;" width="21.714" height="43.43"/>
<g>
</g>
<g>
</g>
<g>
</g>
<g>
</g>
<g>
</g>
<g>
</g>
<g>
</g>
<g>
</g>
<g>
</g>
<g>
</g>
<g>
</g>
<g>
</g>
<g>
</g>
<g>
</g>
<g>
</g>
</svg>
