<?xml version="1.0" encoding="iso-8859-1"?>
<!-- Generator: Adobe Illustrator 19.0.0, SVG Export Plug-In . SVG Version: 6.00 Build 0)  -->
<svg version="1.1" id="Capa_1" xmlns="http://www.w3.org/2000/svg" xmlns:xlink="http://www.w3.org/1999/xlink" x="0px" y="0px"
	 viewBox="0 0 512 512" style="enable-background:new 0 0 512 512;" xml:space="preserve">
<circle style="fill:#FEDB41;" cx="256" cy="256" r="256"/>
<path style="fill:#FEA832;" d="M509.736,290.088L335.46,115.813L100.319,290.072l26.653,26.663l20.902,74.44l120.522,120.522
	C392.598,505.774,493.6,411.345,509.736,290.088z"/>
<path style="fill:#664B34;" d="M143.172,185.313c-33.732,0-61.172,27.44-61.172,61.172s27.44,61.172,61.172,61.172
	c2.658,0,5.277-0.169,7.846-0.508l4.371-120.621C151.436,185.731,147.363,185.313,143.172,185.313z"/>
<path style="fill:#FCBF29;" d="M148.65,206.063c-24.916-3.265-46.26,16.132-46.26,40.421c0,25.016,22.644,44.845,48.51,40.067
	L148.65,206.063z"/>
<path style="fill:#896748;" d="M256,82c-61.784,0-112.148,51.724-112.148,113.508v30.586h20.391
	c0-22.43,18.352-40.781,40.781-40.781s40.781,18.351,40.781,40.781h20.391c0-22.43,18.352-40.781,40.781-40.781
	s40.781,18.351,40.781,40.781h20.391v-30.586C368.148,133.724,317.784,82,256,82z"/>
<path style="fill:#59422D;" d="M368.828,185.313c-4.192,0-8.264,0.418-12.216,1.215l4.371,120.621
	c2.569,0.339,5.187,0.508,7.846,0.508c33.732,0,61.172-27.44,61.172-61.172S402.56,185.313,368.828,185.313z"/>
<path style="fill:#FEA832;" d="M349.962,209.989l8.044,75.876c27.126,7.03,51.603-13.371,51.603-39.38
	C409.609,217.922,380.095,196.124,349.962,209.989z"/>
<path style="fill:#73553A;" d="M266.195,226.094H256V82c61.784,0,112.148,51.724,112.148,113.508v30.586h-20.391
	c0-22.43-18.352-40.781-40.781-40.781S266.195,203.663,266.195,226.094z"/>
<path style="fill:#FEDBAB;" d="M380.791,307.248c-2.855-5.913-7.544-11.623-12.642-17.332v-63.823
	c0-33.645-27.527-61.172-61.172-61.172c-21.206,0-39.966,10.806-50.977,27.323c-11.01-16.516-29.771-27.323-50.977-27.323
	c-33.645,0-61.172,27.527-61.172,61.172V289.1l-1.223,1.223c-4.689,5.302-8.564,11.012-11.419,16.72
	C99.552,367.341,165.59,430,256,430C349.14,430,410.949,366.057,380.791,307.248z"/>
<path style="fill:#FEC478;" d="M380.791,307.248c-2.855-5.913-7.544-11.623-12.642-17.332v-63.823
	c0-33.645-27.527-61.172-61.172-61.172c-21.206,0-39.966,10.806-50.977,27.323v128.665v47.919V430
	C349.14,430,410.949,366.057,380.791,307.248z"/>
<rect x="205.02" y="226.09" style="fill:#3C3A41;" width="20.391" height="20.391"/>
<rect x="286.59" y="226.09" style="fill:#2B292C;" width="20.391" height="20.391"/>
<rect x="266.19" y="266.87" style="fill:#73553A;" width="20.391" height="40.781"/>
<g>
	<rect x="225.41" y="266.87" style="fill:#896748;" width="20.391" height="40.781"/>
	<path style="fill:#896748;" d="M256.662,368.148c-46.047,0-89.014-10.561-117.883-28.975l10.965-17.191
		c25.681,16.381,64.652,25.776,106.918,25.776c41.397,0,79.877-9.087,105.573-24.933l10.702,17.357
		C344.114,357.955,301.733,368.148,256.662,368.148z"/>
</g>
<path style="fill:#73553A;" d="M362.236,322.825c-25.697,15.845-64.177,24.933-105.573,24.933c-0.221,0-0.441-0.004-0.662-0.005
	v20.391c0.221,0,0.441,0.005,0.662,0.005c45.07,0,87.451-10.194,116.276-27.967L362.236,322.825z"/>
<g>
</g>
<g>
</g>
<g>
</g>
<g>
</g>
<g>
</g>
<g>
</g>
<g>
</g>
<g>
</g>
<g>
</g>
<g>
</g>
<g>
</g>
<g>
</g>
<g>
</g>
<g>
</g>
<g>
</g>
</svg>
