<?xml version="1.0" encoding="iso-8859-1"?>
<!-- Generator: Adobe Illustrator 19.0.0, SVG Export Plug-In . SVG Version: 6.00 Build 0)  -->
<svg version="1.1" id="Capa_1" xmlns="http://www.w3.org/2000/svg" xmlns:xlink="http://www.w3.org/1999/xlink" x="0px" y="0px"
	 viewBox="0 0 512 512" style="enable-background:new 0 0 512 512;" xml:space="preserve">
<circle style="fill:#32D736;" cx="256" cy="256" r="256"/>
<path style="fill:#0CA656;" d="M512,256c0-7.341-0.327-14.605-0.932-21.789L393.352,116.495l-125.763,46.352l-46.537-46.521
	L130.5,128.5L94,179.43l18.984,18.984l14.429,34.032l38.129,38.136l-24.082,32.247l39.149,39.008l29.292,62.523l101.592,101.59
	C426.195,480.597,512,378.327,512,256z"/>
<path style="fill:#57555C;" d="M169.938,211.586V179.43c0-15.703-12.774-28.477-28.477-28.477s-28.477,12.774-28.477,28.477H94
	C94,132.321,128.066,94,169.938,94s75.938,38.321,75.938,85.43v6.841L169.938,211.586z"/>
<path style="fill:#3C3A41;" d="M342.063,211.586l-75.938-25.316v-6.841c0-47.109,34.066-85.43,75.938-85.43S418,132.321,418,179.43
	h-18.984c0-15.703-12.774-28.477-28.477-28.477s-28.477,12.774-28.477,28.477L342.063,211.586L342.063,211.586z"/>
<path style="fill:#AEADB3;" d="M351.555,245.875h-27.29l-7.62-56.953h82.371v9.492C399.016,224.582,377.723,245.875,351.555,245.875
	z"/>
<path style="fill:#C8C6CD;" d="M187.735,245.875h-27.29c-26.168,0-47.461-21.293-47.461-47.461v-9.492h82.371L187.735,245.875z"/>
<path style="fill:#E5E5E5;" d="M342.063,255.367v-37.969c0-26.199-21.262-47.461-47.461-47.461h-77.203
	c-26.199,0-47.461,21.262-47.461,47.461v37.969c0,15.756-12.719,28.477-28.477,28.477v18.984c14.997,0,33.793,24.489,43.285,48.22
	l14.238,37.146C206.197,406.23,224.296,418,243.66,418h24.681c19.363,0,37.463-11.77,44.676-29.806l24.681-63.155
	c5.315-13.479,18.224-22.211,32.843-22.211v-18.984C354.782,283.844,342.063,271.123,342.063,255.367z"/>
<path style="fill:#C8C6CD;" d="M370.539,283.844v18.984c-14.618,0-27.528,8.732-32.843,22.211l-24.681,63.155
	C305.803,406.23,287.704,418,268.34,418H256V169.938h38.602c26.199,0,47.461,21.262,47.461,47.461v37.969
	C342.063,271.123,354.782,283.844,370.539,283.844z"/>
<rect x="207.91" y="245.87" style="fill:#57555C;" width="18.984" height="18.984"/>
<rect x="285.11" y="248.65" style="fill:#3C3A41;" width="18.984" height="16.611"/>
<rect x="246.51" y="350.29" style="fill:#C8C6CD;" width="18.984" height="67.71"/>
<rect x="256" y="350.29" style="fill:#AEADB3;" width="9.492" height="67.71"/>
<path style="fill:#FE73B1;" d="M227.523,302.828v28.477c0,15.756,12.719,28.477,28.477,28.477s28.477-12.72,28.477-28.477v-28.477
	H227.523z"/>
<path style="fill:#FE52A2;" d="M284.477,302.828v28.477c0,15.756-12.719,28.477-28.477,28.477v-56.953L284.477,302.828
	L284.477,302.828z"/>
<g>
</g>
<g>
</g>
<g>
</g>
<g>
</g>
<g>
</g>
<g>
</g>
<g>
</g>
<g>
</g>
<g>
</g>
<g>
</g>
<g>
</g>
<g>
</g>
<g>
</g>
<g>
</g>
<g>
</g>
</svg>
