<?xml version="1.0" encoding="iso-8859-1"?>
<!-- Generator: Adobe Illustrator 19.0.0, SVG Export Plug-In . SVG Version: 6.00 Build 0)  -->
<svg version="1.1" id="Capa_1" xmlns="http://www.w3.org/2000/svg" xmlns:xlink="http://www.w3.org/1999/xlink" x="0px" y="0px"
	 viewBox="0 0 512 512" style="enable-background:new 0 0 512 512;" xml:space="preserve">
<circle style="fill:#FD3018;" cx="256" cy="256" r="256"/>
<path style="fill:#DA0100;" d="M260.575,511.942c112.714-1.977,207.662-76.784,239.775-179.383l-118.06-118.06l-40.351-17.669
	l-64.21-64.223L166.667,251.333L113,364.367L260.575,511.942z"/>
<path style="fill:#8B8892;" d="M399,255.441V399h-67.031v-51.391h-84.906V399h-67.031V288.957c0-4.693-3.686-8.379-8.379-8.379
	s-8.379,3.686-8.379,8.379v75.41H113V180.031C113,142.996,142.996,113,180.031,113c10.054,0,19.774,2.179,28.656,6.536
	l38.375,39.716l11.395,11.73l48.933,25.808h32.957C372.69,196.789,399,223.099,399,255.441z"/>
<path style="fill:#787780;" d="M399,255.441V399h-67.031v-51.391h-84.906V159.252l11.395,11.73l48.933,25.808h32.957
	C372.69,196.789,399,223.099,399,255.441z"/>
<rect x="163.27" y="196.79" style="fill:#3C3A41;" width="16.758" height="16.758"/>
<path style="fill:#AEADB3;" d="M277.73,132.606c-8.379-8.379-18.936-14.579-30.667-17.26c-14.915-3.855-32.007-2.346-49.436,6.033
	l-0.838,4.852v111.281c9.715,5.927,20.383,9.55,33.516,9.55c5.698,0,11.395-0.671,16.758-2.179
	c11.395-2.849,21.953-8.882,30.667-17.429c12.568-12.735,19.606-29.493,19.606-47.424S290.298,145.342,277.73,132.606z"/>
<path style="fill:#8B8892;" d="M297.336,180.031c0,17.931-7.038,34.689-19.606,47.424c-8.714,8.547-19.272,14.58-30.667,17.429
	V115.346c11.731,2.681,22.288,8.881,30.667,17.26C290.298,145.342,297.336,162.1,297.336,180.031z"/>
<g>
</g>
<g>
</g>
<g>
</g>
<g>
</g>
<g>
</g>
<g>
</g>
<g>
</g>
<g>
</g>
<g>
</g>
<g>
</g>
<g>
</g>
<g>
</g>
<g>
</g>
<g>
</g>
<g>
</g>
</svg>
