<svg id="Capa_1" enable-background="new 0 0 512 512" height="512" viewBox="0 0 512 512" width="512" xmlns="http://www.w3.org/2000/svg"><g><g><g><g><g><g><g><g><g><circle cx="256" cy="256" fill="#bfe1ff" r="256"/></g></g></g></g></g></g></g></g><path d="m260.952 511.953c139.099-2.639 251.048-116.223 251.048-255.953 0-7.81-.35-15.538-1.035-23.17l-62.406-62.405-13.803 31.128-61.974-61.974-304.786 107.651 127.475 127.475-46.464 25.303z" fill="#87c7ff"/><g><g><circle cx="102.878" cy="206.629" fill="#915041" r="53.542"/></g><g><circle cx="102.878" cy="206.629" fill="#d79b8c" r="30.049"/></g><g><circle cx="409.122" cy="206.629" fill="#61362b" r="53.542"/></g><g><circle cx="409.122" cy="206.629" fill="#b46e5a" r="30.049"/></g></g><g><ellipse cx="256" cy="265.231" fill="#b46e5a" rx="167.965" ry="174.833"/></g><g><path d="m423.966 265.231c0-96.516-75.136-174.763-167.845-174.832v349.663c92.709-.068 167.845-78.315 167.845-174.831z" fill="#915041"/></g><g><path d="m386.469 260.975c0-40.029-32.45-72.478-72.478-72.478-23.714 0-44.648 11.311-57.87 28.918-13.223-17.607-34.397-28.918-58.111-28.918-40.029 0-72.478 32.449-72.478 72.478 0 36.939 27.634 67.424 63.356 71.91v8.032c0 36.733 29.778 66.512 66.512 66.512h1.203c36.733 0 66.512-29.778 66.512-66.512v-8.032c35.72-4.486 63.354-34.971 63.354-71.91z" fill="#e0aea2"/></g><g><path d="m313.991 188.497c-23.643 0-44.64 11.4-57.87 28.918v190.014h.481c36.733 0 66.512-29.778 66.512-66.512v-8.032c35.722-4.486 63.356-34.971 63.356-71.91-.001-40.029-32.45-72.478-72.479-72.478z" fill="#c38778"/></g><g><g><circle cx="189.351" cy="264.08" fill="#555a66" r="19.043"/></g><g><circle cx="322.649" cy="264.08" fill="#333940" r="19.043"/></g></g><g><g><circle cx="238.407" cy="310.994" fill="#555a66" r="10.425"/></g><g><circle cx="273.593" cy="310.994" fill="#333940" r="10.425"/></g></g></g></svg>