<?xml version="1.0" encoding="iso-8859-1"?>
<!-- Generator: Adobe Illustrator 19.0.0, SVG Export Plug-In . SVG Version: 6.00 Build 0)  -->
<svg version="1.1" id="Capa_1" xmlns="http://www.w3.org/2000/svg" xmlns:xlink="http://www.w3.org/1999/xlink" x="0px" y="0px"
	 viewBox="0 0 512 512" style="enable-background:new 0 0 512 512;" xml:space="preserve">
<circle style="fill:#FEDB41;" cx="256" cy="256" r="256"/>
<path style="fill:#FEA832;" d="M134.288,364.102l146.683,146.683C410.636,498.231,512,388.959,512,256
	c0-6.387-0.242-12.718-0.702-18.988L409.56,135.273L134.288,364.102z"/>
<path style="fill:#10BB67;" d="M153.367,256.567c-12.963,0-25.707-3.535-36.848-10.225C94.884,233.17,82,210.33,82,185.2
	c0-39.348,32.02-71.367,71.367-71.367c20.56,0,39.935,8.712,53.157,23.885c11.699,12.913,18.21,29.819,18.21,47.482
	C224.734,224.548,192.715,256.567,153.367,256.567z"/>
<path style="fill:#E5E5E5;" d="M153.367,236.177c-9.269,0-18.379-2.529-26.354-7.318c-15.373-9.359-24.622-25.707-24.622-43.659
	c0-28.107,22.87-50.977,50.977-50.977c14.656,0,28.425,6.153,37.784,16.886c8.602,9.508,13.192,21.506,13.192,34.091
	C204.344,213.307,181.474,236.177,153.367,236.177z"/>
<path style="fill:#0CA656;" d="M358.633,256.567c-39.348,0-71.367-32.02-71.367-71.367c0-17.663,6.511-34.568,18.34-47.631
	c13.093-15.024,32.468-23.736,53.028-23.736c39.348,0,71.367,32.02,71.367,71.367c0,25.439-13.003,48.308-34.778,61.182
	C384.131,253.033,371.457,256.567,358.633,256.567z"/>
<path style="fill:#D9D9D9;" d="M358.633,236.177c-28.107,0-50.977-22.87-50.977-50.977c0-12.585,4.64-24.642,13.063-33.941
	c9.528-10.932,23.258-17.035,37.914-17.035c28.107,0,50.977,22.87,50.977,50.977c0,18.15-9.259,34.459-24.761,43.629
	C376.793,233.658,367.763,236.177,358.633,236.177z"/>
<path style="fill:#10BB67;" d="M409.609,263.295v13.663l-17.332,20.391h-266.03l-23.857-20.391v-13.663
	c0-11.826,4.078-23.244,11.419-32.216l5.71-6.729l7.544,4.487c7.951,4.894,17.127,7.34,26.303,7.34
	c28.139,0,50.977-22.837,50.977-50.977c0-12.642-4.689-24.673-13.05-33.849l-15.497-17.127h160.407l-15.497,17.127
	c-8.361,9.176-13.05,21.207-13.05,33.849c0,28.139,22.837,50.977,50.977,50.977c9.176,0,18.148-2.447,26.101-7.34l7.544-4.487
	l5.505,6.729C405.531,240.255,409.609,251.47,409.609,263.295z"/>
<path style="fill:#0CA656;" d="M409.609,263.295v13.663l-17.332,20.391H256V134.224h80.204l-15.497,17.127
	c-8.361,9.176-13.05,21.207-13.05,33.849c0,28.139,22.837,50.977,50.977,50.977c9.176,0,18.148-2.447,26.101-7.34l7.544-4.487
	l5.505,6.729C405.531,240.255,409.609,251.47,409.609,263.295z"/>
<path style="fill:#6ECD24;" d="M102.391,276.958v10.195c0,53.219,37.519,97.671,89.311,105.623
	c20.391,3.262,42.684,4.689,64.298,4.689s43.908-1.427,64.502-4.689c51.588-7.953,89.107-52.404,89.107-105.623v-10.195H102.391z"/>
<path style="fill:#66BD21;" d="M409.609,276.958v10.195c0,53.219-37.519,97.671-89.107,105.623
	c-20.595,3.262-42.888,4.689-64.502,4.689V276.958H409.609z"/>
<rect x="122.78" y="175" style="fill:#57555C;" width="61.17" height="20.391"/>
<g>
	<rect x="328.05" y="175" style="fill:#3C3A41;" width="61.17" height="20.391"/>
	<rect x="224.73" y="236.18" style="fill:#3C3A41;" width="21.07" height="20.391"/>
</g>
<rect x="266.19" y="236.18" style="fill:#2B292C;" width="21.07" height="20.391"/>
<g>
</g>
<g>
</g>
<g>
</g>
<g>
</g>
<g>
</g>
<g>
</g>
<g>
</g>
<g>
</g>
<g>
</g>
<g>
</g>
<g>
</g>
<g>
</g>
<g>
</g>
<g>
</g>
<g>
</g>
</svg>
