<?xml version="1.0" encoding="iso-8859-1"?>
<!-- Generator: Adobe Illustrator 19.0.0, SVG Export Plug-In . SVG Version: 6.00 Build 0)  -->
<svg version="1.1" id="Capa_1" xmlns="http://www.w3.org/2000/svg" xmlns:xlink="http://www.w3.org/1999/xlink" x="0px" y="0px"
	 viewBox="0 0 512 512" style="enable-background:new 0 0 512 512;" xml:space="preserve">
<circle style="fill:#FE91C2;" cx="256" cy="256" r="256"/>
<path style="fill:#FE52A2;" d="M506.952,306.796L389.553,189.397l-32.857-16.469l-26.01-26.009l-25.34-14.478l-11.89-11.882
	l-23.245-13.616L256,92.815L155.137,85l-20.754,51.813l33.16,33.167l-43.6,234.25l106.502,106.502
	C238.851,511.566,247.375,512,256,512C379.992,512,483.387,423.846,506.952,306.796z"/>
<path style="fill:#1DE8F1;" d="M266.02,115.059h-20.04c0-5.612-4.408-10.02-10.02-10.02h-80.824c-5.612,0-10.02,4.408-10.02,10.02
	c0,5.61,4.408,10.02,10.02,10.02h10.688v20.039h-10.688c-16.633,0-30.059-13.427-30.059-30.059
	c0-16.633,13.426-30.059,30.059-30.059h80.824c7.816,0,14.829,3.005,20.039,7.816C262.212,98.225,266.02,106.241,266.02,115.059z"/>
<path style="fill:#1BD9DE;" d="M266.02,115.059H256V92.816C262.212,98.225,266.02,106.241,266.02,115.059z"/>
<rect x="225.94" y="382.1" style="fill:#896748;" width="20.04" height="44.902"/>
<rect x="266.02" y="382.1" style="fill:#73553A;" width="20.04" height="44.902"/>
<path style="fill:#32D736;" d="M427,296.078c0-19.439-9.819-37.54-25.85-47.56c7.013-17.434,4.809-37.473-6.613-53.303
	c-11.623-15.631-30.526-24.047-49.363-22.644c-4.409-18.236-18.036-33.065-36.471-39.076c-4.409-1.603-9.018-2.405-14.228-2.806H256
	l-39.076,0.201c-4.609,0.201-9.217,1.002-13.626,2.605c-18.436,6.011-32.062,20.84-36.471,39.076
	c-19.037-1.403-37.74,7.013-49.363,22.644c-11.422,15.83-13.626,35.869-6.613,53.303C94.819,258.538,85,276.64,85,296.078
	c0,19.437,9.819,37.539,25.85,47.559c-3.607,9.218-4.809,19.439-3.206,29.458c1.403,8.617,4.609,16.633,9.819,23.847
	c10.421,14.028,26.919,22.444,44.554,22.644c17.434,0.4,33.866-7.414,44.487-21.042l17.834-22.844h63.324l17.834,22.844
	c10.421,13.427,26.252,21.042,43.486,21.042h1.002c17.634-0.201,34.133-8.617,44.554-22.644
	c11.422-15.832,13.626-35.871,6.613-53.305C417.181,333.617,427,315.515,427,296.078z"/>
<path style="fill:#10BB67;" d="M401.15,343.637c7.013,17.434,4.809,37.473-6.613,53.305c-10.421,14.028-26.919,22.444-44.554,22.644
	h-1.002c-17.233,0-33.065-7.615-43.486-21.042L287.662,375.7H256V130.688h38.475c5.21,0.401,9.819,1.202,14.228,2.806
	c18.436,6.011,32.062,20.84,36.471,39.076c18.837-1.403,37.74,7.013,49.363,22.644c11.422,15.83,13.626,35.869,6.613,53.303
	c16.031,10.02,25.85,28.121,25.85,47.56C427,315.515,417.181,333.617,401.15,343.637z"/>
<rect x="145.12" y="286.06" style="fill:#E5E5E5;" width="70.805" height="20.04"/>
<rect x="296.14" y="286.06" style="fill:#D9D9D9;" width="70.75" height="20.04"/>
<polygon style="fill:#E5E5E5;" points="172.722,369.632 160.942,353.429 210.031,317.764 221.812,333.967 "/>
<g>
	<polygon style="fill:#D9D9D9;" points="301.969,274.393 290.188,258.189 339.278,222.524 351.058,238.727 	"/>
	<polygon style="fill:#D9D9D9;" points="339.278,369.632 290.188,333.967 301.969,317.764 351.058,353.429 	"/>
</g>
<polygon style="fill:#E5E5E5;" points="210.031,274.393 160.942,238.727 172.722,222.524 221.812,258.189 "/>
<path style="fill:#17ACE8;" d="M306.098,165.156v20.039v165.656c0,25.449-22.444,46.09-50.098,46.09s-50.098-20.641-50.098-46.09
	V185.195v-20.039v-14.028c0-25.45,22.444-46.09,50.098-46.09s50.098,20.64,50.098,46.09V165.156z"/>
<path style="fill:#1689FC;" d="M306.098,165.156v20.039v165.656c0,25.449-22.444,46.09-50.098,46.09V105.039
	c27.654,0,50.098,20.64,50.098,46.09V165.156z"/>
<rect x="245.98" y="205.23" style="fill:#E5E5E5;" width="20.04" height="40.08"/>
<rect x="225.94" y="165.16" style="fill:#57555C;" width="20.04" height="20.04"/>
<rect x="266.02" y="165.16" style="fill:#3C3A41;" width="20.04" height="20.04"/>
<rect x="256" y="205.23" style="fill:#C8C6CD;" width="10.02" height="40.08"/>
<g>
</g>
<g>
</g>
<g>
</g>
<g>
</g>
<g>
</g>
<g>
</g>
<g>
</g>
<g>
</g>
<g>
</g>
<g>
</g>
<g>
</g>
<g>
</g>
<g>
</g>
<g>
</g>
<g>
</g>
</svg>
