<?xml version="1.0" encoding="iso-8859-1"?>
<!-- Generator: Adobe Illustrator 19.0.0, SVG Export Plug-In . SVG Version: 6.00 Build 0)  -->
<svg version="1.1" id="Capa_1" xmlns="http://www.w3.org/2000/svg" xmlns:xlink="http://www.w3.org/1999/xlink" x="0px" y="0px"
	 viewBox="0 0 512 512" style="enable-background:new 0 0 512 512;" xml:space="preserve">
<circle style="fill:#17ACE8;" cx="256" cy="256" r="256"/>
<path style="fill:#136EF1;" d="M290.684,509.652c117.746-15.951,210.053-111.944,220.343-231.396L389.643,156.873l-57.674,26.658
	l-26.673-26.657l-51.857,3.831l-34.92-34.917l-94.705,57.492l32.366,32.393l3.058,69.832l20.794,20.798V399L290.684,509.652z"/>
<path style="fill:#FEA832;" d="M365.484,146.516c-18.433,0-33.516,15.081-33.516,33.516v8.379c0,4.692-3.686,8.379-8.379,8.379
	s-8.938-3.687-8.938-8.379v-8.379c0-18.434-15.082-33.516-33.516-33.516s-34.074,15.081-34.074,33.516v8.379
	c0,4.692-3.686,8.379-8.379,8.379s-8.379-3.687-8.379-8.379v-33.516c0-23.126-18.769-41.895-41.895-41.895h-2.011L113,149.7v5.195
	c0,34.186,29.326,40.386,47.927,41.559l-14.076,56.977l-0.335,2.011c0,20.276,14.411,37.202,33.516,41.057V399h48.933
	l16.758-101.664h53.011c3.52,16.926,17.82,30.164,34.912,33.012L350.57,399H399V180.031
	C399,161.597,383.918,146.516,365.484,146.516z"/>
<path style="fill:#FE9923;" d="M399,180.031V399h-48.43l-16.926-68.652c-17.092-2.849-31.392-16.087-34.912-33.012h-17.595v-150.82
	c18.433,0,33.516,15.081,33.516,33.516v8.379c0,4.692,4.245,8.379,8.938,8.379s8.379-3.687,8.379-8.379v-8.379
	c0-18.434,15.082-33.516,33.516-33.516S399,161.597,399,180.031z"/>
<rect x="180.03" y="146.52" style="fill:#3C3A41;" width="16.758" height="16.758"/>
<g>
</g>
<g>
</g>
<g>
</g>
<g>
</g>
<g>
</g>
<g>
</g>
<g>
</g>
<g>
</g>
<g>
</g>
<g>
</g>
<g>
</g>
<g>
</g>
<g>
</g>
<g>
</g>
<g>
</g>
</svg>
