<?xml version="1.0" encoding="iso-8859-1"?>
<!-- Generator: Adobe Illustrator 19.0.0, SVG Export Plug-In . SVG Version: 6.00 Build 0)  -->
<svg version="1.1" id="Capa_1" xmlns="http://www.w3.org/2000/svg" xmlns:xlink="http://www.w3.org/1999/xlink" x="0px" y="0px"
	 viewBox="0 0 512 512" style="enable-background:new 0 0 512 512;" xml:space="preserve">
<circle style="fill:#FD3018;" cx="256" cy="256" r="256"/>
<path style="fill:#DA0100;" d="M275.571,511.262C407.812,501.264,512,390.8,512,256c0-18.157-1.903-35.868-5.498-52.956
	l-92.006-92.006L293.5,167.5l-176.759,18.069l37.012,37.013L152.96,388.65L275.571,511.262z"/>
<path style="fill:#8B8892;" d="M169.604,204.496h-7.092c-35.842,0-65.008-29.167-65.008-65.008v-28.45l114.118,35.261
	L169.604,204.496z"/>
<path style="fill:#787780;" d="M349.488,204.496h-7.092l-42.018-58.197l114.118-35.261v28.45
	C414.496,175.329,385.329,204.496,349.488,204.496z"/>
<path style="fill:#AEADB3;" d="M372.644,349.185l-8.544-63.336c-3.901-23.775-5.944-47.921-5.944-72.066
	c0-46.064-37.519-83.582-83.582-83.582h-37.148c-46.063,0-83.582,37.518-83.582,83.582v0.186c0,23.96-2.043,48.105-5.944,72.066
	l-8.544,63.15c-2.971,22.103,10.216,43.277,31.39,50.335l24.518,8.173C208.637,420.137,226.653,428,245.041,428h21.918
	c18.388,0,36.404-7.863,49.778-20.307l24.518-8.173C362.427,392.462,375.615,371.288,372.644,349.185z"/>
<path style="fill:#8B8892;" d="M341.254,399.52l-24.518,8.173C303.363,420.137,285.347,428,266.959,428H256V130.201h18.574
	c46.063,0,83.582,37.518,83.582,83.582c0,24.146,2.043,48.291,5.944,72.066l8.544,63.336
	C375.615,371.288,362.427,392.462,341.254,399.52z"/>
<rect x="172.42" y="278.79" style="fill:#3C3A41;" width="18.574" height="18.574"/>
<rect x="321.01" y="278.79" style="fill:#2B292C;" width="18.574" height="18.574"/>
<path style="fill:#3C3A41;" d="M246.713,380.946h-18.574c0-5.124-4.163-9.287-9.287-9.287v-18.574
	C234.216,353.086,246.713,365.583,246.713,380.946z"/>
<path style="fill:#2B292C;" d="M283.861,380.946h-18.574c0-15.363,12.497-27.861,27.861-27.861v18.574
	C288.023,371.66,283.861,375.822,283.861,380.946z"/>
<path style="fill:#8B8892;" d="M256,170.134l-47.363,118.315l23.031,46.064h48.663l23.031-46.064L256,170.134z"/>
<polygon style="fill:#787780;" points="303.363,288.448 280.332,334.512 256,334.512 256,170.134 "/>
<g>
</g>
<g>
</g>
<g>
</g>
<g>
</g>
<g>
</g>
<g>
</g>
<g>
</g>
<g>
</g>
<g>
</g>
<g>
</g>
<g>
</g>
<g>
</g>
<g>
</g>
<g>
</g>
<g>
</g>
</svg>
