<?xml version="1.0" encoding="iso-8859-1"?>
<!-- Generator: Adobe Illustrator 19.0.0, SVG Export Plug-In . SVG Version: 6.00 Build 0)  -->
<svg version="1.1" id="Capa_1" xmlns="http://www.w3.org/2000/svg" xmlns:xlink="http://www.w3.org/1999/xlink" x="0px" y="0px"
	 viewBox="0 0 512 512" style="enable-background:new 0 0 512 512;" xml:space="preserve">
<circle style="fill:#FE91C2;" cx="256" cy="256" r="256"/>
<path style="fill:#FE52A2;" d="M84.663,306.431L288.22,509.988c115.07-14.451,206.366-105.277,221.547-220.118L381.366,161.422
	L84.663,306.431z"/>
<path style="fill:#32D736;" d="M228.945,322.094H123.078C92.71,322.094,68,297.384,68,267.016s24.71-55.078,55.078-55.078h56.49
	L228.945,322.094z"/>
<rect x="388.19" y="300.06" style="fill:#0CA656;" width="55.813" height="22.03"/>
<path style="fill:#10BB67;" d="M200.922,388.188c-24.301,0-44.063-19.761-44.063-44.063v-44.063h88.125v44.063
	C244.984,368.426,225.223,388.188,200.922,388.188z"/>
<path style="fill:#0CA656;" d="M377.172,388.188c-24.301,0-44.063-19.761-44.063-44.063v-44.063h88.125v44.063
	C421.234,368.426,401.473,388.188,377.172,388.188z"/>
<path style="fill:#896748;" d="M421.234,256v66.094H156.859V256c0-19.167,4.186-37.453,12.337-54.638l24.675-0.44
	C213.48,234.85,249.391,256,289.047,256h0.662c38.555-0.221,73.363-20.489,93.192-52.876l25.997-1.763
	C417.048,218.547,421.234,236.833,421.234,256z"/>
<path style="fill:#73553A;" d="M421.234,256v66.094H289.708V256c38.555-0.221,73.363-20.489,93.192-52.876l25.997-1.763
	C417.048,218.547,421.234,236.833,421.234,256z"/>
<rect x="112.06" y="256" style="fill:#3C3A41;" width="22.03" height="22.03"/>
<path style="fill:#664B34;" d="M409.117,201.362l-2.423,4.848c-22.693,44.063-67.416,71.602-116.986,71.822h-0.662
	c-49.791,0-94.955-27.539-117.647-71.822l-2.423-4.848l2.423-5.067c7.271-14.761,17.626-28.199,30.184-38.996l23.133,3.085
	c7.269,29.962,33.928,51.554,64.331,51.554h0.662c29.521-0.221,56.4-22.031,63.669-51.554l23.133-3.524l0.221,0.221
	c1.983,1.762,3.965,3.524,5.728,5.508c10.135,9.913,18.286,21.37,24.235,33.707L409.117,201.362z"/>
<path style="fill:#59422D;" d="M409.117,201.362l-2.423,4.848c-22.693,44.063-67.416,71.602-116.986,71.822v-66.094
	c29.521-0.221,56.4-22.031,63.669-51.554l23.133-3.524l0.221,0.221c1.983,1.762,3.965,3.524,5.728,5.508
	c10.135,9.913,18.286,21.37,24.235,33.707L409.117,201.362z"/>
<path style="fill:#896748;" d="M376.51,156.859c-5.948,43.842-43.621,76.668-86.802,77.109h-0.662
	c-43.182,0-81.295-32.826-87.463-76.67c2.863-3.083,15.421-12.117,18.947-14.32c8.372-5.067,17.625-9.253,27.319-12.337
	l20.048,10.575l-0.44,1.322c-0.221,0.882-0.441,1.983-0.441,3.305c0,11.455,10.575,22.031,22.031,22.031h0.662
	c11.235-0.441,21.37-10.795,21.37-22.031c0-1.322-0.221-2.864-0.441-3.965l-0.44-1.763l19.827-9.473
	c9.473,2.864,18.507,7.05,27.099,12.337C364.614,146.945,373.867,154.216,376.51,156.859z"/>
<path style="fill:#73553A;" d="M289.708,233.969v-66.094c11.235-0.441,21.37-10.795,21.37-22.031c0-1.322-0.221-2.864-0.441-3.965
	l-0.44-1.763l19.827-9.473c9.473,2.864,18.507,7.05,27.099,12.337c7.49,3.965,16.743,11.236,19.386,13.88
	C370.563,200.701,332.889,233.528,289.708,233.969z"/>
<path style="fill:#664B34;" d="M333.109,145.844c0,23.574-19.829,43.621-43.401,44.063h-0.662c-23.794,0-44.063-20.27-44.063-44.063
	c0-3.526,0.441-6.83,1.322-9.914l1.542-5.287c7.71-2.644,16.965-4.848,24.895-5.728c5.508-0.662,11.236-1.101,16.965-1.101
	c5.508,0,11.455,0.44,17.184,1.322c9.914,1.542,18.947,3.965,23.133,5.508C332.008,134.828,333.109,140.115,333.109,145.844z"/>
<path style="fill:#59422D;" d="M289.708,189.906v-66.094c5.508,0,11.455,0.44,17.184,1.322c9.914,1.542,18.947,3.965,23.133,5.508
	c1.983,4.186,3.085,9.473,3.085,15.202C333.109,169.417,313.281,189.465,289.708,189.906z"/>
<g>
</g>
<g>
</g>
<g>
</g>
<g>
</g>
<g>
</g>
<g>
</g>
<g>
</g>
<g>
</g>
<g>
</g>
<g>
</g>
<g>
</g>
<g>
</g>
<g>
</g>
<g>
</g>
<g>
</g>
</svg>
