<?xml version="1.0" encoding="iso-8859-1"?>
<!-- Generator: Adobe Illustrator 19.0.0, SVG Export Plug-In . SVG Version: 6.00 Build 0)  -->
<svg version="1.1" id="Capa_1" xmlns="http://www.w3.org/2000/svg" xmlns:xlink="http://www.w3.org/1999/xlink" x="0px" y="0px"
	 viewBox="0 0 512 512" style="enable-background:new 0 0 512 512;" xml:space="preserve">
<circle style="fill:#17ACE8;" cx="256" cy="256" r="256"/>
<path style="fill:#136EF1;" d="M486.975,366.516l-91.457-91.457l-43.066,0.304l-126.461-127l-110.326,64.303l-6.071,131.374
	c0,0,110.897,110.901,167.119,167.122C369.631,503.722,448.552,446.676,486.975,366.516z"/>
<rect x="246.22" y="226.65" style="fill:#10BB67;" width="19.57" height="29.355"/>
<rect x="256" y="226.65" style="fill:#0CA656;" width="9.785" height="29.355"/>
<g>
	<rect x="167.28" y="226.65" style="fill:#10BB67;" width="19.57" height="29.355"/>
	<rect x="206.42" y="226.65" style="fill:#10BB67;" width="19.57" height="29.355"/>
</g>
<path style="fill:#6ECD24;" d="M402.256,286.53c-3.718-11.938-14.874-20.744-28.181-20.744c-12.721,0-23.681,8.219-27.594,19.57
	h-2.74c-4.502-22.31-24.267-39.141-47.948-39.141H157.496c-5.48,0-9.785-4.306-9.785-9.785v-19.57c0-5.48,4.305-9.785,9.785-9.785
	h19.57c27.007,0,48.926-21.919,48.926-48.926v-9.785h-68.496C119.725,148.364,89,179.09,89,216.86v78.281
	c0,37.771,30.726,68.496,68.496,68.496H423v-48.926C423,301.403,414.193,290.248,402.256,286.53z"/>
<path style="fill:#66BD21;" d="M423,314.711v48.926H256V246.215h39.793c23.681,0,43.446,16.83,47.948,39.141h2.74
	c3.913-11.351,14.872-19.57,27.594-19.57c13.308,0,24.463,8.807,28.181,20.744C414.193,290.248,423,301.403,423,314.711z"/>
<g>
	<path style="fill:#10BB67;" d="M206.422,353.852v9.785h-19.57v-9.785c0-16.244-13.112-29.355-29.355-29.355h-9.785v-19.57h9.785
		C184.503,304.926,206.422,326.844,206.422,353.852z"/>
	<path style="fill:#10BB67;" d="M285.355,353.852v9.785h-19.57v-9.785c0-8.611-3.718-16.44-9.785-21.723
		c-5.088-4.698-11.938-7.633-19.57-7.633h-10.438v-19.57h10.438c6.849,0,13.504,1.37,19.57,4.109
		C273.222,316.472,285.355,333.694,285.355,353.852z"/>
</g>
<rect x="285.36" y="285.36" style="fill:#3C3A41;" width="20.223" height="19.57"/>
<path style="fill:#0CA656;" d="M285.355,353.852v9.785h-19.57v-9.785c0-8.611-3.718-16.44-9.785-21.723v-23.094
	C273.222,316.472,285.355,333.694,285.355,353.852z"/>
<g>
</g>
<g>
</g>
<g>
</g>
<g>
</g>
<g>
</g>
<g>
</g>
<g>
</g>
<g>
</g>
<g>
</g>
<g>
</g>
<g>
</g>
<g>
</g>
<g>
</g>
<g>
</g>
<g>
</g>
</svg>
