<?xml version="1.0" encoding="iso-8859-1"?>
<!-- Generator: Adobe Illustrator 19.0.0, SVG Export Plug-In . SVG Version: 6.00 Build 0)  -->
<svg version="1.1" id="Capa_1" xmlns="http://www.w3.org/2000/svg" xmlns:xlink="http://www.w3.org/1999/xlink" x="0px" y="0px"
	 viewBox="0 0 512 512" style="enable-background:new 0 0 512 512;" xml:space="preserve">
<circle style="fill:#FE91C2;" cx="256" cy="256" r="256"/>
<path style="fill:#FE52A2;" d="M512,256c0-6.909-0.283-13.75-0.82-20.521L375.206,99.504l-54.285,37.839L256,158.251l-54.116-21.44
	l-23.236-23.229L137.17,271.57l-10.35,106.621l133.751,133.751C399.845,509.501,512,395.856,512,256z"/>
<path style="fill:#664B34;" d="M396.113,314.135l-26.592-53.185H142.479l-26.592,53.185c-18.339,36.679,8.437,79.41,48.967,79.41
	h182.292C387.676,393.545,414.452,350.814,396.113,314.135z"/>
<path style="fill:#59422D;" d="M347.146,393.545H256V260.951h113.521l26.592,53.185
	C414.452,350.814,387.676,393.545,347.146,393.545z"/>
<path style="fill:#FEDBAB;" d="M256,237.905l-2.384-0.917l-98.482,40.347v34.294c0,55.568,45.298,100.866,100.866,100.866
	s100.866-45.299,100.866-100.866v-34.478L256,237.905z"/>
<path style="fill:#FEC478;" d="M356.866,277.151v34.478c0,55.568-45.298,100.866-100.866,100.866v-174.59L356.866,277.151z"/>
<polygon style="fill:#FEA832;" points="293.963,289.378 256,341.095 219.321,290.294 214.369,274.889 290.294,274.889 "/>
<polygon style="fill:#FE8821;" points="293.963,289.378 256,341.095 256,274.889 290.294,274.889 "/>
<path style="fill:#896748;" d="M375.206,167.421V99.504h-9.17c-22.373,0-41.08,16.75-45.115,37.84
	c-23.29-2.75-47.315,4.952-64.921,20.907c-17.606-15.955-41.631-23.657-64.921-20.907c-4.035-21.09-22.742-37.84-45.115-37.84h-9.17
	v67.916c-11.921,14.671-18.339,33.011-18.339,51.901c0,45.481,37.046,82.527,82.527,82.527c20.356,0,39.796-7.703,55.018-21.458
	c15.222,13.755,34.662,21.458,55.018,21.458c45.481,0,82.527-37.046,82.527-82.527C393.545,200.431,387.127,182.092,375.206,167.421
	z"/>
<path style="fill:#73553A;" d="M393.545,219.321c0,45.481-37.046,82.527-82.527,82.527c-20.356,0-39.796-7.703-55.018-21.458
	V158.251c17.606-15.955,41.631-23.657,64.921-20.907c4.035-21.09,22.742-37.84,45.115-37.84h9.17v67.916
	C387.127,182.092,393.545,200.431,393.545,219.321z"/>
<path style="fill:#FCBF29;" d="M311.018,265.17c-25.279,0-45.848-20.569-45.848-45.848s20.569-45.848,45.848-45.848
	s45.848,20.569,45.848,45.848S336.297,265.17,311.018,265.17z"/>
<path style="fill:#FEDB41;" d="M200.982,265.17c-25.279,0-45.848-20.569-45.848-45.848s20.569-45.848,45.848-45.848
	s45.848,20.569,45.848,45.848S226.261,265.17,200.982,265.17z"/>
<rect x="301.85" y="210.15" style="fill:#2B292C;" width="18.339" height="18.339"/>
<rect x="191.81" y="210.15" style="fill:#3C3A41;" width="18.339" height="18.339"/>
<g>
</g>
<g>
</g>
<g>
</g>
<g>
</g>
<g>
</g>
<g>
</g>
<g>
</g>
<g>
</g>
<g>
</g>
<g>
</g>
<g>
</g>
<g>
</g>
<g>
</g>
<g>
</g>
<g>
</g>
</svg>
