<?xml version="1.0" encoding="iso-8859-1"?>
<!-- Generator: Adobe Illustrator 19.0.0, SVG Export Plug-In . SVG Version: 6.00 Build 0)  -->
<svg version="1.1" id="Capa_1" xmlns="http://www.w3.org/2000/svg" xmlns:xlink="http://www.w3.org/1999/xlink" x="0px" y="0px"
	 viewBox="0 0 512 512" style="enable-background:new 0 0 512 512;" xml:space="preserve">
<circle style="fill:#32D736;" cx="256" cy="256" r="256"/>
<path style="fill:#0CA656;" d="M262.946,511.904c107.544-2.865,198.551-72.052,233.615-168.154l-231.01-231.012h-19.203l-19-19.738
	l-19.102,19.738L189.145,93l-19.102,19.738l-57.305,54.63l57.305,57.102l30.29,75.655L170.043,419L262.946,511.904z"/>
<rect x="208.25" y="93" style="fill:#FE9923;" width="19.1" height="29.29"/>
<g>
	<rect x="217.8" y="112.74" style="fill:#E5741A;" width="47.754" height="19.1"/>
	<rect x="217.8" y="93" style="fill:#E5741A;" width="9.551" height="29.29"/>
</g>
<rect x="170.04" y="93" style="fill:#FE9923;" width="19.1" height="29.29"/>
<path style="fill:#E5741A;" d="M399.262,341.957H380.16v-28.652c0-5.27-4.281-9.551-9.551-9.551h-24.213v-19.102h24.213
	c15.8,0,28.652,12.853,28.652,28.652L399.262,341.957L399.262,341.957z"/>
<path style="fill:#FEC478;" d="M361.059,313.305V419h-54.63l-15.281-46.863c0,0-1.72-4.965-3.821-11.078h-43.552L224.673,419h-54.63
	v-57.941l19.675-8.023l19.674-11.46l8.022-19.865l-10.888-13.754l-36.483-23.303V186.47l-57.305-19.102v-54.63h112.508
	l24.641,98.755l-25.214,11.46l-5.921,25.023l22.922,6.304l18.91-0.381l0.955,4.393c1.146,4.202,4.585,6.876,8.787,7.259l14.9,37.821
	l31.134,8.978l14.517-18.529l8.978-19.674C352.845,283.124,361.059,297.641,361.059,313.305z"/>
<path style="fill:#FEB756;" d="M361.059,313.305V419h-54.63l-15.281-46.863c0,0-1.72-4.965-3.821-11.078h-43.552L224.673,419h-6.876
	V112.738h7.45l24.641,98.755l-25.214,11.46l-5.921,25.023l22.922,6.304l18.91-0.381l0.955,4.393
	c1.146,4.202,4.585,6.876,8.787,7.259l14.9,37.821l31.134,8.978l14.517-18.529l8.978-19.674
	C352.845,283.124,361.059,297.641,361.059,313.305z"/>
<path style="fill:#FE9923;" d="M217.797,300.125c-8.596-9.36-22.54-15.472-38.203-15.472h-9.551v76.406h9.551
	c15.855,0,29.607-5.921,38.203-15.091c5.921-6.303,9.551-14.326,9.551-23.112C227.348,314.451,223.91,306.428,217.797,300.125z"/>
<path style="fill:#E5741A;" d="M303.754,322.855c-21.07,0-38.203-17.134-38.203-38.203c0-4.682,0.802-9.084,2.388-13.076
	l2.397-6.025h42.969c8.086,0,16.089,2.061,23.149,5.969l3.6,1.996l1.026,3.992c0.588,2.304,0.877,4.645,0.877,7.144
	C341.957,305.722,324.823,322.855,303.754,322.855z"/>
<path style="fill:#FE9923;" d="M249.887,211.493l-4.584-1.91c-2.483-0.956-5.158-1.337-8.405-1.337
	c-7.45,0-14.135,2.865-19.102,7.45c-5.921,5.157-9.551,12.798-9.551,21.202s3.629,16.045,9.551,21.202
	c4.967,4.584,11.652,7.45,19.102,7.45c7.259,0,14.326-2.674,19.484-7.832l4.202-3.819L249.887,211.493z"/>
<g>
	<path style="fill:#E5741A;" d="M217.797,300.125c6.113,6.304,9.551,14.326,9.551,22.731c0,8.786-3.629,16.809-9.551,23.112V300.125
		z"/>
	<path style="fill:#E5741A;" d="M260.584,253.899l-4.202,3.819c-5.158,5.158-12.225,7.832-19.484,7.832
		c-7.45,0-14.135-2.866-19.102-7.45v-42.405c4.967-4.585,11.652-7.45,19.102-7.45c3.247,0,5.921,0.381,8.405,1.337l4.584,1.91
		L260.584,253.899z"/>
</g>
<g>
</g>
<g>
</g>
<g>
</g>
<g>
</g>
<g>
</g>
<g>
</g>
<g>
</g>
<g>
</g>
<g>
</g>
<g>
</g>
<g>
</g>
<g>
</g>
<g>
</g>
<g>
</g>
<g>
</g>
</svg>
